<svg xmlns="http://www.w3.org/2000/svg" viewBox="0 0 173.88 173.9"><defs><style>.cls-1{fill:#fff;}</style></defs><title>close</title><g id="Layer_2" data-name="Layer 2"><g id="Layer_1-2" data-name="Layer 1"><path class="cls-1" d="M170.7,3.18a10.77,10.77,0,0,0-15.28,0L86.94,71.66,18.46,3.18A10.8,10.8,0,0,0,3.18,18.46L71.66,86.94,3.18,155.42a10.77,10.77,0,0,0,0,15.28,10.87,10.87,0,0,0,7.6,3.2,10.54,10.54,0,0,0,7.6-3.2l68.48-68.48,68.48,68.48a10.87,10.87,0,0,0,7.6,3.2,10.41,10.41,0,0,0,7.6-3.2,10.77,10.77,0,0,0,0-15.28L102.22,86.94,170.7,18.46a10.77,10.77,0,0,0,0-15.28Z"/></g></g></svg>