<svg width="537" height="289" viewBox="0 0 537 289" fill="none" xmlns="http://www.w3.org/2000/svg">
<path d="M502.229 26.704C505.102 23.8312 509.791 23.8041 512.69 26.7041C515.563 29.5769 515.59 34.2656 512.69 37.1656C509.791 40.0655 505.129 40.0655 502.229 37.1655C499.356 34.2927 499.356 29.5769 502.229 26.704Z" fill="#00FFF0" fill-opacity="0.49"/>
<path d="M453.065 75.8686C455.938 72.9957 460.627 72.9687 463.527 75.8686C466.4 78.7415 466.427 83.4301 463.527 86.3301C460.654 89.203 455.965 89.23 453.065 86.3301C450.219 83.4301 450.192 78.7414 453.065 75.8686Z" fill="#00FFF0" fill-opacity="0.49"/>
<path d="M403.929 125.003C406.802 122.13 411.49 122.103 414.39 125.003C417.263 127.876 417.29 132.565 414.39 135.465C411.517 138.338 406.829 138.365 403.929 135.465C401.056 132.592 401.029 127.903 403.929 125.003Z" fill="#00FFF0" fill-opacity="0.49"/>
<path d="M354.765 174.168C357.638 171.295 362.327 171.268 365.227 174.168C368.099 177.041 368.126 181.73 365.226 184.63C362.354 187.502 357.665 187.53 354.765 184.63C351.892 181.757 351.892 177.041 354.765 174.168Z" fill="#00FFF0" fill-opacity="0.49"/>
<path d="M305.628 223.306C308.501 220.434 313.19 220.406 316.09 223.306C318.963 226.179 318.99 230.868 316.09 233.768C313.217 236.641 308.528 236.668 305.628 233.768C302.755 230.895 302.728 226.206 305.628 223.306Z" fill="#00FFF0" fill-opacity="0.49"/>
<path d="M256.465 272.467C259.338 269.594 264.026 269.567 266.926 272.467C269.799 275.34 269.826 280.029 266.926 282.929C264.026 285.829 259.365 285.829 256.465 282.929C253.592 280.056 253.592 275.34 256.465 272.467Z" fill="#00FFF0" fill-opacity="0.49"/>
<path d="M408.238 31.0419C411.111 28.1691 415.799 28.142 418.699 31.0419C421.572 33.9148 421.599 38.6035 418.699 41.5034C415.827 44.3763 411.138 44.4034 408.238 41.5034C405.392 38.6035 405.365 33.9148 408.238 31.0419Z" fill="#00FFF0" fill-opacity="0.49"/>
<path d="M359.101 80.1766C361.974 77.3037 366.663 77.2766 369.563 80.1766C372.436 83.0494 372.463 87.7381 369.563 90.6381C366.69 93.5109 362.001 93.538 359.101 90.6381C356.229 87.7652 356.201 83.0765 359.101 80.1766Z" fill="#00FFF0" fill-opacity="0.49"/>
<path d="M309.938 129.341C312.81 126.468 317.499 126.441 320.399 129.341C323.272 132.214 323.299 136.903 320.399 139.803C317.526 142.676 312.838 142.703 309.938 139.803C307.065 136.93 307.065 132.214 309.938 129.341Z" fill="#00FFF0" fill-opacity="0.49"/>
<path d="M260.801 178.48C263.674 175.607 268.363 175.58 271.263 178.48C274.136 181.352 274.162 186.041 271.263 188.941C268.39 191.814 263.701 191.841 260.801 188.941C257.928 186.068 257.901 181.38 260.801 178.48Z" fill="#00FFF0" fill-opacity="0.49"/>
<path d="M211.637 227.64C214.51 224.767 219.199 224.74 222.099 227.64C224.972 230.513 224.999 235.202 222.099 238.102C219.199 241.002 214.537 241.002 211.637 238.102C208.765 235.229 208.765 230.513 211.637 227.64Z" fill="#00FFF0" fill-opacity="0.49"/>
<path d="M363.438 -13.7578C366.311 -16.6306 370.999 -16.6577 373.899 -13.7577C376.772 -10.8849 376.799 -6.19619 373.899 -3.29624C371.026 -0.423392 366.338 -0.396289 363.438 -3.29624C360.565 -6.2233 360.565 -10.8849 363.438 -13.7578Z" fill="#00FFF0" fill-opacity="0.49"/>
<path d="M314.301 35.3769C317.174 32.504 321.863 32.477 324.763 35.3769C327.636 38.2498 327.663 42.9384 324.763 45.8384C321.89 48.7113 317.201 48.7384 314.301 45.8384C311.401 42.9384 311.401 38.2768 314.301 35.3769Z" fill="#00FFF0" fill-opacity="0.49"/>
<path d="M265.137 84.5417C268.01 81.6689 272.699 81.6416 275.599 84.5416C278.472 87.4145 278.499 92.1033 275.599 95.0032C272.726 97.8761 268.037 97.9032 265.137 95.0032C262.237 92.1033 262.265 87.4146 265.137 84.5417Z" fill="#00FFF0" fill-opacity="0.49"/>
<path d="M216.001 133.68C218.874 130.807 223.563 130.78 226.462 133.68C229.335 136.553 229.362 141.242 226.462 144.142C223.589 147.014 218.901 147.041 216.001 144.142C213.101 141.242 213.101 136.58 216.001 133.68Z" fill="#00FFF0" fill-opacity="0.49"/>
<path d="M166.837 182.841C169.71 179.968 174.399 179.941 177.299 182.841C180.172 185.714 180.199 190.402 177.299 193.302C174.399 196.202 169.737 196.202 166.837 193.302C163.937 190.402 163.964 185.714 166.837 182.841Z" fill="#00FFF0" fill-opacity="0.49"/>
<path d="M269.474 -9.44977C272.347 -12.3226 277.035 -12.3497 279.935 -9.44977C282.808 -6.57692 282.835 -1.88821 279.935 1.01174C277.063 3.88459 272.374 3.91165 269.474 1.0117C266.601 -1.86115 266.574 -6.54982 269.474 -9.44977Z" fill="#00FFF0" fill-opacity="0.49"/>
<path d="M220.31 39.7151C223.183 36.8422 227.872 36.8149 230.772 39.7149C233.645 42.5878 233.672 47.2766 230.772 50.1766C227.899 53.0494 223.21 53.0765 220.31 50.1765C217.437 47.3037 217.437 42.5879 220.31 39.7151Z" fill="#00FFF0" fill-opacity="0.49"/>
<path d="M171.173 88.8534C174.046 85.9805 178.735 85.9533 181.635 88.8532C184.508 91.7261 184.535 96.4149 181.635 99.3149C178.762 102.188 174.073 102.215 171.173 99.3148C168.301 96.442 168.274 91.7533 171.173 88.8534Z" fill="#00FFF0" fill-opacity="0.49"/>
<path d="M122.01 138.014C124.883 135.141 129.571 135.114 132.471 138.014C135.344 140.887 135.371 145.576 132.471 148.476C129.572 151.376 124.91 151.376 122.01 148.476C119.137 145.603 119.137 140.887 122.01 138.014Z" fill="#00FFF0" fill-opacity="0.49"/>
<path d="M175.483 -5.11526C178.356 -7.98811 183.044 -8.01533 185.944 -5.11538C188.817 -2.24253 188.844 2.44631 185.944 5.34626C183.071 8.21911 178.383 8.24621 175.483 5.34626C172.61 2.47341 172.61 -2.24241 175.483 -5.11526Z" fill="#00FFF0" fill-opacity="0.49"/>
<path d="M126.346 44.0232C129.219 41.1503 133.908 41.1231 136.808 44.023C139.681 46.8959 139.708 51.5847 136.808 54.4847C133.935 57.3575 129.246 57.3846 126.346 54.4847C123.473 51.6118 123.446 46.9231 126.346 44.0232Z" fill="#00FFF0" fill-opacity="0.49"/>
<path d="M77.1826 93.1839C80.0555 90.311 84.7442 90.284 87.6441 93.1839C90.517 96.0568 90.5441 100.745 87.6441 103.645C84.7442 106.545 80.0826 106.545 77.1827 103.645C74.3098 100.773 74.3098 96.0567 77.1826 93.1839Z" fill="#00FFF0" fill-opacity="0.49"/>
<path d="M81.5459 -0.777489C84.4188 -3.65034 89.1077 -3.67757 92.0076 -0.777612C94.8805 2.09524 94.9074 6.78407 92.0074 9.68403C89.1346 12.5569 84.4459 12.584 81.546 9.68403C78.646 6.78407 78.646 2.12246 81.5459 -0.777489Z" fill="#00FFF0" fill-opacity="0.49"/>
<path d="M32.3823 48.3832C35.2552 45.5104 39.9439 45.4833 42.8438 48.3833C45.7167 51.2561 45.7438 55.9448 42.8438 58.8447C39.9439 61.7447 35.2823 61.7447 32.3824 58.8447C29.4824 55.9448 29.5095 51.2561 32.3823 48.3832Z" fill="#00FFF0" fill-opacity="0.49"/>
<path d="M35.9599 -25.4942L496.971 -25.4941L266.465 205.011L35.9599 -25.4942Z" fill="#A7C03F"/>
</svg>
