<svg width="178" height="181" viewBox="0 0 178 181" fill="none" xmlns="http://www.w3.org/2000/svg">
<path d="M133.598 64.6429C131.087 64.6429 129.271 66.4589 129.271 68.9475C129.271 71.4584 131.087 73.2744 133.575 73.2744C136.086 73.2744 137.88 71.4584 137.902 68.9699C137.902 66.4589 136.108 64.6429 133.598 64.6429Z" fill="#0B315E" fill-opacity="0.42"/>
<path d="M176.777 64.6427C174.266 64.5978 172.383 66.369 172.338 68.8575C172.293 71.3685 174.087 73.2517 176.553 73.2966C179.064 73.3414 180.925 71.5703 180.97 69.0817C181.037 66.5483 179.266 64.6875 176.777 64.6427Z" fill="#0B315E" fill-opacity="0.42"/>
<path d="M25.8497 94.8411C28.3607 94.8411 30.1767 93.0475 30.1767 90.5365C30.1767 88.0256 28.3831 86.2096 25.8721 86.2096C23.3612 86.2096 21.5452 88.0256 21.5452 90.5141C21.5228 93.0027 23.3612 94.8186 25.8497 94.8411Z" fill="#0B315E" fill-opacity="0.42"/>
<path d="M68.8725 94.8417C71.3835 94.8641 73.2219 93.093 73.2667 90.582C73.2892 88.0486 71.518 86.2103 69.0295 86.1878C66.5185 86.1654 64.6577 87.9366 64.6353 90.4251C64.5904 92.9361 66.4064 94.7969 68.8725 94.8417Z" fill="#0B315E" fill-opacity="0.42"/>
<path d="M111.985 86.1878C109.497 86.2102 107.681 88.0486 107.703 90.5596C107.725 93.0482 109.586 94.8641 112.075 94.8417C114.586 94.8193 116.357 92.9809 116.334 90.4699C116.334 87.959 114.496 86.1654 111.985 86.1878Z" fill="#0B315E" fill-opacity="0.42"/>
<path d="M155.299 86.1874C152.788 86.1202 150.883 87.8689 150.793 90.335C150.726 92.846 152.475 94.7516 154.941 94.8413C157.452 94.9086 159.357 93.1599 159.425 90.6937C159.514 88.1379 157.788 86.2547 155.299 86.1874Z" fill="#0B315E" fill-opacity="0.42"/>
<path d="M47.4172 116.386C49.9281 116.364 51.7217 114.548 51.6993 112.037C51.6993 109.526 49.8833 107.732 47.3723 107.732C44.8614 107.732 43.0678 109.571 43.0678 112.082C43.0902 114.57 44.9286 116.386 47.4172 116.386Z" fill="#0B315E" fill-opacity="0.42"/>
<path d="M86.1803 111.746C86.0458 114.28 87.7497 116.23 90.1934 116.387C92.7044 116.521 94.6773 114.818 94.8118 112.374C94.9463 109.84 93.2649 107.89 90.8212 107.755C88.2654 107.599 86.3149 109.302 86.1803 111.746Z" fill="#0B315E" fill-opacity="0.42"/>
<path d="M133.754 107.732C131.243 107.665 129.338 109.391 129.271 111.88C129.203 114.391 130.952 116.296 133.418 116.386C135.929 116.453 137.835 114.705 137.902 112.238C137.969 109.683 136.243 107.799 133.754 107.732Z" fill="#0B315E" fill-opacity="0.42"/>
<path d="M176.598 107.733C174.109 107.755 172.316 109.616 172.361 112.127C172.383 114.615 174.244 116.409 176.755 116.387C179.243 116.342 181.014 114.503 180.992 111.992C180.947 109.481 179.109 107.71 176.598 107.733Z" fill="#0B315E" fill-opacity="0.42"/>
<path d="M68.9398 137.932C71.4507 137.932 73.2443 136.138 73.2667 133.627C73.2667 131.116 71.4732 129.3 68.9622 129.3C66.4512 129.3 64.6353 131.116 64.6353 133.605C64.6353 136.093 66.4512 137.932 68.9398 137.932Z" fill="#0B315E" fill-opacity="0.42"/>
<path d="M111.94 129.278C109.452 129.323 107.658 131.184 107.703 133.695C107.748 136.183 109.608 137.977 112.119 137.932C114.608 137.887 116.379 136.049 116.334 133.515C116.312 131.004 114.474 129.233 111.94 129.278Z" fill="#0B315E" fill-opacity="0.42"/>
<path d="M155.21 129.277C152.699 129.255 150.838 131.048 150.816 133.515C150.793 136.026 152.587 137.886 155.075 137.909C157.586 137.931 159.425 136.16 159.447 133.649C159.469 131.138 157.698 129.3 155.21 129.277Z" fill="#0B315E" fill-opacity="0.42"/>
<path d="M90.3278 159.477C92.8388 159.544 94.7445 157.796 94.8117 155.33C94.879 152.796 93.1527 150.913 90.6866 150.846C88.1756 150.778 86.2699 152.527 86.1803 154.993C86.0906 157.482 87.8617 159.387 90.3278 159.477Z" fill="#0B315E" fill-opacity="0.42"/>
<path d="M133.687 150.823C131.176 150.778 129.293 152.549 129.248 155.038C129.203 157.549 130.997 159.432 133.463 159.477C135.974 159.521 137.835 157.75 137.88 155.262C137.947 152.728 136.176 150.868 133.687 150.823Z" fill="#0B315E" fill-opacity="0.42"/>
<path d="M111.963 172.367C109.474 172.412 107.68 174.251 107.725 176.762C107.77 179.25 109.631 181.044 112.12 180.999C114.608 180.954 116.379 179.116 116.357 176.605C116.312 174.116 114.474 172.323 111.963 172.367Z" fill="#0B315E" fill-opacity="0.42"/>
<path d="M68.9622 8.66158C71.4731 8.66158 73.2667 6.84561 73.2667 4.31221C73.2667 1.80124 71.4507 0.00769043 68.9397 0.00769043C66.4288 0.00769043 64.6128 1.84608 64.6352 4.33463C64.6352 6.84561 66.4736 8.66158 68.9622 8.66158Z" fill="#0B315E" fill-opacity="0.42"/>
<path d="M116.334 4.62583C116.469 2.09244 114.787 0.141953 112.344 0.00743668C109.81 -0.12708 107.86 1.5768 107.725 4.02051C107.591 6.53148 109.295 8.50439 111.738 8.6389C114.249 8.79584 116.222 7.06955 116.334 4.62583Z" fill="#0B315E" fill-opacity="0.42"/>
<path d="M155.21 0.00789829C152.699 -0.0145211 150.838 1.77903 150.816 4.24517C150.793 6.75614 152.587 8.61695 155.075 8.63937C157.586 8.66179 159.425 6.89065 159.447 4.37968C159.469 1.86871 157.698 0.0527371 155.21 0.00789829Z" fill="#0B315E" fill-opacity="0.42"/>
<path d="M47.4845 30.2066C49.9731 30.1618 51.7442 28.3234 51.7218 25.8124C51.6993 23.3239 49.861 21.5303 47.3276 21.5752C44.839 21.62 43.0455 23.4584 43.0903 25.9694C43.1127 28.4355 44.9735 30.2291 47.4845 30.2066Z" fill="#0B315E" fill-opacity="0.42"/>
<path d="M90.5744 21.5526C88.0634 21.5302 86.225 23.3013 86.1802 25.7898C86.1578 28.3008 87.9289 30.1616 90.4175 30.184C92.9284 30.2065 94.7668 28.4353 94.8117 25.9244C94.8341 23.4358 93.063 21.5974 90.5744 21.5526Z" fill="#0B315E" fill-opacity="0.42"/>
<path d="M133.62 21.5526C131.109 21.5302 129.27 23.3237 129.27 25.8347C129.248 28.3457 131.064 30.184 133.553 30.2065C136.064 30.2289 137.88 28.4129 137.902 25.9244C137.902 23.391 136.131 21.575 133.62 21.5526Z" fill="#0B315E" fill-opacity="0.42"/>
<path d="M176.665 21.5524C174.154 21.5524 172.361 23.3683 172.361 25.8793C172.361 28.3903 174.199 30.2062 176.688 30.1838C179.198 30.1838 180.992 28.3679 180.992 25.8345C180.97 23.3459 179.176 21.5524 176.665 21.5524Z" fill="#0B315E" fill-opacity="0.42"/>
<path d="M25.8049 51.7513C28.3159 51.7737 30.1319 49.9801 30.1543 47.4692C30.1767 44.9582 28.3832 43.1198 25.8946 43.0974C23.3836 43.075 21.5452 44.8909 21.5228 47.3795C21.5228 49.868 23.3388 51.7288 25.8049 51.7513Z" fill="#0B315E" fill-opacity="0.42"/>
<path d="M68.895 51.7513C71.4059 51.7737 73.2219 49.9801 73.2443 47.4692C73.2667 44.9582 71.4732 43.1198 68.9846 43.0974C66.4737 43.075 64.6353 44.8909 64.6129 47.3795C64.6129 49.868 66.4288 51.7288 68.895 51.7513Z" fill="#0B315E" fill-opacity="0.42"/>
<path d="M112.209 43.0979C109.698 43.0307 107.793 44.7794 107.703 47.2455C107.636 49.7565 109.384 51.6622 111.851 51.7518C114.362 51.8415 116.267 50.0704 116.335 47.6042C116.424 45.0484 114.698 43.1876 112.209 43.0979Z" fill="#0B315E" fill-opacity="0.42"/>
<path d="M155.142 43.0972C152.632 43.0972 150.816 44.9131 150.816 47.4017C150.816 49.9127 152.632 51.7286 155.12 51.7511C157.631 51.7511 159.447 49.9575 159.447 47.4465C159.447 44.9131 157.653 43.0972 155.142 43.0972Z" fill="#0B315E" fill-opacity="0.42"/>
<path d="M4.28231 73.2965C6.79328 73.3189 8.60925 71.5029 8.63167 69.0144C8.65409 66.5034 6.86054 64.665 4.37198 64.665C1.86101 64.6426 0.0226247 66.4586 0.000205321 68.9471C-0.0222141 71.4132 1.79376 73.274 4.28231 73.2965Z" fill="#0B315E" fill-opacity="0.42"/>
<path d="M47.2378 73.2965C49.7488 73.3862 51.6544 71.615 51.7217 69.1489C51.789 66.6155 50.0627 64.7323 47.5965 64.6426C45.0856 64.5754 43.1799 66.3241 43.0902 68.7902C43.0006 71.3012 44.7717 73.2068 47.2378 73.2965Z" fill="#0B315E" fill-opacity="0.42"/>
<path d="M90.5522 64.6421C88.0413 64.6196 86.1805 66.4132 86.158 68.9017C86.1356 71.4127 87.9292 73.2735 90.4177 73.2959C92.9287 73.3184 94.7671 71.5248 94.7895 69.0363C94.8344 66.5029 93.0632 64.6645 90.5522 64.6421Z" fill="#0B315E" fill-opacity="0.42"/>
</svg>
