<svg width="30" height="31" viewBox="0 0 30 31" fill="none" xmlns="http://www.w3.org/2000/svg">
<path d="M9.28247 12.7233C9.28212 12.5378 9.33678 12.3564 9.43956 12.2021C9.54233 12.0477 9.6886 11.9273 9.85984 11.856C10.0311 11.7848 10.2196 11.766 10.4015 11.802C10.5835 11.8379 10.7507 11.9271 10.8819 12.0581C11.0132 12.1891 11.1026 12.3561 11.1389 12.538C11.1753 12.7198 11.1568 12.9084 11.0859 13.0798C11.015 13.2511 10.8949 13.3976 10.7407 13.5007C10.5865 13.6038 10.4052 13.6588 10.2198 13.6588C9.97151 13.6588 9.73337 13.5603 9.55764 13.3849C9.38191 13.2095 9.28295 12.9716 9.28247 12.7233Z" fill="#B397CA"/>
<path d="M18.8433 12.7233C18.8429 12.5378 18.8976 12.3564 19.0003 12.2021C19.1031 12.0477 19.2494 11.9273 19.4206 11.856C19.5919 11.7848 19.7804 11.766 19.9623 11.802C20.1443 11.8379 20.3114 11.9271 20.4427 12.0581C20.574 12.1891 20.6634 12.3561 20.6997 12.538C20.7361 12.7198 20.7176 12.9084 20.6467 13.0798C20.5758 13.2511 20.4557 13.3976 20.3015 13.5007C20.1473 13.6038 19.966 13.6588 19.7806 13.6588C19.5323 13.6588 19.2942 13.5603 19.1184 13.3849C18.9427 13.2095 18.8437 12.9716 18.8433 12.7233Z" fill="#B397CA"/>
<path d="M22.5 22.6919C26.6421 18.5498 26.6421 11.834 22.5 7.69189C18.3579 3.54976 11.6421 3.54976 7.5 7.69189C3.35786 11.834 3.35786 18.5498 7.5 22.6919C11.6421 26.834 18.3579 26.834 22.5 22.6919Z" stroke="#B397CA" stroke-linecap="round" stroke-linejoin="round"/>
<path d="M20.7017 16.9678C20.3231 18.184 19.5654 19.2473 18.5395 20.0024C17.5136 20.7575 16.2731 21.1648 14.9993 21.1648C13.7255 21.1648 12.485 20.7575 11.4591 20.0024C10.4332 19.2473 9.67555 18.184 9.29688 16.9678H20.7017Z" stroke="#B397CA" stroke-linecap="round" stroke-linejoin="round"/>
</svg>
