<svg width="24" height="24" viewBox="0 0 24 24" fill="none" xmlns="http://www.w3.org/2000/svg">
<path d="M18 18C21.3137 14.6863 21.3137 9.31371 18 6C14.6863 2.68629 9.31371 2.68629 6 6C2.68629 9.31371 2.68629 14.6863 6 18C9.31371 21.3137 14.6863 21.3137 18 18Z" stroke="#E1B3DD" stroke-linecap="round" stroke-linejoin="round"/>
<path d="M9.00511 9.44405C8.93798 9.40822 8.86444 9.386 8.7887 9.37867C8.71296 9.37133 8.63652 9.37903 8.56376 9.40131C8.491 9.4236 8.42336 9.46003 8.36472 9.50852C8.30608 9.55701 8.25759 9.61661 8.22204 9.68389C8.18398 9.75133 8.16407 9.8275 8.16424 9.90494C8.16321 9.82747 8.14285 9.75149 8.10501 9.68389C8.06945 9.61679 8.02103 9.55737 7.9625 9.509C7.90397 9.46063 7.83648 9.42427 7.76389 9.402C7.6913 9.37973 7.61503 9.37198 7.53945 9.37919C7.46386 9.38641 7.39044 9.40845 7.32337 9.44405C7.23974 9.48911 7.1683 9.5538 7.1152 9.63258C7.06209 9.71135 7.02892 9.80184 7.01852 9.89627C6.98096 10.2661 7.35082 10.4944 7.59644 10.7068C7.7833 10.8686 7.97305 11.029 8.16569 11.1879C8.33473 11.0434 8.50233 10.899 8.66992 10.7545C8.79129 10.6505 8.91265 10.545 9.03112 10.4366C9.19149 10.2921 9.32008 10.1578 9.31141 9.92517C9.30564 9.8255 9.27446 9.72897 9.22085 9.64476C9.16724 9.56055 9.09297 9.49145 9.00511 9.44405Z" fill="#272525" stroke="#E1B3DD" stroke-linecap="round" stroke-linejoin="round"/>
<path d="M14.9951 9.44384C15.0622 9.40824 15.1356 9.3862 15.2112 9.37899C15.2868 9.37177 15.363 9.37952 15.4356 9.4018C15.5082 9.42407 15.5757 9.46043 15.6342 9.5088C15.6928 9.55716 15.7412 9.61659 15.7768 9.68368C15.8146 9.75128 15.835 9.82727 15.836 9.90473C15.8358 9.82729 15.8557 9.75113 15.8938 9.68368C15.9517 9.57372 16.0435 9.48534 16.1556 9.43167C16.2677 9.378 16.3941 9.36189 16.516 9.38574C16.638 9.40958 16.749 9.4721 16.8327 9.56403C16.9163 9.65596 16.968 9.77239 16.9803 9.89607C17.0178 10.2659 16.648 10.4942 16.4024 10.7066C16.2145 10.8684 16.0248 11.0288 15.8331 11.1877C15.6641 11.0432 15.495 10.8988 15.3289 10.7543C15.2075 10.6502 15.0861 10.5448 14.9677 10.4364C14.8073 10.2919 14.6787 10.1576 14.6787 9.92496C14.6848 9.82411 14.7172 9.72661 14.7727 9.64219C14.8282 9.55777 14.9049 9.48938 14.9951 9.44384Z" fill="#272525" stroke="#E1B3DD" stroke-linecap="round" stroke-linejoin="round"/>
<path d="M16.5614 13.4204C16.2584 14.3934 15.6523 15.2441 14.8316 15.8481C14.0109 16.4522 13.0185 16.778 11.9994 16.778C10.9804 16.778 9.98801 16.4522 9.16727 15.8481C8.34654 15.2441 7.74044 14.3934 7.4375 13.4204" stroke="#E1B3DD" stroke-linecap="round" stroke-linejoin="round"/>
<path d="M7.80019 13.2109L6.93042 13.6285" stroke="#E1B3DD" stroke-linecap="round" stroke-linejoin="round"/>
<path d="M16.1987 13.2109L17.0699 13.6285" stroke="#E1B3DD" stroke-linecap="round" stroke-linejoin="round"/>
</svg>
