<svg width="28" height="26" viewBox="0 0 28 26" fill="none" xmlns="http://www.w3.org/2000/svg">
<path d="M24.7535 17.8984C23.7906 19.8799 22.2897 21.5504 20.4223 22.7192C18.5549 23.8879 16.3963 24.5077 14.1933 24.5077C11.9903 24.5077 9.83171 23.8879 7.9643 22.7192C6.09688 21.5504 4.59595 19.8799 3.63306 17.8984" stroke="#A8DC9B" stroke-linecap="round" stroke-linejoin="round"/>
<path d="M2.53601 14.1757C2.48373 13.7393 2.45572 13.3004 2.45209 12.8609C2.43486 11.253 2.74826 9.65869 3.37285 8.17694C3.99743 6.6952 4.91987 5.35762 6.08293 4.24722C7.24598 3.13683 8.62483 2.2773 10.1339 1.72199C11.643 1.16667 13.2501 0.927423 14.8555 1.01908C16.4609 1.11074 18.0303 1.53135 19.4664 2.25481C20.9024 2.97828 22.1745 3.98915 23.2036 5.22471C24.2327 6.46027 24.9969 7.89414 25.4488 9.43735C25.9007 10.9806 26.0306 12.6002 25.8305 14.1957" stroke="#A8DC9B" stroke-linecap="round" stroke-linejoin="round"/>
<path d="M20.5114 14.6895C20.1025 16.0383 19.2731 17.2211 18.1442 18.0651C17.0154 18.909 15.6462 19.3699 14.2368 19.3804C12.8274 19.3909 11.4515 18.9504 10.3102 18.1234C9.1689 17.2963 8.32195 16.126 7.89307 14.7834L20.5114 14.6895Z" stroke="#A8DC9B" stroke-linecap="round" stroke-linejoin="round"/>
<path d="M7.76725 12.0495L10.0072 10.8147L7.74927 9.61377" stroke="#A8DC9B" stroke-linecap="round" stroke-linejoin="round"/>
<path d="M20.5953 11.9539L18.3374 10.751L20.5773 9.51611" stroke="#A8DC9B" stroke-linecap="round" stroke-linejoin="round"/>
<path d="M4.86399 16.3637L5.8191 13.1807L2.64404 14.1638C2.13451 14.3176 1.86876 14.3995 1.56304 14.7132C1.38343 14.8944 1.24126 15.1092 1.14466 15.3454C1.04805 15.5815 0.998905 15.8343 1.00002 16.0895C1.00113 16.3446 1.05248 16.597 1.15115 16.8323C1.24981 17.0675 1.39384 17.2811 1.57503 17.4607C1.75622 17.6403 1.97101 17.7825 2.20714 17.8791C2.44327 17.9757 2.69612 18.0248 2.95124 18.0237C3.20637 18.0226 3.45877 17.9713 3.69405 17.8726C3.92933 17.7739 4.14287 17.6299 4.32249 17.4487C4.62621 17.143 4.68415 16.9432 4.86399 16.3637Z" stroke="#A8DC9B" stroke-linecap="round" stroke-linejoin="round"/>
<path d="M23.5108 16.3637L22.5557 13.1807L25.7307 14.1638C26.2403 14.3176 26.506 14.4075 26.8097 14.7132C26.993 14.8935 27.1387 15.1083 27.2383 15.3453C27.3379 15.5823 27.3895 15.8367 27.3901 16.0938C27.3906 16.3508 27.3401 16.6055 27.2416 16.8429C27.143 17.0803 26.9982 17.2958 26.8157 17.4768C26.6332 17.6579 26.4166 17.8009 26.1784 17.8976C25.9402 17.9943 25.6852 18.0427 25.4281 18.0401C25.1711 18.0375 24.9171 17.9839 24.6809 17.8823C24.4447 17.7808 24.2311 17.6334 24.0523 17.4487C23.7546 17.143 23.6906 16.9432 23.5108 16.3637Z" stroke="#A8DC9B" stroke-linecap="round" stroke-linejoin="round"/>
</svg>
