<svg width="22" height="22" viewBox="0 0 22 22" fill="none" xmlns="http://www.w3.org/2000/svg">
<path d="M19.8995 13.1008C21.0596 8.18568 18.0155 3.26081 13.1005 2.10075C8.18541 0.940688 3.26054 3.98472 2.10048 8.89979C0.940416 13.8149 3.98445 18.7397 8.89952 19.8998C13.8146 21.0599 18.7395 18.0158 19.8995 13.1008Z" stroke="#C4B798" stroke-linecap="round" stroke-linejoin="round"/>
<path d="M14.3127 8.8731C14.3124 8.71321 14.3596 8.55683 14.4482 8.42374C14.5368 8.29065 14.6629 8.18683 14.8105 8.12543C14.9581 8.06404 15.1206 8.04781 15.2775 8.07881C15.4343 8.10982 15.5785 8.18666 15.6916 8.2996C15.8048 8.41255 15.8819 8.55653 15.9132 8.71332C15.9445 8.87011 15.9286 9.03267 15.8675 9.18041C15.8064 9.32816 15.7028 9.45445 15.5699 9.54331C15.437 9.63217 15.2807 9.6796 15.1208 9.6796C14.9068 9.6796 14.7015 9.59468 14.55 9.44348C14.3985 9.29227 14.3132 9.08714 14.3127 8.8731Z" fill="#C3B798"/>
<path d="M5.8833 9.33903C5.9795 9.17229 6.11657 9.0328 6.2816 8.9337C6.44664 8.8346 6.63419 8.77917 6.82658 8.77263C7.01896 8.76608 7.20985 8.80865 7.38123 8.8963C7.55261 8.98396 7.69885 9.11382 7.80615 9.27364" stroke="#C4B798" stroke-linecap="round" stroke-linejoin="round"/>
<path d="M16.0037 12.5327C14.6358 13.7749 12.8543 14.4631 11.0066 14.4631C9.15887 14.4631 7.37738 13.7749 6.00952 12.5327" stroke="#C4B798" stroke-linecap="round" stroke-linejoin="round"/>
<path d="M6.47342 12.3066L5.53613 12.7566" stroke="#C4B798" stroke-linecap="round" stroke-linejoin="round"/>
<path d="M15.5256 12.3066L16.4629 12.7566" stroke="#C4B798" stroke-linecap="round" stroke-linejoin="round"/>
<path d="M8.93042 14.1719V16.006C8.9452 16.5447 9.16961 17.0565 9.5559 17.4323C9.9422 17.8081 10.4599 18.0184 10.9988 18.0184C11.5378 18.0184 12.0555 17.8081 12.4418 17.4323C12.8281 17.0565 13.0525 16.5447 13.0673 16.006V14.1719" stroke="#C4B798" stroke-linecap="round" stroke-linejoin="round"/>
<path d="M10.9995 14.4634V15.8024" stroke="#C4B798" stroke-linecap="round" stroke-linejoin="round"/>
</svg>
