<svg width="29" height="29" viewBox="0 0 29 29" fill="none" xmlns="http://www.w3.org/2000/svg">
<path d="M14.3969 19.9868C13.5471 19.9868 12.3071 19.5922 11.1434 18.9484C10.5 18.592 9.94482 18.1229 9.61304 17.4436C9.51106 17.2699 9.45034 17.075 9.43555 16.8741C9.44089 16.6799 9.4477 16.4985 9.63672 16.4173C9.73246 16.3839 9.83567 16.3783 9.93447 16.4011C10.0333 16.4238 10.1236 16.474 10.1952 16.5459C10.424 16.7668 10.5484 17.107 10.7941 17.2972C12.4636 18.5904 14.3107 19.1564 16.3991 18.5102C17.3721 18.2092 18.0472 17.5256 18.5577 16.665C18.6808 16.4575 18.7692 16.194 18.9508 16.066C19.1542 15.9226 19.5 15.7825 19.6832 15.8648C19.8664 15.9471 20.0145 16.3049 20.0172 16.5437C20.02 16.8031 19.8734 17.0864 19.7303 17.3218C18.6292 19.1317 17.0055 20.0081 14.3969 19.9868Z" fill="#CE7E88"/>
<path d="M9.22077 8.74022C10.6093 8.70939 11.4534 9.17072 12.1586 9.92474C12.2841 10.0559 12.3822 10.2107 12.4472 10.3801C12.6116 10.8384 12.2841 11.2337 11.8185 11.0874C11.4823 10.961 11.1747 10.7691 10.9133 10.5228C10.2774 9.97245 9.58569 9.82615 8.77535 10.0478C7.5838 10.3738 6.63871 10.9742 6.1531 12.1669C6.04251 12.4383 5.86417 12.69 5.51442 12.5741C5.14111 12.4503 5.09814 12.096 5.22112 11.8214C5.46464 11.2779 5.71485 10.7045 6.10066 10.2642C6.9972 9.2416 8.22347 8.85458 9.22077 8.74022Z" fill="#CE7E88"/>
<path d="M23.6046 10.2699C23.5416 10.3534 23.4381 10.6274 23.2646 10.6835C23.1523 10.7049 23.0366 10.7014 22.9257 10.6733C22.8148 10.6452 22.7114 10.5932 22.6228 10.5209C22.4204 10.3434 22.3055 10.0615 22.168 9.81599C22.0833 9.64198 21.9459 9.49909 21.7753 9.40757C21.6047 9.31605 21.4097 9.28055 21.2178 9.30612C20.1585 9.39741 19.2078 9.7014 18.524 10.5983C18.42 10.7345 18.0549 10.7374 17.9865 10.6749C17.8408 10.5414 17.7056 10.3714 17.757 10.203C17.8575 9.89851 18.0302 9.62287 18.2604 9.3996C19.1764 8.50293 20.3151 8.14432 21.5738 8.17904C22.5254 8.20478 23.569 9.23436 23.6046 10.2699Z" fill="#CE7E88"/>
<path d="M8.40242 13.9094C8.60091 14.0032 8.81834 14.2826 8.82732 14.4877C8.81706 14.6115 8.77813 14.7313 8.71361 14.8375C8.6491 14.9437 8.56077 15.0335 8.45559 15.0997C7.70473 15.4843 6.89426 15.638 6.05951 15.4079C5.74897 15.3229 5.44826 15.1661 5.42483 14.769C5.40213 14.3844 5.64104 14.1546 5.95207 14.0395C6.39858 13.8744 8.08581 13.7597 8.40242 13.9094Z" fill="#CE7E88"/>
<path d="M22.1557 14.4406C21.602 14.2229 21.4637 13.6366 21.8945 13.2333C22.1419 13.007 22.4437 12.8488 22.7704 12.774C23.1144 12.6996 23.4927 12.7441 23.8509 12.7842C24.2001 12.8233 24.5242 12.952 24.6194 13.3521C24.6735 13.5286 24.6642 13.7185 24.593 13.8889C24.5219 14.0593 24.3935 14.1994 24.2299 14.2851C23.8701 14.4783 22.4316 14.5491 22.1557 14.4406Z" fill="#CE7E88"/>
<path d="M1.06409 10.3936C-0.192649 15.333 0.90784 19.6905 4.33727 23.3464C4.42662 23.4409 4.51756 23.5353 4.60861 23.6264C6.45074 25.4685 8.74531 26.6059 10.5635 27.3974C11.3439 27.7382 15.3479 28.152 16.4313 27.9907C22.8695 27.0292 27.1062 23.398 28.5819 17.3229C28.8637 16.1329 29.004 14.9138 29 13.6908C29.0069 10.81 27.7939 7.46083 25.2924 4.95246C25.0349 4.73952 24.7783 4.51893 24.5301 4.30515C23.992 3.84249 23.4356 3.36347 22.8536 2.95496C18.4078 -0.174132 13.7886 -0.191641 9.12482 1.46766C4.90215 2.96901 2.19044 5.97271 1.06409 10.3936ZM9.14278 2.94669C13.2349 1.24624 17.3408 0.946134 21.3454 3.49299C22.0776 3.95917 24.0297 5.53689 24.337 5.77387L24.3568 5.78842L24.373 5.80653C25.9353 7.46328 27.7243 10.4926 27.6848 13.6066C27.6718 14.9381 27.4916 16.2627 27.1484 17.5493C26.1312 21.2467 23.6991 23.9413 19.7135 25.7842C15.6617 27.7243 9.85103 25.763 8.30499 24.7424C6.59615 23.5741 5.10093 22.1207 3.8847 20.4457C1.97726 17.7451 1.54933 13.8632 2.57419 10.3146C3.05389 8.67609 3.89219 7.16489 5.02831 5.89052C6.16442 4.61616 7.56988 3.61058 9.14278 2.94669V2.94669Z" fill="#CE7E88"/>
</svg>
