<svg width="40" height="39" viewBox="0 0 40 39" fill="none" xmlns="http://www.w3.org/2000/svg">
<path d="M20.2717 30.1549C17.3768 30.0195 14.6492 29.397 12.3793 27.4417C10.9424 26.2034 10.2419 24.6305 10.2486 22.7377C10.2543 21.1626 10.8545 20.4573 12.4511 20.3177C14.9444 20.1002 17.4422 19.898 19.9422 19.7697C22.388 19.644 24.8388 19.6084 27.2882 19.5521C29.2628 19.5073 29.9402 20.2777 29.3464 22.1838C28.9074 23.6716 28.2774 25.0962 27.4723 26.4221C25.8016 29.0657 23.4229 30.1972 20.2717 30.1549ZM13.5212 26.1594C17.4034 22.4111 21.6927 22.6306 26.3399 24.6167C26.6759 23.6378 27.0108 22.6619 27.4457 21.3947L11.7618 21.757C11.6848 23.6315 12.1631 25.1089 13.5212 26.1594ZM14.8953 27.026C17.5585 28.6181 23.4017 29.1063 25.0956 26.1371C22.9557 23.9832 17.0078 24.47 14.8953 27.026Z" fill="#7EBACE"/>
<path d="M37.7407 18.3691C37.73 19.9657 36.2984 21.1673 34.6562 21.0624C32.6816 20.9364 30.773 19.3556 30.2273 17.4312C30.0317 16.7415 30.3319 16.2813 30.8659 15.9633C32.6259 14.9151 34.4316 14.8188 36.2345 15.8507C37.2328 16.4228 37.6747 17.3489 37.7407 18.3691ZM32.5047 17.436L32.4455 17.7341C32.7054 18.1146 33.0479 18.4315 33.4476 18.6609C33.8472 18.8903 34.2936 19.0264 34.7532 19.0589C35.0804 19.0856 35.4365 18.7577 35.7795 18.5927C35.5466 18.259 35.3612 17.6963 35.0718 17.6352C34.239 17.46 33.3635 17.4879 32.5047 17.4359V17.436Z" fill="#7EBACE"/>
<path d="M4.54501 23.1627C4.11705 23.1226 3.70524 22.9791 3.34504 22.7446C2.98484 22.51 2.68704 22.1914 2.47725 21.8163C1.8966 20.8231 2.22624 19.8653 2.81995 19.0076C3.9411 17.3861 5.55036 16.6128 7.48995 16.5253C8.29165 16.4892 8.71535 16.8692 8.56625 17.6265C8.31254 19.0116 7.95112 20.3748 7.48527 21.7036C7.11211 22.7221 6.19561 23.1871 4.54501 23.1627ZM6.86814 18.0589C5.54502 18.4349 4.7172 19.037 4.18909 19.9619C3.93357 20.4096 3.59404 20.8971 4.27057 21.3124C4.92954 21.7171 5.70449 21.627 5.97909 20.9627C6.34773 20.0703 6.55556 19.1118 6.86814 18.0583V18.0589Z" fill="#7EBACE"/>
<path d="M12.8474 12.7208C12.0423 11.9965 11.2993 11.3356 10.5654 10.6647C10.2575 10.3833 9.95697 10.0918 9.67434 9.78519C9.36828 9.45337 9.01755 9.07484 9.42836 8.62839C9.84302 8.17758 10.2306 8.50107 10.5898 8.78923C11.3713 9.4159 12.1482 10.0486 12.9419 10.6595C13.4044 11.0155 13.8989 11.3289 14.3733 11.6706C15.1956 12.2616 15.4011 13.0784 14.7145 13.8096C13.7682 14.7872 12.7572 15.7001 11.6884 16.542C11.2461 16.9013 10.623 16.9898 10.1725 16.4759C9.68857 15.9237 9.9133 15.3342 10.3514 14.9068C11.1061 14.1712 11.9349 13.5123 12.8474 12.7208Z" fill="#7EBACE"/>
<path d="M26.3569 13.0078C27.0243 13.3475 27.5519 13.5872 28.0499 13.8779C28.5401 14.1345 28.9971 14.4501 29.4106 14.8177C29.5087 14.9419 29.5751 15.0881 29.6042 15.2437C29.6334 15.3992 29.6244 15.5596 29.578 15.7109C29.4742 15.9357 28.9714 16.2117 28.798 16.1316C27.4026 15.4873 25.9894 14.8489 24.6995 14.0248C24.1538 13.6763 24.2769 12.8354 24.7933 12.3928C26.246 11.1478 27.7471 9.95758 29.2679 8.7961C29.4389 8.66541 29.9242 8.77083 30.133 8.93382C30.2473 9.02318 30.1832 9.53854 30.0326 9.7283C29.7261 10.1132 29.3062 10.4075 28.932 10.7379C28.1044 11.4676 27.2771 12.1965 26.3569 13.0078Z" fill="#7EBACE"/>
<path d="M0.693393 13.8156C-1.03887 20.624 0.478038 26.6302 5.20511 31.6703C5.3281 31.8005 5.45358 31.9306 5.57892 32.0552C8.11824 34.5944 11.281 36.1623 13.7871 37.2532C14.8627 37.7229 20.3818 38.2935 21.8751 38.0709C30.7494 36.7458 36.5894 31.7405 38.6234 23.3667C39.0117 21.7264 39.2052 20.046 39.1997 18.3603C39.2091 14.3895 37.5372 9.77296 34.0893 6.31546C33.7342 6.02213 33.3804 5.71794 33.0384 5.42343C32.2966 4.78555 31.5299 4.1254 30.7276 3.56215C24.5996 -0.750766 18.2325 -0.775025 11.804 1.51212C5.98371 3.5819 2.24577 7.72193 0.693393 13.8156ZM11.8289 3.55112C17.4693 1.20708 23.1288 0.793422 28.6487 4.30413C29.6579 4.9467 32.3486 7.12153 32.7723 7.448L32.7994 7.4681L32.8219 7.49302C34.9755 9.77666 37.4413 13.9522 37.3869 18.2445C37.369 20.0799 37.1205 21.9058 36.6473 23.6792C35.2452 28.7755 31.8931 32.4896 26.3993 35.0301C20.8143 37.7042 12.805 35.0008 10.674 33.5939C8.31861 31.9836 6.25763 29.9802 4.58111 27.6715C1.9521 23.949 1.36206 18.5984 2.77488 13.7069C3.43608 11.4484 4.59158 9.36537 6.15758 7.6088C7.72359 5.85224 9.66085 4.46619 11.8289 3.55112V3.55112Z" fill="#7EBACE"/>
</svg>
