<svg width="25" height="25" viewBox="0 0 25 25" fill="none" xmlns="http://www.w3.org/2000/svg">
<path d="M22.7193 6.54324C24.2699 9.03701 24.8301 12.0212 24.2895 14.9075C23.7488 17.7939 22.1466 20.373 19.7985 22.1365C17.4505 23.9 14.527 24.72 11.6043 24.4347C8.68167 24.1495 5.97187 22.7798 4.00908 20.5956C2.04629 18.4114 0.972912 15.5711 1.00052 12.6347C1.02813 9.69831 2.15472 6.87876 4.15823 4.73184C6.16174 2.58492 8.89681 1.2664 11.8243 1.03617C14.7518 0.805948 17.6594 1.68072 19.9739 3.48807" stroke="#96C8BF" stroke-linecap="round" stroke-linejoin="round"/>
<path d="M19.0607 14.7056C18.6417 16.0512 17.8035 17.2277 16.6684 18.0631C15.5334 18.8985 14.1609 19.3491 12.7515 19.3491C11.3422 19.3491 9.96973 18.8985 8.83466 18.0631C7.69958 17.2277 6.86135 16.0512 6.44238 14.7056H19.0607Z" stroke="#96C8BF" stroke-linecap="round" stroke-linejoin="round"/>
<path d="M6.18652 10.6076C6.30998 10.3936 6.48589 10.2146 6.69769 10.0874C6.90949 9.96026 7.15019 9.88912 7.39709 9.88072C7.64399 9.87233 7.88897 9.92695 8.10891 10.0394C8.32886 10.1519 8.51653 10.3186 8.65424 10.5237" stroke="#96C8BF" stroke-linecap="round" stroke-linejoin="round"/>
<path d="M19.3105 10.6074C19.1868 10.3935 19.0107 10.2145 18.7987 10.0874C18.5868 9.96023 18.346 9.88912 18.0989 9.88072C17.8519 9.87233 17.6068 9.92693 17.3867 10.0394C17.1666 10.1518 16.9788 10.3184 16.8408 10.5235" stroke="#96C8BF" stroke-linecap="round" stroke-linejoin="round"/>
<path d="M22.5715 4.47918L21.005 1.5459L19.4424 4.47918C19.1887 4.94675 19.0608 5.19852 19.0608 5.63012C19.077 6.1347 19.2888 6.61321 19.6514 6.96442C20.0141 7.31563 20.4991 7.512 21.004 7.512C21.5088 7.512 21.9939 7.31563 22.3565 6.96442C22.7192 6.61321 22.931 6.1347 22.9472 5.63012C22.9472 5.19852 22.8473 5.01669 22.5715 4.47918Z" stroke="#96C8BF" stroke-linecap="round" stroke-linejoin="round"/>
</svg>
