<svg width="33" height="32" viewBox="0 0 33 32" fill="none" xmlns="http://www.w3.org/2000/svg">
<path d="M17.0333 26.558C15.3831 26.5932 13.7865 26.3303 12.31 25.5696C9.97468 24.3665 8.66956 22.4901 8.69998 19.8025C8.71168 18.7746 9.09919 18.4247 10.1337 18.3897C12.6504 18.3047 15.1709 18.2709 17.6822 18.1034C19.2483 17.9989 20.8081 17.7305 22.3568 17.4577C23.6457 17.2307 24.7441 18.1371 24.6297 19.495C24.4837 21.55 23.5871 23.4796 22.1106 24.9164C20.9726 26.0413 19.5477 26.4651 17.9958 26.5555C17.6757 26.5734 17.354 26.558 17.0333 26.558ZM11.4666 23.3111C14.7386 20.7782 18.0741 20.142 21.6753 22.5496C22.3018 21.5982 22.6413 20.4867 22.6534 19.3477C22.6582 18.9449 22.4759 18.7498 22.05 18.844C21.7596 18.9082 21.4672 18.9633 21.1729 19.0092C17.5999 19.5773 13.9984 19.4348 10.4027 19.4351C9.91067 19.4351 9.69289 19.6045 9.76942 20.0545C9.98307 21.3229 10.4269 22.4806 11.4666 23.3109V23.3111ZM20.4716 23.9318C18.6905 22.1672 14.4967 22.325 12.8664 24.1888C14.8304 25.3689 19.4125 25.2469 20.4716 23.9318Z" fill="#98CE7E"/>
<path d="M12.3436 12.8182L10.7028 11.2749C9.97009 10.5859 10.0008 10.6566 9.26818 9.96718C8.94841 9.66682 8.69004 9.33906 9.01972 8.90297C9.25374 8.592 9.70691 8.67254 10.1575 9.07877C11.6012 10.38 12.2826 10.9199 13.722 12.2259C14.3332 12.7805 14.3449 13.4276 13.7671 14.0121C13.6738 14.1131 13.5673 14.2011 13.4505 14.2736C11.7711 15.2272 9.98345 15.6513 8.05338 15.3621C7.96442 15.3408 7.87662 15.3149 7.79031 15.2846C7.41575 15.1873 7.18187 14.9611 7.18311 14.5616C7.17364 14.3864 7.23296 14.2144 7.34843 14.0822C7.46389 13.9501 7.62639 13.8682 7.80132 13.8541C8.68081 13.7145 9.5691 13.6282 10.4454 13.473C11.0663 13.3629 11.6736 13.176 12.2869 13.0233L12.3436 12.8182Z" fill="#98CE7E"/>
<path d="M21.8949 13.4098C22.9193 13.4767 23.8485 13.5306 24.7764 13.6012C25.2097 13.6273 25.6409 13.68 26.0677 13.7589C26.4026 13.8265 26.7118 14.048 26.6183 14.4187C26.5588 14.6552 26.2454 14.8968 25.4554 15.0441C25.2833 15.0763 22.5103 15.0749 20.796 14.6497C20.1343 14.4856 20.0251 13.7237 20.5536 13.1355C21.424 12.1668 21.2187 12.2132 22.1593 11.3126C22.7522 10.7451 23.4395 10.2755 24.0873 9.76592C24.2129 9.66722 24.3449 9.52888 24.4865 9.51057C24.7011 9.48304 25.39 9.70605 24.988 10.1599C24.387 10.7222 22.0475 13.1587 21.8949 13.4098Z" fill="#98CE7E"/>
<path d="M1.11607 12.0058C-0.30895 17.6066 0.938891 22.5475 4.82754 26.6937C4.92872 26.8008 5.03196 26.9078 5.13507 27.0103C7.224 29.0991 9.82584 30.389 11.8874 31.2864C12.7722 31.6728 17.3124 32.1422 18.5409 31.9591C25.8412 30.869 30.6454 26.7514 32.3186 19.8628C32.6381 18.5134 32.7972 17.1311 32.7927 15.7444C32.8004 12.4778 31.4251 8.68017 28.5887 5.83592C28.2966 5.59461 28.0055 5.34434 27.7242 5.10207C27.1139 4.57732 26.4832 4.0343 25.8233 3.57094C20.7822 0.022994 15.5444 0.00303393 10.256 1.88466C5.46806 3.58719 2.3931 6.99293 1.11607 12.0058ZM10.2765 3.56184C14.9165 1.63355 19.5722 1.29326 24.113 4.18129C24.9433 4.70989 27.1568 6.49902 27.5053 6.76759L27.5276 6.78426L27.5461 6.80462C29.3177 8.68322 31.3462 12.1181 31.3014 15.6492C31.2867 17.159 31.0822 18.6611 30.693 20.12C29.5396 24.3123 26.7821 27.3677 22.2627 29.4576C17.6683 31.6573 11.0795 29.4335 9.32642 28.2761C7.38883 26.9514 5.69345 25.3034 4.31437 23.4042C2.15152 20.3419 1.66614 15.9403 2.82837 11.9164C3.37229 10.0585 4.32285 8.34488 5.6111 6.89987C6.89935 5.45486 8.49301 4.31461 10.2765 3.56184V3.56184Z" fill="#98CE7E"/>
</svg>
