<svg width="22" height="22" viewBox="0 0 22 22" fill="none" xmlns="http://www.w3.org/2000/svg">
<path d="M11.5584 15.3953C10.4802 15.3722 9.65273 15.2146 8.86408 14.8686C8.27468 14.6162 7.77579 14.1908 7.43334 13.6488C7.30582 13.4484 7.20443 13.2103 7.41066 13.0286C7.6392 12.8274 7.86611 12.9603 8.04209 13.1562C9.09873 14.3342 10.4724 14.6026 11.9398 14.3854C13.1752 14.2024 14.11 13.5018 14.6497 12.3375C14.7135 12.2009 14.7554 12.0244 14.8646 11.9458C15.0194 11.8347 15.2518 11.7105 15.4064 11.7533C15.5647 11.7971 15.7747 12.0357 15.7745 12.1886C15.7788 12.4877 15.7005 12.7822 15.548 13.0397C14.5589 14.5494 13.1584 15.3553 11.5584 15.3953Z" fill="#CEBD7E"/>
<path d="M14.2632 7.99695C14.3274 7.65154 14.3605 7.39795 14.424 7.15219C14.5013 6.85287 14.686 6.63525 15.0087 6.59654C15.3367 6.55764 15.5967 6.70422 15.7891 6.96327C16.1353 7.42992 16.0975 8.62729 15.7282 9.07272C15.3957 9.47351 14.7888 9.45629 14.5548 8.99201C14.3909 8.66719 14.3431 8.28351 14.2632 7.99695Z" fill="#CEBD7E"/>
<path d="M8.0424 8.01325C7.95131 8.35994 7.91488 8.65233 7.79874 8.9092C7.58131 9.39198 7.03851 9.44891 6.74629 9.0125C6.35798 8.43253 6.3291 7.77113 6.55501 7.13696C6.73482 6.63215 7.39785 6.58352 7.68333 7.04725C7.86669 7.34521 7.93555 7.71375 8.0424 8.01325Z" fill="#CEBD7E"/>
<path d="M1.03907 8.34374C0.0961154 12.0499 0.921832 15.3194 3.49502 18.0625C3.56197 18.1334 3.63028 18.2042 3.69851 18.2726C5.08079 19.6548 6.80247 20.5082 8.16662 21.1021C8.75215 21.3578 11.7565 21.6683 12.5693 21.5472C17.4001 20.8258 20.5791 18.1012 21.6863 13.5429C21.8977 12.65 22.003 11.7353 22 10.8177C22.0051 8.65617 21.095 6.1432 19.2181 4.26111C19.0248 4.10134 18.8323 3.93583 18.6461 3.77542C18.2423 3.42828 17.8249 3.06886 17.3882 2.76234C14.0525 0.414513 10.5865 0.401376 7.08713 1.64638C3.91886 2.77289 1.88411 5.02663 1.03907 8.34374ZM7.10071 2.75614C10.1711 1.48025 13.2518 1.25507 16.2565 3.16604C16.8059 3.51582 18.2706 4.69963 18.5013 4.87743L18.516 4.88835L18.5282 4.90194C19.7005 6.14503 21.0428 8.41798 21.0132 10.7545C21.0034 11.7536 20.8682 12.7475 20.6106 13.7128C19.8474 16.487 18.0227 18.5088 15.0321 19.8917C11.9919 21.3474 7.63202 19.8757 6.472 19.11C5.18986 18.2334 4.068 17.1428 3.15544 15.886C1.72425 13.8597 1.40306 10.9471 2.17213 8.28443C2.53207 7.05504 3.16107 5.92115 4.01352 4.96496C4.86597 4.00878 5.92052 3.25427 7.10071 2.75614V2.75614Z" fill="#CEBD7E"/>
</svg>
