<svg width="32" height="32" viewBox="0 0 32 32" fill="none" xmlns="http://www.w3.org/2000/svg">
<path d="M18.2775 16.3219C19.2879 16.2581 20.2979 16.1893 21.3086 16.1337C21.5759 16.1094 21.8451 16.1178 22.1104 16.1586C23.5452 16.4369 23.9029 16.9024 23.843 18.365C23.7301 21.1275 21.9344 23.5825 19.2949 24.3681C16.4085 25.2271 13.627 24.931 11.1101 23.1786C9.23582 21.8735 8.53114 19.8004 9.10357 17.5883C9.21782 17.1473 9.4191 16.9232 9.93021 16.8882C12.7122 16.6973 15.4913 16.4618 18.2713 16.2417C18.2736 16.2688 18.2756 16.2953 18.2775 16.3219ZM12.7474 22.707C13.0569 21.6569 13.7881 21.1531 14.7065 20.9427C16.8195 20.459 18.8688 20.4132 20.6854 22.2255L22.1544 19.8303L21.9879 19.634L10.2451 20.1694C10.7897 21.4246 11.6161 22.1677 12.7474 22.707ZM10.0871 19.1181L22.2945 18.3532C22.2403 17.9644 22.2055 17.7097 22.1622 17.3966L10.0871 17.9127V19.1181ZM19.4447 22.8838C18.3094 21.7162 17.0218 21.828 15.7301 22.0405C15.0163 22.1576 14.2797 22.295 13.9136 23.1599C15.8028 23.645 17.571 23.6372 19.4447 22.8838Z" fill="#BE7ECE"/>
<path d="M22.4383 9.49132C23.2327 8.70339 24.0529 8.4978 24.7712 8.87979C25.4729 9.2527 25.9623 10.5128 25.7202 11.4446C25.4324 12.5536 24.8338 13.5 23.8285 14.0508C23.3776 14.2978 22.7312 14.3575 22.2108 14.2726C21.1541 14.0976 20.1967 13.5451 19.5163 12.7178C18.803 11.8733 18.8366 10.5754 19.5454 9.72307C20.2343 8.89427 21.0818 8.82237 22.4383 9.49132ZM20.2491 11.3782C20.2765 11.5244 20.3272 11.6652 20.3993 11.7953C20.9109 12.5196 21.6863 12.8194 22.4994 13.0456C22.5317 13.0533 22.5652 13.0542 22.5979 13.0482C22.6305 13.0421 22.6615 13.0294 22.6889 13.0107C23.4023 12.3918 24.1989 11.8135 24.3858 10.8178C24.4412 10.5226 24.2163 10.1748 24.1198 9.85113C23.8065 9.97092 23.3809 10.0016 23.2019 10.2277C22.7482 10.8008 22.3616 10.8919 21.7233 10.4794C20.9329 9.96819 20.2396 10.3871 20.2491 11.3782Z" fill="#BE7ECE"/>
<path d="M10.1379 13.7558C9.4043 13.6874 8.21205 13.0527 7.40951 11.7905C7.14782 11.3771 7.0335 10.8874 7.0851 10.4009C7.1367 9.91442 7.35119 9.45963 7.69376 9.11036C8.32643 8.46429 9.1888 8.42937 10.1788 8.94238C10.2992 8.99238 10.4284 9.01779 10.5587 9.01717C10.6891 9.01654 10.818 8.98987 10.9379 8.93871C12.1802 8.35667 13.3036 8.88457 13.6238 10.2287C14.0535 12.0286 12.5055 13.8478 10.1379 13.7558ZM11.0501 12.7C11.5124 12.0826 12.0029 11.5359 12.347 10.9093C12.4688 10.6885 12.3245 10.1775 12.1238 9.9772C11.9955 9.84902 11.4429 9.94145 11.2511 10.119C10.642 10.6821 10.1966 10.6127 9.66391 10.0154C9.50148 9.83386 8.93785 9.73599 8.80858 9.86025C8.57996 10.0802 8.39398 10.537 8.46518 10.8263C8.55059 11.1742 8.86949 11.5341 9.18434 11.7411C9.73768 12.1048 10.3648 12.3564 11.0501 12.6997V12.7Z" fill="#BE7ECE"/>
<path d="M0.851907 11.7961C-0.54933 17.3035 0.677701 22.1619 4.50146 26.239C4.60108 26.3443 4.70247 26.4494 4.80399 26.5503C6.85793 28.6042 9.41635 29.8725 11.4436 30.7549C12.3137 31.1349 16.7781 31.5965 17.9861 31.4164C25.1646 30.3445 29.8885 26.2957 31.5338 19.522C31.848 18.1952 32.0044 16.8359 31.9999 15.4724C32.0076 12.2603 30.6551 8.526 27.8661 5.72921C27.579 5.49192 27.2928 5.24583 27.0161 5.0076C26.4161 4.49161 25.7957 3.95765 25.1468 3.50203C20.1899 0.013281 15.0396 -0.00634603 9.83948 1.84388C5.13129 3.518 2.10777 6.86691 0.851907 11.7961ZM9.85952 3.49307C14.4222 1.59696 19.0002 1.26235 23.4653 4.10219C24.2816 4.62197 26.4582 6.38124 26.8008 6.64533L26.8229 6.66172L26.841 6.68174C28.5829 8.52899 30.5777 11.9066 30.5336 15.3787C30.5191 16.8634 30.3181 18.3403 29.9354 19.7749C28.8013 23.8973 26.0896 26.9017 21.6456 28.9567C17.128 31.1197 10.6492 28.933 8.9254 27.7949C7.02007 26.4924 5.35292 24.8719 3.99684 23.0043C1.87008 19.9931 1.39294 15.665 2.53496 11.7082C3.06988 9.88121 4.00467 8.19617 5.27155 6.77527C6.53842 5.35436 8.10562 4.2332 9.85952 3.49307V3.49307Z" fill="#BE7ECE"/>
</svg>
