<svg width="25" height="24" viewBox="0 0 25 24" fill="none" xmlns="http://www.w3.org/2000/svg">
<path d="M24.0935 6.01277C24.2619 5.29194 24.1037 5.02411 23.3442 5.01587C22.859 5.01078 22.3737 4.99876 21.8888 5.00507C21.5831 4.5927 21.2479 4.20308 20.8857 3.83928C20.6699 3.66095 20.4548 3.47601 20.2469 3.29697C19.7959 2.90919 19.3298 2.5079 18.8421 2.16548C15.1168 -0.456424 11.2461 -0.471175 7.33806 0.919329C5.04829 1.73314 3.28933 3.07592 2.07715 4.9245C1.65865 4.92155 1.24004 4.92033 0.821742 4.91688C0.0632667 4.91067 -0.137541 5.19917 0.0860541 5.91075C0.113375 6.02536 0.129086 6.14243 0.13295 6.26019C0.203717 7.05018 0.338126 7.83315 0.534872 8.60152C-0.43723 12.6569 0.499878 16.2392 3.32646 19.2523C3.40123 19.3315 3.47752 19.4105 3.55372 19.4863C5.09742 21.03 7.02016 21.9831 8.54362 22.6462C9.19752 22.9318 12.5527 23.2787 13.4605 23.1434C18.8554 22.3378 22.4056 19.295 23.6421 14.2043C23.8782 13.2072 23.9958 12.1856 23.9924 11.1609C23.9898 10.2863 23.8688 9.41608 23.6328 8.57395C23.6648 8.46897 23.6953 8.36387 23.7243 8.25861C23.9249 7.53188 23.9212 6.75029 24.0935 6.01277ZM22.3511 8.18679C22.1961 8.7237 22.0358 9.24911 21.8499 9.76517C21.403 11.0086 20.4199 11.6315 19.1144 11.6652C18.3074 11.6861 17.4823 11.6795 16.6922 11.5365C15.0511 11.2395 13.942 9.97798 13.6867 8.31556C13.6053 7.78526 13.744 7.4102 14.2715 7.26096C15.3428 6.95823 16.4058 6.56749 17.5002 6.41856C18.7658 6.24624 20.0485 6.19863 21.3285 6.13372C21.7399 6.78065 22.0826 7.46874 22.3511 8.18679V8.18679ZM7.35321 2.15875C10.7821 0.733763 14.2226 0.482294 17.5783 2.61652C18.1918 3.00715 19.8276 4.32931 20.085 4.52778L20.1016 4.53997L20.1153 4.55514C20.2564 4.70489 20.4001 4.86877 20.5433 5.04344C18.599 5.12726 16.6727 5.34911 14.8156 6.00403C14.2324 6.22127 13.6809 6.5155 13.1758 6.87889C12.6739 7.22914 11.612 7.23716 11.1017 6.87939C10.5691 6.50605 10.0031 6.14319 9.39833 5.91716C7.78525 5.31422 6.0856 5.08553 4.37577 4.98604C4.12613 4.9715 3.87629 4.96103 3.62635 4.95259C4.62065 3.7297 5.90056 2.77021 7.35321 2.15875V2.15875ZM2.87205 6.01685C3.31415 6.0142 3.753 6.01684 4.19093 6.03719C5.92029 6.11643 7.63571 6.33109 9.27331 6.92039C10.6553 7.41774 10.7666 7.42476 10.2682 8.98759C9.71134 10.7338 8.33722 11.4838 6.58396 11.5763C5.89161 11.6005 5.19845 11.5681 4.51137 11.4796C3.65148 11.3836 3.02484 10.9193 2.57216 10.168C2.24519 9.61323 1.99629 9.01599 1.8325 8.3932C1.8382 8.37285 1.84328 8.35301 1.84908 8.33307C2.08455 7.51858 2.42863 6.7395 2.87205 6.01685V6.01685ZM1.44787 6.02907C1.43109 6.06304 1.41369 6.09651 1.39701 6.13079C1.39192 6.09692 1.38683 6.06314 1.38165 6.02907H1.44787ZM22.8906 11.0912C22.8796 12.207 22.7286 13.317 22.4409 14.3951C21.5886 17.4932 19.5508 19.7511 16.211 21.2955C12.8157 22.9211 7.94669 21.2777 6.6512 20.4224C5.21932 19.4434 3.96641 18.2256 2.94722 16.8221C1.77004 15.1553 1.26619 12.9516 1.42508 10.718C1.46577 10.785 1.50728 10.8519 1.55092 10.9182C2.08641 11.7289 2.793 12.2915 3.74323 12.533C5.05786 12.8804 6.43526 12.9174 7.76663 12.641C9.71124 12.2307 10.912 11.0267 11.474 9.15178C11.5438 8.86851 11.5989 8.58183 11.6392 8.29289H12.5212C12.5451 8.42869 12.5676 8.54282 12.5852 8.65777C12.9295 10.9014 14.4101 12.4782 16.6543 12.7737C17.7112 12.9128 18.8109 12.8366 19.881 12.738C21.2238 12.6142 22.2277 11.875 22.8107 10.6613C22.832 10.617 22.8524 10.5722 22.8733 10.5276C22.8863 10.7149 22.8928 10.9028 22.8905 11.0912H22.8906ZM22.6112 6.1143C22.7035 6.12346 22.8073 6.13353 22.9316 6.14279C22.8952 6.26618 22.8604 6.38826 22.8254 6.51023C22.7569 6.37731 22.6855 6.24533 22.6111 6.1143H22.6112Z" fill="#CE7EA0"/>
<path d="M17.0424 14.1275C16.7392 13.8906 16.3532 14.0609 15.9891 14.6313C15.3767 15.591 14.5201 16.1758 13.4026 16.3132C12.585 16.4137 11.7493 16.4895 10.9312 16.4342C9.8038 16.3581 8.72997 16.0782 8.01259 15.0507C7.91351 14.9088 7.48616 14.8226 7.36154 14.9146C7.27047 15.0003 7.20089 15.1062 7.15847 15.2238C7.11605 15.3414 7.10197 15.4674 7.1174 15.5914C7.25748 16.1925 7.68707 16.6134 8.20109 16.9398C9.42354 17.7155 10.7928 17.8538 12.2324 17.8648C12.6648 17.8118 13.1378 17.7766 13.6028 17.6919C15.1338 17.4142 16.4369 16.792 17.1133 15.2719C17.288 14.8812 17.4753 14.4659 17.0424 14.1275Z" fill="#CE7EA0"/>
</svg>
