<svg width="30" height="30" viewBox="0 0 30 30" fill="none" xmlns="http://www.w3.org/2000/svg">
<path d="M19.3934 25.6064C25.2513 23.18 28.033 16.4643 25.6066 10.6064C23.1802 4.74856 16.4645 1.96682 10.6066 4.39322C4.74874 6.81963 1.96699 13.5354 4.3934 19.3932C6.81981 25.2511 13.5355 28.0328 19.3934 25.6064Z" stroke="#BC8487" stroke-linecap="round" stroke-linejoin="round"/>
<path d="M19.864 19.2544C19.2576 19.9482 18.5098 20.5043 17.6708 20.8853C16.8318 21.2663 15.921 21.4634 14.9995 21.4634C14.078 21.4634 13.1672 21.2663 12.3282 20.8853C11.4892 20.5043 10.7414 19.9482 10.135 19.2544" stroke="#BC8487" stroke-linecap="round" stroke-linejoin="round"/>
<path d="M8.57715 12.9126C8.69792 12.7033 8.87002 12.5282 9.07722 12.4037C9.28443 12.2793 9.5199 12.2097 9.76145 12.2015C10.003 12.1933 10.2426 12.2467 10.4578 12.3568C10.673 12.4668 10.8566 12.6299 10.9913 12.8305" stroke="#BC8487" stroke-linecap="round" stroke-linejoin="round"/>
<path d="M21.4161 12.9129C21.2951 12.7036 21.1228 12.5285 20.9154 12.4041C20.7081 12.2798 20.4725 12.2102 20.2308 12.202C19.9892 12.1938 19.7494 12.2472 19.5341 12.3572C19.3187 12.4672 19.135 12.6302 19 12.8308" stroke="#BC8487" stroke-linecap="round" stroke-linejoin="round"/>
<path d="M9.96499 19.0374C9.6483 19.357 9.23054 19.5567 8.783 19.6026C8.33546 19.6484 7.88586 19.5376 7.51094 19.2889C7.13602 19.0403 6.859 18.6692 6.72716 18.2391C6.59531 17.8089 6.61681 17.3464 6.78799 16.9303C6.95916 16.5143 7.26941 16.1705 7.66578 15.9577C8.06215 15.7449 8.52008 15.6762 8.96144 15.7634C9.4028 15.8506 9.80023 16.0882 10.0859 16.4357C10.3716 16.7833 10.5278 17.2192 10.528 17.6691C10.529 18.1818 10.3265 18.6739 9.96499 19.0374V19.0374Z" stroke="#BC8487" stroke-linecap="round" stroke-linejoin="round"/>
<path d="M20.0342 19.0374C20.3509 19.357 20.7686 19.5567 21.2162 19.6026C21.6637 19.6484 22.1133 19.5376 22.4882 19.2889C22.8631 19.0403 23.1402 18.6692 23.272 18.2391C23.4039 17.8089 23.3824 17.3464 23.2112 16.9303C23.04 16.5143 22.7298 16.1705 22.3334 15.9577C21.937 15.7449 21.4791 15.6762 21.0377 15.7634C20.5964 15.8506 20.1989 16.0882 19.9132 16.4357C19.6276 16.7833 19.4713 17.2192 19.4712 17.6691C19.471 18.1816 19.6734 18.6734 20.0342 19.0374Z" stroke="#BC8487" stroke-linecap="round" stroke-linejoin="round"/>
</svg>
