<svg width="34" height="32" viewBox="0 0 34 32" fill="none" xmlns="http://www.w3.org/2000/svg">
<path d="M2.90371 17.3309C2.86285 16.8941 2.84497 16.4497 2.84497 16.0028C2.84432 12.427 4.12104 8.9687 6.44498 6.25116C8.76893 3.53361 11.9872 1.73564 15.5197 1.18135C19.0522 0.627062 22.6665 1.35292 25.7111 3.22807C28.7557 5.10322 31.0303 8.00432 32.1249 11.4084C33.2194 14.8125 33.0619 18.4956 31.6808 21.7938C30.2997 25.092 27.7858 27.7884 24.5922 29.3968C21.3987 31.0052 17.7356 31.4199 14.2633 30.5661C10.791 29.7123 7.73793 27.6462 5.65443 24.7402" stroke="#A8D09A" stroke-linecap="round" stroke-linejoin="round"/>
<path d="M9.4624 13.2752C9.62053 13.0017 9.84565 12.7729 10.1166 12.6104C10.3875 12.4479 10.6953 12.357 11.0111 12.3463C11.3268 12.3356 11.6401 12.4053 11.9214 12.5491C12.2028 12.6928 12.4429 12.9058 12.6192 13.1679" stroke="#A8D09A" stroke-linecap="round" stroke-linejoin="round"/>
<path d="M26.2274 13.2752C26.0692 13.0017 25.8441 12.7729 25.5732 12.6104C25.3023 12.4479 24.9944 12.357 24.6787 12.3463C24.363 12.3356 24.0497 12.4053 23.7683 12.5491C23.487 12.6928 23.2469 12.9058 23.0706 13.1679" stroke="#A8D09A" stroke-linecap="round" stroke-linejoin="round"/>
<path d="M19.1016 24.3241C18.6647 24.6159 18.1355 24.736 17.6156 24.6613C17.0956 24.5866 16.6216 24.3225 16.2846 23.9195C15.9475 23.5166 15.7713 23.0034 15.7896 22.4784C15.808 21.9534 16.0197 21.4538 16.384 21.0754C16.5684 20.8914 16.7848 20.7425 17.0226 20.6361V20.6361C16.7841 20.5273 16.567 20.3768 16.3815 20.1917C16.0088 19.8148 15.7901 19.3125 15.768 18.7829C15.7459 18.2533 15.922 17.7345 16.2619 17.3279C16.6019 16.9212 17.0812 16.6559 17.6063 16.5838C18.1314 16.5117 18.6645 16.6379 19.1016 16.9378" stroke="#A8D09A" stroke-linecap="round" stroke-linejoin="round"/>
<path d="M9.15854 17.5528C8.88321 17.4063 8.58172 17.3156 8.27131 17.2858C7.9609 17.256 7.64765 17.2876 7.34948 17.3789C7.05131 17.4703 6.77406 17.6195 6.5336 17.818C6.29314 18.0166 6.09417 18.2606 5.94809 18.5361C5.79352 18.8124 5.71178 19.1236 5.71056 19.4402C5.70844 19.1234 5.62583 18.8123 5.47048 18.5361C5.23139 18.0869 4.85434 17.7263 4.39488 17.5075C3.93543 17.2887 3.41785 17.2233 2.9184 17.3208C2.41895 17.4184 1.96402 17.6738 1.62065 18.0493C1.27727 18.4249 1.0636 18.9008 1.0111 19.407C0.855299 20.9216 2.37496 21.8615 3.37871 22.7273C4.14492 23.3914 4.91114 24.0477 5.71567 24.699C6.41037 24.1218 7.09997 23.5378 7.78445 22.9469C8.28249 22.5179 8.78054 22.0862 9.26581 21.6418C9.92475 21.0416 10.4586 20.4951 10.4177 19.5449C10.3978 19.1324 10.2713 18.732 10.0507 18.3829C9.82999 18.0338 9.52263 17.7478 9.15854 17.5528V17.5528Z" stroke="#A8D09A" stroke-linecap="round" stroke-linejoin="round"/>
</svg>
