<svg width="32" height="31" viewBox="0 0 32 31" fill="none" xmlns="http://www.w3.org/2000/svg">
<path d="M17.1556 16.2401C16.3563 15.6812 15.0723 15.9022 14.4359 16.6643C14.0666 17.095 13.7865 17.5949 13.612 18.1348C13.4376 18.6747 13.3721 19.2439 13.4195 19.8093C13.4906 20.768 14.3472 21.5833 15.3528 21.7223C16.4325 21.8717 17.2515 21.4253 17.6015 20.4025C17.7995 19.8235 17.8702 19.2015 17.9574 18.7911C17.8949 18.1393 17.9207 17.6768 17.7904 17.2633C17.6726 16.8873 17.4626 16.4539 17.1556 16.2401ZM15.5988 17.0683C16.2061 17.0209 16.5822 17.4787 16.6642 18.1606H14.7607C14.9594 17.7319 14.9939 17.115 15.5993 17.0683H15.5988ZM15.8099 20.6148C15.2945 20.6832 14.7557 20.2613 14.5422 19.6281C15.2026 19.1572 15.9209 19.2195 16.7165 19.3971C16.5904 19.9973 16.474 20.5266 15.8104 20.6148H15.8099Z" fill="#89CE7E"/>
<path d="M27.1852 5.03606C26.9023 4.80254 26.6194 4.55966 26.3472 4.3248C25.756 3.81638 25.1435 3.2893 24.5043 2.84093C19.6176 -0.599225 14.5402 -0.617907 9.41328 1.20626C4.77214 2.85694 1.79102 6.15832 0.552669 11.017C-0.828465 16.4468 0.381867 21.236 4.15163 25.2553C4.24904 25.3594 4.34912 25.4622 4.4492 25.5623C4.56263 25.6757 4.67872 25.7878 4.79615 25.8972C5.30837 26.3738 5.85229 26.8152 6.42415 27.2183C7.87601 28.2498 9.40527 29.0051 10.7304 29.5922C10.8193 29.6323 10.9074 29.671 10.9946 29.7083C11.334 29.8282 11.6844 29.9145 12.0408 29.9659C13.6768 30.2554 16.5231 30.497 17.4452 30.3595C18.1823 30.2505 18.9133 30.1031 19.635 29.9178C20.1261 29.7924 20.6033 29.65 21.0668 29.4908C22.3066 29.073 23.4899 28.5033 24.5897 27.7947C24.9855 27.538 25.3681 27.2614 25.736 26.9661C28.2194 24.9724 29.9381 22.1821 30.8002 18.6339C31.1108 17.3259 31.2654 15.9857 31.2605 14.6413C31.2672 11.4747 29.9341 7.79299 27.1852 5.03606ZM8.51254 26.7894C7.74189 26.273 7.01325 25.6965 6.33341 25.0653C6.36411 24.9906 6.3988 24.9145 6.43617 24.8384C6.76711 24.1606 7.09626 23.4818 7.42364 22.8021C7.91071 21.7853 7.96943 20.7484 7.51972 19.7089C7.29154 19.1818 7.0153 18.6734 6.75509 18.1596C6.23333 17.1348 6.38146 16.2327 7.22748 15.4654C7.87068 14.8849 8.52855 14.3205 9.18509 13.7573C9.39192 13.5799 9.62011 13.4291 9.96572 13.1729C9.8603 13.6493 9.78825 13.9469 9.72687 14.2471C9.43863 15.6643 9.49201 17.0414 10.322 18.2864C11.2148 19.6275 11.3589 20.9432 10.4982 22.3911C9.82829 23.5187 9.80026 24.7611 10.3781 25.9727C10.6637 26.5619 10.8349 27.1999 10.8825 27.8529C9.82428 27.4958 8.98626 27.1035 8.51254 26.7894ZM21.3324 27.8022C21.2954 27.2171 21.0573 26.6627 20.6585 26.2329C19.6377 25.0987 19.5736 23.847 20.1528 22.5166C20.5144 21.6839 20.9147 20.8658 21.3297 20.0572C21.7861 19.1698 21.9903 18.2597 21.6313 17.3003C21.4274 16.7852 21.1953 16.2818 20.9361 15.7923C20.3382 14.606 20.6025 13.5051 21.1709 12.4162C22.4667 13.1302 23.701 13.808 24.93 14.4833C24.878 14.6514 24.858 14.7381 24.8233 14.8182C23.9852 16.7611 23.8304 18.6547 25.0688 20.5309C25.2876 20.8632 25.273 21.433 25.1929 21.8613C25.0546 22.4902 24.8534 23.1036 24.5924 23.6922C24.2608 24.4626 24.1123 25.2994 24.1587 26.1368C23.2688 26.7764 22.3229 27.334 21.3324 27.8028V27.8022ZM29.2255 18.8829C28.6218 21.1638 27.3983 23.2329 25.6906 24.8611C25.7133 24.7851 25.7373 24.709 25.7654 24.6329C26.0136 23.9444 26.2204 23.2411 26.4366 22.5419C26.7275 21.6025 26.7101 20.6764 26.0976 19.873C24.9834 18.4118 25.1062 16.8599 25.684 15.2639C25.7453 15.0944 25.9522 14.9744 26.099 14.8396C26.3085 14.6434 26.6701 14.4739 26.6995 14.2578C26.7315 14.0202 26.4993 13.7053 26.3071 13.4918C26.155 13.3223 25.8908 13.2516 25.6733 13.1409C24.6258 12.6071 23.5756 12.0787 22.5307 11.5382C22.3124 11.4085 22.1009 11.2677 21.8969 11.1165C22.9978 9.9769 24.0373 8.91338 25.0595 7.8325C25.277 7.60164 25.764 7.34674 25.381 6.97844C25.0381 6.6475 24.7499 7.07853 24.4883 7.28937C24.2468 7.4842 24.0266 7.70704 23.7957 7.91521C22.8897 8.73322 21.9929 9.56324 21.0682 10.3626C20.6692 10.7069 20.2729 11.0058 20.437 11.6316C20.4677 11.7477 20.3422 11.9158 20.2662 12.0479C19.3694 13.6012 19.1813 15.1719 20.1261 16.7812C20.6985 17.7566 20.6185 18.6814 20.0407 19.6635C19.4985 20.5792 19.0445 21.5443 18.6849 22.5459C18.1378 24.0765 18.3566 25.5363 19.4882 26.7654C19.9379 27.2538 20.1074 27.7649 19.994 28.352C17.4812 29.1553 14.5628 28.8538 12.2436 28.2573C12.2447 27.5501 12.1022 26.85 11.8246 26.1996C11.2454 24.8438 11.3242 23.6294 12.0274 22.3911C12.1397 22.1742 12.2313 21.9473 12.301 21.7132C12.5719 20.9286 12.5972 20.1386 12.2543 19.3726C11.989 18.7629 11.6905 18.1682 11.3602 17.5912C10.8798 16.7785 10.6249 15.9271 10.7651 14.985C10.8625 14.3285 10.9585 13.6679 11.1187 13.0261C11.3909 11.9319 11.1307 11.3594 10.1232 10.8977C9.66062 10.6825 9.21143 10.4396 8.77809 10.1704C7.83064 9.59261 6.89922 8.98812 5.95311 8.40764C5.60349 8.19147 5.21383 8.00462 4.88156 8.4183C4.64803 8.7092 4.82551 9.11754 5.31925 9.45649C6.21866 10.0703 7.1274 10.6668 8.0308 11.2727C8.39243 11.5142 8.75006 11.7597 9.14105 12.0239C8.16291 12.8273 7.23416 13.5826 6.31207 14.3472C6.00648 14.6021 5.64885 14.8369 5.44602 15.1625C5.29923 15.3974 5.23385 15.8858 5.3753 16.0499C5.61683 16.3301 5.6275 16.5303 5.57279 16.8599C5.51947 17.21 5.54362 17.5676 5.64352 17.9074C5.79309 18.3939 5.98602 18.866 6.21999 19.3179C6.76844 20.4202 6.7631 21.4824 6.12124 22.5526C5.82633 23.0423 5.57146 23.5574 5.32592 24.0752C4.72074 23.447 4.16192 22.7758 3.65388 22.0668C1.55749 19.0977 1.08644 14.8302 2.2127 10.9297C2.7402 9.12873 3.66178 7.46769 4.91065 6.06695C6.15952 4.66621 7.70439 3.56088 9.43329 2.83106C13.9316 0.961526 18.4447 0.631922 22.847 3.43155C23.6516 3.94397 25.7974 5.67874 26.135 5.93895L26.1563 5.95495L26.1737 5.97498C27.8911 7.79648 29.8581 11.1259 29.8154 14.5487C29.8006 16.0126 29.6025 17.4688 29.2255 18.8834V18.8829Z" fill="#89CE7E"/>
</svg>
