<svg width="25" height="25" viewBox="0 0 25 25" fill="none" xmlns="http://www.w3.org/2000/svg">
<path d="M12.7351 24.4703C19.2163 24.4703 24.4703 19.2163 24.4703 12.7351C24.4703 6.254 19.2163 1 12.7351 1C6.254 1 1 6.254 1 12.7351C1 19.2163 6.254 24.4703 12.7351 24.4703Z" stroke="#D696AD" stroke-linecap="round" stroke-linejoin="round"/>
<path d="M16.9873 10.0039C16.9869 9.79869 17.0474 9.59799 17.1611 9.42719C17.2748 9.25639 17.4366 9.12316 17.6261 9.04436C17.8156 8.96556 18.0241 8.94474 18.2254 8.98453C18.4267 9.02432 18.6117 9.12293 18.7569 9.26788C18.9022 9.41283 19.0011 9.59761 19.0413 9.79883C19.0815 10.0001 19.0611 10.2087 18.9826 10.3983C18.9042 10.5879 18.7713 10.75 18.6007 10.864C18.4301 10.9781 18.2295 11.0389 18.0243 11.0389C17.7497 11.0389 17.4862 10.9299 17.2918 10.7359C17.0973 10.5418 16.9878 10.2786 16.9873 10.0039Z" fill="#D696AD"/>
<path d="M19.0434 14.6992C18.6244 16.0449 17.7862 17.2213 16.6511 18.0567C15.516 18.8921 14.1436 19.3428 12.7342 19.3428C11.3248 19.3428 9.9524 18.8921 8.81732 18.0567C7.68225 17.2213 6.84401 16.0449 6.42505 14.6992" stroke="#D696AD" stroke-linecap="round" stroke-linejoin="round"/>
<path d="M6.92652 14.4097L5.72363 14.9871" stroke="#D696AD" stroke-linecap="round" stroke-linejoin="round"/>
<path d="M18.5437 14.4097L19.7466 14.9871" stroke="#D696AD" stroke-linecap="round" stroke-linejoin="round"/>
<path d="M6.16919 10.6013C6.29264 10.3873 6.46856 10.2083 6.68036 10.0811C6.89215 9.95391 7.13285 9.88277 7.37975 9.87438C7.62666 9.86598 7.87163 9.9206 8.09158 10.0331C8.31153 10.1456 8.4992 10.3122 8.63691 10.5174" stroke="#D696AD" stroke-linecap="round" stroke-linejoin="round"/>
</svg>
