<svg width="32" height="32" viewBox="0 0 32 32" fill="none" xmlns="http://www.w3.org/2000/svg">
<path d="M23.7703 12.351C23.7708 12.0923 23.6945 11.8392 23.5511 11.6239C23.4078 11.4086 23.2038 11.2406 22.9649 11.1413C22.7261 11.0419 22.4631 11.0157 22.2093 11.0658C21.9555 11.116 21.7223 11.2403 21.5392 11.4231C21.3561 11.6058 21.2314 11.8388 21.1807 12.0925C21.1301 12.3461 21.1558 12.6091 21.2547 12.8482C21.3536 13.0872 21.5211 13.2916 21.7362 13.4354C21.9513 13.5791 22.2041 13.6559 22.4628 13.6559C22.8091 13.6559 23.1413 13.5185 23.3864 13.2738C23.6316 13.0292 23.7696 12.6973 23.7703 12.351Z" fill="#E5AEE0"/>
<path d="M10.4341 12.351C10.4346 12.0923 10.3583 11.8392 10.215 11.6239C10.0716 11.4086 9.86759 11.2406 9.62873 11.1413C9.38987 11.0419 9.12692 11.0157 8.87313 11.0658C8.61935 11.116 8.38616 11.2403 8.20306 11.4231C8.01996 11.6058 7.89519 11.8388 7.84453 12.0925C7.79388 12.3461 7.81963 12.6091 7.91851 12.8482C8.01739 13.0872 8.18496 13.2916 8.40002 13.4354C8.61508 13.5791 8.86796 13.6559 9.12665 13.6559C9.47297 13.6559 9.80513 13.5185 10.0503 13.2738C10.2954 13.0292 10.4334 12.6973 10.4341 12.351Z" fill="#E5AEE0"/>
<path d="M15.7948 30.5897C7.62379 30.5897 0.999914 23.9658 0.999914 15.7948C0.999914 7.62388 7.62379 1 15.7948 1C23.9657 1 30.5896 7.62388 30.5896 15.7948C30.5896 23.9658 23.9657 30.5897 15.7948 30.5897Z" stroke="#E6AEE0" stroke-linecap="round" stroke-linejoin="round"/>
<path d="M15.7946 25.3999C13.8928 25.3999 12.351 23.1431 12.351 20.3591C12.351 17.5752 13.8928 15.3184 15.7946 15.3184C17.6965 15.3184 19.2383 17.5752 19.2383 20.3591C19.2383 23.1431 17.6965 25.3999 15.7946 25.3999Z" stroke="#E6AEE0" stroke-linecap="round" stroke-linejoin="round"/>
</svg>
