<svg width="22" height="22" viewBox="0 0 22 22" fill="none" xmlns="http://www.w3.org/2000/svg">
<path d="M19.2067 12.6442C20.3263 7.90028 17.3883 3.14689 12.6444 2.02721C7.90041 0.907543 3.14702 3.84559 2.02735 8.58953C0.907673 13.3335 3.84572 18.0869 8.58966 19.2065C13.3336 20.3262 18.087 17.3882 19.2067 12.6442Z" stroke="#BDB7E7" stroke-linecap="round" stroke-linejoin="round"/>
<path d="M5.85889 8.56415C5.85859 8.40983 5.90408 8.25889 5.9896 8.13043C6.07512 8.00198 6.19682 7.90178 6.33931 7.84252C6.4818 7.78325 6.63866 7.76759 6.79005 7.79752C6.94144 7.82744 7.08055 7.9016 7.18978 8.01062C7.299 8.11963 7.37343 8.2586 7.40365 8.40993C7.43386 8.56127 7.41851 8.71816 7.35952 8.86076C7.30053 9.00336 7.20057 9.12526 7.07228 9.21103C6.94399 9.29679 6.79314 9.34257 6.63882 9.34257C6.43223 9.34257 6.23408 9.26061 6.08785 9.11467C5.94163 8.96873 5.85929 8.77074 5.85889 8.56415Z" fill="#BDB7E7"/>
<path d="M13.8145 8.56415C13.8142 8.40983 13.8596 8.25889 13.9452 8.13043C14.0307 8.00198 14.1524 7.90178 14.2949 7.84252C14.4374 7.78325 14.5942 7.76759 14.7456 7.79752C14.897 7.82744 15.0361 7.9016 15.1453 8.01062C15.2546 8.11963 15.329 8.2586 15.3592 8.40993C15.3894 8.56127 15.3741 8.71816 15.3151 8.86076C15.2561 9.00336 15.1561 9.12526 15.0278 9.21103C14.8996 9.29679 14.7487 9.34257 14.5944 9.34257C14.3878 9.34257 14.1896 9.26061 14.0434 9.11467C13.8972 8.96873 13.8149 8.77074 13.8145 8.56415Z" fill="#BDB7E7"/>
<path d="M15.3607 12.0962C15.0456 13.1082 14.4152 13.993 13.5616 14.6213C12.7079 15.2496 11.6757 15.5885 10.6158 15.5885C9.55585 15.5885 8.52367 15.2496 7.67001 14.6213C6.81635 13.993 6.18594 13.1082 5.87085 12.0962" stroke="#BDB7E7" stroke-linecap="round" stroke-linejoin="round"/>
<path d="M6.24816 11.8784L5.34351 12.3127" stroke="#BDB7E7" stroke-linecap="round" stroke-linejoin="round"/>
<path d="M14.9851 11.8784L15.8898 12.3127" stroke="#BDB7E7" stroke-linecap="round" stroke-linejoin="round"/>
</svg>
