<svg width="40" height="40" viewBox="0 0 40 40" fill="none" xmlns="http://www.w3.org/2000/svg">
<path d="M26.7208 28.6191C31.4809 24.9074 32.3307 18.0397 28.619 13.2796C24.9073 8.51954 18.0396 7.66969 13.2795 11.3814C8.51944 15.0931 7.66958 21.9608 11.3813 26.7209C15.093 31.481 21.9607 32.3308 26.7208 28.6191Z" stroke="#8BC5B7" stroke-linecap="round" stroke-linejoin="round"/>
<path d="M24.8585 23.7792C24.0526 24.8154 22.9364 25.5667 21.6731 25.9234C20.4098 26.2801 19.0656 26.2235 17.8367 25.7619C16.6079 25.3003 15.5588 24.4579 14.8428 23.3577C14.1267 22.2574 13.7813 20.9571 13.8568 19.6466L24.8585 23.7792Z" stroke="#8BC5B7" stroke-linecap="round" stroke-linejoin="round"/>
<path d="M14.6604 17.2276L17.0202 16.9021L15.4583 15.104" stroke="#8BC5B7" stroke-linecap="round" stroke-linejoin="round"/>
<path d="M25.8434 21.4282L24.2822 19.6283L26.642 19.3028" stroke="#8BC5B7" stroke-linecap="round" stroke-linejoin="round"/>
</svg>
