<svg width="38" height="36" viewBox="0 0 38 36" fill="none" xmlns="http://www.w3.org/2000/svg">
<path d="M23.2482 22.8451C23.0943 23.3655 22.8789 24.4203 22.4711 25.3945C21.9005 26.7582 20.8168 27.5802 19.2991 27.5695C17.7671 27.5587 16.654 26.7569 16.0365 25.3711C15.2135 23.5238 15.2892 21.6828 16.4108 19.9758C17.5079 18.3062 20.4428 17.8804 22.0351 19.1016C23.0972 19.9156 23.1659 21.1034 23.2482 22.8451ZM21.7522 22.4319C21.8498 21.3371 21.5663 20.4561 20.7933 20.1928C19.9418 19.9034 19.089 19.02 18.106 19.79C16.9725 20.678 16.7355 21.927 16.8331 23.4071C18.3572 22.1929 19.9978 22.1513 21.7522 22.4315V22.4319ZM19.526 23.5927L19.4363 23.3962C18.7916 23.6947 18.1306 23.9639 17.5145 24.3133C17.3697 24.3953 17.2654 24.7864 17.3319 24.9643C17.7515 26.0873 19.3374 26.6673 20.286 25.9543C20.7851 25.5791 21.0463 24.8878 21.4148 24.3392C20.864 24.0904 20.3144 23.8386 19.7606 23.5967C19.6833 23.5808 19.6038 23.5794 19.526 23.5927V23.5927Z" fill="#CEA07E"/>
<path d="M12.4358 14.9577C12.5864 14.371 12.6265 13.9664 12.7966 13.627C12.9434 13.334 13.2305 12.9187 13.469 12.9097C13.8677 12.9225 14.2453 13.0917 14.5203 13.3807C15.081 14.0039 14.932 15.2887 14.2472 15.7751C13.9718 15.9704 13.4221 16.1095 13.1933 15.9643C12.8329 15.7364 12.6379 15.2468 12.4358 14.9577Z" fill="#CEA07E"/>
<path d="M26.2949 13.6995C26.1391 14.2464 26.1215 14.6205 25.9357 14.8711C25.7555 15.1147 25.3792 15.3991 25.1335 15.363C24.952 15.3277 24.7801 15.2543 24.629 15.1475C24.478 15.0408 24.3514 14.9032 24.2576 14.7439C23.9422 14.0701 23.8212 13.2815 24.3721 12.6841C24.5911 12.4468 25.2866 12.3057 25.4858 12.4657C25.8785 12.7819 26.0764 13.34 26.2949 13.6995Z" fill="#CEA07E"/>
<path d="M13.6152 9.24786C13.0132 9.50852 12.4137 9.77501 11.8078 10.0267C11.6105 10.0971 11.4094 10.1566 11.2054 10.2047C11.1641 9.94566 11.0143 9.64018 11.1015 9.43581C11.4011 8.73173 12.0141 8.36905 12.7546 8.28579C13.2165 8.21213 13.6884 8.22889 14.144 8.33515C14.4168 8.41573 14.5995 8.80096 14.8228 9.04948C14.576 9.18115 14.3362 9.32924 14.0792 9.43647C13.9516 9.46233 13.8204 9.46496 13.6919 9.44421L13.6152 9.24786Z" fill="#CEA07E"/>
<path d="M27.435 8.97722C27.025 8.82442 26.7124 8.63032 26.3876 8.6054C25.8601 8.59026 25.3322 8.61185 24.8077 8.67004C24.5824 8.68581 24.3592 8.73044 24.135 8.76213C24.1725 8.47309 24.1211 7.99578 24.2635 7.9286C24.8077 7.67157 25.4276 7.37544 25.9943 7.41881C26.5989 7.46517 27.1872 7.85577 27.7549 8.1497C27.8822 8.21561 27.9987 8.56582 27.9341 8.6762C27.8399 8.8372 27.5772 8.89948 27.435 8.97722Z" fill="#CEA07E"/>
<path d="M1.54942 13.0963C-0.0829793 19.5122 1.34647 25.1721 5.80103 29.9217C5.91709 30.0444 6.0352 30.1669 6.15347 30.2844C8.54624 32.6772 11.5267 34.1547 13.8884 35.1827C14.9019 35.6253 20.103 36.163 21.51 35.9533C29.8727 34.7046 35.3761 29.9878 37.2928 22.0967C37.6589 20.551 37.8411 18.9674 37.8359 17.379C37.8449 13.637 36.2692 9.28668 33.0201 6.02851C32.6856 5.75208 32.3522 5.46539 32.0299 5.18786C31.3307 4.58675 30.6082 3.96469 29.8522 3.43391C24.0775 -0.630365 18.0776 -0.65323 12.0195 1.50222C6.53523 3.45252 3.01277 7.35389 1.54942 13.0963ZM12.043 3.42348C17.3584 1.21457 22.6916 0.824764 27.8931 4.13308C28.8443 4.73861 31.3798 6.7881 31.779 7.09576L31.8047 7.11485L31.8259 7.13818C33.8552 9.29016 36.1789 13.225 36.1276 17.2699C36.1107 18.9994 35.8766 20.7201 35.4308 22.3913C34.1094 27.1937 30.9505 30.6938 25.7735 33.0878C20.5106 35.6077 12.963 33.0602 10.9548 31.7344C8.73513 30.2169 6.79296 28.3291 5.21317 26.1534C2.73556 22.6455 2.17955 17.6034 3.51092 12.9938C4.13405 10.8655 5.223 8.90251 6.69881 7.24721C8.17462 5.59191 10.0003 4.28574 12.0435 3.42348H12.043Z" fill="#CEA07E"/>
</svg>
