<svg width="47" height="46" viewBox="0 0 47 46" fill="none" xmlns="http://www.w3.org/2000/svg">
<path d="M22.9512 33.1339C19.9451 33.1491 17.4556 32.628 15.3625 30.9541C14.6573 30.3902 14.1144 29.5952 13.5939 28.8394C13.2948 28.4048 13.3363 27.8281 13.8742 27.5336C14.3306 27.2838 14.793 27.4249 15.1117 27.8551C17.022 30.4336 19.7817 31.0009 22.733 30.9807C23.8518 30.9731 24.9766 30.7166 26.0846 30.5018C28.0352 30.1235 29.6026 29.1486 30.6665 27.4221C30.9196 27.0303 31.2157 26.6681 31.5493 26.3421C31.9721 25.9121 32.4816 25.6364 33.0581 26.052C33.5704 26.4214 33.5603 26.9355 33.3482 27.4872C32.737 29.1254 31.5782 30.5019 30.0682 31.3835C27.7603 32.7549 25.1932 33.0652 22.9512 33.1339Z" fill="#7E8BCE"/>
<path d="M17.0461 13.8511L15.7563 13.565C12.8649 12.9245 10.3596 13.493 8.38344 15.8491C8.17785 16.0942 7.73305 16.1386 7.39935 16.2761C7.30266 15.8957 7.00539 15.3969 7.14692 15.1551C7.57511 14.4264 8.06415 13.6538 8.72454 13.1553C11.4534 11.0986 14.4823 10.9897 17.622 12.0543C18.125 12.2251 18.5214 12.5762 18.3837 13.1743C18.2485 13.7648 17.7733 13.9116 17.0461 13.8511Z" fill="#7E8BCE"/>
<path d="M15.0407 16.7905C16.6647 16.8246 18.0089 17.5386 19.1003 18.7617C19.2884 18.9493 19.415 19.1897 19.4635 19.4509C19.4887 19.7926 19.4825 20.2609 19.2791 20.4568C19.1119 20.617 18.5985 20.5503 18.3096 20.4232C17.8602 20.2254 17.4719 19.8899 17.0563 19.6147C14.8024 18.1217 12.7888 18.626 11.4472 20.9635C11.2705 21.2714 10.7936 21.6297 10.4953 21.5977C9.92303 21.536 9.91723 20.9571 9.97088 20.4811C10.1769 18.6522 12.0151 17.0714 14.1967 16.8378C14.4613 16.809 14.7288 16.8067 15.0407 16.7905Z" fill="#7E8BCE"/>
<path d="M32.8948 10.5899C34.2727 10.5419 35.5618 10.9503 36.7797 11.6139C37.073 11.77 37.3483 11.958 37.6005 12.1743C37.9998 12.5248 38.2725 12.9691 37.973 13.4955C37.6469 14.0682 37.0922 14.0236 36.5603 13.846C36.28 13.7403 36.0134 13.6014 35.766 13.4323C33.5884 12.0583 31.4333 12.1403 29.2898 13.5105C28.9378 13.7613 28.5647 13.9812 28.1748 14.1675C27.9636 14.2552 27.5582 14.261 27.4541 14.1321C27.3756 14.0138 27.3222 13.8807 27.2972 13.7409C27.2722 13.6012 27.2762 13.4578 27.3088 13.3196C27.4152 13.0412 27.5932 12.7958 27.8248 12.6083C29.2429 11.2859 30.874 10.4808 32.8948 10.5899Z" fill="#7E8BCE"/>
<path d="M33.3144 15.9769C34.4434 15.938 35.5943 16.3987 36.5656 17.2905C36.8858 17.5807 37.1623 17.9159 37.3863 18.2856C37.8033 18.9914 37.7224 19.7715 37.2622 20.1118C36.7799 20.4685 36.2024 20.2682 35.5669 19.5237C33.8381 17.4983 31.9378 17.374 29.9119 19.1542C29.8369 19.22 29.767 19.2916 29.6917 19.3581C29.3384 19.674 28.9427 20.0661 28.4813 19.6584C27.9808 19.216 28.2248 18.6951 28.5485 18.2313C29.5104 16.8543 31.3438 15.9469 33.3144 15.9769Z" fill="#7E8BCE"/>
<path d="M0.829495 16.5273C-1.24278 24.672 0.571866 31.8571 6.22677 37.8856C6.37391 38.0413 6.52404 38.1971 6.67418 38.3472C9.71172 41.3847 13.4953 43.2602 16.4934 44.5654C17.78 45.1273 24.3826 45.8097 26.1688 45.5437C36.785 43.9582 43.7713 37.9706 46.2045 27.9532C46.6692 25.9909 46.9006 23.9807 46.8939 21.9642C46.9051 17.2139 44.9051 11.6913 40.7804 7.55517C40.3558 7.20405 39.9324 6.84032 39.5234 6.4878C38.6358 5.72491 37.7186 4.93503 36.7589 4.26142C29.4281 -0.898236 21.8112 -0.927107 14.1209 1.80896C7.15821 4.2846 2.68657 9.2375 0.829495 16.5273ZM14.1507 4.24779C20.8984 1.44386 27.6687 0.949009 34.2719 5.1486C35.4794 5.9173 38.6981 8.51886 39.205 8.90962L39.2374 8.93361L39.2644 8.96347C41.8405 11.6953 44.7894 16.6904 44.7253 21.8253C44.7038 24.0209 44.4066 26.205 43.8407 28.3265C42.1632 34.4232 38.1532 38.8664 31.5811 41.9054C24.9 45.1045 15.3186 41.8704 12.7693 40.1875C9.9515 38.2611 7.48598 35.8645 5.4805 33.1025C2.33526 28.6494 1.62942 22.2484 3.31955 16.3969C4.11056 13.6952 5.49286 11.2033 7.36624 9.10198C9.23962 7.00064 11.5571 5.3425 14.1507 4.24779V4.24779Z" fill="#7E8BCE"/>
</svg>
