<svg width="27" height="26" viewBox="0 0 27 26" fill="none" xmlns="http://www.w3.org/2000/svg">
<path d="M19.6866 13.4806C19.7818 15.5937 18.4988 17.7551 15.9202 18.4727C15.7039 18.5336 15.5181 18.6731 15.3995 18.8639C14.9277 19.8019 14.1463 20.2122 13.1448 20.2137C12.1093 20.2153 11.2908 19.8021 10.7511 18.8633C10.5845 18.6082 10.3376 18.416 10.0493 18.3172C7.42351 17.4281 6.68774 14.6497 7.21539 12.999C7.38812 12.4585 7.62834 12.2873 8.13004 12.5074C10.3392 13.4765 12.6709 13.4949 14.9942 13.3165C16.1426 13.2283 17.2965 12.8934 18.3906 12.5076C19.4132 12.147 19.6254 12.1964 19.6687 13.2752C19.6723 13.3695 19.685 13.4634 19.6866 13.4806ZM11.279 14.5054C11.2669 14.7523 11.2682 14.9997 11.283 15.2465C11.3839 16.2033 11.4423 17.1703 11.6321 18.1098C11.7736 18.8093 12.3813 19.1484 13.1408 19.1429C13.8222 19.138 14.1961 18.8718 14.4162 18.1569C14.7762 16.9877 14.7644 15.7853 14.7298 14.5054H11.279ZM7.74782 13.5357C7.94126 13.9815 8.00623 14.5065 8.23905 14.5962C8.8831 14.8445 9.59726 14.9111 10.3205 15.0568L10.366 14.3578L7.74782 13.5357ZM18.8019 13.8236L15.9587 14.4694C15.9768 14.6856 15.9949 14.9018 16.0208 15.2115L18.6526 14.5369C18.6954 14.3321 18.744 14.1004 18.8019 13.8237V13.8236ZM8.28889 15.477C8.78821 16.4045 9.4012 16.9726 10.3566 17.2977C10.3251 16.7735 10.2988 16.335 10.2736 15.9164L8.28889 15.477ZM18.0431 15.5908L15.952 15.9155C15.924 16.3007 15.8951 16.6956 15.862 17.1547C16.7678 16.805 17.5444 16.4522 18.0431 15.5907V15.5908Z" fill="#7ECEA3"/>
<path d="M9.95613 7.36035C10.3492 7.48074 11.1093 7.68602 11.8476 7.95206C12.1912 8.07575 12.4156 8.38115 12.2355 8.76918C12.0648 9.1382 11.7259 9.07916 11.3965 8.99143C10.7422 8.81733 10.0928 8.57553 9.42644 8.50862C8.61147 8.42669 7.85248 8.64868 7.341 9.38992C7.26851 9.49495 7.06892 9.61556 6.98221 9.58336C6.85249 9.53522 6.66565 9.33383 6.68727 9.23996C6.76692 8.8938 6.83599 8.48074 7.06562 8.24565C7.73562 7.55983 8.62888 7.37583 9.95613 7.36035Z" fill="#7ECEA3"/>
<path d="M17.2175 8.30909C17.2384 8.04214 17.2539 7.91081 17.258 7.77858C17.2732 7.29907 17.4253 6.9024 17.9608 6.83595C18.4873 6.77006 18.8799 7.06 18.9831 7.53678C19.0912 8.007 19.088 8.49596 18.9739 8.96475C18.8999 9.23432 18.4889 9.59184 18.2382 9.58501C17.9482 9.57716 17.6124 9.25605 17.4014 8.98842C17.244 8.78871 17.253 8.45793 17.2175 8.30909Z" fill="#7ECEA3"/>
<path d="M0.471519 9.39481C-0.706443 14.0246 0.325067 18.1089 3.53954 21.5363C3.62329 21.6248 3.70852 21.7132 3.79386 21.798C5.52053 23.5247 7.67129 24.5909 9.37553 25.3327C10.1069 25.6521 13.86 26.0401 14.8754 25.8888C20.9101 24.9877 24.8814 21.584 26.2645 15.8896C26.5286 14.7742 26.6602 13.6315 26.6564 12.4852C26.6629 9.78499 25.5259 6.64573 23.1812 4.29459C22.9399 4.09511 22.6992 3.88824 22.4667 3.68796C21.9622 3.25419 21.4408 2.80531 20.8953 2.42229C16.7281 -0.510553 12.3985 -0.527052 8.02688 1.02835C4.06901 2.43572 1.52716 5.25101 0.471519 9.39481ZM8.04384 2.41476C11.8795 0.820781 15.728 0.539491 19.4815 2.92682C20.1679 3.36378 21.9976 4.84273 22.2857 5.06473L22.3041 5.07851L22.3195 5.09535C23.7838 6.64825 25.4607 9.48767 25.4237 12.4065C25.4115 13.6546 25.2426 14.8962 24.9208 16.1022C23.9673 19.5677 21.6878 22.0934 17.952 23.821C14.1542 25.6394 8.70769 23.8011 7.25857 22.8443C5.657 21.7493 4.25565 20.387 3.11579 18.817C1.32791 16.2856 0.926681 12.6472 1.88685 9.32086C2.33649 7.78505 3.12225 6.36854 4.18718 5.17405C5.25211 3.97956 6.5695 3.03701 8.04384 2.41476V2.41476Z" fill="#7ECEA3"/>
</svg>
