<svg width="23" height="23" viewBox="0 0 23 23" fill="none" xmlns="http://www.w3.org/2000/svg">
<path d="M21.394 13.1061C22.281 7.64185 18.5703 2.49312 13.106 1.60614C7.64173 0.719163 2.493 4.42981 1.60602 9.8941C0.71904 15.3584 4.42969 20.5071 9.89398 21.3941C15.3583 22.2811 20.507 18.5704 21.394 13.1061Z" stroke="#D0D597" stroke-linecap="round" stroke-linejoin="round"/>
<path d="M16.8872 13.1782C16.5294 14.3276 15.8134 15.3325 14.8439 16.046C13.8744 16.7596 12.7021 17.1445 11.4983 17.1445C10.2945 17.1445 9.12223 16.7596 8.15272 16.046C7.1832 15.3325 6.46723 14.3276 6.10938 13.1782" stroke="#D0D597" stroke-linecap="round" stroke-linejoin="round"/>
<path d="M6.53769 12.9307L5.51025 13.4239" stroke="#D0D597" stroke-linecap="round" stroke-linejoin="round"/>
<path d="M16.4604 12.9307L17.4879 13.4239" stroke="#D0D597" stroke-linecap="round" stroke-linejoin="round"/>
<path d="M5.89087 9.08691C5.99632 9.26969 6.14657 9.4226 6.32748 9.53123C6.50838 9.63985 6.71397 9.70062 6.92486 9.70779C7.13575 9.71496 7.345 9.66831 7.53286 9.57222C7.72073 9.47614 7.88103 9.33379 7.99865 9.1586" stroke="#D0D597" stroke-linecap="round" stroke-linejoin="round"/>
<path d="M17.1005 9.08691C16.9948 9.26968 16.8444 9.42255 16.6633 9.53114C16.4823 9.63973 16.2766 9.70047 16.0656 9.70764C15.8546 9.71481 15.6453 9.66817 15.4573 9.57212C15.2693 9.47607 15.1088 9.33377 14.991 9.1586" stroke="#D0D597" stroke-linecap="round" stroke-linejoin="round"/>
</svg>
