<svg width="25" height="25" viewBox="0 0 25 25" fill="none" xmlns="http://www.w3.org/2000/svg">
<path d="M12.7351 24.4703C19.2163 24.4703 24.4703 19.2163 24.4703 12.7351C24.4703 6.254 19.2163 1 12.7351 1C6.254 1 1 6.254 1 12.7351C1 19.2163 6.254 24.4703 12.7351 24.4703Z" stroke="#B5988B" stroke-linecap="round" stroke-linejoin="round"/>
<path d="M6.40894 10.0039C6.40854 9.79869 6.46903 9.59799 6.58274 9.42719C6.69645 9.25639 6.85827 9.12316 7.04773 9.04436C7.23719 8.96556 7.44577 8.94474 7.64707 8.98453C7.84836 9.02432 8.03333 9.12293 8.17857 9.26788C8.3238 9.41283 8.42277 9.59761 8.46294 9.79883C8.50312 10.0001 8.4827 10.2087 8.40427 10.3983C8.32583 10.5879 8.19292 10.75 8.02233 10.864C7.85175 10.9781 7.65117 11.0389 7.44598 11.0389C7.17128 11.0389 6.90781 10.9299 6.71338 10.7359C6.51896 10.5418 6.40947 10.2786 6.40894 10.0039Z" fill="#B5988B"/>
<path d="M16.9873 10.0039C16.9869 9.79869 17.0474 9.59799 17.1611 9.42719C17.2748 9.25639 17.4366 9.12316 17.6261 9.04436C17.8156 8.96556 18.0241 8.94474 18.2254 8.98453C18.4267 9.02432 18.6117 9.12293 18.7569 9.26788C18.9022 9.41283 19.0011 9.59761 19.0413 9.79883C19.0815 10.0001 19.0611 10.2087 18.9826 10.3983C18.9042 10.5879 18.7713 10.75 18.6007 10.864C18.4301 10.9781 18.2295 11.0389 18.0243 11.0389C17.7497 11.0389 17.4862 10.9299 17.2918 10.7359C17.0973 10.5418 16.9878 10.2786 16.9873 10.0039Z" fill="#B5988B"/>
<path d="M19.1572 14.6992C17.4017 16.2934 15.1154 17.1766 12.7441 17.1766C10.3728 17.1766 8.08651 16.2934 6.33105 14.6992" stroke="#B5988B" stroke-linecap="round" stroke-linejoin="round"/>
<path d="M6.92652 14.4097L5.72363 14.9871" stroke="#B5988B" stroke-linecap="round" stroke-linejoin="round"/>
<path d="M18.5437 14.4097L19.7466 14.9871" stroke="#B5988B" stroke-linecap="round" stroke-linejoin="round"/>
<path d="M10.0796 16.8032V19.157C10.0986 19.8485 10.3866 20.5052 10.8823 20.9875C11.3781 21.4699 12.0425 21.7397 12.7341 21.7397C13.4258 21.7397 14.0902 21.4699 14.586 20.9875C15.0817 20.5052 15.3697 19.8485 15.3887 19.157V16.8032" stroke="#B5988B" stroke-linecap="round" stroke-linejoin="round"/>
<path d="M12.7351 17.1772V18.8957" stroke="#B5988B" stroke-linecap="round" stroke-linejoin="round"/>
</svg>
