<svg width="20" height="19" viewBox="0 0 20 19" fill="none" xmlns="http://www.w3.org/2000/svg">
<path d="M17.4198 11.3142C18.4217 7.06938 15.7928 2.81609 11.5479 1.81422C7.3031 0.812346 3.04981 3.44129 2.04794 7.68612C1.04606 11.931 3.675 16.1842 7.91984 17.1861C12.1647 18.188 16.418 15.5591 17.4198 11.3142Z" stroke="#ABC1DB" stroke-linecap="round" stroke-linejoin="round"/>
<path d="M14.0551 10.8237C12.8738 11.8965 11.3352 12.4909 9.73948 12.4909C8.14372 12.4909 6.60516 11.8965 5.42383 10.8237" stroke="#ABC1DB" stroke-linecap="round" stroke-linejoin="round"/>
<path d="M5.82462 10.6284L5.01514 11.017" stroke="#ABC1DB" stroke-linecap="round" stroke-linejoin="round"/>
<path d="M13.6423 10.6284L14.4518 11.017" stroke="#ABC1DB" stroke-linecap="round" stroke-linejoin="round"/>
<path d="M7.94653 12.2393V13.8233C7.9593 14.2885 8.15311 14.7305 8.48672 15.0551C8.82034 15.3797 9.26744 15.5613 9.7329 15.5613C10.1984 15.5613 10.6455 15.3797 10.9791 15.0551C11.3127 14.7305 11.5065 14.2885 11.5193 13.8233V12.2393" stroke="#ABC1DB" stroke-linecap="round" stroke-linejoin="round"/>
<path d="M9.73364 12.4907V13.6471" stroke="#ABC1DB" stroke-linecap="round" stroke-linejoin="round"/>
<path d="M5.41724 8.98227L6.93131 8.16203L5.41724 7.3418" stroke="#ABC1DB" stroke-linecap="round" stroke-linejoin="round"/>
<path d="M14.0486 8.98227L12.5359 8.16203L14.0486 7.3418" stroke="#ABC1DB" stroke-linecap="round" stroke-linejoin="round"/>
</svg>
