<svg width="41" height="38" viewBox="0 0 41 38" fill="none" xmlns="http://www.w3.org/2000/svg">
<path d="M40.2199 9.91368C40.4957 8.73391 40.2366 8.29556 38.9935 8.28208C38.1995 8.27375 37.4052 8.25407 36.6115 8.26439C36.1112 7.58949 35.5626 6.95181 34.9699 6.35639C34.6166 6.06453 34.2646 5.76183 33.9243 5.4688C33.1863 4.83413 32.4234 4.17735 31.6252 3.61693C25.5281 -0.674262 19.193 -0.698403 12.7968 1.57739C9.04924 2.90934 6.17041 5.10702 4.18648 8.13253C3.50153 8.1277 2.81641 8.12571 2.13179 8.12005C0.890412 8.1099 0.561755 8.58208 0.927707 9.7467C0.972422 9.93427 0.998136 10.1259 1.00446 10.3186C1.12028 11.6116 1.34027 12.893 1.66227 14.1506C0.0712643 20.7878 1.605 26.6509 6.23118 31.5825C6.35355 31.712 6.47842 31.8413 6.60313 31.9654C9.12966 34.4919 12.2766 36.0518 14.77 37.1371C15.8402 37.6045 21.3314 38.1723 22.8172 37.9508C31.6469 36.6324 37.4575 31.6522 39.4812 23.3206C39.8676 21.6885 40.06 20.0166 40.0544 18.3394C40.0502 16.908 39.8522 15.4838 39.4659 14.1055C39.5183 13.9337 39.5682 13.7616 39.6157 13.5894C39.9441 12.3999 39.9379 11.1208 40.2199 9.91368ZM37.3682 13.4718C37.1145 14.3506 36.8521 15.2105 36.5479 16.0551C35.8165 18.0902 34.2075 19.1096 32.0708 19.1649C30.75 19.199 29.3995 19.1882 28.1066 18.9543C25.4205 18.4681 23.6052 16.4034 23.1875 13.6826C23.0543 12.8146 23.2813 12.2008 24.1445 11.9566C25.898 11.4611 27.6377 10.8216 29.4288 10.5778C31.5004 10.2958 33.5997 10.2179 35.6946 10.1116C36.3678 11.1704 36.9287 12.2966 37.3682 13.4718V13.4718ZM12.8216 3.60592C18.4336 1.27368 24.0646 0.86211 29.5567 4.35514C30.5608 4.99447 33.238 7.1584 33.6594 7.48323L33.6866 7.50318L33.7089 7.52802C33.94 7.7731 34.1751 8.04133 34.4095 8.3272C31.2273 8.46439 28.0746 8.82749 25.0351 9.89937C24.0807 10.2549 23.178 10.7365 22.3512 11.3312C21.5299 11.9045 19.7919 11.9176 18.9568 11.332C18.085 10.721 17.1586 10.1271 16.1688 9.75718C13.5287 8.77038 10.747 8.39609 7.94856 8.23326C7.53998 8.20945 7.13108 8.19232 6.722 8.17851C8.34934 6.17703 10.4441 4.60667 12.8216 3.60592V3.60592ZM5.48746 9.92034C6.21104 9.91601 6.92929 9.92034 7.64604 9.95363C10.4764 10.0833 13.284 10.4347 15.9642 11.3991C18.226 12.2131 18.4082 12.2246 17.5925 14.7825C16.6811 17.6405 14.4321 18.8679 11.5626 19.0194C10.4295 19.0589 9.29502 19.006 8.17049 18.861C6.76313 18.704 5.73753 17.944 4.99663 16.7145C4.4615 15.8064 4.05414 14.829 3.78606 13.8096C3.79539 13.7763 3.80371 13.7439 3.8132 13.7112C4.19858 12.3782 4.76173 11.1031 5.48746 9.92034V9.92034ZM3.15655 9.94034C3.12908 9.99595 3.10061 10.0507 3.0733 10.1068C3.06498 10.0514 3.05665 9.99612 3.04816 9.94034H3.15655ZM38.2512 18.2254C38.2333 20.0515 37.986 21.8682 37.5153 23.6327C36.1202 28.7033 32.785 32.3988 27.3189 34.9265C21.762 37.587 13.793 34.8973 11.6727 33.4975C9.32917 31.8952 7.27857 29.902 5.61049 27.6049C3.68383 24.8769 2.85919 21.2702 3.11926 17.6145C3.18585 17.7242 3.25378 17.8338 3.32521 17.9422C4.20163 19.2691 5.35809 20.1898 6.9133 20.5851C9.06491 21.1537 11.3193 21.2142 13.4983 20.7619C16.681 20.0904 18.6462 18.1198 19.566 15.0512C19.6802 14.5876 19.7704 14.1184 19.8363 13.6455H21.28C21.3191 13.8677 21.3559 14.0545 21.3847 14.2427C21.9481 17.9147 24.3714 20.4955 28.0445 20.979C29.7743 21.2068 31.5741 21.0821 33.3255 20.9207C35.5232 20.7181 37.1663 19.5082 38.1205 17.5218C38.1553 17.4493 38.1887 17.3759 38.2228 17.303C38.2442 17.6095 38.2548 17.917 38.251 18.2254H38.2512ZM37.794 10.0798C37.945 10.0948 38.115 10.1113 38.3182 10.1265C38.2588 10.3284 38.2017 10.5282 38.1444 10.7279C38.0324 10.5103 37.9156 10.2943 37.7938 10.0798H37.794Z" fill="#CE837E"/>
<path d="M28.6796 23.1944C28.1835 22.8066 27.5516 23.0854 26.9558 24.019C25.9535 25.5897 24.5514 26.5467 22.7225 26.7717C21.3844 26.9362 20.0167 27.0602 18.6777 26.9698C16.8325 26.8453 15.075 26.387 13.9009 24.7055C13.7387 24.4732 13.0393 24.332 12.8353 24.4827C12.6862 24.6229 12.5724 24.7963 12.5029 24.9887C12.4335 25.1812 12.4105 25.3874 12.4357 25.5904C12.665 26.5742 13.3681 27.263 14.2094 27.7973C16.2101 29.0668 18.4511 29.2932 20.8073 29.3112C21.5149 29.2244 22.2891 29.1668 23.0502 29.0282C25.5559 28.5736 27.6887 27.5553 28.7957 25.0674C29.0817 24.4279 29.3882 23.7483 28.6796 23.1944Z" fill="#CE837E"/>
</svg>
