<svg width="17" height="22" viewBox="0 0 17 22" fill="none" xmlns="http://www.w3.org/2000/svg">
<path d="M13.2301 5.3074C13.1138 6.4559 13.0301 7.41376 12.9139 8.36697C12.8488 8.88775 12.6349 9.33878 12.049 9.46432C11.5608 9.56662 11.054 9.29693 10.761 8.6971C10.4774 8.12053 10.2728 7.5021 10.0589 6.89298C9.44049 5.14465 8.48728 3.59162 7.30623 2.17343C6.93889 1.7317 6.57621 1.28997 6.15308 0.778487C6.06008 1.09002 5.98568 1.34111 5.91129 1.5922C5.12082 4.32164 4.85113 7.10222 4.97203 9.93395C5.00922 10.85 4.90228 11.7846 4.77208 12.6959C4.68839 13.2818 4.46985 13.877 3.76308 14.0072C3.25625 14.1002 2.75407 13.6817 2.44718 12.9191C2.24259 12.4076 2.10775 11.8636 1.92175 11.3428C1.81946 11.0499 1.67066 10.7756 1.53582 10.4687C-0.170658 12.5425 1.13129 19.3824 3.40504 20.3821C3.41434 18.55 4.25596 17.0342 5.25101 15.6021C6.6599 13.5747 7.42712 11.3335 7.68286 8.89705C7.70146 8.7157 7.73866 8.52971 7.77121 8.35302C7.9293 7.52535 8.26874 7.39051 8.88716 8.00428C9.28704 8.39952 9.64043 8.88775 9.87292 9.39457C11.0261 11.8776 11.505 14.4536 10.7238 17.1597C10.6355 17.4573 10.4355 17.8758 10.5843 18.0897C10.8447 18.4152 11.2539 17.8572 11.3423 17.6294C11.5747 17.0296 11.7189 16.4018 11.9049 15.7834C12.0211 15.3975 12.0909 14.9743 12.3001 14.6396C12.4629 14.3792 12.8162 14.0583 13.058 14.0816C13.3091 14.1048 13.6579 14.4629 13.7416 14.7418C14.3553 16.8203 14.067 18.7221 12.1513 20.3356C11.1656 21.1679 9.95197 21.4376 8.71047 21.6003C7.31088 21.7817 5.92989 21.8375 4.52564 21.5166C3.85607 21.3632 3.1586 21.2609 2.75407 21.1121C2.34954 20.9633 2.00545 20.6611 1.84271 20.41C-0.226456 17.2155 -0.565892 13.8491 0.889497 10.3199C1.19173 9.58987 1.77296 9.43642 2.28444 10.0409C2.66107 10.4873 2.87496 11.0871 3.1121 11.6451C3.27485 12.0357 3.36319 12.4588 3.47479 12.868C3.61428 13.3795 3.81887 13.4585 3.95837 13.3702C4.13041 13.319 4.23271 12.7006 4.21411 12.0822C4.18156 11.0639 4.20016 10.0409 4.09321 9.03189C3.78168 6.07461 4.5024 3.30333 5.55325 0.587845C5.81364 -0.0910266 6.11123 -0.174723 6.66921 0.299557C8.95691 2.23853 10.6076 4.60063 11.3562 7.5393C11.4725 7.98568 11.5097 8.48786 12.0769 8.84125C12.1327 8.40882 12.1792 8.05078 12.2304 7.6974C12.3606 6.82323 12.4443 5.93977 12.6396 5.08421C12.7604 4.56808 13.1185 4.46113 13.4951 4.83312C13.988 5.32135 14.4716 5.86072 14.7924 6.46985C15.9874 8.74825 16.3966 11.2219 16.3873 13.77C16.378 15.7741 16.006 17.7177 15.0854 19.5079C14.7738 20.117 14.2484 20.6192 13.802 21.1539C13.6021 21.3957 13.1464 21.3167 13.3556 20.7773C13.3742 20.7308 13.3975 20.675 13.43 20.6285C15.1597 18.3083 15.3318 15.5928 15.355 12.8587C15.3736 10.6779 15.0575 8.53901 14.0391 6.56749C13.8253 6.16296 13.5509 5.80028 13.2301 5.3074ZM12.979 14.8441C12.7046 15.7555 12.4908 16.5088 12.2443 17.2574C12.049 17.8479 11.7514 18.3826 11.1656 18.6756C10.4867 19.0197 9.82642 18.6384 9.78922 17.8758C9.77527 17.5643 9.78922 17.2434 9.84967 16.9412C10.324 14.514 10.1008 12.1612 9.1522 9.87815C8.98946 9.48757 8.75232 9.12954 8.51518 8.70175C8.43148 8.84125 8.37103 9.34808 8.36173 9.56662C8.30129 11.2219 8.11529 12.8587 7.24578 14.3187C6.725 15.1882 6.13913 16.0205 5.57185 16.8668C4.94413 17.8107 4.38615 18.7872 4.18156 19.9217C4.04207 20.6982 4.10251 20.7354 4.84648 20.9261C6.42277 21.326 7.9665 21.0702 9.50558 20.7633C11.2586 20.4146 12.3513 19.2615 13.0022 17.6712C13.3603 16.8017 13.258 15.8997 12.979 14.8441Z" fill="#DFCB63"/>
</svg>
