<svg width="27" height="29" viewBox="0 0 27 29" fill="none" xmlns="http://www.w3.org/2000/svg">
<path d="M15.0951 15.4445C14.2193 15.9658 13.5242 16.3551 12.85 16.7721C10.3894 18.3222 7.92882 19.8583 5.50298 21.4501C4.98862 21.7837 4.54376 22.2911 4.21012 22.8055C3.15359 24.4598 2.18048 26.1697 1.13785 27.8309C0.964082 28.102 0.748606 28.4495 0.296802 28.4495C0.0187684 28.4495 -0.106347 27.9282 0.109129 27.4C0.19949 27.1845 0.275949 26.9343 0.36631 26.7049C0.540081 26.267 1.59661 24.9185 0.998836 24.8629C0.623491 24.8282 0.505327 24.1817 0.776409 23.6326C0.977983 23.2225 1.63136 22.7985 1.99976 22.5274C3.33432 21.5196 4.18232 20.1294 5.11373 18.7879C7.22678 15.7712 9.38849 12.7963 11.5294 9.80046C11.8004 9.42511 12.0715 9.04977 12.3148 8.71613C11.2096 8.36164 10.1044 8.16006 9.16607 7.6457C8.52659 7.29816 7.88711 6.67953 7.65079 5.89409C7.42141 5.10865 7.63688 4.42746 8.22075 3.87835C8.76987 3.36399 9.39544 3.34313 10.1253 3.52386C10.8829 3.71153 11.6267 4.47612 12.1619 5.16425C12.7596 5.9358 13.0238 6.3737 13.4964 7.06878C14.2819 6.03311 15.0326 5.01829 15.8041 4.01737C16.666 2.89828 17.5349 1.78615 18.4315 0.701818C18.7791 0.277817 19.2656 -0.264348 19.8078 0.145751C20.1136 0.375129 20.2526 1.07716 20.1762 1.52202C19.8982 3.15546 19.495 4.76111 19.1405 6.38065C19.0849 6.64478 19.0363 6.90891 18.9528 7.32596C20.1762 7.32596 21.3022 7.30511 22.4283 7.33291C23.172 7.35377 23.9227 7.40937 24.6595 7.49973C25.3129 7.58314 25.9523 7.79862 26.0983 8.53541C26.2443 9.27915 25.7299 9.7379 25.1599 10.0507C23.5126 10.9543 21.8444 11.8162 20.1762 12.6851C17.4376 14.103 17.4376 14.0961 17.0344 17.2448C16.9023 18.2874 16.7772 19.3301 16.6313 20.3727C16.5687 20.8175 16.4783 21.3249 15.8806 21.2693C15.2898 21.2137 15.2967 20.7133 15.2759 20.2545C15.2341 18.7184 15.1646 17.1753 15.0951 15.4445ZM7.14337 18.3847C7.31715 18.3986 12.0507 15.5279 14.3583 14.0683C14.5043 13.9779 14.6781 13.7068 14.6433 13.5609C14.3236 12.2402 13.9552 10.9265 13.5451 9.40426C11.3208 12.5321 9.24948 15.4306 7.14337 18.3847ZM23.7976 8.82039C22.1641 8.82039 20.5237 8.81344 18.8903 8.83429C18.7652 8.83429 18.6401 8.78564 18.5358 9.18184C18.3064 10.0854 18.1535 11.003 17.938 12.0595C20.0024 11.0169 23.8115 8.9038 23.7976 8.82039ZM14.3375 8.78564C14.8101 10.3009 15.9014 13.2481 15.9848 13.262C16.2003 12.831 16.4297 12.2263 16.6313 11.5521C16.8884 10.6971 17.1178 9.7101 17.2638 8.79259C16.1795 8.78564 15.2828 8.78564 14.3375 8.78564ZM15.0812 7.2356C15.9501 7.2356 16.5757 7.25645 17.2012 7.2217C17.3472 7.21475 17.5835 7.06878 17.6183 6.94367C18.0701 5.27547 18.4871 3.60032 18.9111 1.92517C18.8903 1.91821 18.8972 1.91821 18.8764 1.91126L15.0812 7.2356ZM12.4052 7.08268C11.863 6.47796 11.5085 5.80373 10.5701 4.96963C10.1392 4.58038 9.60397 4.22589 9.06181 4.83756C8.70731 5.24071 8.96449 5.9358 9.70823 6.27639C10.445 6.61698 12.3426 7.17304 12.4052 7.08268Z" fill="#D78E8E"/>
</svg>
