<svg width="46" height="51" viewBox="0 0 46 51" fill="none" xmlns="http://www.w3.org/2000/svg">
<path d="M23.4545 43.4498C22.9089 44.5838 22.4015 45.4761 22.0592 46.4217C21.8781 46.9244 21.7254 47.6924 21.9788 48.0312C22.2429 48.3838 23.0354 48.5396 23.5482 48.4654C25.0483 48.2503 26.5465 47.9129 28.0127 47.534C28.3296 47.4523 28.7683 47.0995 28.8002 46.6725C28.9094 46.2653 28.0397 46.0897 27.687 46.1195C26.3429 46.2448 25.0043 46.5029 23.5498 46.7312C23.9328 45.9353 24.2655 45.2799 24.5734 44.604C25.392 42.7945 24.8343 41.7541 22.8669 41.5882C20.0838 41.3508 17.2913 41.1869 14.4983 40.9881C14.1624 40.9652 13.8331 40.9282 13.4969 40.8879C12.9689 40.8854 13.0052 40.738 13.4227 40.6093C14.2303 40.3733 15.0342 40.1269 15.8417 39.8908C17.2758 39.4705 18.7135 39.0606 20.1439 38.6298C20.4676 38.534 20.7865 38.3578 21.0854 38.2414C21.6102 38.0342 21.8185 37.4751 21.8299 37.0729C21.8386 36.7301 21.7274 36.3122 21.0661 36.0461C19.6769 35.5078 18.2473 35.0715 16.8214 34.6456C13.6077 33.6805 10.3909 32.74 7.16466 31.6387C8.34419 31.4949 9.53051 31.3371 10.7069 31.2178C13.3075 30.9511 15.909 30.7367 18.502 30.4317C19.392 30.3307 20.5077 30.3557 20.7625 29.1772C21.0009 28.0687 20.0463 27.6008 19.3291 27.1082C17.0681 25.5692 14.773 24.0832 12.4915 22.5691C12.2619 22.4152 12.0563 22.2295 11.6141 21.8866C13.3641 21.7831 14.8754 21.6168 16.379 21.629C19.5434 21.6508 22.7162 21.7635 25.8814 21.8378C27.9904 21.8897 28.5648 21.0384 27.5989 19.1336C26.395 16.75 25.1042 14.4027 23.8585 12.0337C23.6281 11.5932 23.4498 11.1344 23.1277 10.4155C23.6484 10.6314 23.9505 10.7247 24.2151 10.878C27.2589 12.6288 30.2993 14.3867 33.3468 16.148C34.1474 16.6113 34.9482 17.3089 35.927 16.843C36.951 16.3555 36.7809 15.2847 36.8334 14.3644C36.8853 13.4092 36.9023 12.4544 37.1276 11.4091C37.5997 12.1047 38.0647 12.7969 38.5368 13.4925C38.923 14.06 39.2677 14.6596 39.7022 15.1809C39.8553 15.3674 40.3507 15.5277 40.4681 15.428C40.6822 15.2534 40.907 15.0927 40.8153 14.5801C40.7806 14.3639 40.6579 14.114 40.522 13.9098C39.6159 12.4936 38.748 11.0524 37.7485 9.70405C37.4524 9.30998 36.7511 8.94653 36.3116 9.01264C35.9454 9.07065 35.4979 9.7662 35.4211 10.2324C35.2153 11.4172 35.199 12.6411 35.1054 13.8452C35.0729 14.2373 35.0544 14.6362 35.0173 15.1821C34.2735 14.7809 33.6635 14.444 33.0431 14.1108C29.8175 12.3592 26.5919 10.6077 23.3629 8.86315C23.1408 8.74765 22.9087 8.65329 22.6733 8.58344C21.8693 8.3614 21.1665 8.8126 21.228 9.64027C21.2814 10.3946 21.4613 11.1925 21.7933 11.8728C23.0236 14.3818 24.3408 16.8546 25.6266 19.3384C25.7671 19.6055 25.89 19.8728 26.074 20.2476C23.7834 20.2125 21.6144 20.123 19.4543 20.1593C16.8748 20.202 14.2999 20.325 11.7217 20.4551C10.9392 20.4949 9.97606 20.3872 9.64816 21.3571C9.32026 22.327 10.0432 22.9698 10.7114 23.4562C12.8185 24.9905 14.9873 26.4504 17.1251 27.9388C17.4713 28.1748 17.8246 28.4141 18.1461 28.8638C16.4049 29.093 14.6638 29.3222 12.919 29.541C10.3578 29.8701 7.79632 30.1817 5.23876 30.5212C4.62812 30.6004 3.90871 30.6533 3.78788 31.4452C3.66731 32.2547 4.27442 32.6336 4.90704 32.8512C7.49023 33.7385 10.0838 34.6221 12.6905 35.4426C14.7947 36.0994 16.9255 36.6649 19.1163 37.5022C17.989 37.8619 16.8505 38.1729 15.7415 38.5848C14.3403 39.099 12.9467 39.6516 11.5998 40.2874C11.1867 40.479 10.626 41.0853 10.6897 41.3676C10.7869 41.7786 11.3541 42.2945 11.7924 42.3752C13.405 42.6654 15.0508 42.8327 16.6856 42.9687C18.8319 43.1773 20.9733 43.2881 23.4545 43.4498Z" fill="#63DF6F"/>
</svg>
