<svg width="44" height="11" viewBox="0 0 44 11" fill="none" xmlns="http://www.w3.org/2000/svg">
<path d="M39.4994 4.8887C38.9823 4.65253 37.9366 1.66498 37.5803 2.03104C37.2241 2.39711 36.6955 4.8887 36.3622 4.8887C36.029 4.8887 32.8344 4.00306 33.0067 4.31008C33.1791 4.6171 35.6957 6.60092 35.6842 7.06146C35.6727 7.52199 34.604 9.97815 34.9373 9.97815C35.2705 9.97815 37.4884 7.85262 37.9366 7.87624C38.3847 7.89986 41.1427 10.2497 41.361 9.97815C41.5793 9.70656 40.1429 7.39209 40.2808 7.06146C40.4187 6.73082 43.3835 4.31008 42.9583 4.31008C42.5331 4.31008 40.0165 5.12486 39.4994 4.8887Z" stroke="#C9D199" stroke-linecap="round"/>
<path d="M23.3568 4.74434C22.8865 4.55858 21.5294 1.73265 21.2054 2.02058C20.8814 2.3085 19.8993 4.5749 19.5962 4.5749C19.2931 4.5749 16.8504 4.50285 17.0072 4.74434C17.164 4.98582 19.4143 6.48664 19.4038 6.84887C19.3934 7.21109 18.8733 8.98266 19.1764 8.98266C19.4796 8.98266 21.2176 7.32869 21.6253 7.34727C22.0329 7.36585 23.5781 9.19628 23.7767 8.98266C23.9753 8.76904 23.3189 7.10893 23.4444 6.84887C23.5698 6.5888 26.3499 4.8864 25.9631 4.8864C25.5764 4.8864 23.8272 4.93009 23.3568 4.74434Z" stroke="#C9D199" stroke-linecap="round"/>
<path d="M5.32954 1.00042C4.90761 0.957152 3.91232 4.26721 3.62017 4.26721C3.32803 4.26721 1.08858 3.96433 1.00203 4.26721C0.915484 4.57008 3.62017 6.51718 3.62017 6.79842C3.62017 7.07967 2.99269 9.78396 3.1766 9.98949C3.36052 10.195 5.12398 7.31765 5.32954 7.37173C5.53509 7.42582 8.19651 10.1409 8.35879 9.98949C8.52107 9.83805 6.88744 7.10131 6.88744 6.79842C6.88744 6.49554 9.81932 4.50519 9.99242 4.26721C10.1655 4.02923 7.32019 4.26721 6.88744 4.26721C6.45469 4.26721 5.75147 1.04369 5.32954 1.00042Z" stroke="#C9D199" stroke-linecap="round"/>
</svg>
