<svg width="27" height="29" viewBox="0 0 27 29" fill="none" xmlns="http://www.w3.org/2000/svg">
<path d="M0.151752 8.03644C-0.0258512 8.23124 -0.048769 8.51769 0.0887318 8.74686C0.214773 8.95884 0.323628 9.14217 0.44967 9.31405C1.75592 11.1245 2.47207 12.0698 3.76113 13.8917C4.08769 14.35 4.87832 15.7536 5.18196 16.2349C5.18769 16.2406 5.18769 16.2463 5.19342 16.2521C5.46842 16.6646 6.14446 16.6359 6.36217 16.1833C6.36217 16.1833 6.36217 16.1776 6.3679 16.1776C6.68873 15.4729 6.94654 14.7453 7.24446 14.0292C8.06373 12.0526 9.20384 10.3396 11.1002 9.21665C11.7877 8.80988 11.7991 8.51196 11.2663 7.92186C11.0658 7.70415 10.8653 7.48071 10.6476 7.28592C8.54498 5.41248 7.0955 3.0979 6.01269 0.519776C5.94394 0.359359 5.80644 0.233317 5.65748 0.107276C5.46269 -0.053141 5.18196 -0.0302241 5.01009 0.153109C4.86686 0.302068 4.73509 0.462484 4.65488 0.640088C4.47727 1.05259 4.43144 1.51665 4.32259 1.9578C3.73821 4.35832 2.43769 6.27186 0.461126 7.74426C0.352272 7.82446 0.254878 7.92759 0.151752 8.03644ZM5.41686 2.28436C6.09863 3.41873 6.67154 4.58748 7.45071 5.60728C8.24707 6.64426 9.24394 7.52655 10.1549 8.48332C7.8403 9.86978 6.49967 12.064 5.69186 14.7568C4.50592 12.3047 2.86738 10.3568 1.06842 8.53488C3.91009 6.36926 4.58613 5.38957 5.41686 2.28436Z" fill="#87A1B9"/>
<path d="M21.7565 27.8078C22.2779 26.3297 22.7305 24.8229 23.3034 23.3677C23.8649 21.9583 24.7013 20.7036 25.9044 19.7354C26.3456 19.3802 26.3341 19.0594 25.9732 18.6583C23.9451 16.4526 22.3867 13.9547 21.2696 11.176C21.1492 10.8781 20.8284 10.4026 20.605 10.4026C19.9977 10.2594 19.78 11.4453 19.7571 11.5542C19.2472 14.35 17.5169 16.3839 15.5748 18.2859C14.9446 18.9047 14.893 19.0938 15.5117 19.6896C17.8435 21.924 19.3904 24.674 20.7196 27.5672C21.1378 28.5755 21.6935 27.9854 21.7565 27.8078ZM25.2055 19.0537C23.968 19.8385 23.1487 20.887 22.5529 22.0729C21.9742 23.2359 21.5503 24.4677 21.069 25.6479C19.9576 23.1615 18.4565 20.8641 16.1763 19.1167C18.3821 17.3807 20.1237 15.3984 20.6565 12.5568C21.6133 15.112 23.1315 17.2375 25.2055 19.0537Z" fill="#87A1B9"/>
<path d="M6.09878 21.6435C7.36492 23.3451 8.13836 25.2873 8.84878 27.2639C8.89461 27.3899 9.04357 28.106 9.58784 28.1003C9.74253 28.1003 10.0003 27.854 10.0977 27.6592C10.5274 26.7826 10.7967 25.8029 11.341 25.0123C11.9826 24.0727 12.8649 23.2993 13.6097 22.4342C13.7186 22.3081 13.7587 22.0217 13.6899 21.867C13.5582 21.5805 13.3233 21.3514 13.1399 21.0878C12.2061 19.7128 11.2894 18.3264 10.3269 16.9743C10.1264 16.6935 9.73107 16.3555 9.49617 16.3555C8.9118 16.3498 8.79721 16.8081 8.69409 17.1347C8.2243 18.6357 7.41648 19.8904 6.242 20.9274C5.82378 21.317 6.04721 21.5748 6.09878 21.6435ZM12.5326 22.0389C11.1691 23.0071 10.241 24.405 9.6795 25.9691C8.84878 24.4451 8.00086 22.8925 7.13003 21.2883C8.29878 20.4805 9.11232 18.9737 9.48471 17.8623C10.5045 19.2602 11.5128 20.6409 12.5326 22.0389Z" fill="#87A1B9"/>
</svg>
