<svg width="43" height="42" viewBox="0 0 43 42" fill="none" xmlns="http://www.w3.org/2000/svg">
<path d="M19.2324 35.8467C20.6602 36.1498 22.5905 36.5165 24.0271 36.5735M24.0271 36.5735C24.1926 36.5801 23.8469 35.3837 23.8263 35.3298C23.3759 34.1467 22.7852 33.0553 22.1595 31.9553M24.0271 36.5735C16.7828 33.2773 13.0015 26.1868 14.5153 20.8167C14.6653 20.2844 14.8292 19.7053 15.0444 19.1443M15.0444 19.1443C15.3871 18.251 15.8601 17.4038 16.6149 16.8654C17.3115 16.3685 18.4355 16.0183 19.2622 16.4053C20.8065 17.1283 20.6323 19.3534 19.2025 20.1034C17.9461 20.7626 15.8724 20.309 15.0444 19.1443ZM15.0444 19.1443C15.0269 19.1198 15.01 19.0949 14.9937 19.0697C11.0501 12.9883 16.3669 6.55052 22.1376 5.51385" stroke="#EBB9C5" stroke-miterlimit="1.5" stroke-linecap="round" stroke-linejoin="round"/>
</svg>
