<svg width="21" height="24" viewBox="0 0 21 24" fill="none" xmlns="http://www.w3.org/2000/svg">
<path d="M0.998055 1.0747C1.58775 1.01349 2.20146 1.0238 2.79446 1.07796C8.43004 1.59284 2.1071 6.05892 4.16967 8.01458C5.95078 9.70334 10.9544 8.5857 13.4027 11.0765C15.7748 13.4897 12.4866 15.6788 13.2246 17.9979C13.7687 19.7079 15.594 19.7458 17.1786 20.5626C18.1804 21.0791 18.7033 21.7187 19.5126 22.3779" stroke="#80B87E" stroke-miterlimit="1.5" stroke-linecap="round" stroke-linejoin="round"/>
<path d="M17.3125 22.223C17.8873 22.1566 18.5015 22.2805 19.0471 22.4123C19.37 22.4903 19.7048 22.5669 19.9915 22.7124C19.5242 22.0376 19.235 21.393 19.2574 20.621" stroke="#80B87E" stroke-miterlimit="1.5" stroke-linecap="round" stroke-linejoin="round"/>
</svg>
