<svg width="15" height="32" viewBox="0 0 15 32" fill="none" xmlns="http://www.w3.org/2000/svg">
<path d="M3.26776 29.4105C4.57515 30.0595 6.35341 30.8951 7.73057 31.3079M7.73057 31.3079C7.88923 31.3555 7.85223 30.1107 7.84571 30.0534C7.70397 28.7954 7.40353 27.5913 7.07132 26.3702M7.73057 31.3079C1.53477 26.3123 -0.36274 18.5038 2.44005 13.6794C2.71784 13.2013 3.02069 12.6812 3.36876 12.1914M3.36876 12.1914C3.92306 11.4115 4.59203 10.7087 5.45706 10.3751C6.2554 10.0673 7.43122 10.0079 8.13558 10.5885C9.45131 11.6731 8.7288 13.7848 7.1573 14.1553C5.77633 14.481 3.88086 13.5255 3.36876 12.1914ZM3.36876 12.1914C3.35795 12.1633 3.34777 12.135 3.33821 12.1065C1.03247 5.23493 7.78429 0.323145 13.6314 0.755447" stroke="#EBB9C5" stroke-miterlimit="1.5" stroke-linecap="round" stroke-linejoin="round"/>
</svg>
