<svg width="18" height="15" viewBox="0 0 18 15" fill="none" xmlns="http://www.w3.org/2000/svg">
<path d="M2.70352 11.8424C2.61542 12.3844 2.54389 12.9368 2.42637 13.4735C2.39879 13.5995 2.36801 13.9417 2.23613 14.0126C2.06909 14.1024 1.89148 13.9007 1.80214 13.7911C1.53511 13.4633 1.34241 13.0335 1.14376 12.6618C1.10393 12.5873 0.939757 12.3625 0.962164 12.2715M2.23642 14.0126C2.00733 13.0264 2.04197 11.9573 2.05811 10.9513C2.09083 8.90936 1.60732 3.78761 3.36418 2.28992C4.41059 1.39783 6.21541 1.47258 7.50315 1.36865C10.5058 1.12625 13.593 0.52194 16.6055 0.525915" stroke="#9487B9" stroke-miterlimit="1.5" stroke-linecap="round" stroke-linejoin="round"/>
</svg>
