<svg width="53" height="39" viewBox="0 0 53 39" fill="none" xmlns="http://www.w3.org/2000/svg">
<path d="M51.7146 13.0467C49.6605 10.5014 47.4647 8.06006 45.5003 5.44399C44.4803 4.0179 43.2478 2.76181 42.1286 1.42072C41.5053 0.688782 40.6837 -0.0620405 39.6589 0.00406963C38.1951 0.00406963 37.024 0.995722 35.9143 1.82682C35.2338 2.33973 34.661 2.98154 34.2285 3.71568C34.3324 4.60817 35.3429 4.96233 35.7868 5.6801C34.4361 6.61459 32.9754 7.37904 31.4377 7.95618C29.3072 8.66228 27.0703 8.99302 24.8267 8.93366C23.1503 8.93366 21.3748 9.13671 19.9392 10.0811C19.0562 10.6478 18.5981 11.6253 18.1543 12.5367C16.4732 12.1778 14.726 12.1306 13.0874 11.5639C13.5218 10.9272 13.8178 10.2066 13.9563 9.44838C13.5287 9.05536 13.0388 8.7362 12.5066 8.50395C11.0264 7.84346 9.47055 7.36767 7.87413 7.0873C7.58481 7.0115 7.27809 7.03943 7.00722 7.16624C6.73635 7.29305 6.51846 7.51072 6.39137 7.78146C5.54139 9.83559 4.70084 11.8897 3.7753 13.9203C2.27226 17.2051 1.03426 20.6049 0.0731322 24.0871C-0.0308206 24.4304 -0.0237952 24.7978 0.0932082 25.137C0.210212 25.4761 0.431228 25.7697 0.724789 25.9759C2.11273 27.0099 3.67094 27.793 5.32889 28.2898C5.90499 28.422 6.51887 28.677 7.11859 28.5117C7.56719 27.7137 7.41136 26.7315 7.63802 25.8673C8.84217 26.4859 10.0983 27.0384 11.123 27.9545C10.9048 28.6313 10.8663 29.3532 11.0111 30.0494C11.156 30.7456 11.4793 31.3922 11.9493 31.9258C12.2777 32.2461 12.6837 32.4754 13.1274 32.5913C13.5712 32.7072 14.0374 32.7057 14.4804 32.5869C14.6551 33.5314 15.0565 34.5608 15.9962 34.948C16.8321 35.2549 17.8426 35.5288 18.6312 34.948C19.0209 35.9949 19.7444 36.8844 20.6901 37.4791C21.5117 37.8899 22.442 37.4507 23.0511 36.851C23.2325 37.473 23.5881 38.0301 24.0758 38.4566C24.5953 38.8863 25.4217 39.1649 25.993 38.6785C26.8525 38.1213 27.1405 37.0824 27.4427 36.1663C28.7103 36.6583 30.0472 36.9483 31.4046 37.0258C32.3002 37.1262 33.1993 36.8701 33.9074 36.3127C34.8518 35.4627 35.7962 34.4994 36.0937 33.2386C37.3404 33.1253 38.7051 32.6955 39.3992 31.5622C39.8437 30.7947 39.9962 29.8927 39.8289 29.0217C40.8064 29.0217 41.8972 28.762 42.4545 27.8789C43.1533 26.9345 42.955 25.6737 42.6245 24.6207C43.125 24.5168 43.7719 24.6207 44.1355 24.1815C44.4852 23.6476 44.6838 23.029 44.7104 22.3914C44.737 21.7537 44.5906 21.1208 44.2867 20.5596C45.2346 19.8323 46.1337 19.0436 46.9783 18.1985C47.5497 18.6707 48.1494 19.5491 49.0088 19.2893C49.8648 18.8423 50.6586 18.2851 51.3699 17.6319C52.0452 16.9897 52.9046 16.3427 52.9849 15.3369C52.881 14.435 52.2482 13.7314 51.7146 13.0467ZM5.23917 24.5593C5.23917 24.6112 5.19667 24.6632 5.17306 24.7151L5.08334 24.8332L5.17306 24.7151C5.13131 24.7872 5.07692 24.8512 5.01251 24.904C5.0174 24.9511 5.0174 24.9986 5.01251 25.0456C4.99252 25.1248 4.96236 25.201 4.92278 25.2723C4.88682 25.3389 4.84061 25.3995 4.78584 25.4518C4.73756 25.5088 4.6781 25.5555 4.61112 25.5887L4.44585 25.6595H4.37501C4.30116 25.6801 4.225 25.6912 4.14835 25.6926H4.1153H3.91224H3.84141C3.73681 25.6599 3.6356 25.6172 3.53919 25.5651C3.48707 25.5348 3.43662 25.5017 3.38808 25.4659C3.29836 25.3951 3.20392 25.3243 3.11892 25.244C3.04047 25.1622 2.96936 25.0737 2.90642 24.9795C2.87112 24.936 2.84101 24.8884 2.8167 24.8379C2.78197 24.7676 2.75199 24.695 2.72698 24.6207C2.70906 24.5447 2.69799 24.4672 2.69393 24.3893C2.68928 24.3691 2.68928 24.3481 2.69393 24.3279C2.69393 24.2665 2.69393 24.2051 2.69393 24.1484C2.69597 24.1391 2.69597 24.1294 2.69393 24.1201C2.73102 23.9974 2.79747 23.8855 2.88754 23.7943C2.93797 23.7382 2.99693 23.6904 3.06226 23.6526C3.13555 23.602 3.21487 23.5608 3.29836 23.5298H3.38808C3.5214 23.5007 3.65779 23.488 3.79419 23.4921C3.96229 23.5006 4.12956 23.5211 4.29474 23.5534C4.3928 23.5654 4.48934 23.5875 4.58279 23.6196C4.66508 23.6493 4.7455 23.684 4.82362 23.7234C4.89034 23.7637 4.95352 23.8095 5.01251 23.8604C5.01251 23.8604 5.01251 23.8604 5.01251 23.884C5.05223 23.9238 5.0871 23.9682 5.11639 24.0162C5.11639 24.054 5.16361 24.1296 5.17778 24.1673C5.23675 24.289 5.25812 24.4254 5.23917 24.5593ZM14.4851 31.7511C13.8193 31.8503 13.0685 31.8597 12.5396 31.345C12.0354 30.7786 11.7697 30.0392 11.7982 29.2814C11.9825 28.7279 12.2197 28.1934 12.5066 27.6853C12.8513 26.8023 14.0743 26.6087 14.8299 27.0337C15.1019 27.3343 15.2742 27.7117 15.3233 28.1141C15.3723 28.5165 15.2956 28.9243 15.1037 29.2814C14.7569 30.0629 14.5477 30.8984 14.4851 31.7511ZM18.4423 34.1122C18.0713 34.3164 17.6546 34.4235 17.2311 34.4235C16.8075 34.4235 16.3909 34.3164 16.0198 34.1122C15.7541 33.8961 15.5402 33.6231 15.3939 33.3134C15.2476 33.0036 15.1727 32.665 15.1746 32.3225C15.1557 30.8535 15.6862 29.4304 16.6621 28.3323C17.3899 27.4528 18.3846 26.8344 19.4953 26.5709C19.8778 26.5001 20.4398 26.637 20.4067 27.1376C20.4709 28.1944 20.2106 29.2456 19.6606 30.1503C18.949 31.3552 18.5315 32.7109 18.4423 34.1075V34.1122ZM22.8953 36.3647C22.2106 36.4591 21.4456 36.9974 20.7939 36.5441C19.9062 35.8735 19.179 34.8016 19.3112 33.6447C19.4455 32.5019 19.8327 31.4034 20.4445 30.4289C20.8258 29.8009 21.3799 29.2959 22.0406 28.9745C22.2731 28.8721 22.5247 28.8202 22.7788 28.8223C23.0328 28.8244 23.2836 28.8804 23.5144 28.9866C23.7452 29.0929 23.9508 29.2469 24.1176 29.4386C24.2844 29.6302 24.4086 29.8551 24.4819 30.0984C24.6578 30.9131 24.5854 31.7618 24.2742 32.535C23.7983 33.0476 23.4309 33.6511 23.194 34.3091C22.9571 34.9672 22.8555 35.6664 22.8953 36.3647ZM27.4286 34.948C27.32 35.7083 26.8005 36.308 26.4841 36.9738C26.2475 37.4574 25.8526 37.8457 25.365 38.0741C24.9905 37.9897 24.6497 37.7955 24.3863 37.5161C24.123 37.2368 23.9491 36.8852 23.887 36.5063C23.7172 35.6936 23.8482 34.847 24.2555 34.1236C24.6628 33.4002 25.3188 32.8491 26.1016 32.5728C26.503 32.4689 27.0461 32.3792 27.3436 32.7144C27.6007 33.4325 27.6304 34.2124 27.4286 34.948ZM43.5264 23.5629C42.5502 23.6168 41.5711 23.5741 40.6034 23.4354C39.1738 23.1075 37.7681 22.6831 36.3959 22.1651C35.2441 21.7925 34.0455 21.5842 32.8354 21.5465C33.7966 22.305 34.8663 22.9147 36.0087 23.3551C37.9542 24.0398 39.9564 24.6915 42.0389 24.6962C42.2184 25.5604 42.4734 26.6417 41.7509 27.3359C41.1795 27.9734 40.2634 27.9167 39.4889 27.8695C37.8918 27.7597 36.3097 27.4892 34.7668 27.062C33.6457 26.7164 32.4972 26.4668 31.3338 26.3159C32.4064 27.3363 33.7289 28.0562 35.1682 28.4031C36.5163 28.7194 37.8893 28.9184 39.2717 28.9981C39.3482 29.3444 39.3521 29.7028 39.283 30.0507C39.2139 30.3986 39.0734 30.7284 38.8703 31.0192C38.4877 31.4475 38.0081 31.7781 37.4718 31.9835C36.9354 32.1888 36.3576 32.263 35.7868 32.1997C34.3229 32.1289 33.0243 31.3497 31.5793 31.2081C31.0628 31.1367 30.5424 31.0957 30.021 31.0853C31.5926 32.1827 33.3959 32.9033 35.291 33.1914C34.4929 34.3105 33.5532 35.4533 32.2735 36.0247C30.7577 36.426 29.1663 36.0247 27.6977 35.6327C27.9716 34.5844 28.2644 33.4275 27.8158 32.3886C27.6983 32.1618 27.5163 31.9749 27.2928 31.8514C27.0693 31.7279 26.8142 31.6733 26.5597 31.6944C25.941 31.714 25.3364 31.8842 24.7983 32.1903C25.0766 31.4142 25.1418 30.5777 24.9872 29.7678C24.8374 29.2302 24.5064 28.7608 24.0504 28.439C23.5944 28.1172 23.0412 27.9627 22.4845 28.0017C21.8591 28.0602 21.2639 28.298 20.7703 28.6864C20.9687 27.9309 21.2048 27.0998 20.8978 26.3254C20.5909 25.669 19.7503 25.5793 19.1223 25.7209C17.7057 26.0137 16.6148 27.029 15.7507 28.115C15.7554 27.5223 15.5439 26.9481 15.1557 26.5001C14.8084 26.2322 14.3957 26.0624 13.9604 26.0084C13.5252 25.9544 13.0835 26.0182 12.6813 26.1931C12.0924 26.4785 11.6155 26.9521 11.326 27.5389C10.7532 26.9625 10.12 26.4496 9.43716 26.009C9.00895 25.7736 8.60278 25.5002 8.22357 25.192C8.3369 24.1815 8.77606 23.2323 9.05939 22.2549C9.76771 20.2117 10.4839 18.1655 11.208 16.1161C11.6352 14.8311 12.1938 13.5937 12.8749 12.4233C14.4332 13.0608 16.1285 13.2497 17.7859 13.4528C17.1484 15.0866 16.4496 16.6922 15.8971 18.3591C15.6893 19.0202 15.4862 19.7757 15.8404 20.4274C15.9451 20.7614 16.1675 21.046 16.4663 21.2284C16.7651 21.4108 17.1199 21.4785 17.4648 21.419C18.8029 21.0751 19.9858 20.2898 20.8223 19.1902C21.7667 18.0333 22.5223 16.7488 23.4289 15.573C23.5458 15.3694 23.7071 15.1949 23.9009 15.0624C24.0947 14.93 24.3159 14.843 24.5481 14.808C26.3425 14.5058 28.0047 15.4125 29.7424 15.658C30.2996 15.7619 30.9088 15.71 31.4093 16.0216C32.279 16.5368 33.1924 16.9745 34.1387 17.3297C36.2448 18.0521 38.2234 19.0674 40.2775 19.9599C41.392 20.4746 42.6386 20.7532 43.6539 21.4426C43.7961 21.7823 43.8586 22.15 43.8365 22.5176C43.8144 22.8851 43.7083 23.2427 43.5264 23.5629ZM43.8569 20.2574C42.4403 19.4499 40.8773 19.1005 39.4181 18.4346C37.8146 17.7391 36.1697 17.143 34.4929 16.6497C33.6546 16.4212 32.834 16.1324 32.0374 15.7855C33.6824 15.4865 35.1792 14.6433 36.2873 13.3914C35.546 13.6605 34.8707 14.0997 34.1057 14.3358C32.1035 14.9733 29.936 14.7183 27.9669 14.1044C26.6659 13.6262 25.2487 13.5635 23.9106 13.925C23.5055 14.1048 23.167 14.407 22.9425 14.7891C22.0784 16.0122 21.3087 17.3013 20.3784 18.4771C19.6575 19.4399 18.6297 20.1278 17.4648 20.4274C16.8557 20.5738 16.5204 19.8371 16.7046 19.346C17.1832 17.6158 17.7522 15.912 18.4093 14.2414C18.8815 12.9522 19.3537 11.4647 20.657 10.7611C22.4136 9.77893 24.4867 10.0292 26.4133 9.89698C29.9927 9.71633 33.4087 8.34328 36.1173 5.99648C37.1845 7.20063 38.1242 8.52283 39.2434 9.68921C41.0142 11.7811 42.8039 13.8636 44.74 15.828C45.3161 16.4088 45.8591 17.018 46.4163 17.6224C45.4522 18.3785 44.5917 19.258 43.8569 20.2385V20.2574ZM50.5435 15.2188C50.4712 15.4512 50.3335 15.6578 50.1468 15.8138C50.0371 15.9222 49.9112 16.013 49.7738 16.083C49.6094 16.165 49.4286 16.2086 49.2449 16.2105C49.2449 16.2105 49.2119 16.2105 49.1977 16.2105C49.1143 16.2339 49.0261 16.2339 48.9427 16.2105L48.7869 16.1491L48.6546 16.0594L48.4658 15.913L48.3477 15.8091C48.2918 15.7463 48.2397 15.68 48.1919 15.6108C48.1743 15.5894 48.16 15.5655 48.1494 15.54C48.0761 15.4053 48.0387 15.2541 48.0408 15.1008C48.0326 14.9397 48.0738 14.7799 48.1588 14.6427C48.274 14.4671 48.4382 14.3292 48.631 14.2461C48.7306 14.1998 48.8331 14.1604 48.938 14.128C49.0532 14.1019 49.1699 14.083 49.2874 14.0714C49.4592 14.0533 49.6327 14.0612 49.8021 14.095C49.854 14.1003 49.9049 14.113 49.9532 14.1328C50.0988 14.179 50.2325 14.2563 50.3452 14.3594C50.4516 14.4682 50.5264 14.604 50.5613 14.7521C50.5963 14.9002 50.5901 15.0551 50.5435 15.2V15.2188Z" fill="#C0CEC9"/>
</svg>
