<svg width="21" height="21" viewBox="0 0 21 21" fill="none" xmlns="http://www.w3.org/2000/svg">
<path d="M10.3941 15.5392C8.13606 17.1548 5.92794 18.7324 3.72406 20.3155C3.56225 20.4318 3.43881 20.5983 3.28281 20.7239C2.92187 21.0143 2.58116 20.8978 2.49923 20.445C2.4677 20.2647 2.4765 20.0796 2.52503 19.9029C2.7549 19.0929 2.97436 18.2781 3.25392 17.4841C3.78352 15.9806 4.35137 14.4901 4.90393 12.9945C4.9615 12.8387 5.0244 12.6849 5.07381 12.5581C3.5245 11.1693 2.05776 9.75168 0.626288 8.29904C0.433766 8.10007 0.270827 7.87537 0.142272 7.63163C-0.0214158 7.32547 0.0923822 7.12007 0.43682 7.07531C0.777011 7.02944 1.12 7.00656 1.46337 7.00679C2.77447 7.01434 4.08539 7.04289 5.39649 7.05008C5.91024 7.05293 6.42416 7.02015 6.96529 7.00275C7.21494 6.3908 7.45974 5.79773 7.69927 5.20264C8.32951 3.63685 8.95865 2.07054 9.58662 0.503701C9.60837 0.446292 9.63378 0.390271 9.66265 0.335973C9.84444 0.0100127 10.1852 -0.020567 10.4127 0.282275C10.5082 0.42203 10.5859 0.57277 10.644 0.731108C11.1379 1.9224 11.6082 3.12346 12.1253 4.3048C12.4262 4.99218 12.8003 5.64888 13.1497 6.33626C13.2991 6.33626 13.4216 6.33866 13.5445 6.33626C15.0733 6.30191 16.6021 6.25862 18.1312 6.2355C18.8631 6.22445 19.5957 6.25614 20.3279 6.25826C20.5671 6.259 20.7658 6.31775 20.8717 6.53889C20.9234 6.64428 20.9379 6.76363 20.9127 6.87799C20.8874 6.99235 20.8242 7.09515 20.7327 7.17009C20.2512 7.62887 19.7708 8.08958 19.2687 8.52588C17.9359 9.68398 16.5916 10.8292 15.253 11.9809C15.1262 12.09 15.0076 12.2081 14.8895 12.3181C14.9027 12.3891 14.9216 12.459 14.9457 12.5272C15.9647 14.6777 16.5965 16.9463 17.0782 19.2608C17.1606 19.5873 17.2245 19.9181 17.2697 20.2514C17.3189 20.7845 17.1362 20.8593 16.6145 20.9416C15.8843 21.0576 15.4404 20.6797 14.9764 20.2627C13.767 19.1759 12.557 18.0891 11.5002 16.8515C11.1399 16.4296 10.7852 16.0035 10.3941 15.5392ZM4.13161 18.7957L4.19835 18.8562C4.2862 18.7953 4.3765 18.7377 4.46153 18.6731C6.26153 17.3016 8.06176 15.93 9.86225 14.5585C10.3094 14.2188 10.5581 14.2227 10.9819 14.5848C11.2661 14.8248 11.534 15.0827 11.7838 15.357C12.9451 16.6471 14.2531 17.7881 15.5413 18.9491C15.5936 18.9963 15.6547 19.0338 15.7575 19.1095C15.742 18.9952 15.7402 18.9363 15.7255 18.8808C15.1974 16.8815 14.6619 14.884 13.9024 12.9538C13.7005 12.4405 13.7541 12.0404 14.2051 11.6459C15.6972 10.341 17.1582 9.00152 18.6301 7.67511C18.7512 7.56615 18.8712 7.45635 19.0619 7.28329C18.7973 7.28329 18.6422 7.28154 18.4872 7.28329C16.8013 7.30585 15.1146 7.30539 13.4299 7.36287C12.7042 7.38764 12.2487 7.08654 11.9349 6.49099C11.9277 6.47736 11.9211 6.46337 11.915 6.44937C11.615 5.76005 11.2962 5.078 11.0212 4.37929C10.7346 3.65166 10.4918 2.90683 10.2259 2.17082C10.1754 2.03091 10.1067 1.89734 10.0122 1.6832C9.81444 2.16629 9.63022 2.56539 9.48584 2.97802C9.02993 4.2815 8.57799 5.58652 8.14609 6.89782C7.86756 7.74344 7.23605 8.10211 6.40992 8.0462C5.1803 7.9633 3.94805 7.91513 2.71664 7.86005C2.37914 7.84495 2.04089 7.85776 1.64358 7.85776C2.06546 8.23189 2.45919 8.5748 2.84516 8.92535C3.8764 9.86092 4.90936 10.7951 5.92955 11.7421C6.09313 11.9058 6.22733 12.0956 6.32648 12.3033C6.46551 12.5732 6.41862 12.7905 6.15772 12.937C5.96684 13.0442 5.90929 13.1949 5.85098 13.3677C5.53729 14.298 5.21143 15.2238 4.91462 16.1585C4.63768 17.0332 4.39139 17.9165 4.13152 18.7957H4.13161Z" fill="#EAC6BE"/>
</svg>
