<svg width="35" height="21" viewBox="0 0 35 21" fill="none" xmlns="http://www.w3.org/2000/svg">
<path d="M31.5188 0.246006C32.4912 0.0275536 33.4905 -0.0460059 34.4844 0.0277106C34.4317 0.308236 34.325 0.575855 34.1703 0.815702C33.4249 1.7581 32.541 2.58336 31.7584 3.47784C30.3794 5.10706 29.1548 6.89602 27.8663 8.58913C25.5556 11.6027 23.5643 14.8451 21.0726 17.7149C20.439 17.3103 19.6936 17.1293 19.0813 16.6927C18.3867 16.2312 17.6588 15.8219 16.9037 15.4681C15.956 16.6554 14.6568 17.4647 13.5813 18.5242C12.7614 19.3335 11.7551 19.9777 11.1694 21C10.862 20.7763 10.6388 20.4556 10.5358 20.0895C9.51144 17.0571 8.86586 13.9097 8.61379 10.7188C7.32531 10.1598 6.09008 9.47828 4.76966 8.98845C3.33744 8.45603 2.00105 7.66803 0.579466 7.08769C0.362383 7.006 0.185517 6.84319 0.0861828 6.63359C-0.0131515 6.424 -0.0271862 6.18401 0.0470396 5.96427C0.345323 5.81694 0.662413 5.71125 0.989435 5.65014C4.3171 4.92604 7.55958 3.94105 10.8872 3.32343C14.0445 2.70582 17.2178 2.10417 20.423 1.81666C21.7275 1.69953 23.0213 1.51318 24.3257 1.37475C26.7376 1.10854 29.1175 0.592083 31.5188 0.246006ZM25.0924 1.89653C20.407 2.18404 15.7962 3.16903 11.212 4.11142C7.94825 4.79293 4.76434 5.78857 1.52719 6.56059C2.76606 7.22407 4.04452 7.81084 5.35533 8.31759C6.71835 8.78081 7.97487 9.53153 9.35386 9.95747L9.8224 9.83501C13.5494 8.40811 17.4254 7.51895 21.211 6.29437C22.1441 5.95999 23.1123 5.73313 24.0968 5.61819C24.1447 5.70338 24.2352 5.86843 24.2778 5.95362C23.5334 6.72748 22.6923 7.40213 21.7754 7.96087C19.1132 9.69658 16.515 11.5175 13.8422 13.2372C14.753 13.6105 15.6418 14.0354 16.5044 14.5097C17.9259 15.2178 19.4221 15.8355 20.6253 16.9003C21.8765 15.4095 23.1064 13.8974 24.2192 12.3001C25.891 9.88825 27.7386 7.60414 29.4902 5.25082C30.6243 3.70146 31.9288 2.34377 33.1853 0.927512C30.4752 1.15113 27.7971 1.63031 25.0924 1.89653ZM9.37516 10.9797C9.70114 13.7188 10.3169 16.4156 11.212 19.0247C11.5208 17.8427 11.6699 16.6235 11.9681 15.4361C12.1336 14.7037 12.2228 13.9561 12.2343 13.2053L12.6496 13.1041C13.3236 12.5373 14.0491 12.0347 14.8166 11.6027C17.2923 9.97344 19.8001 8.40811 22.2705 6.73096C17.9739 8.17384 13.5547 9.22804 9.37516 10.9797ZM12.8998 13.775C12.7507 15.6012 12.2769 17.3795 11.9894 19.1897C12.9382 18.1184 13.9593 17.1133 15.0455 16.1815C15.4504 15.8487 15.8362 15.4932 16.2009 15.1167C15.1872 14.4803 14.07 14.0262 12.8998 13.775Z" fill="#EABECE"/>
</svg>
