<svg width="19" height="17" viewBox="0 0 19 17" fill="none" xmlns="http://www.w3.org/2000/svg">
<path d="M6.54534 0.337203C8.46281 -0.223616 10.5175 -0.0814667 12.3395 0.738056C13.2095 1.15713 14.1206 1.36667 14.9496 1.84951C16.0505 2.46859 16.9214 3.42742 17.4321 4.5826C17.8655 5.34851 18.1075 6.20773 18.1377 7.08723C18.1678 7.96672 17.9852 8.84049 17.6052 9.63427C16.717 11.2787 15.0544 12.3264 13.3917 13.0597C12.4952 13.4481 11.5381 13.6777 10.563 13.7385C10.2441 14.818 10.2259 16.0935 9.33309 16.8997C8.29907 16.2438 8.30818 14.8681 8.04854 13.7931C6.15815 13.7293 4.15844 13.579 2.50492 12.5678C1.07915 11.7023 0.291113 10.0761 0.0405794 8.46815C-0.182623 6.77363 0.541646 5.111 1.55745 3.79456C2.79145 2.12167 4.54579 0.905649 6.54534 0.337203ZM7.87544 0.756277C6.43697 1.00877 5.07901 1.59923 3.9133 2.47905C2.74759 3.35887 1.80746 4.50292 1.17026 5.81705C0.0360243 8.09463 1.12926 11.2058 3.49338 12.1624C4.83792 12.683 6.26975 12.9412 7.71146 12.9231C8.00754 12.9686 8.4585 12.873 8.59971 13.2237C8.8548 14.0072 8.91857 14.8499 9.24199 15.6152C9.48341 14.7634 9.46063 13.8478 9.81138 13.0324C10.1621 12.6088 10.7816 12.9276 11.2508 12.8775C12.4923 12.712 13.6804 12.2682 14.7264 11.5793C15.8287 10.9006 16.9539 10.0123 17.3228 8.71413C17.5418 7.87252 17.4908 6.98341 17.1771 6.17235C16.7215 4.98801 16.1613 3.76723 15.1181 2.98375C13.5375 1.77663 11.5423 1.36667 9.70206 0.760832C9.10371 0.602236 8.47457 0.600667 7.87544 0.756277Z" fill="#E9EABE"/>
<path d="M8.34462 4.88793C9.89793 4.62373 11.5013 4.39598 13.0592 4.73306C12.1559 5.03626 11.2203 5.23346 10.2715 5.32067C8.70919 5.46941 7.13901 5.51809 5.57054 5.46644C5.37171 5.47314 5.17577 5.41739 5.01025 5.30701C6.13082 5.15213 7.24683 5.07925 8.34462 4.88793Z" fill="#E9EABE"/>
<path d="M6.70933 7.18354C8.75003 6.78269 10.809 6.27251 12.9043 6.39094C13.1043 6.39499 13.2982 6.46017 13.4601 6.57771C12.3209 7.15233 11.0855 7.51212 9.81594 7.63906C8.19886 7.74383 6.60456 7.74383 5.01025 7.82582C5.46577 7.36575 6.13082 7.36119 6.70933 7.18354Z" fill="#E9EABE"/>
<path d="M7.20128 9.4517C8.44939 9.22394 9.66106 8.80487 10.9274 8.66821C11.9196 8.53689 12.9235 8.51703 13.9201 8.609C12.8998 9.1875 11.7109 9.37882 10.5903 9.6749C8.74743 9.98948 6.87066 10.0554 5.01025 9.87077C5.73172 9.68813 6.46334 9.54819 7.20128 9.4517Z" fill="#E9EABE"/>
</svg>
