<svg width="38" height="35" viewBox="0 0 38 35" fill="none" xmlns="http://www.w3.org/2000/svg">
<path d="M30.1091 30.2449C30.0368 30.5409 29.9694 30.7865 29.9172 31.0354C29.5811 32.6394 28.6239 33.6512 27.0104 33.9914C26.4057 34.1296 25.7874 34.2004 25.1672 34.2026C23.1233 34.1709 21.0818 34.0854 18.9006 34.0162C17.7523 35.1102 16.1874 34.8892 14.671 34.7967C14.3315 34.7813 13.9991 34.6943 13.6959 34.5416C13.3926 34.3888 13.1252 34.1737 12.9114 33.9104C12.7 33.647 12.5529 33.3383 12.4819 33.0086C12.4108 32.6788 12.4179 32.3371 12.5023 32.0105C12.5868 31.6838 12.7464 31.3814 12.9686 31.127C13.1907 30.8725 13.4692 30.6731 13.7821 30.5444C15.1983 29.9782 16.6682 30.0213 18.1334 30.3721C18.3126 30.4062 18.4767 30.4952 18.6027 30.6269C18.9548 31.0827 19.4307 31.0816 19.9336 31.0795C21.6957 31.0728 23.4578 31.0845 25.2197 31.0833C25.5045 31.0897 25.7894 31.0727 26.0713 31.032C27.0375 30.868 27.3088 30.5285 27.4066 29.5408C27.9446 24.1098 27.6472 18.6637 27.6685 13.2254C27.6729 12.1241 27.4932 11.0185 27.3574 9.92009C27.1547 8.27872 26.3594 6.90149 25.3579 5.62052C23.9398 3.80777 22.1232 2.61917 19.8142 2.40042C16.8296 2.1177 14.0293 2.62004 11.748 4.78401C10.9928 5.50776 10.5056 6.46482 10.3656 7.49953C10.137 8.99925 10.0069 10.5147 9.85631 12.0254C9.70037 13.5882 9.52612 15.151 9.44134 16.7183C9.35943 18.233 9.38971 19.7535 9.35429 21.2712C9.33672 22.0173 9.25573 22.7625 9.25225 23.5083C9.24937 24.1246 9.36337 24.7425 9.34566 25.3576C9.31447 26.4372 9.27571 27.522 9.1381 28.5915C9.02818 29.4464 8.63062 29.8258 7.81385 29.8605C6.0386 29.9359 4.29347 29.7763 2.72548 28.8098C1.33796 27.9544 0.55222 26.7176 0.313168 25.1136C0.0302124 23.2144 -0.0919629 21.321 0.462594 19.4479C0.871359 18.0667 1.63756 16.9155 2.85114 16.1174C3.55535 15.6371 4.30389 15.2248 5.08663 14.8862C5.74126 14.6169 6.47492 14.5383 7.25823 14.3555C7.3197 13.8353 7.39888 13.2297 7.46186 12.6225C7.62385 11.0609 7.75859 9.49632 7.94041 7.93701C8.30088 4.84887 10.0023 2.71497 12.762 1.38166C14.9221 0.343498 17.3222 -0.098286 19.712 0.102348C22.0106 0.256076 24.1901 1.17774 25.8981 2.71842C28.3551 4.91196 29.9334 7.60318 30.2413 10.9404C30.3003 11.581 30.3353 12.2236 30.3977 12.8637C30.4239 13.133 30.4923 13.3981 30.551 13.7165C31.5677 13.5042 32.6229 13.569 33.6057 13.9039C35.5459 14.5299 36.8354 15.8184 37.4306 17.7562C37.8873 19.2444 38.1209 20.7509 37.8829 22.3304C37.6138 24.1163 37.152 25.8152 36.1221 27.3164C34.8522 29.1682 33.0822 30.1392 30.8233 30.2054C30.6189 30.2116 30.4149 30.2279 30.1091 30.2449ZM30.5963 15.7447C30.5411 19.6822 30.4858 23.6347 30.4307 27.5801C32.2777 27.7631 33.6083 26.8187 34.2912 25.5626C35.5611 23.2289 35.8076 20.7803 35.1631 18.2195C34.6388 16.1357 32.2978 15.2501 30.5966 15.7447H30.5963ZM7.14923 16.2402C6.79481 16.2909 6.49944 16.2689 6.26735 16.379C5.6863 16.6548 5.12735 16.9792 4.57174 17.3043C3.05779 18.1894 2.44601 19.5876 2.42194 21.26C2.40763 22.2387 2.46678 23.217 2.59892 24.1869C2.68461 24.8107 2.8307 25.502 3.18269 25.9995C4.1607 27.3826 5.69115 27.5277 7.14923 27.6008V16.2402Z" fill="#BEEAC2"/>
</svg>
