<svg width="23" height="43" viewBox="0 0 23 43" fill="none" xmlns="http://www.w3.org/2000/svg">
<path d="M3.51904 31.8281C3.51904 33.9863 3.63263 36.1445 3.62809 38.3072C3.62809 38.5571 3.62809 38.807 3.65989 39.0569C3.70079 37.9846 3.74622 36.9124 3.80529 35.8401C3.9007 34.2453 4.0461 32.6595 4.23693 31.0875C4.2676 30.5817 4.19653 30.075 4.02793 29.5972C3.52813 30.2242 3.5463 31.0648 3.51904 31.8281Z" fill="#EAE0BE"/>
<path d="M18.1721 30.0283C17.9406 30.542 17.8526 31.1089 17.9176 31.6686C17.8631 33.3633 17.7768 35.0626 17.7949 36.7574C18.1502 34.6694 18.3582 32.559 18.4174 30.4418C18.3356 30.3055 18.2402 30.1692 18.1721 30.0283Z" fill="#EAE0BE"/>
<path d="M11.8838 41.588C11.8838 41.638 11.8838 41.6925 11.8838 41.7425L11.8474 42.256C13.2105 42.156 14.5736 42.0742 15.9366 41.9833C16.3202 41.9281 16.7084 41.9113 17.0953 41.9334C17.0953 41.7244 17.1271 41.5199 17.1452 41.3154C16.2093 41.4108 15.2551 41.3154 14.3146 41.4063C13.4967 41.4563 12.688 41.5199 11.8838 41.588Z" fill="#EAE0BE"/>
<path d="M22.9611 25.3352C22.8248 23.6677 22.7021 21.8366 21.6208 20.4781C20.8252 19.6933 19.9443 18.9998 18.9946 18.4108C17.7657 17.5687 16.8867 16.3068 16.5229 14.8622C17.3254 13.8795 17.9219 12.7453 18.2767 11.5272C18.6376 9.79509 18.7705 8.02322 18.672 6.25664C18.6555 5.75377 18.5429 5.2587 18.3403 4.79815C18.4376 4.59159 18.4914 4.36724 18.4984 4.13903C18.5055 3.91081 18.4656 3.68358 18.3812 3.47142C17.6588 2.10834 16.2639 1.24051 14.8508 0.713457C13.6286 0.28636 12.3518 -0.108933 11.0524 0.0273748C9.64875 0.164163 8.3173 0.714454 7.22667 1.60855C6.09986 2.78988 5.74091 4.50281 5.76818 6.08853C5.47284 8.66929 5.39106 11.3909 6.3861 13.8399C6.74934 14.6997 7.37618 15.422 8.17628 15.9027C6.29069 17.1158 4.08705 17.7701 2.29687 19.1741C1.46994 19.8602 1.19278 20.9552 1.04284 21.9729C0.402192 26.2439 0.31132 30.5785 0.0795971 34.8904C0.0205304 36.6306 -0.111234 38.398 0.193187 40.12C0.287342 40.489 0.49501 40.8191 0.786872 41.0637C1.07873 41.3082 1.44005 41.455 1.81979 41.4831C2.40137 41.5967 2.9875 41.6921 3.57362 41.7785C3.57362 41.5467 3.57362 41.3241 3.57362 41.0833C2.81636 41.0066 2.07244 40.831 1.36089 40.5608C1.21734 40.4801 1.09713 40.3636 1.01194 40.2227C0.926743 40.0817 0.879474 39.9212 0.874726 39.7566C0.561218 37.4848 0.811116 35.213 0.833834 32.9412C1.00649 29.4744 0.979229 25.9895 1.56535 22.5591C1.73801 21.564 1.91975 20.4327 2.79212 19.7965C4.31877 18.6288 6.12258 17.92 7.72192 16.8705C7.18123 18.2108 6.41337 19.4467 5.84542 20.778C5.79357 20.8794 5.76255 20.9902 5.75418 21.1039C5.74581 21.2175 5.76025 21.3316 5.79666 21.4396C5.83307 21.5476 5.89072 21.6472 5.9662 21.7325C6.04167 21.8179 6.13347 21.8872 6.23617 21.9366C6.62043 22.1116 7.02265 22.2441 7.43568 22.3319C6.94951 22.9589 6.0726 23.4905 6.21799 24.4038C6.427 25.3943 7.03129 26.2212 7.55381 27.0845C8.22172 28.1704 9.1577 29.0791 9.77108 30.215C10.3345 31.2419 11.0342 32.196 11.4976 33.2774C11.2487 34.9986 11.0971 36.7324 11.0433 38.4707C11.0433 39.5294 11.0751 40.588 11.0433 41.6512C8.82739 41.6355 6.61415 41.4944 4.41419 41.2287C4.41419 41.4559 4.37784 41.683 4.35057 41.8966C6.57361 42.1887 8.81504 42.3178 11.0569 42.2828C11.0842 42.0329 11.1114 41.783 11.1342 41.5376C11.2023 40.6289 11.2796 39.7611 11.3295 38.8706C11.434 37.0531 11.4068 35.2357 11.584 33.4182C11.6158 33.132 12.0383 33.1229 12.0383 33.4182C12.0383 33.7136 12.0383 33.9726 12.0156 34.2497C12.0156 34.0862 12.052 33.9226 12.0747 33.759C13.3242 31.8643 14.2647 29.7697 15.5414 27.8841C16.2457 26.7437 17.0454 25.6123 17.4588 24.3492C17.577 23.5178 16.591 23.177 16.0594 22.7453C16.6637 21.9093 17.5452 21.255 17.9632 20.2918C18.1222 19.4967 17.6315 18.7606 17.4225 18.02C18.5039 19.1241 19.9351 19.7965 21.0574 20.8552C22.0524 21.8094 22.2205 23.2588 22.3432 24.5355C22.5795 28.4203 22.0479 32.296 21.9207 36.1762C21.8025 37.5393 21.8116 38.9523 21.2437 40.2109C20.4985 40.9061 19.4262 40.9742 18.4675 41.0606C18.5993 39.7338 18.4357 38.4117 18.4675 37.0849C18.4675 37.1667 18.4675 37.2485 18.4675 37.3257C18.3585 38.398 18.2494 39.4794 18.1177 40.5562C18.1495 40.7425 18.1722 40.9288 18.2085 41.1105L18.0404 41.1514C18.0041 41.415 17.9677 41.683 17.9268 41.9466C18.261 41.9578 18.5955 41.9395 18.9264 41.892C19.9169 41.8284 20.9801 41.7058 21.7616 41.0242C22.1189 40.5077 22.3508 39.915 22.4386 39.2931C22.793 37.303 22.7385 35.2766 22.8385 33.2683C22.9611 30.6376 23.0565 27.9841 22.9611 25.3352ZM7.90821 14.7622C6.99949 14.0126 6.69961 12.8358 6.4588 11.7453C6.10855 9.78333 6.00931 7.78476 6.16347 5.79774C6.22816 5.09738 6.41742 4.4142 6.72233 3.78038C7.52655 4.97535 8.32168 6.18394 9.16224 7.36073C9.52508 7.91907 10.0343 8.367 10.6344 8.65566C11.4204 8.00138 10.9342 6.93364 10.7798 6.10216C11.4522 6.8882 12.2201 7.84236 13.3651 7.80601C13.7649 7.23806 13.5468 6.55197 13.4241 5.93405C14.0148 6.38841 14.6373 7.02451 15.4597 6.96544C15.9822 6.51108 15.6959 5.76139 15.7005 5.17527C16.3927 5.55635 17.1902 5.7015 17.9723 5.58873C18.1222 7.11307 18.0994 8.64948 17.9041 10.1687C17.7124 11.906 16.924 13.5231 15.6732 14.7441C14.4464 15.8936 12.6472 16.1072 11.0433 15.9163C9.91844 15.7988 8.84078 15.4021 7.90821 14.7622ZM6.93588 24.5355C6.79503 24.1084 7.2403 23.8403 7.47202 23.5541C7.86732 23.0997 8.4489 22.6454 8.38074 21.9775C7.70829 21.5867 6.85864 21.6912 6.22253 21.2187C6.72687 19.8238 7.49474 18.5334 7.93547 17.1295C8.45798 19.9011 9.10772 22.6454 9.6484 25.4124C10.0346 27.1799 10.598 28.9292 10.7071 30.7466C9.6893 28.5066 7.66285 26.8846 6.93588 24.5355ZM10.3118 25.4442C9.92556 24.0812 9.71656 22.6817 9.29855 21.355C9.50206 21.5378 9.76348 21.643 10.0369 21.6521C10.3103 21.6613 10.5781 21.5738 10.7934 21.405C10.802 21.93 10.8675 22.4525 10.9888 22.9634C10.807 23.7722 10.5208 24.59 10.3118 25.4442ZM10.0891 20.9597C9.63477 20.887 9.45303 20.3963 9.2622 20.051C8.87384 19.0243 8.60105 17.9576 8.4489 16.8705C9.25718 17.9141 10.3022 18.7505 11.4976 19.3104C11.1478 19.9147 10.7934 20.6462 10.0891 20.9461V20.9597ZM10.7207 18.12C9.91088 17.5774 9.20332 16.896 8.63064 16.1072C10.8525 16.9432 13.4923 17.0977 15.5823 15.8164C14.7872 16.7751 14.1647 18.0018 12.9425 18.4789C12.5731 18.6234 12.1714 18.6651 11.7801 18.5995C11.3889 18.5339 11.0228 18.3634 10.7207 18.1063V18.12ZM12.1928 19.4331C13.152 19.3121 14.0268 18.8234 14.6327 18.07C15.2251 17.3404 15.7527 16.5605 16.2094 15.7391L16.3275 15.6482C15.8413 16.4706 15.8731 17.4657 15.5551 18.3381C15.3736 19.0217 15.1033 19.6785 14.7509 20.2918C14.5555 20.5735 14.2238 20.8961 13.8421 20.7462C13.1556 20.5078 12.5727 20.039 12.1928 19.4194V19.4331ZM14.7781 21.2505C14.5469 22.6178 14.205 23.9641 13.7558 25.2761C13.5546 24.4273 13.3074 23.59 13.0152 22.7681C13.2589 22.3386 13.374 21.8481 13.3469 21.355C13.5775 21.4492 13.827 21.4884 14.0754 21.4695C14.3238 21.4506 14.5644 21.374 14.7781 21.246V21.2505ZM15.3915 22.6136C15.5187 23.4678 16.5365 23.5814 17.0772 24.1084C16.5865 25.3488 15.7732 26.4211 15.0735 27.5434C14.2147 28.7701 13.515 30.0923 12.7244 31.36C13.1788 29.6652 13.5877 27.9523 14.0466 26.2575C14.3647 25.0807 14.7918 23.9312 15.0098 22.7317C15.2165 21.4787 15.5203 20.2436 15.9186 19.0378C16.1527 18.3316 16.3394 17.6106 16.4774 16.8796C16.8953 17.8892 17.2178 18.9358 17.4407 20.0056C16.8636 20.9643 15.855 21.6004 15.3915 22.6227V22.6136Z" fill="#EAE0BE"/>
<path d="M22.3431 24.5358C22.2205 23.2455 22.0524 21.8097 21.0664 20.8464C19.9532 19.7878 18.522 19.1153 17.4315 18.0112C17.6405 18.7564 18.1312 19.4924 17.9722 20.283C17.5542 21.2463 16.6727 21.9005 16.0684 22.7366C16.6 23.1909 17.586 23.509 17.4679 24.3405C17.0544 25.6217 16.2547 26.7349 15.5505 27.8754C14.2737 29.761 13.3332 31.8556 12.0837 33.7502C12.061 33.9138 12.0428 34.0774 12.0246 34.2409C11.9883 35.813 12.0792 37.3851 12.0246 38.9572C11.9883 39.8296 11.9338 40.7019 11.8838 41.5698C12.688 41.5016 13.4968 41.438 14.3055 41.3926C15.246 41.3153 16.2002 41.3926 17.1362 41.3017C17.2679 39.9704 17.4997 38.6437 17.7041 37.3351C17.7314 37.1352 17.7632 36.9398 17.795 36.7399C17.795 35.0452 17.8632 33.3459 17.9177 31.6511C17.856 31.0974 17.9439 30.5373 18.1721 30.029C18.2403 30.1699 18.3357 30.3062 18.4175 30.447C18.4175 30.3607 18.4175 30.2698 18.4175 30.1835C18.428 30.131 18.4564 30.0838 18.4978 30.0499C18.5392 30.016 18.5911 29.9975 18.6447 29.9975C18.6982 29.9975 18.7501 30.016 18.7915 30.0499C18.8329 30.0838 18.8613 30.131 18.8718 30.1835C18.8718 32.4917 18.6901 34.8044 18.4584 37.0989C18.4266 38.4256 18.5901 39.7478 18.4584 41.0745C19.4216 40.9882 20.4894 40.92 21.2345 40.2249C21.807 38.9663 21.807 37.5396 21.9206 36.1901C22.0478 32.3099 22.5794 28.4342 22.3431 24.5358Z" fill="#EAE0BE"/>
<path d="M11.4977 33.277C11.0433 32.1957 10.3345 31.2415 9.77109 30.2147C9.1577 29.0788 8.22172 28.17 7.55381 27.0841C7.0313 26.2345 6.427 25.3939 6.218 24.4034C6.05443 23.4947 6.94952 22.9585 7.43568 22.3315C7.02265 22.2438 6.62043 22.1112 6.23617 21.9362C6.13347 21.8869 6.04168 21.8175 5.9662 21.7321C5.89072 21.6468 5.83308 21.5472 5.79667 21.4392C5.76026 21.3313 5.74581 21.2171 5.75419 21.1035C5.76256 20.9899 5.79358 20.8791 5.84542 20.7776C6.41337 19.4463 7.18124 18.2105 7.72193 16.8701C6.12258 17.9197 4.31877 18.6285 2.79213 19.8144C1.91976 20.4459 1.73801 21.5818 1.56536 22.5769C0.979234 26.0073 1.0065 29.4922 0.833839 32.959C0.811121 35.2308 0.561223 37.5026 0.874731 39.7744C0.88254 39.9358 0.931249 40.0927 1.01629 40.2302C1.10133 40.3677 1.21991 40.4813 1.3609 40.5604C2.07078 40.8318 2.81316 41.009 3.56908 41.0875C3.56908 40.4423 3.6236 39.7925 3.64632 39.1519C3.64632 39.1201 3.64632 39.0883 3.64632 39.0565C3.64632 38.8066 3.61452 38.5567 3.61452 38.3068C3.61452 36.144 3.48275 33.9858 3.50547 31.8276C3.53273 31.0643 3.50547 30.2237 4.01435 29.5967C4.18296 30.0745 4.25402 30.5813 4.22336 31.087C4.29151 30.5054 4.36421 29.9239 4.446 29.3423C4.47326 29.1378 4.8322 29.1878 4.80948 29.3923C4.58603 31.6082 4.49651 33.8356 4.54141 36.0623C4.54141 37.2027 4.54141 38.3341 4.49597 39.4836C4.49597 40.0606 4.46871 40.6467 4.42328 41.2283C6.62324 41.4941 8.83648 41.6352 11.0524 41.6509C11.0524 40.5877 11.0524 39.529 11.0524 38.4704C11.1031 36.7323 11.2518 34.9984 11.4977 33.277Z" fill="#EAE0BE"/>
</svg>
