<svg width="67" height="53" viewBox="0 0 67 53" fill="none" xmlns="http://www.w3.org/2000/svg">
<path d="M50.0111 0.78786C52.5448 0.698836 55.0238 -0.116074 57.5918 0.0140374C58.4615 0.0619733 58.9135 0.972756 59.4134 1.55484C59.7763 2.62312 59.8516 3.77358 60.1461 4.86241C62.0567 12.6897 63.125 20.6813 64.7685 28.5633C65.3165 31.5368 65.6733 34.5424 65.8368 37.5616C66.0422 39.5132 66.1449 41.4718 66.2408 43.4303C66.2904 43.7751 66.2627 44.1267 66.1597 44.4595C66.0566 44.7924 65.8809 45.0981 65.645 45.3546C65.0432 45.698 64.3844 45.93 63.7002 46.0394C60.3721 46.7242 57.0645 47.409 53.709 47.9294C49.7509 48.5183 45.7311 48.5457 41.773 49.1963C39.0069 49.6333 36.2119 49.8622 33.4116 49.8811C28.9124 49.8811 24.5092 50.7097 19.9964 51.0726C16.3464 51.3466 12.7512 52.5107 9.03957 52.0245C8.35477 51.8739 7.96443 51.1685 7.72475 50.5659C7.4328 49.4932 7.22897 48.3984 7.11528 47.2926C6.77973 44.752 6.05384 42.273 5.61557 39.7324C5.48546 38.7394 4.93077 37.8423 4.93077 36.822C4.85545 33.5007 3.97205 30.2753 3.30095 27.0362C3.01334 25.4749 2.31484 24.0094 2.19158 22.4207C2.06831 20.8319 1.65059 19.3802 1.58895 17.8325C1.49308 16.7642 1.58895 15.6891 1.52047 14.6208C1.23971 12.8677 0.233052 11.2927 0.0207648 9.51905C-0.109347 9.08078 0.404252 8.94382 0.664476 8.74522L1.07536 8.1563C1.53381 8.18226 1.99372 8.15236 2.44495 8.06727C4.9225 7.50734 7.44194 7.15233 9.97774 7.00583C11.0311 7.02088 12.0841 6.95679 13.1278 6.81409C18.1953 5.85537 23.3108 5.21166 28.3714 4.21186C33.3842 3.43803 38.2942 2.28757 43.3069 1.76712C45.5394 1.47266 47.7992 1.29461 50.0111 0.78786ZM56.592 1.72603C55.3731 2.09583 54.1473 1.4932 52.9215 1.72603C50.1823 1.99995 47.4431 2.71215 44.7039 3.05454C40.6773 3.54075 36.6849 4.12283 32.7268 4.85557C27.8715 5.76635 22.9889 6.51963 18.0926 7.18388C14.5111 7.66324 10.9433 8.33434 7.32072 8.39598C5.52952 8.62298 3.75458 8.96378 2.00668 9.41633C2.19158 10.4367 2.34908 11.4707 2.48604 12.4911C6.64962 12.135 10.7036 11.1215 14.8809 10.7517C25.6254 9.60122 36.1713 7.18388 46.8747 5.78004C49.7235 5.38971 52.5654 4.95144 55.4278 4.69121C56.5187 4.51006 57.5963 4.25612 58.6533 3.93109C58.4478 3.12987 58.5231 2.06843 57.7151 1.59592C57.3358 1.5642 56.954 1.60843 56.592 1.72603V1.72603ZM53.9007 5.92385C44.5327 7.16334 35.1989 8.86164 25.8445 10.286C21.3933 10.9708 16.9421 11.4433 12.4362 11.8268C9.14913 12.1624 5.88949 12.7992 2.58191 12.9225C2.88232 15.4746 3.31432 18.0094 3.87618 20.5169C5.49916 28.262 6.10863 36.192 8.11509 43.8412C8.58075 45.7107 8.79989 47.6281 9.09435 49.5318C9.19707 49.9016 9.19707 50.4974 9.71067 50.5248C12.8402 51.148 15.9423 50.0934 19.0582 49.8811C24.0983 49.5045 29.1042 48.6279 34.1785 48.6622C38.438 48.6622 42.6084 47.6966 46.8473 47.4295C49.2236 47.2515 51.5998 47.0871 53.9555 46.7447C57.2357 46.2517 60.4817 45.5463 63.7276 44.9026C64.2344 44.7314 65.0013 44.7246 65.2068 44.1288C65.0767 42.7592 64.8575 41.3896 64.7617 40.02C64.2823 36.2057 64.2138 32.3365 63.44 28.5565C61.8787 20.7498 60.9679 12.8403 58.9135 5.15003C57.2618 5.52011 55.5871 5.77863 53.9007 5.92385V5.92385Z" fill="#BED3EA"/>
<path d="M47.628 8.95056C50.3672 8.44381 53.1064 7.66998 55.9004 7.63574C56.3325 7.64633 56.746 7.81311 57.0646 8.10521C57.3831 8.39731 57.585 8.79494 57.6329 9.22448C58.0988 11.7554 58.4348 14.3084 58.6396 16.8737C58.8824 18.3948 58.9582 19.9379 58.8656 21.4755C58.8335 21.757 58.7105 22.0202 58.5153 22.2254C58.32 22.4306 58.0631 22.5664 57.7836 22.6123C52.7538 23.8053 47.6351 24.5863 42.4783 24.9475C41.1087 24.9954 39.7391 24.8927 38.3695 25.057C37.8285 25.057 37.1027 25.2899 36.8082 24.6804C36.1713 23.4751 36.3357 22.0371 36.2124 20.7223C36.2124 19.8868 35.7536 19.1404 35.7399 18.3049C35.7278 17.4932 35.643 16.6842 35.4865 15.8876C35.103 14.1482 35.5413 12.3882 35.4865 10.6352C39.5748 10.2859 43.6014 9.60112 47.628 8.95056ZM47.135 9.90927C43.4713 10.464 39.8145 11.0803 36.1234 11.4364C36.4657 12.2973 36.678 13.2043 36.7534 14.1276C36.9999 17.4147 36.9999 20.7496 37.6163 23.9819C40.0402 24.0445 42.4658 23.9736 44.882 23.7696C44.6585 23.1923 44.5672 22.5722 44.6149 21.9549C44.9036 20.1902 45.4336 18.4735 46.1899 16.8531C45.5873 16.2642 44.9231 15.5246 45.1285 14.6138C45.1285 13.3401 46.4981 12.7306 47.5732 12.4636C48.0295 12.3079 48.5265 12.3211 48.9739 12.5008C49.4213 12.6805 49.7893 13.0148 50.0111 13.4428C50.2157 14.0741 50.2188 14.7534 50.02 15.3866C49.8212 16.0197 49.4304 16.5753 48.9017 16.9764C49.8399 18.8459 51.2917 20.8181 50.7644 23.0369C53.1886 22.5233 55.647 22.2083 58.0575 21.6673C58.1342 20.3797 58.0768 19.0876 57.8863 17.8119C57.5165 15.0727 57.4412 12.2718 56.8797 9.54633C56.8043 9.03273 56.4756 8.48489 55.8867 8.51228C52.9147 8.60131 50.0454 9.44361 47.135 9.90927V9.90927ZM45.69 15.148C46.2036 15.9971 47.2308 16.7915 48.2512 16.2505C49.3606 15.9424 49.7098 13.7852 48.3265 13.6551C47.8029 13.689 47.2938 13.8409 46.8372 14.0995C46.3806 14.358 45.9885 14.7164 45.69 15.148ZM46.8405 17.2024C46.0688 19.3053 45.5851 21.5028 45.4024 23.7354C46.8747 23.5779 48.3402 23.3861 49.8057 23.1875C49.4701 22.2425 49.8057 21.229 49.5386 20.284C49.2066 19.2536 48.7944 18.2507 48.306 17.2846C47.8198 17.2366 47.3267 17.2092 46.8405 17.175V17.2024Z" fill="#BED3EA"/>
<path d="M10.0325 9.02576C10.2965 8.9077 10.5823 8.84668 10.8714 8.84668C11.1605 8.84668 11.4464 8.9077 11.7103 9.02576C11.672 9.67021 11.4133 10.2819 10.9776 10.7583C10.6258 10.6489 10.3304 10.4069 10.154 10.0835C9.97765 9.76009 9.93407 9.38073 10.0325 9.02576V9.02576Z" fill="#BED3EA"/>
<path d="M7.27283 9.4776C7.58099 9.08727 8.08089 9.38858 8.46438 9.44336C8.40077 9.95398 8.1807 10.4324 7.83437 10.813C7.5536 10.4363 7.12902 10.0049 7.27283 9.4776Z" fill="#BED3EA"/>
<path d="M3.73242 10.1692C4.0083 9.99008 4.32497 9.88362 4.653 9.85967C4.98104 9.83573 5.30981 9.89508 5.60877 10.0322C5.56054 10.6367 5.32063 11.2101 4.92397 11.6689C4.12961 11.6552 3.9721 10.7444 3.73242 10.1692Z" fill="#BED3EA"/>
<path d="M27.6044 12.3408C28.8165 12.1764 30.0149 11.9093 31.2338 11.8203C32.0077 11.8203 32.4391 12.5736 32.6034 13.2242C33.165 15.1827 33.1033 17.2508 33.4731 19.2435C33.8087 21.0446 34.1579 22.8387 34.3154 24.6603C34.3601 24.9087 34.3159 25.1648 34.1907 25.3839C34.0655 25.603 33.8673 25.7711 33.6306 25.8587C32.5621 26.2546 31.4627 26.5615 30.3436 26.7763C26.769 27.5364 23.2559 28.7759 19.5717 29.1663C16.1366 29.4356 12.7433 30.095 9.45724 31.1316C8.64918 30.2688 8.44374 29.0772 8.2246 27.9199C7.8822 25.6464 7.71785 23.3386 7.29328 21.0719C7.04675 19.0175 6.45097 16.9632 6.28662 14.9088C8.15612 14.5937 10.053 14.5047 11.9362 14.2856C17.1749 13.7583 22.4136 13.2105 27.6044 12.3408ZM19.332 14.3952C15.2643 14.9978 11.1145 15.1758 7.06729 15.7648C7.25836 17.8375 7.58087 19.8961 8.03286 21.9279C8.65603 24.6261 8.60809 27.4954 9.72431 30.0771C12.6624 29.2168 15.6715 28.6209 18.7157 28.2966C17.9693 25.8313 18.8253 23.2633 19.7566 20.9692C19.4027 20.636 18.9759 20.3898 18.5103 20.2502C17.9967 19.2572 17.7365 17.9013 18.4144 16.9358C19.3602 16.1816 20.5329 15.769 21.7425 15.7648C23.0231 15.9497 23.4545 17.4288 23.5162 18.5039C23.4974 18.9238 23.393 19.3355 23.2093 19.7135C23.0255 20.0915 22.7664 20.428 22.4479 20.7022C24.2694 22.2498 25.0159 24.6329 25.5843 26.8653C28.1796 26.0641 30.8641 25.619 33.4457 24.8109C33.2198 22.0375 32.4802 19.3326 32.3364 16.5591C32.316 15.23 32.0849 13.9125 31.6516 12.6558C31.2955 12.4572 30.8709 12.6147 30.5011 12.6558C26.7895 13.3132 23.0847 14.0322 19.332 14.3952ZM20.64 16.9768C19.9552 17.2713 18.8116 17.3535 18.7157 18.2848C18.6198 19.2161 19.4005 19.9968 20.1812 20.3392C20.9619 20.6816 21.8247 20.2296 22.3109 19.6202C22.8793 18.9011 22.578 17.8671 22.1123 17.1754C21.7494 16.7303 21.1194 16.8536 20.64 16.9974V16.9768ZM20.3935 21.2568C19.8845 22.4808 19.5347 23.765 19.3526 25.078C19.1814 26.1395 19.4827 27.2283 19.1471 28.2692C21.0372 27.961 22.9135 27.5844 24.7625 27.1187C24.0298 25.0301 23.7627 22.6127 21.9343 21.0582C21.4207 21.1473 20.9071 21.2431 20.3935 21.2774V21.2568Z" fill="#BED3EA"/>
<path d="M9.04639 20.716C9.49835 19.4354 10.0188 17.9768 11.3062 17.292C10.5461 18.4425 9.81336 19.5861 9.04639 20.716Z" fill="#BED3EA"/>
<path d="M9.7998 22.0716C10.2385 20.6596 10.9979 19.3682 12.0186 18.2983C11.8871 19.0377 11.5555 19.7269 11.0598 20.2911C10.649 20.8937 10.2929 21.51 9.7998 22.0716Z" fill="#BED3EA"/>
<path d="M10.2927 24.208C10.7584 22.763 11.3747 21.1058 12.7854 20.3525C12.1211 21.7358 11.0871 22.8931 10.2927 24.208Z" fill="#BED3EA"/>
<path d="M57.7151 26.2627C58.3999 26.0983 59.3107 25.9134 59.7695 26.6188C60.0297 27.3721 60.0913 28.187 60.3858 28.9334C61.0706 30.8782 61.0227 32.9874 61.4198 35.0007C61.7759 37.3153 62.2279 39.8833 61.098 42.0542C60.5981 43.1224 59.2833 42.9375 58.3109 43.0334C54.7225 43.2936 51.0931 43.2868 47.5527 44.0264C45.7321 44.3517 43.9377 44.8094 42.1838 45.396C41.547 45.7384 41.3484 44.8687 41.2457 44.4236C40.8964 42.4856 40.5609 40.5476 40.328 38.5891C40.1985 36.7784 39.9376 34.9795 39.5474 33.2066C39.1281 31.76 38.8506 30.2762 38.7188 28.7759C39.068 28.3308 39.7391 28.3787 40.2459 28.276C42.4783 28.0911 44.6765 28.0911 46.8679 27.7624C50.4836 27.2557 54.1199 26.9749 57.7151 26.2627ZM46.635 28.68C44.3067 29.0224 41.951 29.0156 39.6227 29.3237C39.6843 30.5379 39.8912 31.7403 40.239 32.9052C40.8211 34.8775 40.8348 36.9593 41.1429 38.9863C41.3621 40.8421 41.7593 42.6773 42.0263 44.5331C43.7246 43.9853 45.4503 43.6018 47.2103 43.2183C47.3269 41.1558 47.9224 39.1488 48.9496 37.3564C48.3435 36.9191 47.876 36.3166 47.6028 35.6208C47.3296 34.9251 47.2623 34.1655 47.4088 33.4325C47.7318 32.3522 48.438 31.4269 49.3948 30.8303C50.2576 30.2825 51.3054 30.7276 52.2367 30.8303C52.7688 30.9373 53.2436 31.2352 53.5715 31.6678C53.8994 32.1003 54.0579 32.6379 54.0172 33.1792C54.0138 33.8907 53.8643 34.5939 53.5781 35.2453C53.2918 35.8967 52.8749 36.4824 52.3531 36.9661C53.0379 37.7879 54.024 38.4932 54.3322 39.5889C54.5581 40.4791 55.017 41.3899 54.7499 42.3281C56.414 42.1089 58.0986 42.1295 59.7558 41.924C60.4406 41.883 60.6186 41.0886 60.7761 40.5544C61.1665 38.4384 60.8241 36.2813 60.4611 34.1858C60.1735 32.556 60.153 30.8508 59.5366 29.2895C59.2907 28.5774 59.0827 27.8528 58.9135 27.1187C58.4478 26.8448 57.852 27.0434 57.3453 27.1187C53.8049 27.7556 50.2097 28.1733 46.635 28.68ZM49.6413 31.5151C48.6757 32.2958 47.8129 33.6174 48.2717 34.8912C48.5593 35.7198 49.2784 36.61 50.2508 36.521C50.6848 36.4599 51.102 36.3116 51.4771 36.085C51.8523 35.8583 52.1776 35.5581 52.4336 35.2023C52.6896 34.8465 52.8708 34.4426 52.9664 34.0148C53.0621 33.5871 53.0701 33.1444 52.99 32.7135C52.716 31.9945 51.908 31.6931 51.2369 31.4672C50.6959 31.385 50.0864 31.1316 49.6413 31.5151ZM49.3742 37.6304C48.6599 39.3323 48.2943 41.1603 48.2991 43.006C50.2057 42.6476 52.1344 42.4188 54.0719 42.3212C53.7227 41.3831 53.5447 40.3969 53.2228 39.4519C52.8188 38.6712 52.2504 37.9864 51.8053 37.2332C51.0411 37.5674 50.2046 37.7017 49.3742 37.6235V37.6304Z" fill="#BED3EA"/>
<path d="M31.1998 29.4942C32.1821 29.2536 33.1833 29.0978 34.1923 29.0285C34.3788 29.0005 34.5691 29.0386 34.7305 29.1361C34.8918 29.2337 35.0139 29.3845 35.0757 29.5626C35.299 30.269 35.4841 30.9867 35.6304 31.7129C36.1577 34.1645 37 36.5407 37.3013 39.0403C37.4862 40.8413 38.1779 42.5738 38.1368 44.4022C38.1847 44.861 37.8766 45.4363 37.3493 45.3609C34.795 45.4911 32.2749 45.9225 29.7412 46.1964C26.0432 46.5799 22.2837 47.025 18.5104 47.3469C16.8806 47.4838 15.2713 47.9221 13.6278 47.7783C13.0458 47.7783 12.7444 47.1551 12.6006 46.6758C12.2651 45.4431 12.4431 44.142 12.1966 42.9025C11.8953 41.2932 11.2036 39.8004 10.8749 38.198C10.5051 36.3832 9.56012 34.6028 9.92307 32.7196C11.2584 32.6579 12.5869 32.4936 13.9291 32.4182C15.5644 32.2479 17.1896 31.9919 18.7981 31.6513C22.9548 30.9596 27.1184 30.446 31.1998 29.4942ZM29.5631 30.9117C25.064 31.6718 20.5032 32.0485 15.9972 32.7606C14.2236 33.0483 12.4157 33.0551 10.6558 33.4454C10.9262 35.0066 11.2898 36.5501 11.7446 38.0678C12.1898 40.0401 13.1142 41.8959 13.2375 43.9434C13.3402 44.9295 13.1279 45.9978 13.621 46.9017C14.4572 47.0694 15.3185 47.0694 16.1547 46.9017C17.8393 46.6347 19.5787 46.532 21.2496 46.3881C21.1691 43.9395 21.6371 41.5039 22.6192 39.2594C21.8454 38.5335 20.8799 37.7734 20.7634 36.6435C21.1401 35.9587 21.8523 35.5752 22.2905 34.952C22.4391 34.735 22.6295 34.5499 22.8507 34.4076C23.0718 34.2652 23.3192 34.1686 23.5783 34.1233C23.8373 34.078 24.1028 34.0849 24.3591 34.1438C24.6155 34.2026 24.8574 34.3121 25.0708 34.4658C25.8036 35.1506 26.5226 36.0682 26.3651 37.1228C26.2017 37.7487 25.9024 38.3309 25.4885 38.828C26.3016 40.1389 27.0357 41.4972 27.6868 42.8957C28.1271 43.7508 28.4079 44.679 28.5154 45.6349C31.5216 45.3062 34.4594 44.6761 37.4588 44.5255C37.3287 42.8203 36.774 41.1837 36.5412 39.4854C36.1372 36.3079 35.0757 33.2606 34.3362 30.1447C32.7291 30.2878 31.1341 30.5441 29.5631 30.9117V30.9117ZM21.4551 37.1091C22.0851 37.746 22.722 38.5609 23.667 38.6705C24.701 38.4239 25.9816 37.1502 25.1872 36.0819C24.9571 35.65 24.5845 35.3112 24.1326 35.1232C23.0518 35.4839 22.1139 36.1795 21.4551 37.1091V37.1091ZM23.1876 39.5744C22.4269 41.7319 22.0446 44.0046 22.0577 46.2923C23.8108 46.1074 25.5707 45.9019 27.3307 45.7307C27.2697 44.7684 27.0378 43.8246 26.6459 42.9436C26.1919 41.7018 25.6707 40.4856 25.0845 39.3005C24.4637 39.4586 23.8278 39.5504 23.1876 39.5744V39.5744Z" fill="#BED3EA"/>
</svg>
