<svg width="33" height="35" viewBox="0 0 33 35" fill="none" xmlns="http://www.w3.org/2000/svg">
<path d="M8.53013 28.3124C8.61713 26.8737 8.6939 25.5602 8.77693 24.2465C8.84516 23.1688 9.23879 22.726 10.3321 22.5756C10.9594 22.4894 11.6 22.497 12.2289 22.4192C12.4501 22.3919 12.7702 22.2905 12.8488 22.1306C13.4519 20.9016 14.0104 19.6513 14.5709 18.4025C14.611 18.2469 14.6288 18.0865 14.624 17.9261C13.2091 17.5095 11.8156 16.9977 10.8615 15.9005C9.8957 14.7889 8.71802 14.3387 7.31826 14.0411C5.49856 13.6486 3.80156 12.8343 2.36974 11.6666C1.38667 10.8726 0.643347 9.83104 0.219811 8.65405C-0.655056 6.33125 1.14047 2.58702 4.55828 2.7093C5.3927 2.7392 6.2291 2.71364 7.06902 2.71364C7.23691 2.12543 7.35901 1.62032 7.52904 1.13197C7.69464 0.657959 7.98342 0.340621 8.57516 0.318647C10.8052 0.236432 13.0328 0.066014 15.2632 0.0255044C18.1088 -0.0260669 20.9562 0.016251 23.8029 0.0178953C25.7813 0.0192406 26.0369 0.212222 26.5328 2.11064C27.124 2.11064 27.7246 2.11064 28.3251 2.11064C28.783 2.11064 29.2409 2.09134 29.6968 2.11212C31.7401 2.20495 33.1693 3.72742 32.9838 5.72151C32.6003 9.84377 29.4061 13.1209 25.766 13.6475C24.8333 13.782 24.3466 14.1142 23.8615 14.8558C22.7504 16.5528 21.1408 17.6445 19.0003 18.101C19.0954 18.4039 19.1694 18.6792 19.268 18.9459C19.7421 20.2299 20.568 21.3032 21.4408 22.3414C21.5597 22.4829 21.8268 22.5506 22.0327 22.5672C22.4874 22.6046 22.9468 22.5822 23.4041 22.5947C24.5615 22.6263 24.8776 22.9087 24.9785 24.0552C25.0722 25.121 25.1337 26.1895 25.2124 27.2565C25.225 27.4263 25.2538 27.5951 25.281 27.8109C25.6508 27.8287 26.0023 27.8307 26.3504 27.865C27.3036 27.9592 27.8294 28.4278 27.9393 29.3652C28.1072 30.7953 28.2704 32.2284 28.3531 33.6648C28.4141 34.7204 28.0194 35.0209 26.9321 34.9989C22.2069 34.9034 17.4816 34.7923 12.7558 34.7394C10.8261 34.7179 8.89431 34.844 6.96401 34.8766C5.57814 34.9001 5.17246 34.3754 5.35286 33.0153C5.47695 32.0801 5.52182 31.1318 5.55907 30.189C5.61508 28.7689 5.80327 28.5843 7.36008 28.3205C7.7009 28.2631 8.06095 28.3124 8.53013 28.3124ZM8.97505 1.55769C8.9358 1.60626 8.90326 1.65969 8.87828 1.71659C8.8511 1.83788 8.83113 1.96063 8.81845 2.08418C8.50067 5.11192 8.84181 8.17123 9.81939 11.0604C10.6894 13.6345 12.4655 15.4365 15.2695 16.0921C19.0614 16.9789 21.716 15.6386 23.1773 12.0906C23.9114 10.3081 24.4556 8.47946 24.5944 6.551C24.7126 4.90894 24.5909 3.28048 24.3594 1.5583L8.97505 1.55769ZM26.5478 29.7331L6.93303 29.9424C7.04704 31.11 7.15373 32.2029 7.24866 33.1746L26.2123 32.96C26.3208 31.9175 26.4303 30.8645 26.5478 29.7331ZM10.4339 24.0751C10.5966 25.5505 10.7391 26.8405 10.8812 28.1332L22.6522 27.8999C22.7875 26.6971 22.9117 25.5986 23.0454 24.4042L10.4339 24.0751ZM7.01499 4.14239C6.07159 4.27124 5.22328 4.3992 4.37161 4.50025C3.51155 4.60235 2.94545 5.07053 2.53626 5.79028C1.90269 6.90437 2.01732 8.18976 2.88578 9.2747C3.82536 10.4481 5.09752 11.1565 6.48216 11.6935C7.00919 11.8978 7.55636 12.0522 8.21007 12.2675C7.25004 9.56604 7.06398 6.91991 7.01499 4.14239ZM25.5058 11.4314C27.7613 10.7653 29.2437 9.48427 30.1335 7.59213C30.4557 6.86678 30.6659 6.09849 30.7571 5.31253C30.8612 4.53269 30.4751 4.04193 29.7513 3.9923C28.727 3.92115 27.6936 3.97422 26.6037 3.97422C26.7412 6.50647 26.3684 9.04045 25.5058 11.4314ZM14.7618 22.3955H18.917C18.3793 21.0202 17.8518 19.67 17.3014 18.262L16.2386 18.2067C15.7472 19.602 15.273 20.9458 14.7618 22.3955Z" fill="#E6EABE"/>
</svg>
