<svg width="68" height="58" viewBox="0 0 68 58" fill="none" xmlns="http://www.w3.org/2000/svg">
<path d="M43.5817 57.8359C40.7988 57.8359 38.0158 57.8225 35.2331 57.8402C32.9958 57.8544 30.7595 57.9184 28.5225 57.9338C27.8931 57.9338 27.2646 57.887 26.6423 57.7945C25.3017 57.6041 24.7683 56.8193 25.2147 55.5532C25.52 54.7052 25.919 53.8929 26.4043 53.1313C28.4607 49.8692 31.4528 47.7509 35.0387 46.3862C36.9854 45.6299 39.0545 45.2276 41.1461 45.1984C44.2732 45.1715 47.1519 45.9559 49.6103 47.9946C51.2885 49.3673 52.6601 51.0694 53.6382 52.9928C53.9104 53.5304 54.2172 54.0554 54.4353 54.614C54.6447 55.1298 54.791 55.6684 54.8713 56.2183C54.9788 57.0423 54.5143 57.5885 53.682 57.6921C53.1013 57.7701 52.5163 57.8134 51.9302 57.822C49.1474 57.8345 46.3644 57.8279 43.5817 57.8279V57.8359ZM52.7242 55.825C52.735 55.7373 52.7341 55.6487 52.7215 55.5613C51.8351 53.2864 50.6103 51.2302 48.718 49.6196C47.2582 48.3771 45.6207 47.483 43.6755 47.2405C41.434 46.9612 39.213 47.0197 37.0221 47.6298C32.8773 48.7839 29.5703 51.0558 27.3057 54.7184C27.048 55.1349 26.8435 55.5835 26.6065 56.0307C26.6786 56.0696 26.7537 56.1027 26.8312 56.1295C27.6066 56.2979 28.3799 56.1988 29.1619 56.1556C30.7871 56.0656 32.4168 56.0269 34.0448 56.0186C39.371 55.9915 44.6973 55.9935 50.0235 55.9684C50.9101 55.9638 51.7952 55.8764 52.7246 55.825H52.7242Z" fill="#BECDEA"/>
<path d="M40.5444 31.0883C42.6885 31.0367 44.4798 32.0481 45.8399 33.8862C46.1605 34.3196 46.5473 34.722 46.7815 35.1973C47.3047 36.2597 47.7381 37.3511 47.46 38.5911C47.1989 39.7555 46.8585 40.8767 46.0998 41.8312C44.7507 43.5265 43.0307 44.5747 40.8324 44.8353C38.8537 45.07 36.9722 44.7803 35.2156 43.8601C33.4063 42.9125 32.3769 41.3791 32.0032 39.4088C31.4407 36.4428 33.0107 33.7828 35.488 32.3685C36.9871 31.5124 38.6059 31.0809 40.5444 31.0883ZM45.2424 37.1142C45.3407 36.3665 45.0379 35.7693 44.5687 35.2252C44.3856 35.0128 44.2201 34.785 44.0296 34.5797C43.3398 33.8365 42.5534 33.2485 41.5072 33.0929C40.0405 32.8531 38.5348 33.0481 37.1803 33.6535C35.4874 34.423 34.2245 35.596 33.9335 37.5466C33.5941 39.822 34.7822 41.8583 36.8953 42.5305C38.1615 42.9216 39.4986 43.0366 40.8141 42.8673C42.6125 42.6639 44.7294 40.8369 45.0153 38.9617C45.1087 38.3484 45.1677 37.7298 45.2424 37.1136V37.1142Z" fill="#BECDEA"/>
<path d="M18.5817 44.8359C15.7988 44.8359 13.0158 44.8225 10.2331 44.8402C7.99579 44.8544 5.75951 44.9184 3.52247 44.9338C2.89311 44.9338 2.26461 44.887 1.64226 44.7945C0.30167 44.6041 -0.231718 43.8193 0.214723 42.5532C0.520007 41.7052 0.918959 40.8929 1.40432 40.1313C3.46072 36.8692 6.45281 34.7509 10.0387 33.3862C11.9854 32.6299 14.0545 32.2276 16.1461 32.1984C19.2732 32.1715 22.1519 32.9559 24.6103 34.9946C26.2885 36.3673 27.6601 38.0694 28.6382 39.9928C28.9104 40.5304 29.2172 41.0554 29.4353 41.614C29.6447 42.1298 29.791 42.6684 29.8713 43.2183C29.9788 44.0423 29.5143 44.5885 28.682 44.6921C28.1013 44.7701 27.5163 44.8134 26.9302 44.822C24.1474 44.8345 21.3644 44.8279 18.5817 44.8279V44.8359ZM27.7242 42.825C27.735 42.7373 27.7341 42.6487 27.7215 42.5613C26.8351 40.2864 25.6103 38.2302 23.718 36.6196C22.2582 35.3771 20.6207 34.483 18.6755 34.2405C16.434 33.9612 14.213 34.0197 12.0221 34.6298C7.87732 35.7839 4.57031 38.0558 2.30569 41.7184C2.04802 42.1349 1.84349 42.5835 1.60654 43.0307C1.67855 43.0696 1.75369 43.1027 1.83117 43.1295C2.60659 43.2979 3.37986 43.1988 4.16189 43.1556C5.7871 43.0656 7.41678 43.0269 9.04479 43.0186C14.371 42.9915 19.6973 42.9935 25.0235 42.9684C25.9101 42.9638 26.7952 42.8764 27.7246 42.825H27.7242Z" fill="#BECDEA"/>
<path d="M15.5444 18.0883C17.6885 18.0367 19.4798 19.0481 20.8399 20.8862C21.1605 21.3196 21.5473 21.722 21.7815 22.1973C22.3047 23.2597 22.7381 24.3511 22.46 25.5911C22.1989 26.7555 21.8585 27.8767 21.0998 28.8312C19.7507 30.5265 18.0307 31.5747 15.8324 31.8353C13.8537 32.07 11.9722 31.7803 10.2156 30.8601C8.40631 29.9125 7.37691 28.3791 7.00318 26.4088C6.44068 23.4428 8.01073 20.7828 10.488 19.3685C11.9871 18.5124 13.6059 18.0809 15.5444 18.0883ZM20.2424 24.1142C20.3407 23.3665 20.0379 22.7693 19.5687 22.2252C19.3856 22.0128 19.2201 21.785 19.0296 21.5797C18.3398 20.8365 17.5534 20.2485 16.5072 20.0929C15.0405 19.8531 13.5348 20.0481 12.1803 20.6535C10.4874 21.423 9.22446 22.596 8.93349 24.5466C8.59408 26.822 9.78223 28.8583 11.8953 29.5305C13.1615 29.9216 14.4986 30.0366 15.8141 29.8673C17.6125 29.6639 19.7294 27.8369 20.0153 25.9617C20.1087 25.3484 20.1677 24.7298 20.2424 24.1136V24.1142Z" fill="#BECDEA"/>
<path d="M56.5817 26.8359C53.7988 26.8359 51.0158 26.8225 48.2331 26.8402C45.9958 26.8544 43.7595 26.9184 41.5225 26.9338C40.8931 26.9338 40.2646 26.887 39.6423 26.7945C38.3017 26.6041 37.7683 25.8193 38.2147 24.5532C38.52 23.7052 38.919 22.8929 39.4043 22.1313C41.4607 18.8692 44.4528 16.7509 48.0387 15.3862C49.9854 14.6299 52.0545 14.2276 54.1461 14.1984C57.2732 14.1715 60.1519 14.9559 62.6103 16.9946C64.2885 18.3673 65.6601 20.0694 66.6382 21.9928C66.9104 22.5304 67.2172 23.0554 67.4353 23.614C67.6447 24.1298 67.791 24.6684 67.8713 25.2183C67.9788 26.0423 67.5143 26.5885 66.682 26.6921C66.1013 26.7701 65.5163 26.8134 64.9302 26.822C62.1474 26.8345 59.3644 26.8279 56.5817 26.8279V26.8359ZM65.7242 24.825C65.735 24.7373 65.7341 24.6487 65.7215 24.5613C64.8351 22.2864 63.6103 20.2302 61.718 18.6196C60.2582 17.3771 58.6207 16.483 56.6755 16.2405C54.434 15.9612 52.213 16.0197 50.0221 16.6298C45.8773 17.7839 42.5703 20.0558 40.3057 23.7184C40.048 24.1349 39.8435 24.5835 39.6065 25.0307C39.6786 25.0696 39.7537 25.1027 39.8312 25.1295C40.6066 25.2979 41.3799 25.1988 42.1619 25.1556C43.7871 25.0656 45.4168 25.0269 47.0448 25.0186C52.371 24.9915 57.6973 24.9935 63.0235 24.9684C63.9101 24.9638 64.7952 24.8764 65.7246 24.825H65.7242Z" fill="#BECDEA"/>
<path d="M53.5444 0.0883087C55.6885 0.0366948 57.4798 1.0481 58.8399 2.88623C59.1605 3.31961 59.5473 3.72198 59.7815 4.1973C60.3047 5.25972 60.7381 6.35114 60.46 7.59113C60.1989 8.75552 59.8585 9.87674 59.0998 10.8312C57.7507 12.5265 56.0307 13.5747 53.8324 13.8353C51.8537 14.07 49.9722 13.7803 48.2156 12.8601C46.4063 11.9125 45.3769 10.3791 45.0032 8.40881C44.4407 5.44283 46.0107 2.78277 48.488 1.36847C49.9871 0.512378 51.6059 0.0808994 53.5444 0.0883087ZM58.2424 6.11419C58.3407 5.36648 58.0379 4.76934 57.5687 4.22519C57.3856 4.01283 57.2201 3.78502 57.0296 3.57969C56.3398 2.8365 55.5534 2.24854 54.5072 2.09295C53.0405 1.85306 51.5348 2.04813 50.1803 2.65353C48.4874 3.42297 47.2245 4.59602 46.9335 6.54655C46.5941 8.82196 47.7822 10.8583 49.8953 11.5305C51.1615 11.9216 52.4986 12.0366 53.8141 11.8673C55.6125 11.6639 57.7294 9.83691 58.0153 7.96173C58.1087 7.34839 58.1677 6.7298 58.2424 6.11357V6.11419Z" fill="#BECDEA"/>
</svg>
