<svg width="30" height="55" viewBox="0 0 30 55" fill="none" xmlns="http://www.w3.org/2000/svg">
<path d="M29.8648 39.6189C29.5857 30.7968 29.2539 21.791 28.8509 12.0869C28.7464 9.57244 28.5368 7.0219 28.3343 4.55547C28.2852 3.95948 28.2368 3.36346 28.1889 2.76731C28.0427 0.941499 27.0468 0.0418844 25.1434 0.020245C25.067 0.0179909 24.9893 0.0215574 24.9125 0.0242623L22.8911 0.060143C21.1525 0.0901976 19.414 0.122351 17.6755 0.156613C17.1959 0.156382 16.7173 0.201141 16.2462 0.290285C15.1098 0.532826 14.7583 0.929532 14.678 2.05906C14.6358 2.79608 14.6324 3.53472 14.6676 4.27211C14.8678 10.2128 15.0726 16.1535 15.2878 22.3951L15.471 27.712C15.4878 28.7433 15.5089 29.8284 15.5307 30.9516C15.5844 33.7258 15.6399 36.5943 15.6528 39.5258C15.6628 41.774 15.6369 44.0612 15.6116 46.273C15.5928 47.9525 15.5732 49.6893 15.5694 51.3979C15.5637 53.8256 16.5069 54.7914 18.933 54.8426C19.198 54.8482 19.4628 54.8509 19.7273 54.8507C21.1962 54.8507 22.6592 54.7716 24.0789 54.6945C25.6875 54.6075 26.9832 54.488 28.157 54.3185C29.4214 54.1362 29.9195 53.517 29.8773 52.1805L29.8752 52.1086C29.8298 50.6996 29.7843 49.2423 29.7902 47.8114C29.7943 46.8034 29.8182 45.7768 29.8409 44.7841C29.8793 43.0909 29.9195 41.3401 29.8648 39.6189ZM18.633 47.6581C18.7846 47.6344 18.9319 47.613 19.076 47.5905C19.5244 47.5229 19.9478 47.4609 20.3642 47.3601C21.5573 47.072 21.808 46.3697 21.8083 45.8314C21.8083 45.2751 21.5548 44.5653 20.3444 44.3437C19.9598 44.2729 19.5691 44.1879 19.1557 44.0978C19.0166 44.0676 18.8735 44.0362 18.725 44.0044V41.0967C18.7985 41.089 18.8714 41.0818 18.9442 41.0741C19.269 41.0484 19.5921 41.0038 19.9117 40.9402L20.1226 40.8951C20.5749 40.8295 21.011 40.6819 21.4094 40.4594C21.6205 40.328 21.7898 40.14 21.8976 39.9171C22.0054 39.6942 22.0472 39.4455 22.0182 39.2001C21.9807 38.9197 21.865 38.655 21.6841 38.4361C21.5032 38.2173 21.2644 38.053 20.9944 37.9614C20.449 37.7782 19.8891 37.6404 19.3205 37.5496C19.1185 37.5111 18.913 37.4723 18.7048 37.4288V34.6355L19.0764 34.5652C19.4987 34.4849 19.9344 34.4022 20.3708 34.3247C20.6815 34.2692 21.6274 34.1011 21.6803 33.13C21.736 32.1017 20.7498 31.8666 20.3787 31.7775C19.9301 31.6705 19.4744 31.6008 18.9923 31.5269C18.8366 31.5032 18.6778 31.4786 18.5151 31.4525V28.6171L18.585 28.6096C18.8482 28.5862 19.1098 28.5481 19.3685 28.4949C19.4528 28.4764 19.5403 28.46 19.6285 28.4433C20.0029 28.4079 20.3613 28.2751 20.6676 28.0585C20.9871 27.7806 21.4055 27.1555 21.2892 26.6959C21.1992 26.4358 21.0521 26.1986 20.8584 26.0016C20.6648 25.8049 20.4294 25.6529 20.1694 25.5574C19.7 25.4332 19.2148 25.3773 18.7291 25.3917C18.5796 25.3885 18.4269 25.3851 18.2714 25.3784V22.2495C18.3651 22.2382 18.4608 22.2269 18.5578 22.2161C18.9651 22.1692 19.3865 22.1208 19.8121 22.0477C20.7521 21.8863 21.281 21.3663 21.2262 20.657C21.158 19.7659 20.4782 19.5353 19.823 19.4271C19.7016 19.4071 19.5808 19.3841 19.4594 19.3613C19.2728 19.3261 19.0862 19.2907 18.8983 19.2653C18.686 19.236 18.473 19.2179 18.2264 19.1976L18.0537 19.1826V16.0604L18.3444 15.9804C18.7269 15.8751 19.141 15.7617 19.5528 15.6407C20.0023 15.5088 21.0551 15.2002 20.9489 14.0957C20.8501 13.0604 19.9035 12.9326 19.276 12.8481C18.9041 12.798 18.5294 12.7773 18.1325 12.7557C18.0121 12.7487 17.8887 12.7419 17.7619 12.7331L17.5371 9.63104C17.6876 9.6085 17.8351 9.58707 17.9801 9.56588C18.4496 9.49825 18.8933 9.43266 19.3367 9.34994C20.6858 9.09793 20.8221 8.30699 20.783 7.85797C20.6908 6.78795 19.7162 6.62403 19.2998 6.55393C19.0821 6.51764 18.8617 6.49131 18.6485 6.46606C18.5167 6.45029 18.3846 6.43451 18.2532 6.41647C18.05 6.38852 17.8471 6.35762 17.6017 6.32065L17.3844 6.28774L17.2346 3.58167L25.5102 3.30559C25.5809 4.76805 25.6523 6.22929 25.7243 7.68936C26.4207 21.8706 27.1407 36.5323 26.6884 51.0217L18.6337 51.3343L18.633 47.6581Z" fill="#EABEC3"/>
<path d="M0.690312 40.4301C0.748721 42.3141 0.908003 44.1936 1.16755 46.0606C1.43028 48.0334 2.64777 49.5114 4.688 50.3355C5.41107 50.6362 6.18625 50.7945 6.97027 50.8015C8.24679 50.8069 9.47618 50.3234 10.4021 49.4519C11.9378 48.0339 12.8032 46.2473 12.8389 44.4221C12.86 43.3332 12.798 42.2289 12.738 41.1614C12.7051 40.5733 12.6698 39.9653 12.6512 39.3684C12.5403 36.0098 12.435 32.6488 12.3062 28.5425L12.1307 22.9606L12.0962 20.9817C12.0489 18.3233 11.9841 14.6824 11.9371 11.0292C11.9404 10.2126 11.6787 9.41653 11.1905 8.75887C10.6735 8.0441 10.179 7.29193 9.70077 6.56453C9.44691 6.1784 9.19302 5.7925 8.93461 5.40953L8.50891 4.77836C7.84368 3.79039 7.15552 2.76863 6.45779 1.77683C5.89757 0.981132 5.31938 0.824486 4.9337 0.837109C4.54802 0.849732 3.98691 1.03004 3.47918 1.84287C3.20157 2.32171 2.97216 2.82652 2.79436 3.34996L2.71529 3.5614C2.01188 5.43883 1.28346 7.38027 0.61141 9.30527C0.369608 9.93321 0.233351 10.5962 0.208024 11.2679C0.189615 13.5847 0.206631 16.0394 0.263676 19.2269L0.298689 21.1776C0.410508 27.4873 0.527358 34.0127 0.690312 40.4301ZM4.04302 8.41965L4.51438 7.016C4.73802 6.99932 4.95804 6.9698 5.17191 6.94094C5.69054 6.87062 6.18054 6.8057 6.49532 6.96687C6.846 7.14719 7.10186 7.56806 7.39868 8.05562C7.47141 8.17554 7.5455 8.29726 7.62345 8.41965H4.04302ZM7.72484 47.499C7.36507 47.5592 6.99654 47.5434 6.64329 47.4528C6.29004 47.3622 5.96004 47.1987 5.67484 46.9731C4.79143 46.2554 4.43941 45.2954 4.19895 43.9977L9.99845 43.5094C10.0396 44.6025 9.7417 45.6819 9.14484 46.6018C8.9875 46.8442 8.77913 47.0497 8.53404 47.2046C8.28898 47.3594 8.01298 47.46 7.72507 47.499H7.72484ZM4.23163 40.2717L3.47961 12.1218H8.34645L9.25827 40.2717H4.23163Z" fill="#EABEC3"/>
</svg>
