<svg width="37" height="36" viewBox="0 0 37 36" fill="none" xmlns="http://www.w3.org/2000/svg">
<path d="M35.8405 5.99273C34.539 3.54865 32.0705 1.88667 29.4615 1.10456C26.7302 0.322451 23.8828 -0.27024 21.0355 0.126924C19.3002 0.432435 17.516 0.359113 15.8051 0.811269C13.7363 1.25098 11.8228 2.2362 10.2632 3.66474C8.77003 5.34806 7.82203 7.44431 7.54411 9.67719C7.382 11.0587 7.61062 12.458 8.20401 13.716C7.05473 13.7566 5.93353 14.082 4.94116 14.6631C3.44415 15.5308 2.44208 17.0339 1.59887 18.5126C0.609014 20.3151 -0.234195 22.3803 0.0590949 24.4884C0.225548 25.6238 0.633457 26.7103 1.25533 27.6747C1.8772 28.6391 2.69858 29.4591 3.66412 30.0792C4.97171 30.9591 6.5848 31.1057 8.11847 31.1607C8.259 32.7799 7.76408 34.8818 9.2733 36C10.1898 35.334 10.4526 34.1669 11.1919 33.3604C11.5524 32.9693 11.9496 32.4194 12.5545 32.5294C14.5062 32.8172 16.4843 32.8828 18.4508 32.7249C19.5818 32.6005 20.6653 32.2015 21.6067 31.5625C22.5482 30.9235 23.3191 30.064 23.8523 29.0588C24.981 27.0114 25.4101 24.6513 25.0743 22.3376H26.0703C26.4541 23.5983 26.9745 24.8133 27.6223 25.9609C27.7934 26.2053 28.16 26.6086 28.4716 26.3214C28.8657 25.7018 29.1008 24.9945 29.1559 24.2623C29.3065 23.0736 29.5248 21.8944 29.8097 20.7306C30.4531 20.5032 31.0816 20.2358 31.6917 19.9301C34.0563 18.6409 35.4861 16.154 36.256 13.6488C36.9784 11.1222 36.8321 8.4263 35.8405 5.99273ZM23.2168 28.185C22.7657 29.1182 22.0985 29.9304 21.2707 30.5541C20.4429 31.1779 19.4783 31.5953 18.457 31.7717C16.4892 31.9532 14.5065 31.8896 12.5545 31.5823C10.9414 31.3746 10.2021 33.0671 9.3955 34.1303C9.27941 32.8288 9.3955 31.4968 9.19998 30.2014C8.54618 29.7737 7.64187 30.012 6.89643 29.9081C3.16919 29.8592 0.175189 25.8693 1.0184 22.2765C1.51847 20.3128 2.41924 18.4738 3.66412 16.875C4.21378 16.1106 4.9197 15.4717 5.73506 15.0008C6.55042 14.5299 7.45657 14.2378 8.39343 14.1438C9.13801 15.7862 10.173 17.2807 11.4485 18.5553C12.9028 19.9057 14.803 20.6023 16.6422 21.2561C18.7597 21.9693 20.9827 22.3184 23.2168 22.2887C23.5415 22.2642 23.868 22.2952 24.1822 22.3803C24.3716 24.3478 24.2433 26.4375 23.2168 28.185ZM35.5472 12.7506C34.9362 15.6347 33.1031 18.5676 30.1825 19.4719C29.7059 19.6796 28.9604 19.6918 28.8749 20.3334C28.5467 21.7206 28.2897 23.1237 28.105 24.5372C27.5795 23.5718 27.2984 22.5086 26.8829 21.5127C26.6263 20.9872 25.9297 21.0666 25.447 21.0055C22.6852 21.0055 19.8684 20.9505 17.2227 20.0585C15.579 19.4963 13.8621 18.9647 12.4873 17.8588C11.2175 16.7446 10.2008 15.3717 9.50549 13.8321C8.78095 12.5647 8.49931 11.092 8.70505 9.64664C8.93279 8.00358 9.56242 6.4421 10.5381 5.10064C11.7706 3.61531 13.3939 2.5042 15.2246 1.89278C17.3686 1.09101 19.6686 0.794114 21.9459 1.02513C24.3289 1.02513 26.6324 1.6667 28.9176 2.27772C31.3251 3.02317 33.7019 4.39797 35.0279 6.6343C35.7853 8.58077 35.9656 10.7043 35.5472 12.7506Z" fill="#EABEC3"/>
<path d="M24.1944 22.3801C23.8762 22.2936 23.5455 22.2625 23.2167 22.2885C20.9867 22.3168 18.7679 21.9677 16.6544 21.2558C14.8213 20.6021 12.9149 19.9055 11.4607 18.5551C10.1851 17.2804 9.15014 15.786 8.40557 14.1436C7.46658 14.2359 6.55804 14.5273 5.74046 14.9982C4.92289 15.4692 4.21503 16.1089 3.66404 16.8748C2.41481 18.4726 1.50984 20.3116 1.0061 22.2763C0.193437 25.8691 3.16911 29.859 6.89634 29.9385C7.64179 30.0423 8.5461 29.804 9.19989 30.2318C9.38931 31.5271 9.27933 32.8591 9.39542 34.1606C10.202 33.0974 10.9413 31.4049 12.5544 31.6127C14.5065 31.9199 16.4891 31.9835 18.4569 31.8021C19.4813 31.6225 20.4478 31.2005 21.2759 30.5712C22.1039 29.9419 22.7694 29.1237 23.2167 28.1848C24.2432 26.4373 24.3716 24.3476 24.1944 22.3801ZM9.52985 25.1053C9.10824 25.643 8.4239 25.1481 8.17949 24.702C7.95016 24.4306 7.83372 24.0816 7.85419 23.7269C7.87465 23.3722 8.03046 23.0388 8.28947 22.7956C8.59587 22.6521 8.94079 22.6126 9.2717 22.6832C9.60262 22.7538 9.90139 22.9306 10.1225 23.1867C10.1462 23.8766 9.93272 24.5537 9.51763 25.1053H9.52985ZM13.4404 26.8345C13.0889 26.6719 12.7789 26.4318 12.5334 26.1324C12.2879 25.8329 12.1133 25.4818 12.0228 25.1053C12.1623 24.844 12.3652 24.622 12.6129 24.4597C12.8606 24.2974 13.1452 24.2 13.4404 24.1765C13.7398 24.256 14.0514 24.3659 14.3203 24.4759C14.3367 24.9077 14.2675 25.3385 14.1165 25.7433C13.9654 26.1481 13.7356 26.519 13.4404 26.8345ZM17.3876 27.0606C16.9082 26.7674 16.5142 26.3535 16.245 25.8602C15.9758 25.367 15.841 24.8116 15.8539 24.2499C16.4344 23.5777 17.8886 23.4433 18.3591 24.311C18.3931 24.8118 18.3238 25.3142 18.1557 25.7872C17.9875 26.2602 17.724 26.6936 17.3815 27.0606H17.3876Z" fill="#EABEC3"/>
<path d="M16.8805 9.00536C17.1677 8.46155 17.8643 8.49821 18.3837 8.35156L19.068 8.6754C19.5385 9.80579 19.0008 11.0462 18.2492 11.9077C17.8887 12.1582 17.4427 11.8161 17.1433 11.6144C16.8386 11.2583 16.6501 10.8174 16.6031 10.3511C16.5562 9.88469 16.653 9.41512 16.8805 9.00536Z" fill="#EABEC3"/>
<path d="M21.451 10.0685C21.7993 9.42082 22.5997 9.45748 23.223 9.26807C23.5224 9.50025 24.0112 9.65301 24.0478 10.0991C24.1106 10.87 23.8937 11.6379 23.4368 12.2621C23.3782 12.3608 23.2982 12.4451 23.2027 12.5089C23.1072 12.5727 22.9986 12.6143 22.885 12.6307C22.7713 12.6471 22.6555 12.6379 22.5458 12.6037C22.4362 12.5695 22.3356 12.5112 22.2514 12.4332C21.6221 11.8649 20.9377 10.8995 21.451 10.0685Z" fill="#EABEC3"/>
<path d="M26.8829 10.0802C27.3268 9.92113 27.7824 9.79652 28.2455 9.70752C29.162 9.95193 29.1926 10.9968 28.9604 11.7544C28.7771 12.3105 28.5754 12.9765 27.9827 13.227C27.2067 13.3553 26.6629 12.5243 26.553 11.8644C26.5117 11.2514 26.6252 10.6379 26.8829 10.0802Z" fill="#EABEC3"/>
</svg>
