<svg width="47" height="34" viewBox="0 0 47 34" fill="none" xmlns="http://www.w3.org/2000/svg">
<path d="M42.9754 0.250333C43.9604 0.0403333 44.9689 -0.0380857 45.9745 0.0171276L46.2294 0.163559C46.5331 1.35128 46.3975 2.59323 46.4301 3.80264C46.5277 5.67371 46.3704 7.53935 46.4301 9.41041C46.4301 9.95275 46.4301 10.7554 45.8226 11.0049C45.123 10.9507 44.5753 10.4626 44.0058 10.0775C43.2845 9.63277 42.5307 9.24229 41.7985 8.81384C41.0447 9.59481 40.6216 10.609 39.922 11.4333C38.8373 12.7838 37.7527 14.145 36.7114 15.5334C35.4206 17.258 33.9238 18.8146 32.6438 20.5446C32.1015 21.2822 31.5049 21.9764 30.9409 22.714C28.4299 21.7106 25.6965 21.0219 23.6031 19.2159C21.7537 21.8191 19.6549 24.2488 18.0333 27.0093C17.7946 27.5516 17.1438 27.2316 16.7425 27.0852C14.8606 26.2229 12.8973 25.3172 11.4601 23.7715C9.83313 26.1686 8.12476 28.5278 6.5791 30.9792C5.92287 31.9879 5.3968 33.0726 4.65922 34C4.2561 33.8488 3.87492 33.6445 3.52574 33.3926C2.51699 32.655 1.44316 32.0096 0.494073 31.2232C0.234724 31.025 0.0625853 30.7337 0.0140111 30.4109C-0.0345631 30.088 0.0442305 29.759 0.233751 29.4932C2.82216 24.9879 5.81751 20.7291 9.18232 16.7699C9.56196 16.3795 9.91448 15.8317 10.5056 15.7883C10.8481 15.8411 11.1712 15.9811 11.4439 16.1951C13.1034 17.3665 14.9691 18.1909 16.7317 19.1942C18.4617 17.2743 19.9423 15.1429 21.6561 13.2285C21.8155 12.997 22.0221 12.802 22.2624 12.6562C22.5026 12.5104 22.771 12.4171 23.0499 12.3824C23.5901 12.5433 24.0984 12.7965 24.5522 13.1308C26.1792 14.1667 27.9092 15.067 29.5796 16.0541C31.0711 13.9227 32.7089 11.8943 34.2654 9.81174C35.3098 8.44036 36.4478 7.14288 37.6713 5.92861C37.1845 5.45432 36.7416 4.937 36.348 4.38295C35.62 3.49339 35.0178 2.50795 34.5583 1.45432C35.2131 1.25608 35.8999 1.1861 36.5812 1.24823C37.682 1.18299 38.7728 1.00119 39.8352 0.705896C40.8874 0.532348 41.9395 0.440151 42.9754 0.250333ZM41.5816 1.33501C39.7213 1.49229 37.9316 2.15936 36.0497 2.15936C36.7234 3.15382 37.4475 4.1132 38.2191 5.03375C38.4414 5.28865 38.7614 5.61947 38.5445 5.97742C38.0347 6.89939 37.1832 7.60443 36.5161 8.3854C34.4281 11.2327 32.1178 13.9335 30.1111 16.8567C29.7857 17.2852 29.1783 17.0031 28.8041 16.7862C27.0957 15.7395 25.4036 14.6711 23.7441 13.5322C23.4729 13.3857 23.2017 13.1363 22.8709 13.1851C22.5048 13.4282 22.1852 13.7349 21.9273 14.0908C20.4901 15.8805 19.1071 17.7028 17.7024 19.5142C17.4907 19.8685 17.1872 20.1589 16.8239 20.3548C16.4994 20.3195 16.1856 20.2179 15.9019 20.0565C14.0579 19.0206 12.2303 17.9631 10.4785 16.7591C8.88983 18.5285 7.39109 20.3765 5.98795 22.2964C4.03011 24.8887 2.36514 27.7035 0.412722 30.3175C1.69806 31.2937 3.04848 32.1669 4.38806 33.0726C6.29708 29.8837 8.39593 26.8032 10.5653 23.7769C10.831 23.4353 11.1564 23.0122 11.65 23.0502C13.2119 24.8291 15.4734 25.7022 17.5831 26.6296C19.0654 24.1391 20.6953 21.7395 22.4642 19.4437C22.8004 19.0586 23.0065 18.359 23.5488 18.359C24.2864 18.6518 24.8179 19.2918 25.5175 19.6606C27.1445 20.5555 28.9668 20.9839 30.6535 21.754C31.6514 20.5338 32.5137 19.2105 33.5279 18.0065C35.9521 15.1321 38.0726 12.0408 40.4698 9.11755C40.8874 8.65114 41.1477 7.72917 41.9341 7.89187C43.1809 8.30272 44.353 8.91259 45.405 9.69785C45.5189 6.76923 45.5081 3.83518 45.4539 0.901138C44.1739 0.868598 42.8886 1.21027 41.5816 1.33501Z" fill="#E6BEEA"/>
</svg>
