<svg width="45" height="34" viewBox="0 0 45 34" fill="none" xmlns="http://www.w3.org/2000/svg">
<path d="M44.1809 22.3695C44.1505 20.7985 43.9963 19.2323 43.7196 17.6856C43.3948 15.6521 43.07 13.6122 42.5567 11.6113C42.2319 10.312 42.2644 8.94773 41.7771 7.71339C41.4783 6.94031 40.5688 6.73242 39.8282 6.59599C38.2334 6.39565 36.6138 6.60816 35.1247 7.21316C33.1758 7.68741 31.1099 7.46003 29.2778 8.36305C28.5047 8.71386 28.2319 9.55841 28.037 10.312C27.3094 10.312 26.4324 10.312 26.088 11.1046C24.5419 10.9682 22.9112 11.5074 21.4365 10.9097C19.9748 9.9417 18.4351 8.79182 17.844 7.06374C17.2528 5.33567 16.9279 3.51014 16.1289 1.86652C15.907 1.41154 15.5876 1.01096 15.1936 0.693225C14.7995 0.375489 14.3403 0.148378 13.8486 0.0280085C13.3582 -0.0496747 12.8559 0.0352775 12.4184 0.269891C11.9808 0.504505 11.6321 0.875885 11.4254 1.32731C9.9182 4.1533 9.93119 7.44704 10.0156 10.5654C10.0156 11.306 10.0546 12.5143 9.08015 12.6313C7.85231 12.6767 6.62446 12.3974 5.39662 12.6313C3.59059 12.9041 1.37527 13.073 0.316339 14.7946C-0.333313 16.0549 0.459262 17.3932 1.12191 18.4846C0.750134 18.7826 0.454814 19.165 0.260474 19.6C0.0661337 20.035 -0.0216183 20.5101 0.00450589 20.9858C0.264367 22.6164 1.52469 23.8443 2.90845 24.6173C2.66839 25.2022 2.66839 25.858 2.90845 26.4429C3.47229 27.643 4.46047 28.5918 5.68247 29.1064C5.79532 30 6.18584 30.8355 6.79893 31.4952C7.41203 32.1549 8.21677 32.6055 9.09964 32.7835C15.3428 34.1607 21.8003 32.9459 27.8356 31.1528C28.8815 30.88 29.6611 30.0939 30.5836 29.5872C30.9734 30.3538 31.4996 31.2698 32.4806 31.2893C35.9476 31.4239 39.4173 31.1095 42.8036 30.3538C43.1028 30.2603 43.3665 30.0778 43.5592 29.8305C43.7519 29.5832 43.8645 29.283 43.882 28.97C44.2783 26.8002 44.1809 24.5719 44.1809 22.3695ZM35.3911 23.7078C35.8876 23.2315 36.4914 22.8817 37.1516 22.6879C37.9312 22.3955 38.7173 22.9088 39.3539 23.3375C39.9906 23.7663 39.7048 24.7408 39.6073 25.4164C39.4514 26.3454 38.5679 27.3654 37.5349 27.0016C36.5716 26.7821 35.7256 26.2095 35.1637 25.3969C35.0548 24.8241 35.1346 24.2315 35.3911 23.7078ZM22.2421 31.2698C18.4476 32.1421 14.53 32.3465 10.6653 31.874C9.43746 31.7115 8.06669 31.4842 7.24163 30.4512C6.80767 29.8116 6.59752 29.0464 6.64395 28.2749C5.46808 27.6837 4.1233 27.034 3.70752 25.6763C3.9414 25.1631 4.35718 24.6173 4.20126 24.0197C3.15532 23.1491 1.64163 22.6359 1.23235 21.1872C0.751606 19.9658 2.66158 19.693 2.53165 18.5041C2.01193 17.5946 0.978984 16.8215 1.14789 15.6521C1.6741 14.9559 2.44936 14.4902 3.31124 14.3528C4.67964 14.0663 6.08283 13.9831 7.47551 14.106C8.49546 14.1969 9.7233 14.4048 10.5614 13.6447C11.5034 12.4494 11.3669 10.8317 11.211 9.41548C10.9317 6.88184 11.0486 4.10782 12.4518 1.93799C13.1015 0.84657 14.6607 1.47024 15.1739 2.39274C16.4732 4.84193 16.3757 7.97975 18.4221 10.0391C19.4291 10.9811 20.4231 12.0985 21.8003 12.4559C23.2944 12.5545 24.7948 12.4407 26.257 12.118C26.6857 15.7041 26.8676 19.3227 27.5563 22.8763C27.8941 25.1046 28.4333 27.3134 28.6347 29.5547C26.5568 30.3083 24.4181 30.8821 22.2421 31.2698ZM29.7131 29.2234C29.2389 26.4494 28.7191 23.6948 28.1994 20.9468C27.6797 17.8155 27.3419 14.6582 26.9716 11.5074C26.9326 10.9617 27.7382 11.0331 28.0955 10.8577C28.4008 14.2554 28.8945 17.6271 29.2713 21.0183C29.6611 23.7728 29.7911 26.5858 30.5187 29.2818L29.7131 29.2234Z" fill="#D9BEEA"/>
<path d="M21.6509 26.9429C22.1706 27.3067 22.2096 27.9758 22.3655 28.541L21.9887 28.4241C21.7789 27.9577 21.664 27.4541 21.6509 26.9429Z" fill="#D9BEEA"/>
<path d="M17.8311 27.1382C18.5153 27.8754 19.0768 28.7177 19.4942 29.6328C18.6904 28.9977 18.1082 28.1244 17.8311 27.1382Z" fill="#D9BEEA"/>
<path d="M19.3447 26.7739C20.2412 27.2157 20.3582 28.2421 20.4816 29.1127C20.0573 28.356 19.6776 27.5751 19.3447 26.7739Z" fill="#D9BEEA"/>
<path d="M16.0835 27.606C17.019 28.0217 17.3828 29.0547 17.8635 29.8992C17.0729 29.3107 16.4575 28.5179 16.0835 27.606Z" fill="#D9BEEA"/>
</svg>
