<svg width="30" height="26" viewBox="0 0 30 26" fill="none" xmlns="http://www.w3.org/2000/svg">
<path d="M29.2983 3.80377C28.4226 2.81306 27.4191 1.74565 26.0385 1.57946C25.1053 1.41328 24.2616 0.940293 23.3284 0.774109C22.3952 0.607925 21.3151 0.774109 20.3179 0.6271C16.0975 -0.175478 11.7666 -0.207959 7.53455 0.531224C5.30385 0.889159 2.97088 1.68812 1.54554 3.54171C0.00513798 5.35056 -0.116304 7.90724 0.0626632 10.1955C0.241631 12.4837 0.311939 14.7847 1.50719 16.7406C2.52347 18.249 3.6548 19.8214 5.3422 20.6267C6.84392 21.2928 8.46177 21.6576 10.104 21.7005C11.638 21.7325 13.204 22.0585 14.7252 21.7005C15.032 22.8127 15.2941 24.0399 16.1378 24.8964C16.8153 25.3502 17.7037 25.9446 18.5347 25.5355C19.6613 24.5689 20.4718 23.2864 20.8612 21.8539C21.9389 21.7451 23.0071 21.5571 24.0571 21.2914C26.1088 20.6203 28.0135 19.1311 28.6911 17.009C29.6179 14.1711 29.5028 11.135 29.8735 8.20126C29.9758 6.71199 30.2826 5.00541 29.2983 3.80377ZM26.8503 11.3651C26.7672 13.3785 26.6585 15.6092 25.2843 17.2135C23.9548 18.575 21.9414 18.9073 20.1262 18.9904C19.6149 19.0671 18.9629 18.9904 18.5986 19.3867C17.9594 20.9783 17.7804 22.7424 16.8728 24.2188C15.3836 22.9405 15.6968 20.6587 14.6549 19.1055C14.1052 18.4663 13.1465 18.4663 12.3603 18.428C9.71412 18.575 6.97209 18.5814 4.43458 17.7185C2.51707 17.0793 1.58389 15.0851 1.28348 13.2443C0.951109 11.1542 0.561215 9.013 0.899975 6.89735C1.23234 4.57717 3.19459 2.80667 5.37416 2.09719C8.81289 1.05534 12.4626 0.959468 16.0355 0.997818C16.8089 1.02978 17.659 0.921118 18.3621 1.34297C20.5522 1.41301 22.7159 1.84273 24.7666 2.61492C25.0583 2.70427 25.3254 2.85978 25.5471 3.06932C25.7689 3.27886 25.9392 3.53677 26.0449 3.82295C27.0228 6.21344 26.895 8.84043 26.8503 11.3651Z" fill="#BFEABE"/>
<path d="M7.88617 8.39274C8.49338 8.25213 9.24121 8.04759 9.70141 8.62285C9.78832 9.16748 9.75982 9.7243 9.61778 10.2572C9.47575 10.7901 9.22333 11.2873 8.87689 11.7164C8.59988 11.9755 8.23346 12.1175 7.85421 12.1127C7.21504 11.857 7.11917 11.1348 7.0169 10.5531C6.83793 9.71583 7.52824 9.07666 7.88617 8.39274Z" fill="#BFEABE"/>
<path d="M12.7886 8.27806C13.0769 8.13049 13.4006 8.06608 13.7235 8.09204C14.0463 8.11801 14.3556 8.23332 14.6166 8.42506C14.7521 8.98498 14.7472 9.56972 14.6022 10.1273C14.4573 10.6848 14.1768 11.1979 13.7857 11.6209C12.8845 12.3751 11.8682 11.1288 11.9385 10.2403C12.1494 9.55639 12.5329 8.95557 12.7886 8.27806Z" fill="#BFEABE"/>
<path d="M18.6561 8.27787C18.8254 8.17379 19.0176 8.11265 19.216 8.09974C19.4144 8.08684 19.6129 8.12257 19.7943 8.20383C19.9757 8.28509 20.1345 8.40942 20.257 8.56601C20.3794 8.72261 20.4618 8.90674 20.4969 9.1024C20.458 9.87607 20.2155 10.6258 19.7938 11.2756C19.7091 11.4066 19.5974 11.5181 19.4661 11.6024C19.3348 11.6866 19.187 11.7418 19.0326 11.7642C18.8782 11.7866 18.7208 11.7757 18.5709 11.7322C18.4211 11.6887 18.2823 11.6137 18.1639 11.5121C17.595 11.0007 17.0901 10.1442 17.4608 9.37724C17.659 8.81477 18.2023 8.53354 18.6561 8.27787Z" fill="#BFEABE"/>
</svg>
