<svg width="32" height="27" viewBox="0 0 32 27" fill="none" xmlns="http://www.w3.org/2000/svg">
<path d="M1.21163 10.847C0.907437 10.9551 0.614184 11.0915 0.335775 11.2545C0.248291 11.2977 0.172499 11.3611 0.114774 11.4395C0.0570501 11.5179 0.0190798 11.609 0.00405314 11.705C-0.0099057 11.8806 0.0830669 12.0564 0.279545 12.2272C0.442967 12.36 0.619083 12.4766 0.805369 12.5753C0.94825 12.6566 1.09377 12.7334 1.23928 12.81C1.44761 12.9199 1.66305 13.0329 1.86374 13.1583C4.58532 14.8534 7.06196 16.3564 9.77814 17.5707C9.77235 17.6675 9.7659 17.7639 9.75931 17.86C9.74088 18.1316 9.72191 18.4122 9.72152 18.6893C9.7209 19.1076 9.71924 19.5263 9.71651 19.9452C9.70953 21.2734 9.70229 22.6469 9.7472 23.9975C9.76339 24.4844 9.93906 24.8327 10.2418 24.9779C10.5601 25.1301 10.9693 25.0415 11.3939 24.727C11.5471 24.6137 11.7041 24.4863 11.8737 24.3375C12.6177 23.6845 13.3607 23.0304 14.1108 22.3699L14.7906 21.7713C14.7957 21.7751 14.8007 21.7789 14.8053 21.783L15.4339 22.321C16.1494 22.9332 16.8893 23.5662 17.6114 24.1953C17.8171 24.3741 18.024 24.5519 18.2321 24.7287C18.8663 25.2707 19.5226 25.8312 20.1121 26.4317C20.4244 26.7495 20.7281 26.899 21.093 26.899C21.2504 26.8967 21.4067 26.8737 21.558 26.8304C22.0904 26.6862 22.434 26.3625 22.6719 25.7819C23.5688 23.5942 24.4867 21.3721 25.3743 19.2234C26.1029 17.4583 26.831 15.6931 27.5584 13.9276C29.1256 10.1376 30.4777 6.26295 31.6081 2.32198C31.745 1.86486 31.8413 1.39662 31.8958 0.922697C31.9141 0.81289 31.9073 0.700409 31.8761 0.593555C31.8447 0.486701 31.7897 0.388213 31.715 0.305372C31.6251 0.224548 31.518 0.164789 31.4017 0.130497C31.2856 0.0962055 31.1631 0.0882558 31.0434 0.107202C30.8849 0.126139 30.7285 0.16125 30.5772 0.212031L30.5568 0.218207C30.2168 0.319129 29.8759 0.417147 29.5349 0.515317C28.7428 0.743244 27.9237 0.978925 27.129 1.24761C21.3886 3.18952 15.5669 5.30363 9.82529 7.53127C8.16932 8.1735 6.4832 8.82125 4.85251 9.44736C3.63818 9.91292 2.42456 10.3795 1.21163 10.847ZM12.139 16.8336C12.4551 16.5708 12.7547 16.3224 13.0622 16.089C14.2676 15.1728 15.4743 14.2581 16.682 13.3451C19.055 11.5486 21.509 9.691 23.9091 7.84635C24.643 7.28276 25.3396 6.64918 26.0132 6.03762C26.2446 5.82791 26.4757 5.61728 26.7087 5.40954C26.8946 5.24387 27.2055 4.96666 27.0331 4.42509C27.0275 4.40739 27.0183 4.39105 27.006 4.37709C26.9938 4.36312 26.9787 4.35186 26.9619 4.34397C26.945 4.33614 26.9267 4.3318 26.908 4.33127C26.8895 4.33072 26.8709 4.33397 26.8536 4.3408C26.7816 4.36976 26.7121 4.39533 26.6451 4.41945C26.5055 4.46694 26.3696 4.52436 26.2383 4.59129C21.7841 6.99862 17.9094 10.1554 14.1626 13.2084C13.3151 13.8987 12.5164 14.6108 11.6717 15.3639C11.313 15.6839 10.9506 16.0051 10.5846 16.3278L2.22733 11.8217C2.2755 11.7921 2.32607 11.7666 2.3785 11.7454C3.7226 11.2416 5.06616 10.7361 6.40919 10.2286C9.69781 8.98874 13.0989 7.7065 16.4579 6.48678C19.4493 5.40049 22.5105 4.34814 25.4708 3.33039C26.4552 2.99207 27.4394 2.65307 28.4232 2.31344C28.8045 2.18158 29.1893 2.07843 29.5967 1.96938C29.7047 1.94055 29.8131 1.91133 29.922 1.88171C28.2818 7.05562 26.1894 12.1305 24.1649 17.041C23.101 19.6212 22.0018 22.2873 20.9739 24.952C18.1802 22.7132 15.4703 20.3465 12.8488 18.0566C12.4948 17.747 12.14 17.4373 11.7844 17.1275C11.9053 17.0272 12.0231 16.9294 12.1386 16.8336H12.139ZM13.6918 20.7803L11.295 22.8017L11.105 18.4021L13.6918 20.7803Z" fill="#E9BEEA"/>
</svg>
