<svg width="22" height="34" viewBox="0 0 22 34" fill="none" xmlns="http://www.w3.org/2000/svg">
<path d="M21.8502 4.04141C21.6235 3.20263 20.388 3.54268 20.15 2.70956C19.7533 2.06348 19.946 1.03767 19.2432 0.623945C17.3439 0.295917 15.4232 0.106503 13.4964 0.0572004C10.8005 -0.0982562 8.09556 0.0634287 5.43731 0.538933C4.30382 0.771298 3.05132 0.918652 2.03684 1.54774C1.49844 2.83992 1.56644 4.29078 1.2264 5.63963C0.971363 6.10436 0.336609 6.20638 0.092909 6.67111C-0.053777 7.30512 -0.0263621 7.96699 0.172253 8.5867C0.415953 8.75106 0.77867 8.84741 0.795672 9.21012C2.04251 14.9229 3.18733 20.6924 4.77422 26.3428C5.26162 27.9807 5.53932 29.6809 6.17975 31.2735C6.49145 32.0896 7.34724 32.4636 8.12935 32.6903C10.6967 33.5178 13.4624 33.2571 16.0638 32.7924C17.3956 32.4523 18.9825 32.3333 19.895 31.1601C20.8018 30.208 20.6771 28.7968 20.6884 27.584C20.6317 23.9852 20.7451 20.3863 20.9151 16.8158C21.0341 14.9512 21.2948 13.1037 21.4422 11.2391C21.5555 9.67485 21.8332 8.09364 21.6065 6.52375C21.8143 6.14847 21.943 5.73466 21.985 5.30777C22.0269 4.88088 21.981 4.44993 21.8502 4.04141ZM4.19614 1.77444C8.7614 0.761804 13.4695 0.562277 18.104 1.18502C16.7665 1.95013 15.1967 2.15415 13.6834 2.35252C10.3942 2.79659 7.05846 2.76987 3.77675 2.27317C3.53872 2.18249 3.05698 2.27317 3.07399 1.90479C3.45148 1.93936 3.83211 1.90283 4.19614 1.79711V1.77444ZM2.45057 2.74357C3.55951 2.99439 4.68149 3.18359 5.81136 3.31031C7.79801 3.45483 9.79253 3.45483 11.7792 3.31031C13.9838 3.08362 16.2451 2.93626 18.3251 2.12015C18.7105 2.01814 18.8918 1.64408 19.0618 1.33804C19.1139 2.28237 19.4497 3.18902 20.0253 3.9394C19.1665 4.39372 18.2572 4.74563 17.3163 4.98788C13.3944 5.70764 9.38185 5.80399 5.41464 5.90034C4.28115 5.90034 3.14766 5.75298 2.01417 5.74165C2.12185 4.74418 2.28054 3.74104 2.45057 2.74357ZM1.94616 6.09303C5.15961 6.65977 8.43539 6.42741 11.6772 6.28572C14.3295 5.99101 17.0442 5.88333 19.6116 5.02188C17.9114 6.48408 15.5877 6.59743 13.4964 7.01115C10.958 7.41895 8.39339 7.64245 5.8227 7.67991C4.12246 7.76493 2.42223 7.39654 0.750333 7.20952C1.21153 6.91062 1.61636 6.53266 1.94616 6.09303ZM19.997 29.3692C19.9312 29.8259 19.7417 30.2559 19.449 30.6125C19.1563 30.9692 18.7715 31.2389 18.3364 31.3925C17.4433 31.6843 16.5304 31.9115 15.6047 32.0726C12.9353 32.5147 10.0676 32.6733 7.5626 31.4718C6.95618 31.2395 6.76916 30.5764 6.5708 30.0096C6.09473 28.4228 5.72068 26.8075 5.22195 25.2263C7.58946 26.4307 10.2522 26.9322 12.8957 26.6715C14.3848 26.633 15.8644 26.4219 17.3049 26.0424C18.2882 25.703 19.1911 25.1648 19.9573 24.4612C19.9346 26.1104 20.1047 27.7427 19.997 29.3692ZM19.946 23.4977C18.6221 24.6135 17.0122 25.336 15.2987 25.5834C13.0317 25.8724 10.7194 26.1955 8.45239 25.7364C7.28681 25.5838 6.15591 25.2331 5.1086 24.6992C4.25848 21.7919 3.66907 18.8108 3.03431 15.841C5.48005 16.7192 8.10852 16.9629 10.674 16.5495C12.5141 16.326 14.3347 15.9641 16.1204 15.467C17.7907 14.8852 19.2984 13.9138 20.5184 12.6333C20.082 16.2434 20.0877 19.8763 19.946 23.4977ZM20.5127 12.0892C19.0902 12.7353 17.9227 13.8234 16.4718 14.4128C14.5959 15.2743 12.4989 15.45 10.47 15.841C8.00808 16.2638 5.47734 16.0031 3.15333 15.0873C2.81895 14.9966 2.79061 14.6282 2.71694 14.3505C2.38256 12.6503 1.96883 10.9897 1.58345 9.3178C4.58153 10.3039 7.77797 10.1396 10.8781 9.94689C12.7765 9.80614 14.6593 9.50277 16.5058 9.0401C18.064 8.70216 19.5384 8.05459 20.8414 7.13584C20.7848 8.77373 20.6431 10.4286 20.541 12.0892H20.5127ZM21.1078 6.27439C19.5039 6.69378 18.0984 7.64024 16.4888 8.02563C14.697 8.50594 12.8702 8.84514 11.0254 9.0401C8.00466 9.3008 4.91024 9.60684 1.9575 8.8304C1.65185 8.74752 1.36249 8.61337 1.10171 8.43368L0.53497 8.38268C0.568974 8.05963 0.602979 7.73092 0.653986 7.41354C2.95526 8.16308 5.38327 8.44443 7.79497 8.24099C10.527 8.16212 13.2433 7.79742 15.8994 7.15284C17.8774 6.75612 19.9403 5.99101 21.2438 4.37579C21.2495 5.01055 21.2098 5.63963 21.1361 6.27439H21.1078Z" fill="#BEEAC2"/>
<path d="M16.1206 15.4726C14.3349 15.9697 12.5142 16.3316 10.6741 16.5551C8.10815 16.9667 5.47967 16.721 3.03442 15.841C3.66918 18.8107 4.25859 21.7918 5.10871 24.6992C6.16129 25.2349 7.2981 25.5857 8.4695 25.7363C10.7365 26.1954 13.0488 25.8723 15.3158 25.5833C17.0293 25.3359 18.6392 24.6134 19.9631 23.4977C20.1048 19.8762 20.0991 16.2434 20.5298 12.6445C19.306 13.9246 17.7944 14.8941 16.1206 15.4726ZM15.0211 23.0443C14.1143 23.8264 12.9695 24.6368 11.6999 24.3761C9.77302 23.8887 8.74721 21.3894 9.61999 19.6495C10.3676 18.7182 11.4082 18.067 12.5727 17.8019C13.4402 17.5471 14.3714 17.6239 15.1854 18.0173C15.5696 18.2193 15.8955 18.5168 16.1316 18.881C16.3678 19.2452 16.5065 19.664 16.5343 20.0972C16.6193 21.2704 15.8372 22.2905 15.0211 23.0443Z" fill="#BEEAC2"/>
<path d="M15.1853 18.0174C14.3713 17.624 13.4401 17.5472 12.5726 17.802C11.4019 18.0636 10.3548 18.715 9.60285 19.6496C8.73007 21.3895 9.75588 23.8888 11.6828 24.3762C12.9523 24.637 14.0971 23.8095 15.0039 23.0444C15.82 22.2906 16.6021 21.2705 16.5171 20.0973C16.4911 19.6658 16.355 19.2481 16.1219 18.8841C15.8887 18.52 15.5663 18.2216 15.1853 18.0174ZM13.7458 22.9537C13.179 23.3618 12.4196 23.7868 11.6828 23.5205C11.127 23.2954 10.6569 22.8998 10.3401 22.3906C10.0234 21.8814 9.87639 21.2848 9.92023 20.6867C9.92023 20.3864 10.2036 20.2163 10.3736 20.0123C10.9927 19.4389 11.7444 19.028 12.5613 18.8165C13.2595 18.5502 14.0341 18.5665 14.7206 18.8618C15.0969 19.014 15.4012 19.3037 15.5717 19.6721C15.7422 20.0405 15.7662 20.46 15.6387 20.8454C15.2195 21.7129 14.5632 22.4438 13.7458 22.9537Z" fill="#BEEAC2"/>
</svg>
