<svg width="26" height="33" viewBox="0 0 26 33" fill="none" xmlns="http://www.w3.org/2000/svg">
<path d="M25.8657 17.5428C25.899 20.6311 25.9439 23.7204 25.9593 26.8093C25.9649 27.9373 25.8808 29.0655 25.8724 30.194C25.8603 31.7819 24.654 32.7391 23.2571 32.7683C20.4239 32.8279 17.5898 32.8985 14.7558 32.8835C11.3834 32.8656 8.01111 32.7759 4.63957 32.6868C3.85464 32.6468 3.0726 32.5604 2.29729 32.428C1.35174 32.2899 0.422246 31.1703 0.388265 30.1094C0.302526 27.4276 0.20397 24.7453 0.175309 22.0625C0.112184 16.1599 0.0998628 10.2572 0.0386721 4.35528C0.0292395 3.44847 0.0517229 2.57026 0.415722 1.73156C0.688178 1.10393 1.07903 0.595984 1.75466 0.40832C1.99413 0.344727 2.2397 0.308687 2.48688 0.300938C3.54091 0.257976 4.59749 0.260044 5.64946 0.188814C9.6011 -0.077801 13.5523 0.126607 17.5038 0.160479C17.8823 0.153261 18.2584 0.225271 18.6091 0.372202C18.9599 0.519133 19.2779 0.737954 19.5441 1.01527C20.803 2.24686 22.1522 3.38038 23.4576 4.5619C23.9392 4.99775 24.3834 5.47853 24.8785 5.89632C25.4444 6.37401 25.6161 6.9837 25.6262 7.70198C25.6691 10.7484 25.729 13.7946 25.7817 16.8408C25.7857 17.0749 25.7817 17.3091 25.7817 17.5434L25.8657 17.5428ZM17.1492 1.75369C16.7911 1.72355 16.4861 1.68037 16.1806 1.67501C13.5745 1.62951 10.9684 1.58828 8.36216 1.55133C7.18406 1.53452 6.00571 1.52767 4.82749 1.52032C4.22876 1.51659 3.62885 1.49696 3.0317 1.52834C2.17805 1.57317 1.92734 1.82817 1.774 2.71842C1.62844 3.51473 1.59853 4.32882 1.68525 5.1342C1.72586 5.47237 1.74704 5.81278 1.74873 6.15352C1.76268 13.7581 1.77422 21.3623 1.78334 28.9662C1.77585 29.1578 1.78272 29.3495 1.80388 29.5401C1.95275 30.5114 2.45013 31.1008 3.47925 31.1435C7.47079 31.3094 11.4624 31.3086 15.4555 31.2391C17.4617 31.2041 19.4683 31.1863 21.4748 31.1627C21.9706 31.1568 22.4675 31.1762 22.9622 31.1521C23.8535 31.1086 24.2696 30.6664 24.2613 29.7379C24.247 28.1206 24.2064 26.5034 24.1744 24.8863C24.1558 23.9494 24.1401 23.0123 24.1098 22.0757C24.0423 19.99 23.9344 17.905 23.9029 15.8188C23.8687 13.5399 23.9029 11.2611 23.905 8.98144C23.905 8.81706 23.8905 8.65258 23.8824 8.48223C23.8143 8.46319 23.7447 8.45025 23.6745 8.44367C22.4131 8.46957 21.1518 8.51074 19.8902 8.51846C19.4975 8.52164 19.1061 8.47558 18.7242 8.38141C17.9418 8.1854 17.7016 7.87619 17.6105 7.05891C17.5847 6.82641 17.5835 6.59119 17.5622 6.35795C17.4293 4.85551 17.2931 3.35176 17.1492 1.75369ZM22.9357 6.75585L22.9613 6.62088L18.8658 2.79442L18.7715 2.85803C18.9726 4.21751 19.1737 5.57699 19.3807 6.97694L22.9357 6.75585Z" fill="#EAE0BE"/>
<path d="M19.8347 24.3747C19.1739 23.7571 18.5523 23.173 17.9272 22.5938C17.6974 22.3805 17.4547 22.1814 17.2268 21.966C17.1201 21.8653 17.0256 21.7518 16.9454 21.6279C16.7263 21.2879 16.7376 20.9208 16.9603 20.6912C17.0827 20.5736 17.2431 20.5069 17.4104 20.504C17.5778 20.5011 17.7403 20.5623 17.8665 20.6756C18.5652 21.2386 19.2566 21.8127 19.9283 22.4093C20.3498 22.7837 20.7291 23.2084 21.1294 23.6082C21.69 24.1686 21.7304 24.6418 21.1499 25.186C20.2187 26.0585 19.2429 26.8796 18.2818 27.7183C18.0644 27.9148 17.8341 28.0955 17.5924 28.2591C17.1975 28.5164 16.7701 28.4565 16.5382 28.1413C16.3084 27.8285 16.386 27.3973 16.7582 27.0744C17.5638 26.3754 18.3806 25.6901 19.1882 24.9939C19.3906 24.8184 19.5757 24.6239 19.8347 24.3747Z" fill="#EAE0BE"/>
<path d="M6.06635 24.4318C6.99195 24.9853 7.8473 25.4958 8.70143 26.0082C8.90251 26.1155 9.09555 26.2381 9.27897 26.3749C9.5542 26.6033 9.62035 26.8798 9.51079 27.1652C9.38744 27.4867 9.13726 27.6429 8.76818 27.5933C8.60488 27.5715 8.44688 27.5189 8.30212 27.438C7.1482 26.778 5.99088 26.1245 4.85268 25.437C4.25649 25.077 4.19773 24.5404 4.64046 23.9925C4.73237 23.8788 4.84434 23.7824 4.94604 23.6769C5.96391 22.6217 6.98589 21.5708 7.99687 20.5085C8.35264 20.135 8.64639 20.0301 8.89563 20.2419C9.14838 20.4567 9.16676 20.8013 8.83904 21.2091C8.15506 22.0602 7.4325 22.8783 6.72276 23.707C6.53302 23.9281 6.33191 24.1392 6.06635 24.4318Z" fill="#EAE0BE"/>
<path d="M14.6433 19.5853C15.1848 19.4696 15.3923 19.5926 15.393 20.0865C15.3831 20.4687 15.3379 20.849 15.2582 21.2222C14.9663 22.7924 14.4434 24.2904 13.8854 25.7762C13.6698 26.3504 13.4688 26.9328 13.2093 27.4857C13.07 27.763 12.8741 28.0061 12.635 28.1981C12.4323 28.3656 12.1533 28.3225 11.9457 28.1448C11.8448 28.0675 11.771 27.9584 11.7355 27.8341C11.7 27.7099 11.7047 27.5771 11.7488 27.4558C11.8485 27.1774 11.9657 26.9058 12.0995 26.643C13.0714 24.6919 13.9032 22.6856 14.3864 20.5411C14.4469 20.2724 14.503 20.0024 14.5648 19.7339C14.5858 19.6816 14.6121 19.6318 14.6433 19.5853Z" fill="#EAE0BE"/>
</svg>
