<svg width="49" height="39" viewBox="0 0 49 39" fill="none" xmlns="http://www.w3.org/2000/svg">
<path d="M0.591649 35.5817C0.629081 36.2443 0.755435 36.8989 0.967511 37.5288C1.3057 38.577 1.70977 38.7553 2.75282 38.7596L3.73721 38.7637C6.80387 38.7761 9.97557 38.7879 13.0935 38.7843C13.4001 38.7781 13.7062 38.7551 14.0102 38.7152C14.3292 38.6707 14.6509 38.6487 14.973 38.6494C15.4776 38.6616 15.9931 38.701 16.4915 38.7392C17.0998 38.7859 17.7272 38.834 18.35 38.834C18.3899 38.834 18.4298 38.834 18.4695 38.834C26.2581 38.7535 32.5572 38.6656 38.2934 38.5568C40.2974 38.5185 41.7533 37.7066 42.7446 36.0743C44.9187 32.4932 46.6069 28.4503 48.2178 22.9646C48.4588 22.0749 48.6438 21.1716 48.7725 20.2594C48.8384 19.8519 48.9066 19.4308 48.9839 19.0202C48.9859 19.0091 48.987 18.9976 48.987 18.9861V17.6778C48.987 17.6568 48.9835 17.6359 48.9763 17.6161C48.8879 17.3673 48.8099 17.1048 48.7341 16.8506C48.5858 16.2626 48.3626 15.6955 48.0697 15.1629C47.1267 13.6167 45.5376 12.7243 43.4743 12.582C41.5294 12.4478 39.5472 12.4123 37.6312 12.3775C37.1455 12.3687 36.6599 12.3595 36.1745 12.3498C35.1986 12.3292 34.2057 12.3345 33.2458 12.3394C32.876 12.3413 32.5062 12.3428 32.1364 12.3439C32.7586 10.7584 33.1458 8.99428 33.3899 6.63806C33.5333 5.25156 33.6269 3.43206 33.0707 1.6561C32.6774 0.400443 32.0584 -0.018548 30.7065 0.0507043C29.796 0.0763453 28.9279 0.43574 28.272 1.05856C28.1204 1.20435 27.9679 1.34925 27.8146 1.49334C27.0093 2.21955 26.2597 3.00341 25.5719 3.83848C24.708 4.94379 23.9011 6.11792 23.1206 7.25366C22.7792 7.75046 22.4379 8.24731 22.091 8.73991C20.4638 11.0493 18.5347 12.731 16.191 13.8791C16.0085 13.9769 15.8082 14.038 15.6016 14.0589C15.395 14.0797 15.1863 14.0598 14.9875 14.0005C13.2732 13.5671 11.8211 13.462 10.4176 13.669C9.33576 13.8288 8.22318 13.9276 7.1474 14.0227C6.73229 14.0592 6.31755 14.0965 5.90317 14.1368C5.46199 14.1794 5.02015 14.2176 4.57841 14.2557C3.86634 14.3169 3.13001 14.3803 2.40666 14.4636C1.08552 14.6157 0.554078 15.1067 0.300387 16.4096L0.276914 16.527C0.227279 16.7413 0.196973 16.9596 0.186447 17.1792C0.177571 17.6607 0.165068 18.142 0.152679 18.6234C0.119766 19.8971 0.085487 21.214 0.120989 22.5103C0.248203 27.1324 0.430411 31.7118 0.591649 35.5817ZM13.5123 15.6352C13.4718 19.0517 13.717 22.4801 13.9546 25.7969C14.1913 29.104 14.4353 32.5217 14.3917 35.895H3.57064L3.56839 35.8736C3.55341 35.7379 3.53791 35.5975 3.53144 35.4601C3.4205 32.9045 3.30952 30.349 3.19858 27.7937C3.09366 25.3737 2.98893 22.9539 2.88427 20.5341C2.87429 20.3044 2.86506 20.0746 2.85655 19.8446C2.82715 19.0893 2.79702 18.308 2.72583 17.5411C2.6759 17.0035 2.84026 16.7896 3.35449 16.7236C3.97381 16.644 4.59256 16.5622 5.21077 16.4781C6.38714 16.3201 7.60343 16.157 8.80181 16.0214C9.9166 15.8955 11.0556 15.8028 12.1573 15.7131C12.5459 15.6816 12.9347 15.6495 13.3233 15.6168C13.387 15.6154 13.4505 15.6216 13.5127 15.6352H13.5123ZM31.1993 6.37875C31.0826 8.01511 30.6571 9.75192 29.86 11.8443C29.6039 12.5169 29.4016 13.2625 29.6544 14.1576C29.6649 14.1952 29.6873 14.2286 29.718 14.2531C29.7489 14.2776 29.7866 14.2921 29.8262 14.2945C29.9741 14.3032 30.1244 14.3138 30.2755 14.3244C30.6063 14.3475 30.9482 14.3715 31.2899 14.379C32.2634 14.3972 33.2369 14.4101 34.2114 14.4223C36.3617 14.4494 38.585 14.4769 40.767 14.5757C41.9419 14.6396 43.1006 14.8755 44.2052 15.2757C45.5583 15.7577 46.211 16.7762 46.145 18.3023C46.043 20.6545 45.4511 23.1032 44.2823 26.0079C43.5088 27.9302 42.635 29.9646 41.4484 32.6051C41.1748 33.1755 40.8623 33.7268 40.5128 34.2555C40.4057 34.4259 40.2987 34.5963 40.194 34.7676C39.6696 35.6276 38.8509 36.1142 37.7607 36.2137C36.2825 36.3488 34.5618 36.4938 32.8555 36.5075C29.0662 36.5377 25.213 36.533 21.4862 36.5279C20.3119 36.5264 19.1375 36.5253 17.9629 36.5246C17.7551 36.5246 17.5416 36.5064 17.3528 36.4891L17.2747 36.4822L15.629 15.7484C15.9055 15.6272 16.1791 15.5115 16.4495 15.3967C17.1264 15.1098 17.7656 14.839 18.391 14.5129C20.8993 13.2034 23.0067 11.1293 25.0236 7.98539C26.1131 6.28743 27.4716 4.33178 29.2844 2.70034C29.6289 2.37759 30.0312 2.12075 30.4709 1.94281C30.789 1.82399 30.9229 1.84178 30.9791 1.87768C31.0554 1.92615 31.1041 2.07816 31.1198 2.31727C31.2381 3.66781 31.2647 5.0247 31.1993 6.37875Z" fill="#BEC2EA"/>
<path d="M8.85237 16.3496C8.84224 16.3496 8.83209 16.3503 8.82205 16.3517C6.57563 16.6797 5.20736 17.922 5.16095 19.6763C5.11565 21.4076 6.55752 22.8098 8.44356 22.8688C8.48054 22.8701 8.51621 22.8706 8.55227 22.8706C9.43318 22.8717 10.2814 22.5415 10.9239 21.9476C11.2188 21.6784 11.4562 21.3538 11.6221 20.993C11.788 20.6322 11.8791 20.2422 11.8901 19.8461C11.8803 18.8863 11.4915 17.9681 10.8063 17.286C10.2234 16.6912 9.52931 16.3585 8.85237 16.3496ZM8.97833 20.0568C8.72427 20.3444 8.36457 20.3737 7.90933 20.1443C7.51789 19.9469 7.3857 19.663 7.51606 19.2998C7.59431 19.1119 7.69248 18.9326 7.80895 18.7651C7.85222 18.6966 7.89844 18.6233 7.94744 18.5435C8.03305 18.5965 8.11595 18.6457 8.19564 18.6931C8.42755 18.8168 8.6433 18.9679 8.8383 19.143C9.02616 19.3311 9.29415 19.7005 8.97833 20.0568Z" fill="#BEC2EA"/>
</svg>
