<svg width="43" height="39" viewBox="0 0 43 39" fill="none" xmlns="http://www.w3.org/2000/svg">
<path d="M41.3403 2.44604C40.7257 2.47774 40.1095 2.43067 39.5069 2.30598C36.7991 1.88157 34.0446 1.88157 31.3411 1.41047C27.2439 0.737392 23.1068 0.334743 18.9567 0.20513C17.5816 0.20513 16.2023 -0.130158 14.8229 0.0565847C14.3476 0.0862937 14.2797 0.6253 14.2924 1.00303C14.3306 2.57761 13.9911 4.13096 13.9571 5.70554C13.9232 7.28012 13.8043 8.9226 13.6855 10.5269C13.5284 12.7296 13.0701 14.8517 12.756 17.0162C12.5226 18.612 12.4717 20.229 12.2594 21.829C10.8843 22.4657 9.6111 23.289 8.28268 24.0148C5.78288 25.462 3.43587 27.1597 0.991242 28.7131C0.532874 29.0186 -0.0697942 29.4133 0.00660039 30.05C0.163634 30.6399 0.206075 31.2595 0.422527 31.8283C0.511654 32.0702 0.787523 32.0999 0.99973 32.1805C1.60383 32.3458 2.19883 32.5427 2.78227 32.7705C4.1482 33.2202 5.53997 33.5873 6.95002 33.8697C10.6934 34.7694 14.5088 35.3679 18.2267 36.4162C21.3844 37.1377 24.5929 37.5324 27.7591 38.2878C28.4339 37.3456 29.3846 36.7302 30.2419 36.0172C32.5218 34.285 34.6683 32.3839 36.6633 30.3301C37.4019 29.5423 38.0353 28.6621 38.5477 27.7114C38.6317 27.2783 38.6181 26.8318 38.508 26.4046C38.3978 25.9773 38.1939 25.58 37.9111 25.2413C38.2039 24.9782 38.5137 24.732 38.7599 24.4434C39.0913 23.9697 39.3158 23.4295 39.4177 22.8604C40.4066 19.3165 40.9584 15.7005 41.5907 12.0675C41.8114 10.8325 41.8029 9.56771 42.0491 8.33691C42.3547 6.75809 42.8597 5.21322 42.9955 3.60469C42.5079 3.13415 41.9494 2.74316 41.3403 2.44604V2.44604ZM13.2908 16.5493C13.6006 14.6649 14.0505 12.806 14.2542 10.9089C14.4324 9.17301 14.5937 7.43715 14.7041 5.69705C14.7974 4.08003 15.1285 2.48848 15.1285 0.867216C16.3083 0.774787 17.4938 0.781885 18.6724 0.888437C22.1011 0.940559 25.5231 1.20989 28.9177 1.69482C30.9422 2.01314 32.9581 2.37813 35.0038 2.54365C36.9561 2.6922 38.8999 2.96807 40.8395 3.20574C40.8395 4.86096 40.4448 6.48222 40.1435 8.09924C39.5663 11.1423 38.9848 14.1811 38.2676 17.1944C37.8856 19.0873 37.4187 20.976 37.2744 22.9028C37.1641 23.5649 36.9858 24.2143 36.8797 24.8763C35.1821 25.4408 33.3995 25.0588 31.6764 24.8763C28.3575 24.5283 25.0598 23.9766 21.7706 23.4248C18.7997 22.8731 15.8288 22.211 12.8579 21.7017C13.0446 19.9913 13.155 18.2725 13.2908 16.5493ZM16.5503 35.2618C13.2865 34.4808 9.97185 33.9461 6.70386 33.1821C5.33555 32.9217 3.99015 32.5527 2.68041 32.0787C2.12018 31.8283 1.48356 31.6797 0.893627 31.4505C0.766362 31.1641 0.67375 30.8634 0.617757 30.555C2.07774 30.954 3.58866 31.0219 5.06987 31.4038C7.39141 31.998 9.78087 32.2527 12.1024 32.8511C14.7338 33.5259 17.4246 33.9503 20.0475 34.6464C21.9658 35.1642 23.9266 35.4697 25.8407 35.9918C26.35 36.1276 26.8635 36.2464 27.3813 36.3483C27.39 36.7124 27.424 37.0754 27.4832 37.4348C23.8502 36.6623 20.1408 36.2761 16.5503 35.2618ZM26.7362 35.5291C24.3807 34.8925 21.9616 34.553 19.6061 33.9206C17.849 33.458 16.058 33.1694 14.2881 32.7747C12.6244 32.4097 10.9735 31.9768 9.29279 31.6924C7.82856 31.4463 6.36433 31.1662 4.92132 30.7969C3.56319 30.4447 2.13716 30.4022 0.817232 29.9014C3.0157 28.4584 5.21841 27.0182 7.42537 25.5809C9.14849 24.5156 10.9013 23.497 12.6117 22.4147C15.7014 22.9155 18.7742 23.5861 21.8555 24.1591C25.8874 24.8594 29.9193 25.462 33.9513 26.0053C35.0763 26.1538 36.2202 26.0568 37.3041 25.7209C36.6718 27.0578 35.5598 28.0849 34.5327 29.1162C32.3809 31.2383 29.9788 33.1524 27.9585 35.4273C27.6784 35.8517 27.1606 35.5971 26.7362 35.5291ZM37.5673 27.7581C36.9289 28.8049 36.1634 29.7685 35.2882 30.6272C34.2314 31.6882 33.1661 32.7492 32.0414 33.7211C30.7682 34.8883 29.3761 35.9536 28.2217 37.2438C28.0948 36.946 27.9384 36.6616 27.7548 36.395C28.4933 35.996 28.9517 35.266 29.5543 34.6973C31.4557 32.8723 33.4887 31.1831 35.3264 29.286C36.1895 28.4365 36.9736 27.5103 37.6691 26.5188C37.6904 26.9305 37.8092 27.3846 37.5673 27.7581ZM41.2979 9.65684C41.2447 10.5671 41.1427 11.4738 40.9923 12.3731C40.4034 16.0821 39.6114 19.756 38.6198 23.3782C38.5222 23.8577 38.0639 24.1124 37.7413 24.4392C38.0851 22.7925 38.2803 21.1203 38.5901 19.4651C38.9466 17.3769 39.4687 15.3185 39.8634 13.2389C40.1661 11.6516 40.4703 10.0671 40.7759 8.48546C41.1196 6.70292 41.5313 4.91613 41.5568 3.0869L42.4056 3.77446C42.1637 5.75647 41.4719 7.66209 41.2979 9.65684V9.65684Z" fill="#EABEBE"/>
<path d="M27.4831 37.4349C23.8501 36.6625 20.1407 36.2763 16.5502 35.2619C13.2864 34.481 9.97177 33.9462 6.70378 33.1823C5.33547 32.9219 3.99006 32.5529 2.68033 32.0788C2.1201 31.8284 1.48348 31.6799 0.893545 31.4507C0.76628 31.1642 0.673669 30.8636 0.617676 30.5552C2.07766 30.9541 3.58858 31.022 5.06978 31.404C7.39133 31.9982 9.78079 32.2528 12.1023 32.8513C14.7337 33.5261 17.4245 33.9505 20.0474 34.6465C21.9657 35.1643 23.9265 35.4699 25.8406 35.9919C26.3499 36.1277 26.8635 36.2466 27.3813 36.3484C27.3899 36.7125 27.424 37.0756 27.4831 37.4349V37.4349Z" fill="#EABEBE"/>
<path d="M37.5673 27.7583C36.929 28.8051 36.1634 29.7687 35.2882 30.6274C34.2314 31.6884 33.1662 32.7494 32.0415 33.7214C30.7682 34.8885 29.3761 35.9538 28.2217 37.244C28.0949 36.9462 27.9385 36.6618 27.7549 36.3952C28.4934 35.9962 28.9517 35.2662 29.5544 34.6975C31.4558 32.8725 33.4887 31.1834 35.3264 29.2862C36.1895 28.4367 36.9737 27.5105 37.6692 26.519C37.6904 26.9307 37.8093 27.3848 37.5673 27.7583Z" fill="#EABEBE"/>
<path d="M42.414 3.77022C42.1636 5.75648 41.4718 7.6621 41.2978 9.65685C41.2446 10.5671 41.1426 11.4738 40.9922 12.3731C40.4033 16.0821 39.6113 19.756 38.6197 23.3782C38.5221 23.8578 38.0638 24.1124 37.7412 24.4392C38.085 22.7925 38.2802 21.1203 38.59 19.4651C38.9465 17.377 39.4686 15.3185 39.8633 13.2389C40.166 11.6516 40.4702 10.0671 40.7758 8.48547C41.1196 6.70293 41.5312 4.91614 41.5567 3.08691L42.414 3.77022Z" fill="#EABEBE"/>
<path d="M38.0385 4.6659C36.3026 4.6659 34.6177 4.24148 32.8988 4.05474C31.5279 3.89346 30.1741 3.63032 28.799 3.52846C27.0716 3.42236 25.3739 3.06585 23.6508 2.92155C21.2698 2.70934 18.8931 2.49714 16.5122 2.25098C16.1259 4.1948 15.9137 6.17257 15.6039 8.13336C15.3493 9.61881 15.3493 11.1297 15.1795 12.6237C14.9418 14.6948 14.823 16.7787 14.6108 18.8498C14.5514 19.253 14.3731 19.9363 14.9164 20.0806C16.631 20.4739 18.369 20.7574 20.1197 20.9295C22.5643 21.4133 25.0302 21.7783 27.4833 22.2409C29.2149 22.5847 31.0356 22.4701 32.7036 23.1109C33.51 23.4335 34.4012 23.4929 35.2076 23.7645C35.5191 23.2296 35.7211 22.6381 35.8018 22.0244C36.0013 21.1756 36.2262 20.3268 36.4342 19.478C37.4952 15.6582 37.7371 11.673 38.5563 7.79807C38.7515 6.82192 39.0613 5.84577 39.0358 4.82717C38.7854 4.59799 38.3483 4.72956 38.0385 4.6659ZM37.6904 9.45329C37.3467 11.3462 37.1345 13.273 36.7822 15.1617C36.4257 17.827 35.5854 20.3947 35.0336 23.0218C33.5185 22.8393 32.1476 22.0584 30.6197 21.9565C29.1001 21.8346 27.5883 21.6291 26.0912 21.3411C24.3214 20.9889 22.5304 20.7342 20.7648 20.3438C18.8762 19.9575 16.9069 20.0509 15.0564 19.461C15.2644 17.1352 15.4172 14.7924 15.7228 12.4836C15.8755 11.3759 15.9137 10.2554 16.075 9.15196C16.4061 7.02988 16.7498 4.87386 17.0427 2.72632C19.1223 2.99795 21.2019 3.29504 23.2943 3.4648C25.0896 3.60061 26.8636 3.96561 28.6589 4.06747C29.8812 4.12264 31.0781 4.3391 32.2876 4.49189C34.3588 4.69985 36.3917 5.15397 38.4756 5.23037C38.2931 6.64791 37.8942 8.02726 37.6904 9.44905V9.45329Z" fill="#EABEBE"/>
<path d="M32.2876 4.48724C31.078 4.33445 29.8812 4.118 28.6589 4.06283C26.8636 3.96097 25.0896 3.59597 23.2943 3.46016C21.2019 3.2904 19.1223 2.9933 17.0427 2.72168C16.7498 4.86922 16.406 7.00402 16.075 9.14732C15.9137 10.2508 15.8755 11.3712 15.7227 12.479C15.4171 14.7963 15.2644 17.1475 15.0564 19.4563C16.9068 20.0463 18.8761 19.9529 20.7648 20.3391C22.5303 20.7296 24.3214 20.9842 26.0912 21.3365C27.5883 21.6245 29.1 21.8299 30.6197 21.9519C32.1476 22.0538 33.5184 22.8347 35.0336 23.0172C35.5853 20.3901 36.4257 17.8223 36.7822 15.157C37.1344 13.2599 37.3466 11.3373 37.6904 9.44865C37.8941 8.02686 38.2931 6.64751 38.4756 5.22573C36.3917 5.14933 34.3757 4.69521 32.2876 4.48724ZM32.4107 10.429C32.4871 10.8832 31.9863 11.1633 31.7019 11.4307C31.6001 11.2949 31.4982 11.1633 31.4048 11.0275C30.1809 11.1392 28.9494 11.1406 27.7252 11.0317C27.1951 11.0408 26.6668 10.9678 26.1591 10.8153C27.1849 10.6732 28.2178 10.5882 29.2531 10.5606C29.9516 10.5173 30.6528 10.5701 31.3369 10.7176C31.3284 10.0768 32.1009 9.9919 32.4107 10.4333V10.429ZM32.4616 13.8626C32.4509 14.1766 32.3583 14.4824 32.1931 14.7496C32.0278 15.0169 31.7956 15.2363 31.5194 15.3862C31.0144 15.3862 30.9592 14.7496 30.8361 14.3803C29.9873 14.1978 29.1852 13.7862 28.3363 13.5315C27.8548 13.394 27.3927 13.1958 26.9612 12.9416C28.2599 13.1665 29.5883 13.3193 30.8107 13.8371C30.9762 13.6588 31.0865 13.3745 31.3582 13.332C31.5741 13.3048 31.7933 13.3409 31.9892 13.4358C32.1851 13.5307 32.3492 13.6805 32.4616 13.8668V13.8626ZM26.2227 8.3961C27.5384 7.99291 28.8414 7.48361 30.2292 7.386C30.2234 7.12206 30.3088 6.8642 30.4711 6.656C30.7742 6.66486 31.0762 6.69464 31.3751 6.74513C31.4643 6.89792 31.6298 7.02524 31.6637 7.21623C31.5266 7.63346 31.2511 7.99134 30.8828 8.23058C30.4584 8.42581 30.348 7.90803 30.2462 7.6364C28.7268 8.11595 27.1825 8.51265 25.6201 8.82476C25.6795 8.52767 25.9936 8.48523 26.2227 8.3961ZM26.9867 19.2951C24.3897 18.8321 21.7598 18.578 19.1223 18.5354C18.5136 18.5459 17.9102 18.4197 17.3567 18.1661C17.7921 16.5545 18.36 14.9817 19.0544 13.4636C19.5594 12.4153 20.0984 11.3797 20.612 10.3357C21.2463 8.89037 22.0853 7.5439 23.1033 6.33769C23.3325 6.01089 23.7569 6.28252 23.8036 6.60507C24.4317 8.3961 24.7628 10.306 25.6922 11.9824C26.21 13.7225 26.9145 15.3989 27.5384 17.1051C27.7209 17.7162 28.018 18.3274 27.9883 18.981C27.8822 19.4351 27.3347 19.3757 26.9867 19.2951V19.2951ZM31.7104 20.1439C31.5963 19.8902 31.5191 19.6215 31.4812 19.346C30.416 19.1593 29.304 18.7688 28.5867 17.9242C29.5671 18.3189 30.5687 18.6584 31.5576 19.0616C31.8802 18.5523 32.5168 18.7858 32.8309 19.1508C32.6144 19.5794 32.2791 20.3349 31.7104 20.1566V20.1439ZM31.9778 17.8775C31.5746 17.7926 31.5534 17.3428 31.477 17.0287C30.15 16.585 28.8817 15.9822 27.6997 15.2334C29.0277 15.5742 30.3101 16.0729 31.5194 16.7189C31.5704 16.5321 31.6255 16.3411 31.685 16.1544L32.6017 16.269L32.9964 16.7358C32.801 17.2271 32.441 17.6352 31.9778 17.8903V17.8775Z" fill="#EABEBE"/>
<path d="M27.5342 17.1052C26.9104 15.4075 26.2058 13.7099 25.688 11.9825C24.7586 10.306 24.4148 8.39618 23.7994 6.60515C23.7527 6.2826 23.3283 6.01097 23.0991 6.33777C22.0811 7.54398 21.2421 8.89045 20.6078 10.3358C20.0943 11.3798 19.5553 12.4154 19.0502 13.4637C18.3558 14.9818 17.7879 16.5546 17.3525 18.1662C17.906 18.4198 18.5094 18.546 19.1181 18.5354C21.7557 18.5781 24.3856 18.8322 26.9825 19.2951C27.3305 19.3758 27.878 19.4352 27.9799 18.9811C28.0096 18.3275 27.7167 17.7163 27.5342 17.1052ZM23.392 6.72823C23.7369 7.67812 24.0205 8.6492 24.2408 9.63547C23.392 9.55483 22.5431 9.46995 21.6943 9.40629C22.177 8.46354 22.7453 7.56709 23.392 6.72823V6.72823ZM21.4863 9.81373C22.449 9.85677 23.4068 9.97455 24.3511 10.166C24.6173 10.69 24.8471 11.2317 25.0387 11.7873C23.549 11.7873 22.0678 11.8339 20.5696 11.7491C20.8455 11.0912 21.1765 10.4588 21.4863 9.81373V9.81373ZM20.3701 12.0843C21.9956 12.2966 23.6424 12.1862 25.2679 12.3687C25.4801 13.0181 25.6923 13.6632 25.913 14.3125C23.7814 14.0289 21.6334 13.8871 19.4831 13.8881C19.7759 13.2939 20.09 12.6955 20.3701 12.0843ZM19.3176 14.2955C21.5906 14.3554 23.8581 14.5496 26.1082 14.877C26.306 15.4731 26.5355 16.0582 26.7958 16.6298C25.5734 16.3455 24.3087 16.4685 23.0694 16.4049C21.5542 16.3073 20.0264 16.3624 18.5154 16.1927C18.7361 15.5415 19.0042 14.9075 19.3176 14.2955V14.2955ZM20.0348 18.0389C19.2751 18.0389 18.4985 18.1195 17.7642 17.8818C17.9849 17.4574 18.1886 16.9906 18.3584 16.5322C20.0136 16.8038 21.707 16.7317 23.3792 16.8633C24.453 16.8633 25.5013 16.9227 26.5963 16.9184C26.6727 16.8251 26.7533 16.7359 26.8297 16.6468C26.9613 17.3598 27.2541 18.0261 27.4409 18.7264C24.9988 18.2686 22.5195 18.0384 20.0348 18.0389V18.0389Z" fill="#EABEBE"/>
<path d="M31.9947 26.4682C29.9024 26.1245 27.7845 25.9887 25.6964 25.6194C23.7186 25.2884 21.7239 25.0422 19.7546 24.6475C18.0569 24.2952 16.3211 24.1382 14.5937 23.943C14.0196 23.9238 13.4498 23.8369 12.8961 23.6841C11.5337 24.2443 10.6 25.4454 9.37342 26.2306C9.22618 26.3137 9.10712 26.4389 9.03151 26.5901C8.95589 26.7414 8.92716 26.9117 8.94901 27.0794C9.66627 27.211 10.3963 27.2958 11.1178 27.4274C12.1533 27.5929 13.1295 28.0004 14.1566 28.2168C15.8203 28.5733 17.4543 29.0657 19.1307 29.3755C21.6432 29.8211 24.1558 30.4195 26.6641 30.9798C27.6133 31.2268 28.5868 31.3691 29.5671 31.4042C30.2631 31.2429 30.7003 30.6063 31.2223 30.1606C32.3512 29.0487 33.9513 28.4205 34.7916 27.0285C33.9173 26.6083 32.9284 26.638 31.9947 26.4682ZM32.0202 26.9393C31.6976 27.1855 31.3793 27.4274 31.061 27.6778C30.4286 27.5887 29.7878 27.4826 29.1893 27.334C29.41 27.0836 29.6435 26.8417 29.8811 26.6041C30.5942 26.7102 31.3114 26.8078 32.0202 26.9393ZM14.7847 25.8868C14.2202 25.7722 13.6515 25.6703 13.087 25.56C13.2917 25.3464 13.5262 25.1634 13.7831 25.0167C14.3645 25.0422 14.9375 25.1271 15.5147 25.1992C15.277 25.4242 15.0351 25.6576 14.7847 25.8868ZM15.9349 25.2374C16.6139 25.3266 17.2888 25.4242 17.9636 25.5345C17.6665 25.8062 17.3694 26.0735 17.0808 26.3494C16.4569 26.2306 15.833 26.1117 15.2176 25.9759C15.451 25.7213 15.7014 25.4624 15.9349 25.229V25.2374ZM14.4282 26.2263C14.2669 26.3918 14.1141 26.5616 13.9571 26.7271C13.3884 26.6295 12.8197 26.5319 12.2594 26.4216C12.425 26.2645 12.5523 26.0396 12.773 25.9505C13.3295 26.011 13.8821 26.1031 14.4282 26.2263V26.2263ZM14.8526 26.3112C15.4595 26.4428 16.0707 26.5659 16.6818 26.6804C16.5375 26.846 16.3975 27.02 16.2574 27.1897C15.6335 27.0752 15.0139 26.9521 14.3942 26.8247C14.5343 26.655 14.6871 26.4852 14.8526 26.3112ZM17.136 26.7568C17.6877 26.8587 18.2394 26.9521 18.7954 27.0412L18.2479 27.6524C17.7259 27.5208 17.1996 27.3977 16.6734 27.2831C16.8134 27.1049 16.9747 26.9309 17.1232 26.7611L17.136 26.7568ZM17.4713 26.3918C17.7132 26.1117 17.9636 25.8359 18.2182 25.5685C18.8251 25.6703 19.432 25.7764 20.039 25.8953C19.7847 26.1672 19.5079 26.4171 19.2114 26.6423C18.6208 26.614 18.034 26.5316 17.4585 26.3961L17.4713 26.3918ZM19.3047 27.1303L20.8156 27.3935C20.6077 27.6142 20.3912 27.8433 20.2002 28.0725L18.7997 27.7967L19.3047 27.1303ZM19.6188 26.7696L20.3573 25.9505C20.9345 26.065 21.5159 26.1712 22.0931 26.29C21.813 26.5531 21.5244 26.8078 21.2443 27.0582C20.6841 26.9606 20.1451 26.8672 19.6061 26.7738L19.6188 26.7696ZM22.4369 26.3452C23.0099 26.4555 23.5871 26.5531 24.1346 26.6677C23.8842 26.9351 23.6338 27.1982 23.3749 27.4571C22.7977 27.3425 22.2162 27.2407 21.6432 27.1303C21.9064 26.8714 22.1653 26.6125 22.4242 26.3536L22.4369 26.3452ZM21.3504 27.4826C21.9149 27.5972 22.4751 27.699 23.0481 27.8051C22.8189 28.0174 22.5854 28.2296 22.352 28.4333C21.8512 28.3357 21.3462 28.2465 20.8453 28.1701C20.9939 27.9494 21.1637 27.716 21.3377 27.4911L21.3504 27.4826ZM23.5149 27.907C24.0437 27.9617 24.5692 28.0439 25.0895 28.1532C24.8898 28.4031 24.6773 28.6425 24.4529 28.8704C23.9351 28.7431 23.4131 28.6412 22.8953 28.5309C23.0863 28.3399 23.2221 28.0089 23.5022 27.9197L23.5149 27.907ZM23.7865 27.5165C24.003 27.2449 24.211 26.9818 24.4486 26.7186C25.0471 26.8247 25.6412 26.9478 26.2397 27.0794L25.463 27.8264C24.9112 27.7203 24.3425 27.6226 23.7653 27.5293L23.7865 27.5165ZM26.923 27.211C27.4492 27.3383 27.984 27.4401 28.5145 27.5505C28.2981 27.7797 28.0901 28.0046 27.8694 28.2338C27.3177 28.1447 26.7702 28.0428 26.2227 27.9367C26.4381 27.6862 26.6677 27.4481 26.9102 27.2237L26.923 27.211ZM25.8874 28.289C26.4264 28.4036 26.9739 28.4969 27.5171 28.603C27.2477 28.8803 26.9644 29.1438 26.6683 29.3925C26.1463 29.2779 25.6327 29.159 25.1192 29.0317C25.355 28.764 25.6119 28.5156 25.8874 28.289ZM27.9628 28.6879L29.2615 28.9511C28.9679 29.2096 28.6527 29.4425 28.3193 29.6471C27.9611 29.6581 27.603 29.6224 27.254 29.541C27.4789 29.2524 27.7166 28.9723 27.9543 28.6879H27.9628ZM28.2344 28.3314C28.4551 28.0937 28.6588 27.8646 28.905 27.6354C29.4737 27.7839 30.0509 27.8985 30.6366 27.9961L29.7071 28.6412L28.2344 28.3314ZM27.7124 26.3452C28.349 26.43 28.9856 26.498 29.6307 26.5786C29.3676 26.8078 29.1087 27.037 28.8498 27.2746C28.2981 27.1558 27.7421 27.0454 27.1903 26.9436C27.3516 26.7356 27.5256 26.5404 27.7039 26.3452H27.7124ZM27.0036 26.3112C26.8084 26.4682 26.6259 26.6423 26.4391 26.8035C25.8704 26.6592 25.3017 26.5446 24.7415 26.4385C24.8561 26.2773 24.9791 26.116 25.098 25.9589C25.7392 26.0411 26.3754 26.1587 27.0036 26.3112ZM24.8815 25.9123C24.733 26.0693 24.5887 26.2221 24.4571 26.3834C23.8799 26.2688 23.307 26.1627 22.734 26.065C22.85 25.9264 22.9688 25.7849 23.0905 25.6406L24.8815 25.9123ZM22.8316 25.6237C22.7043 25.751 22.5812 25.8825 22.4581 26.0141L20.6331 25.6491L20.9345 25.2926C21.5499 25.3945 22.1823 25.4963 22.8146 25.6109L22.8316 25.6237ZM20.735 25.2544L20.3658 25.6109C19.7546 25.4836 19.1392 25.3733 18.5238 25.2714C18.596 25.1738 18.7487 24.9828 18.8209 24.8894C19.4405 25.0125 20.0772 25.1313 20.718 25.2417L20.735 25.2544ZM18.6384 24.8809L18.3201 25.1738C17.6283 25.1992 16.9535 24.9785 16.2659 24.9361C16.3932 24.8045 16.5206 24.6772 16.6521 24.5499C17.3015 24.6135 17.9678 24.7197 18.6214 24.8682L18.6384 24.8809ZM16.3084 24.5329C16.1004 24.6348 15.9518 24.8979 15.6972 24.864C15.12 24.8427 14.5513 24.7621 13.9783 24.7366L14.4749 24.2613C15.0691 24.3377 15.7014 24.4098 16.2914 24.5202L16.3084 24.5329ZM13.0658 24.0151C13.4436 24.0958 13.8255 24.1637 14.2117 24.2273C14.025 24.3844 13.8425 24.5456 13.6643 24.7069C13.1564 24.7042 12.6492 24.6731 12.1449 24.6135C12.4321 24.3898 12.7341 24.1856 13.0489 24.0024L13.0658 24.0151ZM11.8817 24.8088C12.3698 24.864 12.8621 24.9149 13.3544 24.9616L12.7305 25.5091L11.3554 25.2969L11.8817 24.8088ZM11.0329 25.6024C11.4573 25.7001 11.8817 25.7807 12.3061 25.8613C12.1406 26.0311 11.9793 26.2009 11.8223 26.3749C11.332 26.3321 10.8445 26.2613 10.3623 26.1627C10.6085 25.9674 10.8207 25.7892 11.0329 25.6024ZM11.5167 26.795C10.9522 26.7144 10.3878 26.638 9.81906 26.5022C10.3368 26.0778 10.9565 26.5701 11.5167 26.6041C11.5507 26.6507 11.5337 26.7356 11.5294 26.795H11.5167ZM13.3375 27.3213C12.8027 27.1303 12.2085 27.0667 11.7417 26.7314C12.363 26.7353 12.9811 26.8223 13.5794 26.9903L13.3375 27.3213ZM21.431 29.2269C19.8437 28.8577 18.2479 28.5946 16.6436 28.1574C15.6972 27.89 14.7338 27.6821 13.7788 27.4444C13.8892 27.3298 13.9995 27.2195 14.1141 27.1091C16.7497 27.6142 19.3302 28.3824 21.9998 28.7389C21.813 28.9001 21.6432 29.0614 21.4438 29.2269H21.431ZM23.7271 29.732C23.1924 29.6216 22.6576 29.4986 22.1228 29.3797C22.2671 29.2015 22.4157 29.0275 22.5472 28.8534C23.0481 28.9596 23.5531 29.0657 24.0582 29.159C23.969 29.3458 23.8502 29.5368 23.7399 29.732H23.7271ZM25.7728 30.1988C25.2593 30.0885 24.7457 29.9739 24.2364 29.8551C24.4189 29.6811 24.6014 29.5028 24.7882 29.333C25.2593 29.4604 25.7304 29.575 26.2057 29.6895C26.0671 29.8537 25.927 30.0234 25.7855 30.1988H25.7728ZM26.4434 30.3516C26.5877 30.1861 26.7362 30.0248 26.8678 29.8636L27.8482 30.0461C27.7463 30.2187 27.6487 30.3969 27.5553 30.5808L26.4434 30.3516ZM27.6827 30.602C28.0222 30.5208 28.3471 30.3876 28.6461 30.2073C29.1511 30.3134 29.6604 30.3729 30.174 30.4365C29.5586 31.192 28.5103 30.6869 27.6954 30.602H27.6827ZM30.5857 30.1309C30.0582 30.0088 29.5239 29.9181 28.9856 29.8593C29.2615 29.6004 29.5374 29.3415 29.8344 29.0911C30.3341 29.2525 30.8429 29.3843 31.3581 29.4858C31.0865 29.6768 30.8318 29.8933 30.5857 30.1309ZM31.7231 29.2015C31.203 29.0905 30.69 28.9488 30.1867 28.7771C30.4318 28.5302 30.6973 28.3045 30.9804 28.1022C31.6236 28.1474 32.2639 28.2268 32.8987 28.3399C32.5167 28.637 32.1263 28.9214 31.7231 29.1845V29.2015ZM33.2085 28.1574C32.6257 27.9226 32.0071 27.7892 31.3793 27.7627C31.6679 27.4996 31.948 27.2322 32.2281 26.9648C32.886 27.0709 33.5523 27.1515 34.2059 27.2831C33.8909 27.5886 33.5579 27.8749 33.2085 28.1404V28.1574Z" fill="#EABEBE"/>
<path d="M20.3106 29.9904C18.5323 29.7061 16.7879 29.2817 15.0224 28.9209C14.5093 29.5373 13.8933 30.06 13.2016 30.4658C12.8239 30.7331 12.2722 30.9454 12.3316 31.5056C13.4511 32.0345 14.6214 32.4483 15.8245 32.7406C16.8728 32.9571 17.9084 33.2627 18.9694 33.4112C19.4992 33.0941 19.9725 32.691 20.37 32.2186C20.9175 31.6329 21.5711 31.1618 22.1101 30.5719C21.6178 30.1305 20.926 30.1305 20.3106 29.9904ZM18.9991 32.8764C17.0086 32.3459 14.9332 32.0913 13.0573 31.1788C13.8661 30.6419 14.6035 30.0044 15.2515 29.2817C16.6479 29.6127 18.006 30.0923 19.4235 30.33C20.0984 30.4488 20.7732 30.5634 21.4438 30.7119C20.6161 31.4037 19.9031 32.2526 18.9991 32.8764V32.8764Z" fill="#EABEBE"/>
</svg>
