<svg width="18" height="23" viewBox="0 0 18 23" fill="none" xmlns="http://www.w3.org/2000/svg">
<path d="M5.55541 0.510558C5.55541 0.0186789 6.10955 0.1183 6.43955 0C7.64745 1.86789 8.59385 3.82296 9.65232 5.75311C9.87024 6.07688 10.0321 6.5065 10.4244 6.66216C12.4355 7.16649 14.6209 6.23254 16.5573 7.14158C16.3643 9.14023 14.6085 10.4602 13.3445 11.8487C14.8068 13.5197 16.096 15.3346 17.1924 17.2656C17.5473 17.8322 17.2982 18.461 17.0865 19.0214C15.007 18.8408 13.2013 17.608 11.7506 16.1822C10.5365 18.0937 9.35969 20.0114 8.11442 21.9104C7.79688 22.3525 7.49179 22.9066 6.86916 23C6.53643 22.8199 6.26225 22.5483 6.07908 22.2173C5.89591 21.8862 5.81141 21.5097 5.83559 21.1321C5.80634 18.638 5.90818 16.144 6.14068 13.6605C4.45335 13.592 2.76602 13.4675 1.07869 13.5049C0.924345 13.4999 0.772715 13.4629 0.633418 13.3963C0.494121 13.3296 0.370197 13.2347 0.269505 13.1176C0.168814 13.0006 0.0935526 12.8638 0.0484954 12.7161C0.00343809 12.5684 -0.010432 12.413 0.00776467 12.2596C0.252893 11.8417 0.58655 11.4826 0.985296 11.2074C2.02043 10.3004 3.13768 9.49162 4.3226 8.79155C4.71486 8.54873 5.26277 8.36194 5.2939 7.82025C5.51805 6.35707 5.78578 4.83785 5.43711 3.38089C5.34403 2.42323 5.38384 1.45731 5.55541 0.510558ZM6.17804 1.36356C6.30257 3.51787 6.22163 5.6784 6.24653 7.82648C6.27044 8.23136 6.18403 8.63514 5.99653 8.99479C5.80903 9.35444 5.52746 9.65648 5.18183 9.86871C3.93916 10.6625 2.74184 11.5252 1.59547 12.4526C3.50695 12.4526 5.42466 12.6145 7.33614 12.7328C7.4233 13.5858 7.13067 14.4637 7.15557 15.3354C7.09954 17.359 6.83803 19.3887 7.04972 21.3998C8.11442 20.055 8.98611 18.5731 9.98232 17.141C10.3377 16.4787 10.7888 15.8724 11.321 15.3416C11.9 14.9618 12.4604 15.5284 12.9087 15.8584C13.8647 16.6514 14.9792 17.231 16.1775 17.5582C15.4727 16.335 14.6908 15.1579 13.8364 14.0341C13.3086 13.4232 12.8512 12.7549 12.4728 12.0417C12.2611 11.4191 12.834 10.977 13.2013 10.5785C14.0433 9.80441 14.7877 8.93041 15.4179 7.97591C13.824 7.91364 12.23 8.1876 10.6423 7.97591C10.3514 7.94009 10.073 7.83633 9.82965 7.673C9.58628 7.50967 9.38476 7.29137 9.24139 7.03573C8.15801 5.16784 7.32368 3.16919 6.15314 1.36356H6.17804Z" fill="#B9A3E9"/>
</svg>
