<svg width="25" height="22" viewBox="0 0 25 22" fill="none" xmlns="http://www.w3.org/2000/svg">
<path d="M18.74 1.95C19.74 1.34 20.43 0.22 21.62 0C22.69 0.23 23.3 1.28 23.88 2.13C24.63 3.13 24.09 4.39 24.18 5.53C24.18 7.11 24.23 9.18 22.62 10.06C19.37 12.06 16.62 14.84 13.62 17.14C11.93 18.45 10 19.45 8.71 21.25C8.25 21.13 8 20.71 7.71 20.41C6.4 18.86 4.71 17.7 3.56 15.99C2.11612 14.2962 0.917706 12.4077 0 10.38C0.194658 9.29412 0.530857 8.23846 1 7.24L0.51 6.51C1.83149 5.30321 3.21682 4.16825 4.66 3.11C4.82428 2.9664 5.01541 2.8568 5.22234 2.78756C5.42926 2.71832 5.64786 2.69081 5.86548 2.70662C6.08311 2.72243 6.29543 2.78125 6.49017 2.87967C6.68491 2.97809 6.8582 3.11416 7 3.28C8.3 5.04 9.54 6.86 10.8 8.66C13.2836 6.23721 15.937 3.99484 18.74 1.95ZM16.48 6.05C14.59 7.82 12.73 9.61 10.78 11.31C9.86669 10.3977 9.09181 9.35669 8.48 8.22C7.59 6.95 6.74 5.59 5.85 4.28C4.52132 5.03406 3.23597 5.86203 2 6.76C3.68769 8.13005 5.07632 9.8318 6.08 11.76C6.71 13.33 8.08 14.39 8.98 15.76C11.31 13.76 13.54 11.69 15.86 9.7C18.18 7.71 20.04 5.3 22.25 3.2C22 2.82 21.75 2.43 21.52 2.06C19.85 3.4 18.07 4.61 16.48 6.05ZM9.74 17.56C9.58041 18.0297 9.50591 18.5241 9.52 19.02C13.95 15.61 17.74 11.39 22.52 8.45C22.58 7.71 22.63 6.96 22.69 6.22C18.69 10.36 14.07 13.81 9.74 17.56ZM1.53 8.01C1.19674 8.71072 1.01609 9.47423 1 10.25C2.56 13.95 5.5 16.82 8.46 19.42C8.73 17.55 7.12 16.26 6.06 14.95C4.78657 13.6632 3.9235 12.0275 3.58 10.25C3 9.46 2.45 8.37 1.53 8.01Z" fill="#EAD6BE"/>
</svg>
