<svg width="28" height="28" viewBox="0 0 28 28" fill="none" xmlns="http://www.w3.org/2000/svg">
<path d="M27.6542 9.18115C27.5675 8.83687 27.3885 8.57252 27.1503 8.43681C27.0599 8.38494 26.9595 8.35192 26.8554 8.33981C26.7515 8.32769 26.6459 8.33675 26.5457 8.3664C26.223 8.45653 25.861 8.73612 25.9702 9.5564C26.0555 10.1984 26.1263 10.8543 26.1949 11.4878C26.2241 11.7582 26.2538 12.0285 26.2838 12.2989C26.1742 14.0975 26.0528 15.719 25.6808 17.3337C25.1948 19.4428 24.1907 21.4309 22.6965 23.2424C21.4845 24.7118 19.9359 25.6224 17.962 26.0261C16.3284 26.3485 14.6528 26.4126 12.9986 26.2163C11.6538 26.0657 10.0773 25.8264 8.57943 25.1926C6.8453 24.4589 5.6179 23.5924 4.71649 22.4657C3.38274 20.7938 2.42938 18.8608 1.92057 16.7969C1.57612 15.4864 1.48431 14.1243 1.64993 12.7808C1.9037 10.8038 2.59059 8.86091 3.81145 6.66618C4.24121 5.89154 4.822 5.2075 5.5208 4.65304C7.22162 3.30097 8.9061 2.37247 10.6704 1.81431C11.9251 1.4173 13.3099 1.29251 14.9055 1.43292C15.9658 1.52622 16.9962 1.83668 17.9927 2.13701C18.2159 2.20426 18.4393 2.27149 18.6631 2.33658L18.7662 2.36725C18.9568 2.43087 19.1536 2.47539 19.3533 2.5001C19.4858 2.51154 19.7609 2.43938 19.8133 2.28549C19.8381 2.19752 19.8431 2.10529 19.8277 2.01527C19.8124 1.92524 19.7771 1.83959 19.7245 1.76434C19.5894 1.60111 19.4147 1.47375 19.2165 1.3939C18.5504 1.12259 17.948 0.8812 17.3196 0.6759C16.1234 0.283584 14.8697 0.08681 13.6085 0.093423C11.5858 0.110004 9.60098 0.634166 7.84273 1.61606C7.19342 1.97178 6.61957 2.30236 6.08841 2.62671C4.52478 3.58147 3.38853 4.69974 2.61473 6.04538C1.68605 7.65997 1.04452 9.14796 0.653249 10.594C0.189427 12.3084 0.0227919 13.6452 0.112829 14.9279C0.268963 17.1484 0.989656 19.3469 2.3169 21.6492C2.79505 22.4993 3.37769 23.2887 4.05175 23.9995C5.46133 25.4609 7.24733 26.4947 9.51054 27.1596C11.2511 27.6727 13.0586 27.9337 14.876 27.9343C15.6583 27.934 16.4398 27.8862 17.2161 27.7912C20.2623 27.4189 22.6079 26.1239 24.3856 23.8319C25.8082 21.998 26.7505 20.1627 27.2665 18.2217C27.8545 16.0087 28.0729 13.5985 27.9342 10.8531C27.8969 10.2881 27.8031 9.72812 27.6542 9.18115Z" fill="#EABEBE"/>
<path d="M16.1679 5.29863C16.2928 5.31141 16.4176 5.32439 16.5425 5.33583C16.6546 5.34605 16.9536 5.37353 17.0536 5.08811C17.096 4.98061 17.0945 4.86118 17.0493 4.75475C17.0042 4.64833 16.9189 4.56313 16.8112 4.51696C16.6138 4.41891 16.4046 4.3454 16.1885 4.29809C15.2001 4.09381 14.1848 4.04801 13.1815 4.16247C11.3101 4.3784 9.73882 4.85402 8.37775 5.61666C6.56951 6.62977 5.45086 7.92318 4.9579 9.57139C4.88243 9.82411 4.78095 10.0781 4.69122 10.3023C3.91882 12.1815 3.72629 14.2424 4.13758 16.2284C4.4282 17.632 4.7868 18.7652 5.59213 19.7335C7.44128 21.9565 9.54416 23.2108 12.0209 23.568C12.5549 23.6451 13.1036 23.6708 13.6331 23.6957C13.8744 23.707 14.1238 23.7188 14.3678 23.7352H14.375H14.3776C16.2912 23.6964 18.1698 23.2241 19.8667 22.3549C20.2736 22.156 20.6485 21.8993 20.9792 21.5931C22.0249 20.5842 22.6838 19.6277 23.0527 18.5831C23.1272 18.3725 23.2254 18.1633 23.3206 17.961C23.3497 17.899 23.379 17.8369 23.4075 17.7747C24.2597 15.9211 24.2521 13.8946 23.3841 11.5793C23.3115 11.3847 23.198 11.2073 23.0511 11.0587C22.9566 10.955 22.8354 10.8781 22.7002 10.8362C22.565 10.7944 22.4208 10.7891 22.2829 10.8209C22.1514 10.8622 22.0339 10.9381 21.9433 11.0403C21.8526 11.1425 21.7921 11.267 21.7685 11.4006C21.7103 11.6436 21.7534 11.9141 21.7914 12.1528L21.8 12.2065C21.8443 12.4881 21.8979 12.7724 21.9497 13.0475C22.0377 13.5144 22.1287 13.9974 22.1753 14.4742C22.2607 15.2618 22.1532 16.0579 21.8619 16.7965C21.6026 17.4617 21.309 18.1135 20.9824 18.7494C20.4423 19.7713 19.851 20.4408 19.1211 20.8545C18.5494 21.1788 17.9041 21.4094 17.2798 21.6324L17.0339 21.7206C15.9305 22.1183 14.7434 22.1191 13.5885 22.1197H13.5797C11.8037 22.1197 10.4512 21.7346 9.32395 20.9079C9.14034 20.7732 8.94724 20.647 8.76051 20.525C8.55378 20.3899 8.34006 20.2503 8.14166 20.1005C7.06621 19.2882 6.36354 18.3735 5.99361 17.303C5.5581 16.044 5.1023 14.3739 5.44434 12.6192C5.55682 12.0935 5.69661 11.5738 5.86319 11.0622C5.96447 10.7322 6.06904 10.391 6.15731 10.0511C6.51808 8.66261 7.39254 7.58717 8.83085 6.76342C10.771 5.65211 12.9402 5.13584 15.2722 5.22556C15.5701 5.23711 15.8737 5.26839 16.1679 5.29863Z" fill="#EABEBE"/>
<path d="M11.1237 10.289C11.595 10.0234 12.095 9.8103 12.6144 9.65362C13.1501 9.49707 13.7139 9.3912 14.259 9.2888C14.3995 9.26234 14.54 9.23597 14.6801 9.20869C14.8587 9.17404 15.1285 9.12152 15.134 8.81178C15.1382 8.56877 14.9739 8.40577 14.6946 8.37563C14.5478 8.3595 14.4001 8.3538 14.2525 8.35856C13.2614 8.39514 12.2644 8.6213 11.1154 9.07063C10.1145 9.44641 9.2992 10.1857 8.83827 11.1354C8.00785 12.8082 7.95867 14.5973 8.6925 16.4531C8.89912 16.9754 9.20995 17.6422 9.78463 18.1674C11.0722 19.344 12.6386 19.9404 14.4408 19.9404C14.5263 19.9404 14.612 19.9428 14.6977 19.9454C14.7766 19.948 14.8568 19.9506 14.9371 19.9506C15.0332 19.9514 15.1293 19.9462 15.2247 19.9353C16.4806 19.783 17.4638 19.3697 18.2307 18.6716C19.6706 17.361 20.3218 15.6059 20.1668 13.4549C20.1448 13.1518 19.9929 12.852 19.8589 12.5878C19.7378 12.3493 19.461 12.1672 19.1848 12.3005C18.9979 12.4127 18.8612 12.5902 18.8024 12.7974C18.7665 12.9418 18.7541 13.0908 18.766 13.2389C18.7678 13.3112 18.7696 13.3794 18.766 13.4462C18.7567 13.6105 18.7525 13.7776 18.7485 13.9393C18.7492 14.311 18.7197 14.6821 18.6605 15.0491C18.2909 16.9777 17.1837 18.1102 15.3698 18.4152C14.0919 18.6298 12.8345 18.3962 11.633 17.7203C11.1697 17.4598 10.6987 17.1518 10.3919 16.6661C9.49505 15.2464 9.27343 13.735 9.73309 12.1738C9.99259 11.2903 10.461 10.656 11.1237 10.289Z" fill="#EABEBE"/>
<path d="M23.3368 3.73064C23.3521 3.65134 23.3686 3.57205 23.385 3.49285C23.442 3.24521 23.4828 2.99427 23.5072 2.74154C23.5412 2.29446 23.3303 2.13566 22.9788 2.02427C22.8434 1.9774 22.6978 1.9667 22.5569 1.99324C22.4159 2.01978 22.2847 2.0826 22.1765 2.17531C21.1811 2.9915 20.1774 3.81864 19.1931 4.63361C18.8392 4.92699 18.7143 5.30253 18.8028 5.81532C18.8594 6.14498 18.8946 6.48539 18.9285 6.81464C18.9545 7.06491 18.9812 7.32353 19.0172 7.57757C19.0454 7.77715 18.9881 7.91245 18.8057 8.07667L18.7242 8.14995C18.2208 8.60295 17.7005 9.0713 17.2115 9.55568C16.3408 10.4181 15.4628 11.3016 14.6129 12.1561C14.2095 12.5621 13.8056 12.9678 13.4014 13.3734C13.1125 13.6631 13.1732 13.8862 13.2753 14.0223C13.3129 14.0771 13.3636 14.122 13.423 14.1531C13.4823 14.1842 13.5485 14.2006 13.6157 14.2008C13.7532 14.1942 13.8853 14.1462 13.9939 14.0631C14.1831 13.9253 14.3624 13.7746 14.5304 13.6124C15.5037 12.7104 16.4764 11.8077 17.4485 10.9043L19.0286 9.43712C19.1877 9.28966 19.3013 9.21845 19.5032 9.22663C20.3653 9.25197 21.2415 9.25135 22.089 9.25043C22.3296 9.25002 22.5701 9.25002 22.8108 9.25043H22.8127C22.9611 9.25421 23.1083 9.22505 23.2435 9.16511C23.3787 9.10518 23.4983 9.01603 23.5934 8.90432C24.2804 8.13453 24.9914 7.36237 25.6574 6.64255C25.9844 6.28907 26.2675 5.92068 26.1407 5.30233C26.0262 4.74641 25.9495 4.50043 25.3124 4.49696C24.9799 4.49645 24.6426 4.51372 24.3166 4.53191C24.1321 4.54213 23.9475 4.55237 23.7629 4.55911C23.6138 4.56442 23.466 4.56328 23.2945 4.56185L23.1641 4.56083C23.1776 4.49686 23.1909 4.43413 23.2041 4.37261C23.2515 4.14964 23.296 3.94043 23.3368 3.73064ZM24.8756 5.77443L24.9014 5.77627L23.1181 7.99165H20.1257C20.117 7.96201 20.1076 7.93188 20.0981 7.90133C20.0545 7.78032 20.0266 7.65441 20.0148 7.52658C20.0016 7.18833 20.0022 6.84283 20.0028 6.50877C20.0028 6.30837 20.0035 6.108 20.001 5.90781C19.9985 5.71018 20.0278 5.55229 20.1786 5.42456C20.7421 4.94692 21.3037 4.46672 21.8997 3.957L22.4029 3.52698C22.3978 3.60332 22.3936 3.65881 22.3851 3.71225C22.3611 3.8638 22.3341 4.01495 22.3072 4.16609C22.2561 4.45375 22.2031 4.75123 22.171 5.04768C22.1427 5.30908 22.18 5.48708 22.2883 5.60715C22.3967 5.72722 22.5679 5.78435 22.8304 5.78905C23.2139 5.7962 23.6035 5.78547 23.9799 5.77535C24.184 5.76994 24.3881 5.76452 24.5921 5.76166C24.6758 5.76146 24.759 5.76688 24.8755 5.77485L24.8756 5.77443Z" fill="#EABEBE"/>
</svg>
