<svg width="31" height="28" viewBox="0 0 31 28" fill="none" xmlns="http://www.w3.org/2000/svg">
<path d="M4.85091 21.2241C5.33238 21.5549 5.39541 21.7953 5.14393 22.3427C4.61784 23.4882 4.01096 24.8459 3.49875 26.2343C3.36227 26.604 3.35249 27.3261 3.6477 27.6161C3.88927 27.8535 4.29909 27.886 4.6954 27.9174C4.81258 27.9267 4.9232 27.9354 5.0274 27.9492C5.04425 27.9516 5.06121 27.9526 5.0782 27.9526C5.22235 27.9388 5.36117 27.8908 5.48313 27.8126L5.53459 27.7855C5.96893 27.5602 6.40371 27.3356 6.8389 27.1116C8.08109 26.4711 9.36547 25.8083 10.6161 25.1323L10.6278 25.1261C12.1328 24.3132 13.5531 23.545 15.2972 23.8827C15.37 23.8943 15.4438 23.8972 15.5174 23.8912C15.5407 23.89 15.5642 23.889 15.5873 23.8887C19.7307 23.8509 22.9235 22.9882 25.6351 21.174C29.7882 18.3951 31.653 14.4181 30.7513 10.2631C29.9165 6.41597 28.2704 4.02222 25.4143 2.50184C22.5105 0.956424 19.2384 0.0684326 16.2008 0.00146484C16.1997 0.00165754 16.1985 0.00165754 16.1975 0.00146484C12.4481 0.0163036 9.31569 0.635944 6.33994 1.95194C2.73262 3.54691 0.75467 5.83839 0.293271 8.95723C0.0943793 10.226 0.0706552 11.5161 0.222778 12.7913C0.722251 16.6691 2.23624 19.4274 4.85091 21.2241ZM6.12089 24.3596C6.37172 23.462 6.6084 22.6143 6.9036 21.8021C7.36667 20.5292 6.68326 19.814 6.03663 19.3331C5.05312 18.602 4.05829 17.7603 3.44266 16.564C1.85279 13.4743 1.63643 10.5799 2.78073 7.71555C3.40137 6.16213 4.66131 5.00874 6.74577 4.08564C9.62286 2.81158 12.4864 2.1746 15.3175 2.1746C18.1362 2.18719 20.9195 2.80598 23.4798 3.98911C26.4357 5.32499 28.075 7.52825 28.6388 10.9231C29.1018 13.709 28.3322 16.0294 26.2182 18.2251C24.3356 20.1803 21.7973 21.3309 18.2302 21.8459C16.4324 22.1055 14.3058 22.3206 12.1656 21.9473C11.8985 21.9018 11.5997 22.0696 11.358 22.2054C9.90919 23.0221 8.47406 23.8412 6.9548 24.7086L5.84356 25.3427C5.94055 25.0051 6.03187 24.6783 6.12089 24.3597V24.3596Z" fill="#BEEAC5"/>
<path d="M9.81246 13.8434H9.83034C10.0322 13.8428 10.2319 13.8016 10.4177 13.7225C10.6036 13.6433 10.7718 13.5278 10.9125 13.3827C11.0334 13.2575 11.1278 13.109 11.1899 12.9463C11.2521 12.7835 11.2807 12.6099 11.2741 12.4357C11.2513 12.0807 11.0986 11.7468 10.8452 11.4979C10.5919 11.2491 10.2558 11.1028 9.9016 11.0874C9.7134 11.0886 9.52731 11.1273 9.35411 11.2012C9.18091 11.2751 9.02405 11.3826 8.89262 11.5177C8.74934 11.6551 8.63452 11.8195 8.5548 12.0015C8.47506 12.1835 8.43197 12.3796 8.42801 12.5783C8.42694 12.7399 8.45804 12.8999 8.5195 13.0492C8.58095 13.1985 8.6715 13.3339 8.78586 13.4477C9.06237 13.7107 9.43154 13.853 9.81246 13.8434Z" fill="#BEEAC5"/>
<path d="M15.9045 14.2016H15.9173C16.2664 14.1988 16.6002 14.0577 16.8462 13.8092C17.1049 13.557 17.2539 13.2124 17.261 12.8506C17.264 12.4893 17.0646 12.0621 16.7407 11.7363C16.5211 11.4892 16.2149 11.3366 15.8858 11.3105H15.8817C15.2173 11.3144 14.5558 12.0452 14.5461 12.7859C14.5428 12.971 14.5762 13.155 14.6445 13.327C14.7127 13.4992 14.8143 13.6559 14.9436 13.7882C15.0685 13.9175 15.2177 14.0206 15.3826 14.0915C15.5476 14.1625 15.7249 14.1999 15.9045 14.2016Z" fill="#BEEAC5"/>
<path d="M21.7038 14.0515H21.7123C22.0432 14.0387 22.3582 13.905 22.5979 13.6757C22.8376 13.4463 22.9856 13.137 23.014 12.806C23.005 12.4788 22.8681 12.1682 22.6329 11.9414C22.3164 11.5879 21.8773 11.3689 21.4053 11.3293C21.2856 11.3269 21.1667 11.3491 21.0558 11.3943C20.945 11.4395 20.8445 11.5068 20.7604 11.5922C20.628 11.7287 20.524 11.8903 20.4545 12.0675C20.385 12.2448 20.3513 12.4341 20.3556 12.6245C20.3475 12.9926 20.4846 13.3489 20.7371 13.6161C20.9895 13.8832 21.3369 14.0398 21.7038 14.0515Z" fill="#BEEAC5"/>
</svg>
