<svg width="34" height="29" viewBox="0 0 34 29" fill="none" xmlns="http://www.w3.org/2000/svg">
<path d="M0.851059 11.0042C1.07006 11.2765 1.29651 11.5576 1.50193 11.8412C4.56822 16.0767 7.98491 20.2172 11.2889 24.2212C12.3905 25.5561 13.5295 26.9363 14.6386 28.2996C14.9932 28.7355 15.3244 28.954 15.6822 28.9873C15.7145 28.9903 15.7469 28.9917 15.7794 28.9917C16.1008 28.9917 16.4399 28.8449 16.8365 28.5356C17.5235 27.9809 18.1518 27.3784 18.7146 26.7348C23.2326 21.7246 27.6176 16.8322 31.3112 12.7068C31.7226 12.2473 32.1255 11.7717 32.5155 11.3118C32.8705 10.8928 33.2378 10.4596 33.6094 10.0408C34.0358 9.56003 34.0559 9.08038 33.6691 8.61508C33.4436 8.34566 33.2018 8.08596 32.9445 7.83693C32.3556 7.26309 31.7652 6.69048 31.1731 6.11908C30.5731 5.53869 29.9741 4.95768 29.3761 4.37611C29.1304 4.13653 28.8856 3.88855 28.6488 3.64874C28.3684 3.36466 28.0782 3.07065 27.7831 2.7874C26.8619 1.90284 26.0915 1.18163 25.3585 0.517351C25.1699 0.356559 24.9302 0.243134 24.6674 0.190165C24.3454 0.132823 24.0164 0.107332 23.6872 0.114191C22.4429 0.109338 21.1986 0.110279 20.1562 0.110752H19.2355H19.2286L16.5256 0.216202C14.0742 0.311843 11.7586 0.402423 9.46846 0.485043C8.93189 0.504455 8.34275 0.576064 8.14403 1.18554C8.12045 1.22515 8.08825 1.26079 8.04895 1.29064C8.03338 1.30437 8.01803 1.31821 8.00375 1.33182C7.75728 1.56563 7.51136 1.79981 7.26603 2.03434C6.65732 2.61505 6.02779 3.21552 5.39808 3.798C3.70203 5.37294 2.12388 7.03241 0.672488 8.76709C0.455076 9.04661 0.285084 9.34959 0.167325 9.6675C0.134206 9.7582 0.123216 9.85343 0.13489 9.9477C0.146564 10.042 0.180678 10.1334 0.235336 10.2166C0.432622 10.4845 0.645345 10.7488 0.851059 11.0042ZM30.3049 10.6695C30.2989 10.677 30.2928 10.6845 30.2868 10.692C30.1745 10.8305 30.0775 10.9503 29.9699 11.0655C29.5365 11.5303 29.1006 11.9934 28.6624 12.455C27.8175 13.3487 26.9439 14.2729 26.1121 15.1996C24.1582 17.3765 22.1878 19.5996 20.2822 21.7495C19.4871 22.6467 18.6915 23.5437 17.8955 24.4403C17.8626 24.4775 17.8301 24.5141 17.7972 24.5499C17.8972 24.3048 18.0012 24.0537 18.1079 23.8084C18.6412 22.583 19.1746 21.3578 19.7079 20.1328C20.9211 17.3465 22.1322 14.5595 23.3414 11.772C23.4436 11.5183 23.5272 11.2598 23.5916 10.9977C23.6202 10.8921 23.6501 10.7831 23.6832 10.6695H30.3049ZM21.3721 10.6664L15.6602 24.2651C15.2022 22.6981 14.6888 21.1313 14.1898 19.6121C13.2512 16.7519 12.2814 13.7959 11.6716 10.7899L21.3721 10.6664ZM18.2778 1.80578C19.2752 1.77488 20.2812 1.77676 21.2569 1.77818C22.2352 1.77984 23.2466 1.78151 24.2479 1.7505L30.5988 8.8117L23.1912 8.93776L23.0982 8.93941L18.2778 1.80578ZM11.8966 9.07353C13.2395 6.78419 14.9459 4.84653 16.8708 2.75639L20.3546 8.91681L11.8966 9.07353ZM9.20276 10.8407C9.96876 13.9797 11.03 17.0887 12.0566 20.096C12.3549 20.9696 12.6613 21.8674 12.959 22.7615C10.7555 20.3105 8.73389 17.7138 6.77475 15.1971C5.66046 13.7655 4.50936 12.287 3.33565 10.849C4.34808 10.7522 7.84262 10.7423 9.20276 10.8406V10.8407ZM13.4958 1.91028C13.9503 1.90649 14.4046 1.90295 14.8589 1.89964C14.9018 1.89905 14.9428 1.90119 14.9965 1.90439C13.1502 3.95806 11.1052 6.36397 9.76505 9.10962H2.4665C2.51032 9.0479 2.5596 8.98898 2.61403 8.93337C4.36332 7.21148 5.83633 5.7642 7.33948 4.2974C7.72519 3.9204 8.12446 3.54044 8.50975 3.17291C8.8706 2.82908 9.23013 2.48421 9.58822 2.13826C9.64555 2.07133 9.72196 2.01723 9.81068 1.98073C9.89939 1.94424 9.99766 1.9265 10.0967 1.92911C11.2299 1.92923 12.3818 1.91928 13.4958 1.91016V1.91028Z" fill="#BEEAE2"/>
</svg>
