<svg width="17" height="18" viewBox="0 0 17 18" fill="none" xmlns="http://www.w3.org/2000/svg">
<path d="M4.1515 0C6.6315 0.22 8.5015 2.37 9.6615 4.42C11.0415 4.12 12.3715 3.68 13.7215 3.26C14.1718 3.05901 14.6647 2.97211 15.1565 3.007C15.6484 3.04188 16.1241 3.19747 16.5415 3.46C16.4715 5.31 14.7815 6.6 13.8415 8.08C14.4215 9.62 15.4115 11.01 15.7615 12.65C15.5515 13.08 15.2915 13.49 15.0515 13.9C13.2934 13.5988 11.6013 12.993 10.0515 12.11C9.4015 13.92 8.8015 16 7.0515 17.11C5.6415 15.31 6.3315 12.91 6.3415 10.83C4.4138 11.0157 2.49763 11.3061 0.601497 11.7C0.380168 11.5333 0.20898 11.3089 0.106679 11.0514C0.00437771 10.7938 -0.025092 10.5131 0.0214966 10.24C1.1815 8.45 3.2515 7.52 4.5115 5.83C4.58666 3.87952 4.46605 1.92642 4.1515 0V0Z" fill="#EACBBE"/>
</svg>
