<svg width="19" height="24" viewBox="0 0 19 24" fill="none" xmlns="http://www.w3.org/2000/svg">
<path d="M0.164751 12.5774C0.147732 10.3229 0.119724 8.06837 0.118464 5.81392C0.117923 4.71753 0.158715 3.61936 0.378521 2.54028C0.549611 1.69863 0.957163 1.00033 1.71257 0.574654C1.98651 0.420683 2.28715 0.322084 2.59792 0.28428C3.93805 0.126033 5.28683 0.0562032 6.63582 0.0751763C9.12257 0.123176 11.6097 0.0876955 14.0963 0.0325505C14.9814 0.0206849 15.8636 0.138886 16.7155 0.383487C16.8164 0.410968 16.9173 0.440747 17.0156 0.476655C18.1097 0.875312 18.6853 1.57496 18.6963 2.74839C18.6997 3.11233 18.7248 3.476 18.7395 3.83985C18.799 5.30028 18.8885 6.76025 18.9112 8.22132C18.9575 11.1919 18.995 14.1632 18.9793 17.1343C18.9729 18.349 18.8361 19.5645 18.7264 20.7766C18.6611 21.4989 18.3809 22.1585 18.0042 22.7725C17.8819 22.9713 17.7158 23.1385 17.519 23.2608C17.3224 23.383 17.1003 23.4571 16.8706 23.477C16.4529 23.5137 16.0366 23.5726 15.6183 23.594C14.0768 23.6731 12.532 23.7039 10.9936 23.8207C8.46135 24.0131 5.92967 23.8444 3.39808 23.8665C2.80295 23.8718 2.20153 23.8077 1.64639 23.5277C1.27202 23.3337 0.957091 23.0391 0.73583 22.6757C0.211574 21.8663 0.0287778 20.9692 0.0403039 20.0258C0.059484 18.4567 0.112343 16.8881 0.137106 15.3191C0.151604 14.4054 0.139717 13.4913 0.139717 12.5774H0.164751ZM17.5488 19.2919C17.5849 18.722 17.6511 18.1777 17.6485 17.6338C17.6305 13.7323 17.6132 9.83064 17.5604 5.92959C17.5545 4.93828 17.4394 3.9508 17.2173 2.98559C17.146 2.67267 16.9809 2.39 16.7449 2.17663C16.4604 1.89982 16.0937 1.72678 15.7022 1.68462C14.6434 1.58386 13.5837 1.47318 12.5219 1.42976C11.6701 1.39496 10.8147 1.45782 9.96073 1.46863C8.35636 1.48888 6.75136 1.48449 5.14762 1.52754C4.40022 1.54751 3.65282 1.63846 2.90948 1.72658C2.31976 1.79647 1.98677 2.19193 1.82369 2.74549C1.76649 2.935 1.73025 3.13038 1.71563 3.32806C1.64738 4.36171 1.54499 5.39576 1.53905 6.43014C1.52959 8.07542 1.61289 9.72109 1.60983 11.3666C1.60541 13.7439 1.5585 16.1208 1.53059 18.4986C1.52743 18.7683 1.53059 19.0382 1.53059 19.3483C2.06186 19.3674 2.55406 19.4061 3.04527 19.399C4.99435 19.371 6.94315 19.3087 8.89223 19.2964C11.7558 19.2785 14.6194 19.292 17.5488 19.292V19.2919ZM17.4028 20.3684C16.7725 20.3525 16.1761 20.3301 15.5793 20.324C13.81 20.3061 12.0406 20.292 10.2711 20.2818C8.80165 20.2744 7.33207 20.2888 5.86286 20.2727C4.67945 20.2597 3.49632 20.2183 2.31328 20.1825C2.05043 20.1746 1.78849 20.1367 1.49998 20.1103C1.45149 20.5625 1.49046 21.02 1.61469 21.4569C1.80064 22.0671 2.17632 22.4388 2.8442 22.4589C4.25272 22.5012 5.6608 22.5565 7.06887 22.6106C7.53306 22.6285 7.99635 22.6713 8.46063 22.681C9.0897 22.6942 9.71896 22.6954 10.3484 22.6847C10.8726 22.6749 11.3966 22.6105 11.92 22.6186C13.3915 22.6415 14.8544 22.5901 16.2936 22.2386C16.5862 22.1671 16.8809 22.1125 17.0493 21.808C17.2873 21.3674 17.4092 20.8715 17.4028 20.3687V20.3684Z" fill="#EABEE6"/>
<path d="M10.0865 21.378C10.044 21.6477 9.92939 21.9055 9.64863 22.0484C9.52823 22.1134 9.39145 22.1404 9.25593 22.1261C9.12032 22.1118 8.99194 22.0568 8.88713 21.9681C8.64473 21.7827 8.58998 21.5205 8.65184 21.2303C8.67329 21.1097 8.73316 20.9995 8.8222 20.9168C8.91124 20.8342 9.02451 20.7837 9.14454 20.7731C9.24773 20.759 9.35165 20.7462 9.45529 20.7393C9.8217 20.7152 10.0934 20.9779 10.0865 21.378Z" fill="#EABEE6"/>
</svg>
