<svg width="19" height="26" viewBox="0 0 19 26" fill="none" xmlns="http://www.w3.org/2000/svg">
<path d="M16.4599 15.2706C17.7192 13.7442 18.5285 11.9101 18.8005 9.96611C19.3354 6.10088 17.7226 3.04147 14.2592 1.35147C13.1899 0.82967 12.0254 0.549138 10.9245 0.306683C8.10461 -0.314357 5.52268 0.166888 3.24992 1.73651C1.40044 3.014 0.384275 4.57439 0.143428 6.50706C-0.03815 7.97932 0.0602337 9.47177 0.433609 10.909C1.18713 13.8429 2.53534 16.1487 4.55517 17.958C4.60548 18.0032 4.65646 18.0481 4.70752 18.0929C4.93239 18.2788 5.13958 18.4843 5.32662 18.7068C5.49783 18.9249 5.69508 19.2065 5.69983 19.449C5.71721 20.3592 5.66303 21.2563 5.60193 22.0895C5.56404 22.6054 5.50337 23.1294 5.44464 23.6363C5.40869 23.946 5.37284 24.2558 5.34164 24.5664C5.27212 25.256 5.51234 25.601 6.17075 25.7572C6.56135 25.8522 6.96207 25.9015 7.36453 25.9041H7.40152C8.73498 25.893 10.0896 25.8631 11.4004 25.8341L12.2749 25.815C13.1236 25.7968 13.4656 25.4942 13.5368 24.6986C13.6613 23.3049 13.7211 22.2347 13.7303 21.2285L13.7316 21.121C13.739 20.524 13.7472 19.8507 13.2158 19.275L14.2046 18.0544C14.9583 17.1236 15.7101 16.1958 16.4599 15.2706ZM12.2904 19.1051L10.8098 18.9955C10.8078 18.9838 10.8074 18.9718 10.8087 18.96C11.0269 18.1385 11.2474 17.3176 11.47 16.4974C11.9652 14.6627 12.4771 12.7656 12.9419 10.8897C13.3007 9.44255 13.3121 8.16006 12.9766 6.96924C12.8115 6.38329 12.498 5.95051 12.0698 5.71767C11.8635 5.61182 11.6375 5.54798 11.4054 5.53003C11.1733 5.51208 10.9398 5.54037 10.7192 5.61323C10.5433 5.67053 10.3739 5.74536 10.2136 5.83648L10.1478 5.87089C10.0441 5.9249 9.94797 5.98718 9.84616 6.05239L9.79013 6.08832C9.76217 6.05386 9.73483 6.01949 9.70763 5.98535C9.60812 5.85574 9.50188 5.73123 9.3893 5.6123C8.79091 5.00024 7.92986 4.94064 7.24619 5.46434C6.78348 5.83122 6.43278 6.31567 6.23247 6.86464C5.52753 8.63549 5.47518 10.4819 6.07692 12.3524C6.39182 13.3313 6.7254 14.3221 7.04851 15.28C7.17028 15.6415 7.29177 16.0031 7.41297 16.3646C7.67664 17.176 7.83087 18.0176 7.87177 18.868H6.74236C6.67943 18.0699 6.1378 17.5286 5.61411 17.0045C5.51695 16.9077 5.41981 16.8105 5.32557 16.7115C3.16281 14.4459 1.97595 12.0195 1.69743 9.29352C1.60146 8.35477 1.53043 7.35522 1.65922 6.40611C1.85353 4.974 2.68812 3.77443 4.21049 2.73866C6.06472 1.47713 8.12678 1.06969 10.3382 1.52765C11.5042 1.76895 12.637 2.02884 13.6791 2.55127C16.3773 3.90412 17.6111 6.25839 17.2468 9.35968C16.9957 11.4981 15.9902 13.3836 13.9865 15.4736C13.4604 16.0226 12.8728 16.6962 12.5038 17.5295C12.3122 17.9623 12.1257 18.473 12.2904 19.1051ZM12.3578 21.7566L12.296 22.6902H6.71311V21.591L12.3578 21.7566ZM12.1849 23.8839L12.1527 24.6013C10.4824 24.6738 8.55673 24.7351 6.65565 24.593C6.65188 24.5675 6.64802 24.5436 6.64489 24.5208C6.63118 24.4538 6.62416 24.3858 6.62402 24.3175C6.63147 24.1583 6.64726 23.9984 6.66377 23.8292C6.66766 23.7901 6.6715 23.7504 6.67531 23.7104L12.1849 23.8839ZM6.61616 19.7979L6.77541 19.8025C8.69635 19.8576 10.5124 19.9098 12.3693 20.0992L12.3963 20.5485C10.4943 20.6517 8.58778 20.6472 6.68632 20.535L6.61616 19.7979ZM8.05358 14.9846C7.98363 14.767 7.91324 14.5494 7.84663 14.3312C7.4839 13.1486 7.1351 11.9884 6.85485 10.7964C6.59436 9.6892 6.74691 8.51739 7.33332 7.10864C7.46277 6.82659 7.64788 6.57242 7.87805 6.36069C7.92071 6.31077 7.97364 6.27016 8.03339 6.24159C8.09313 6.21301 8.15834 6.19708 8.22478 6.19483C8.35066 6.20054 8.48116 6.28164 8.61254 6.43573C8.95141 6.83324 8.95869 6.93372 8.68244 7.41261C8.12043 8.38708 7.89151 9.32319 7.98273 10.2743C8.0041 10.5735 8.07544 10.8671 8.1939 11.1437C8.24153 11.283 8.32728 11.4069 8.44181 11.5018C8.55632 11.5967 8.69527 11.6591 8.84347 11.6821C8.99166 11.7052 9.14346 11.6879 9.28235 11.6323C9.42125 11.5767 9.54188 11.4849 9.6312 11.3668C9.83141 11.138 9.98834 10.876 10.0946 10.5933C10.4971 9.59062 10.5746 8.49104 10.3168 7.44372C10.2355 7.10065 10.4833 6.81248 10.997 6.65299C11.2056 6.5882 11.3695 6.58812 11.4838 6.65227C11.543 6.69289 11.593 6.74515 11.6305 6.80571C11.6681 6.86626 11.6922 6.93381 11.7015 7.00402C11.8311 7.5626 11.9914 8.25774 11.9105 8.88217C11.7702 9.96201 11.5313 11.0504 11.2999 12.1029C11.2568 12.3008 11.2137 12.4987 11.1705 12.6964C11.0319 13.3364 10.8804 13.9853 10.7339 14.6128C10.5373 15.4556 10.3344 16.3271 10.1585 17.1898C10.0841 17.613 10.0427 18.0409 10.0344 18.4702C10.0265 18.6424 10.0183 18.819 10.0063 18.9999L8.69028 18.9207C8.86938 17.5213 8.45505 16.2322 8.05389 14.9846H8.05358ZM9.16886 9.5369L9.24509 9.0777C9.24479 9.23375 9.21916 9.38872 9.16918 9.5369H9.16886Z" fill="#BEEAC8"/>
</svg>
