<svg width="28" height="49" viewBox="0 0 28 49" fill="none" xmlns="http://www.w3.org/2000/svg">
<path d="M27.1005 32.907C26.8127 29.5284 25.9291 26.2275 24.4905 23.1569C23.0005 19.577 21.0005 15.997 17.7205 13.677C18.612 12.4791 19.2119 11.0897 19.4722 9.61936C19.7326 8.14899 19.6464 6.63816 19.2205 5.20695C18.7099 3.85217 17.8413 2.66135 16.7071 1.76144C15.573 0.861521 14.2159 0.28625 12.7805 0.0969506C10.2788 -0.242897 7.73768 0.317067 5.61051 1.67695C4.45472 2.4194 3.49021 3.42384 2.79523 4.60878C2.10025 5.79372 1.69436 7.1258 1.61051 8.49695C1.61759 9.79972 1.89396 11.087 2.42228 12.2778C2.95059 13.4687 3.71943 14.5374 4.68051 15.417C3.87038 16.0191 3.2409 16.8319 2.86051 17.767C0.480508 23.507 0.000508148 29.787 0.0605081 35.927C0.130508 39.357 -0.289492 42.847 0.420508 46.237C0.650508 47.347 1.42051 48.557 2.75051 48.307C7.18051 48.127 11.6305 48.567 16.0305 47.917C19.4605 47.5569 22.9005 47.317 26.2905 46.677C26.6415 45.8838 26.8643 45.04 26.9505 44.177C27.3154 40.4311 27.3655 36.6612 27.1005 32.907ZM14.6805 2.76695C14.3405 4.31695 15.0905 6.54695 13.4605 7.50695C11.8905 7.07695 11.5605 4.50695 9.70051 4.89695C9.38078 6.23141 8.92159 7.52855 8.33051 8.76695C7.85051 8.89695 7.66051 8.42695 7.46051 8.09695C6.89316 6.7456 6.51622 5.322 6.34051 3.86695C7.53178 3.00932 8.91689 2.46001 10.3722 2.26806C11.8274 2.07612 13.3076 2.24752 14.6805 2.76695ZM3.83051 7.09695C4.213 6.15422 4.78479 5.29995 5.51051 4.58695C5.82051 6.27695 6.00051 8.12695 7.17051 9.47695C7.34239 9.72745 7.59541 9.91099 7.88689 9.99661C8.17837 10.0822 8.49046 10.0647 8.77051 9.94695C9.53222 8.75529 10.0773 7.43836 10.3805 6.05695C11.1705 7.05695 11.8605 8.36695 13.1605 8.81695C13.6126 8.88233 14.0734 8.791 14.4664 8.55813C14.8594 8.32526 15.1608 7.96489 15.3205 7.53695C15.8931 6.19905 16.0193 4.71224 15.6805 3.29695C16.7686 4.09277 17.5407 5.24734 17.8605 6.55695C18.8605 11.427 14.1005 16.377 9.21051 15.647C8.26407 15.5005 7.3601 15.1526 6.55972 14.6267C5.75934 14.1008 5.08121 13.4091 4.57116 12.5986C4.06111 11.788 3.73104 10.8773 3.60326 9.9282C3.47548 8.97907 3.55298 8.01356 3.83051 7.09695ZM11.3405 24.7969L13.4405 24.6369C13.9005 26.2369 14.3105 27.867 14.6905 29.497C15.2705 31.997 16.3605 34.3969 16.4305 37.007C15.6505 38.4469 14.4905 39.667 13.8405 41.207C12.5905 39.947 11.2905 38.737 10.1405 37.377C10.6705 33.197 11.0005 28.9969 11.3405 24.7969ZM8.50051 20.997C7.58051 19.427 6.85051 17.757 5.88051 16.2269C7.36645 16.9411 8.98312 17.3427 10.6305 17.4069C9.87051 18.607 9.20051 19.827 8.50051 20.997ZM11.7105 17.997C12.3088 18.7221 12.8472 19.4946 13.3205 20.3069C13.4756 21.434 13.2838 22.5816 12.7705 23.597C12.2305 23.417 11.5105 23.517 11.1005 23.077C10.8005 21.327 10.4605 19.367 11.7105 17.997ZM12.6005 17.2269C14.135 16.6656 15.5877 15.9022 16.9205 14.957C17.1305 16.957 16.1505 18.857 15.4705 20.687C14.426 19.5916 13.4666 18.4182 12.6005 17.177V17.2269ZM25.3305 45.267C21.2605 46.007 17.1205 46.267 13.0105 46.807C9.40923 46.9555 5.80219 46.8787 2.21051 46.577C1.79412 44.2374 1.60657 41.8629 1.65051 39.487C1.85051 34.267 1.37051 28.9669 2.65051 23.837C3.27051 21.4069 3.65051 18.7669 5.18051 16.7169C6.18051 18.3469 6.78051 20.1469 7.72051 21.7969C7.97278 22.2146 8.34589 22.5459 8.79051 22.747L9.61051 21.6469C9.76051 22.9669 10.3405 24.257 10.1005 25.6469C9.71051 29.087 9.34051 32.527 8.86051 35.957C8.86051 36.617 8.58051 37.3769 9.00051 37.957C9.86414 39.1038 10.8499 40.1533 11.9405 41.087C12.7405 41.857 13.2505 42.887 14.1205 43.597C14.9705 42.1969 15.5505 40.597 16.5205 39.307C17.0833 38.658 17.4324 37.8514 17.5205 36.997C17.5205 34.147 16.2705 31.507 15.7005 28.747C15.3414 26.8221 14.8502 24.9243 14.2305 23.0669C14.2305 22.5269 14.3305 21.987 14.3805 21.447L15.6805 22.337C17.1305 20.687 17.5005 18.457 18.1305 16.417C20.3932 18.5493 22.1407 21.1688 23.2405 24.077C26.3705 30.6569 26.0005 38.187 25.3305 45.267Z" fill="#BEEACD"/>
<path d="M12.7706 23.5468C12.2306 23.3668 11.5106 23.4668 11.1006 23.0268C10.8006 21.3268 10.4606 19.3668 11.7106 17.9468C12.3089 18.6719 12.8474 19.4445 13.3206 20.2568C13.4757 21.3839 13.2839 22.5314 12.7706 23.5468Z" fill="#BEEACD"/>
<path d="M16.4306 36.997C15.6506 38.437 14.4906 39.657 13.8406 41.197C12.5906 39.937 11.2906 38.727 10.1406 37.367C10.6706 33.187 10.9806 28.987 11.3406 24.787L13.4406 24.627C13.9006 26.227 14.3106 27.857 14.6906 29.487C15.2706 31.997 16.3606 34.397 16.4306 36.997Z" fill="#BEEACD"/>
<path d="M14.6806 2.76711C14.3406 4.31711 15.0906 6.54711 13.4606 7.50711C11.8906 7.07711 11.5606 4.50711 9.70058 4.89711C9.38085 6.23158 8.92166 7.52871 8.33058 8.76711C7.85058 8.89711 7.66058 8.42711 7.46058 8.09711C6.89323 6.74576 6.51629 5.32216 6.34058 3.86711C7.53185 3.00948 8.91696 2.46017 10.3722 2.26823C11.8275 2.07628 13.3077 2.24768 14.6806 2.76711Z" fill="#BEEACD"/>
<path d="M2.9104 29.9968C3.12899 28.0127 3.84816 26.1167 5.0004 24.4868C5.0904 26.4868 3.8104 28.2568 2.9104 29.9968Z" fill="#BEEACD"/>
<path d="M3.58057 33.897C3.70778 31.5232 4.43737 29.2209 5.70057 27.207C5.15057 29.477 4.19057 31.637 3.58057 33.897Z" fill="#BEEACD"/>
<path d="M5.52044 31.4868C5.61083 31.0771 5.82773 30.7063 6.14044 30.4268C5.50044 32.7268 5.03044 35.0768 4.45044 37.4268C4.53252 35.407 4.89257 33.4082 5.52044 31.4868Z" fill="#BEEACD"/>
</svg>
