<svg width="30" height="31" viewBox="0 0 30 31" fill="none" xmlns="http://www.w3.org/2000/svg">
<mask id="mask0_848_1226" style="mask-type:alpha" maskUnits="userSpaceOnUse" x="5" y="6" width="20" height="19">
<path d="M6.51099 16.7501H20.4735L14.3735 22.8501C13.886 23.3376 13.886 24.1376 14.3735 24.6251C14.861 25.1126 15.6485 25.1126 16.136 24.6251L24.3735 16.3876C24.861 15.9001 24.861 15.1126 24.3735 14.6251L16.1485 6.37513C15.9149 6.14106 15.5979 6.00952 15.2672 6.00952C14.9366 6.00952 14.6195 6.14106 14.386 6.37513C13.8985 6.86263 13.8985 7.65013 14.386 8.13763L20.4735 14.2501L6.51099 14.2501C5.82349 14.2501 5.26099 14.8126 5.26099 15.5001C5.26099 16.1876 5.82349 16.7501 6.51099 16.7501Z" fill="black"/>
</mask>
<g mask="url(#mask0_848_1226)">
<rect y="0.5" width="30" height="30" fill="#FFFFFF"/>
</g>
</svg>
