<svg width="284" height="80" viewBox="0 0 284 80" fill="none" xmlns="http://www.w3.org/2000/svg">
<path d="M5.86652 18.8182H20.1194L29.9233 42.7102H30.4177L40.2216 18.8182H54.4745V61H43.2699V36.6136H42.9404L33.5483 60.6705H26.7927L17.4006 36.4489H17.0711V61H5.86652V18.8182ZM95.2224 34.6364H83.6059C83.5235 33.6752 83.3038 32.8033 82.9468 32.0206C82.6035 31.2379 82.1229 30.5651 81.505 30.0021C80.9009 29.4254 80.1662 28.986 79.3012 28.6839C78.4361 28.3681 77.4544 28.2102 76.3559 28.2102C74.4335 28.2102 72.8064 28.6771 71.4745 29.6108C70.1563 30.5445 69.1539 31.8833 68.4674 33.6271C67.7946 35.371 67.4581 37.465 67.4581 39.9091C67.4581 42.4905 67.8014 44.6532 68.488 46.397C69.1883 48.1271 70.1975 49.4316 71.5157 50.3104C72.8339 51.1754 74.4198 51.608 76.2735 51.608C77.3308 51.608 78.2782 51.4775 79.1158 51.2166C79.9534 50.942 80.6812 50.5507 81.2991 50.0426C81.917 49.5346 82.4181 48.9235 82.8026 48.2095C83.2008 47.4818 83.4686 46.6648 83.6059 45.7585L95.2224 45.8409C95.085 47.6259 94.5839 49.4453 93.7188 51.299C92.8537 53.139 91.6248 54.8416 90.032 56.407C88.4529 57.9586 86.4963 59.2081 84.162 60.1555C81.8277 61.103 79.1158 61.5767 76.0263 61.5767C72.1542 61.5767 68.6802 60.746 65.6045 59.0845C62.5424 57.4231 60.1189 54.9789 58.3339 51.7521C56.5626 48.5253 55.6769 44.5777 55.6769 39.9091C55.6769 35.2131 56.5831 31.2585 58.3956 28.0455C60.2081 24.8187 62.6523 22.3814 65.728 20.7337C68.8038 19.0722 72.2366 18.2415 76.0263 18.2415C78.6902 18.2415 81.1412 18.6053 83.3793 19.3331C85.6175 20.0608 87.581 21.125 89.2699 22.5256C90.9589 23.9124 92.3182 25.6219 93.3481 27.6541C94.3779 29.6863 95.0027 32.0137 95.2224 34.6364ZM96.3578 61V18.8182H107.81V51.7727H124.864V61H96.3578ZM146.359 35.625V44.1932H126.586V35.625H146.359ZM159.857 61H147.499L161.423 18.8182H177.076L190.999 61H178.641L169.414 30.4347H169.085L159.857 61ZM157.551 44.358H180.783V52.9261H157.551V44.358ZM228.4 34.6364H216.784C216.701 33.6752 216.482 32.8033 216.125 32.0206C215.781 31.2379 215.301 30.5651 214.683 30.0021C214.079 29.4254 213.344 28.986 212.479 28.6839C211.614 28.3681 210.632 28.2102 209.534 28.2102C207.611 28.2102 205.984 28.6771 204.652 29.6108C203.334 30.5445 202.332 31.8833 201.645 33.6271C200.973 35.371 200.636 37.465 200.636 39.9091C200.636 42.4905 200.979 44.6532 201.666 46.397C202.366 48.1271 203.375 49.4316 204.694 50.3104C206.012 51.1754 207.598 51.608 209.451 51.608C210.509 51.608 211.456 51.4775 212.294 51.2166C213.131 50.942 213.859 50.5507 214.477 50.0426C215.095 49.5346 215.596 48.9235 215.981 48.2095C216.379 47.4818 216.647 46.6648 216.784 45.7585L228.4 45.8409C228.263 47.6259 227.762 49.4453 226.897 51.299C226.032 53.139 224.803 54.8416 223.21 56.407C221.631 57.9586 219.674 59.2081 217.34 60.1555C215.006 61.103 212.294 61.5767 209.204 61.5767C205.332 61.5767 201.858 60.746 198.782 59.0845C195.72 57.4231 193.297 54.9789 191.512 51.7521C189.741 48.5253 188.855 44.5777 188.855 39.9091C188.855 35.2131 189.761 31.2585 191.574 28.0455C193.386 24.8187 195.83 22.3814 198.906 20.7337C201.982 19.0722 205.415 18.2415 209.204 18.2415C211.868 18.2415 214.319 18.6053 216.557 19.3331C218.795 20.0608 220.759 21.125 222.448 22.5256C224.137 23.9124 225.496 25.6219 226.526 27.6541C227.556 29.6863 228.181 32.0137 228.4 34.6364ZM229.536 18.8182H243.789L253.593 42.7102H254.087L263.891 18.8182H278.144V61H266.939V36.6136H266.61L257.218 60.6705H250.462L241.07 36.4489H240.74V61H229.536V18.8182Z" fill="white"/>
</svg>
