<svg width="150" height="90" viewBox="0 0 150 90" fill="none" xmlns="http://www.w3.org/2000/svg">
<path d="M38.0473 73.6623C38.1583 73.6519 38.3077 73.6201 38.4164 73.6364C43.828 74.3128 49.095 74.0739 54.3369 73.696C56.7732 73.5199 59.1778 73.285 61.5824 73.05C61.768 73.0237 61.9537 72.9974 62.1481 72.8641C61.711 72.8256 61.2761 72.7604 60.8389 72.7219C51.5633 71.7368 42.5056 69.8908 33.753 66.5745C33.3269 66.4023 32.858 66.3049 32.3868 66.2342C27.0402 65.2157 21.7949 63.8604 16.8378 61.6819C14.1836 60.4987 11.7305 59.1019 9.63671 57.3529C5.6985 53.9465 4.13304 50.2462 4.90628 46.2198C5.36784 43.7441 6.61353 41.5484 8.21281 39.5141C9.31967 38.1098 10.6374 36.8183 12.0594 35.5967C12.2967 35.3886 12.5726 35.1593 12.7034 34.9081C14.7289 30.8259 18.0852 27.5119 22.2827 24.676C27.179 21.3763 32.8855 18.9292 39.0596 17.0396C48.6196 14.1416 58.7961 12.6628 69.4707 12.2604C75.7275 12.0347 82.0619 12.1996 88.3973 12.7979C97.1359 13.6213 105.742 15.1558 114.185 17.776C120.553 19.7599 126.584 22.2619 132.028 25.6505C135.45 27.7611 138.444 30.1595 140.855 32.9578C143.431 35.9704 145.038 39.1626 145.344 42.5656C145.493 44.3206 145.279 46.0213 144.632 47.63C143.803 49.6715 142.792 51.6859 141.324 53.4691C139.164 56.0692 136.278 58.1272 132.98 59.8525C128.684 62.1051 123.925 63.7467 118.868 64.9918C111.638 66.7772 104.148 68.1716 96.6293 69.4535C88.4025 70.8728 80.0846 72.0619 71.6779 72.994C64.752 73.7691 57.8009 74.4051 50.7061 74.5593C46.8451 74.657 42.9293 74.5299 39.0171 73.9161C38.6909 73.8671 38.4009 73.8236 38.0747 73.7747C38.0407 73.7425 38.0451 73.689 38.0473 73.6623ZM53.0876 66.1715C55.3799 66.407 59.2735 66.8015 63.2079 67.148C64.5556 67.2689 65.9461 67.315 67.2709 67.2701C71.3582 67.098 75.3522 66.7224 79.3189 66.2344C87.7728 65.174 95.9426 63.5566 103.601 61.0232C109.035 59.2121 114.096 57.0202 118.486 54.0777C121.284 52.196 123.737 50.046 125.382 47.4501C126.775 45.2494 127.486 42.8652 127.08 40.2322C126.646 37.4869 125.092 34.9796 122.712 32.7003C120.334 30.3943 117.443 28.5257 114.235 26.9345C108.809 24.2254 102.971 22.4835 96.911 21.2225C90.7419 19.9452 84.5922 19.3206 78.4093 19.0972C70.2493 18.8208 62.3196 19.31 54.6201 20.5648C46.0286 21.9565 37.953 24.2107 30.6994 27.617C26.5771 29.5437 22.8676 31.803 19.8433 34.6524C17.0673 37.1601 15.1073 40.0067 14.6024 43.4506C14.1647 46.5256 15.0176 49.5234 17.3492 52.391C19.0813 54.5189 21.397 56.247 23.9862 57.7725C27.6274 59.8889 31.6457 61.4392 35.8377 62.6636C40.961 64.1631 46.1626 65.1599 53.0876 66.1715ZM87.8339 18.7239C87.8295 18.7774 87.8635 18.8095 87.8591 18.863C88.5478 18.9663 89.2364 19.0696 89.9251 19.1729C94.2064 19.7609 98.4316 20.5842 102.592 21.7497C107.364 23.061 111.955 24.7786 116.208 27.0409C119.511 28.8088 122.462 30.8487 124.747 33.3846C128.109 37.1106 129.185 40.9541 127.975 44.942C127.178 47.4758 125.604 49.6493 123.57 51.6184C120.939 54.1478 117.723 56.2104 114.198 58.0101C109.488 60.3901 104.348 62.1912 98.9435 63.6548C92.4135 65.4098 85.5994 66.6078 78.5988 67.3988C78.2659 67.4301 77.9309 67.4882 77.5981 67.5195C77.8451 67.6378 78.0264 67.665 78.2482 67.6441C81.8511 67.5618 85.4858 67.5384 89.059 67.3704C97.7543 66.9419 106.236 65.994 114.385 64.1839C120.365 62.8609 126.016 61.0823 131.073 58.5106C134.251 56.9026 137.087 54.9996 139.404 52.7209C141.282 50.8638 142.306 48.689 142.543 46.2608C142.884 43.0358 141.67 39.9569 139.271 37.025C137.007 34.2217 133.97 31.8981 130.542 29.8677C124.874 26.5267 118.605 24.2328 111.994 22.5372C106.676 21.171 101.329 20.1525 95.9112 19.5564C93.2225 19.2343 90.5271 18.9925 87.8339 18.7239ZM143.629 41.1171C143.666 41.1226 143.704 41.1013 143.704 41.1013C143.677 40.9889 143.685 40.8819 143.656 40.7962C143.212 38.6179 142.175 36.513 140.69 34.5034C138.31 31.3307 135.155 28.6644 131.423 26.3177C127.237 23.6864 122.676 21.5945 117.829 19.8657C107.955 16.3541 97.8011 14.4521 87.4567 13.5232C82.0659 13.0395 76.7573 12.8931 71.4266 13.014C60.7993 13.2881 50.6338 14.6333 41.0849 17.3975C34.6571 19.2491 28.7649 21.7225 23.6445 25.0698C20.4646 27.1378 17.7382 29.4904 15.6716 32.294C15.5496 32.4381 15.4617 32.6144 15.3374 32.7853C15.5571 32.7912 15.6725 32.7273 15.7879 32.6634C20.5281 29.4757 25.8788 26.894 31.7356 24.8484C49.0048 18.802 67.8285 16.5896 87.952 17.7398C95.2925 18.164 102.584 19.1765 109.821 20.8576C115.401 22.1548 120.801 23.8582 125.933 26.1441C129.897 27.9029 133.543 29.9659 136.741 32.5574C139.733 34.9826 142.08 37.663 143.366 40.7527C143.5 40.9082 143.566 40.9993 143.629 41.1171ZM11.3419 38.0611C11.021 38.392 10.7836 38.6001 10.5803 38.8403C8.40192 41.221 6.68593 43.7794 6.17793 46.8167C5.66994 49.854 6.63827 52.7879 9.273 55.5386C11.0976 57.4367 13.3969 58.9187 15.9698 60.198C19.352 61.8966 22.9959 63.0929 26.7344 64.0327C27.3461 64.1786 27.9216 64.3191 28.5334 64.465C15.6229 57.7364 9.28519 49.1779 11.3419 38.0611ZM39.5973 67.3428C39.5951 67.3696 39.5544 67.4176 39.5522 67.4444C39.695 67.4928 39.8718 67.5735 40.0145 67.622C43.0578 68.5387 46.1143 69.295 49.2158 69.9497C54.7348 71.1024 60.3165 71.9396 65.8929 72.397C66.475 72.4572 67.0616 72.464 67.6185 72.3851C76.3306 71.3093 84.9517 70.0033 93.4751 68.5472C93.6608 68.5209 93.8508 68.4411 94.0365 68.4148C93.64 68.3283 93.2731 68.3274 92.9041 68.3533C86.2288 68.7599 79.5393 68.8936 72.7314 68.6847C69.0716 68.569 65.4139 68.4265 61.7748 68.5033C55.6697 68.6706 49.5253 68.4258 43.3416 67.7691C42.1092 67.5842 40.8363 67.4474 39.5973 67.3428ZM27.1359 28.1113C27.1381 28.0846 27.104 28.0524 27.1062 28.0257C26.3822 28.3503 25.6582 28.6749 24.9704 29.0049C21.036 30.8785 17.3716 33.0363 14.1541 35.5589C13.8398 35.8096 13.5189 36.1405 13.3814 36.4718C12.419 38.7913 11.9619 41.2135 12.2274 43.7712C12.7386 49.1274 15.5722 53.9113 20.6897 58.1444C24.0197 60.9181 27.9553 63.0246 32.2096 64.8269C33.4494 65.3648 34.7432 65.6942 36.0842 65.8954C41.7044 66.7113 47.3533 67.1795 52.9518 67.3695C53.7943 67.3875 54.6368 67.4056 55.4815 67.3969C46.6718 66.1026 45.3329 65.8747 39.2858 64.4533C35.3276 63.5076 31.5025 62.2841 27.8214 60.649C24.0701 58.9763 20.6398 56.9727 17.9237 54.3182C15.1396 51.5993 13.5869 48.6319 13.3766 45.4056C13.1924 42.7518 13.9439 40.3195 15.3434 38.0386C17.1673 35.0633 19.8981 32.6572 23.0825 30.5357C24.4351 29.7097 25.7833 28.9373 27.1359 28.1113Z" fill="white" fillOpacity="0.14"/>
</svg>
