<svg width="260" height="44" viewBox="0 0 260 44" fill="none" xmlns="http://www.w3.org/2000/svg">
<path d="M1.8175 10.7273H9.68114L15.0902 23.9091H15.363L20.7721 10.7273H28.6357V34H22.4539V20.5455H22.2721L17.0902 33.8182H13.363L8.18114 20.4545H7.99932V34H1.8175V10.7273ZM31.47 34V10.7273H48.2427V15.8182H37.7882V19.8182H47.3791V24.9091H37.7882V28.9091H48.1973V34H31.47ZM63.7617 18C63.7011 17.2424 63.417 16.6515 62.9094 16.2273C62.4094 15.803 61.6481 15.5909 60.6253 15.5909C59.9738 15.5909 59.4397 15.6705 59.0231 15.8295C58.614 15.9811 58.311 16.1894 58.114 16.4545C57.917 16.7197 57.8147 17.0227 57.8072 17.3636C57.792 17.6439 57.8413 17.8977 57.9549 18.125C58.0761 18.3447 58.2655 18.5455 58.5231 18.7273C58.7806 18.9015 59.1102 19.0606 59.5117 19.2045C59.9132 19.3485 60.3905 19.4773 60.9435 19.5909L62.8526 20C64.1405 20.2727 65.2428 20.6326 66.1594 21.0795C67.0761 21.5265 67.8261 22.053 68.4094 22.6591C68.9928 23.2576 69.4208 23.9318 69.6935 24.6818C69.9738 25.4318 70.1178 26.25 70.1253 27.1364C70.1178 28.6667 69.7352 29.9621 68.9776 31.0227C68.22 32.0833 67.1367 32.8902 65.7276 33.4432C64.3261 33.9962 62.6405 34.2727 60.6708 34.2727C58.6481 34.2727 56.8829 33.9735 55.3753 33.375C53.8753 32.7765 52.7087 31.8561 51.8753 30.6136C51.0496 29.3636 50.6329 27.7652 50.6253 25.8182H56.6253C56.6632 26.5303 56.8413 27.1288 57.1594 27.6136C57.4776 28.0985 57.9246 28.4659 58.5003 28.7159C59.0837 28.9659 59.7769 29.0909 60.5799 29.0909C61.2541 29.0909 61.8185 29.0076 62.2731 28.8409C62.7276 28.6742 63.0723 28.4432 63.3072 28.1477C63.542 27.8523 63.6632 27.5152 63.6708 27.1364C63.6632 26.7803 63.5458 26.4697 63.3185 26.2045C63.0988 25.9318 62.7352 25.6894 62.2276 25.4773C61.72 25.2576 61.0344 25.053 60.1708 24.8636L57.8526 24.3636C55.792 23.9167 54.167 23.1705 52.9776 22.125C51.7958 21.072 51.2087 19.6364 51.2163 17.8182C51.2087 16.3409 51.6026 15.0492 52.3981 13.9432C53.2011 12.8295 54.311 11.9621 55.7276 11.3409C57.1519 10.7197 58.7844 10.4091 60.6253 10.4091C62.5041 10.4091 64.1291 10.7235 65.5003 11.3523C66.8716 11.9811 67.9284 12.8674 68.6708 14.0114C69.4208 15.1477 69.7996 16.4773 69.8072 18H63.7617ZM84.9142 18C84.8536 17.2424 84.5695 16.6515 84.0619 16.2273C83.5619 15.803 82.8006 15.5909 81.7778 15.5909C81.1263 15.5909 80.5922 15.6705 80.1756 15.8295C79.7665 15.9811 79.4634 16.1894 79.2665 16.4545C79.0695 16.7197 78.9672 17.0227 78.9597 17.3636C78.9445 17.6439 78.9938 17.8977 79.1074 18.125C79.2286 18.3447 79.418 18.5455 79.6756 18.7273C79.9331 18.9015 80.2627 19.0606 80.6642 19.2045C81.0657 19.3485 81.543 19.4773 82.096 19.5909L84.0051 20C85.293 20.2727 86.3953 20.6326 87.3119 21.0795C88.2286 21.5265 88.9786 22.053 89.5619 22.6591C90.1453 23.2576 90.5733 23.9318 90.846 24.6818C91.1263 25.4318 91.2703 26.25 91.2778 27.1364C91.2703 28.6667 90.8877 29.9621 90.1301 31.0227C89.3725 32.0833 88.2892 32.8902 86.8801 33.4432C85.4786 33.9962 83.793 34.2727 81.8233 34.2727C79.8006 34.2727 78.0354 33.9735 76.5278 33.375C75.0278 32.7765 73.8612 31.8561 73.0278 30.6136C72.2021 29.3636 71.7854 27.7652 71.7778 25.8182H77.7778C77.8157 26.5303 77.9938 27.1288 78.3119 27.6136C78.6301 28.0985 79.0771 28.4659 79.6528 28.7159C80.2362 28.9659 80.9294 29.0909 81.7324 29.0909C82.4066 29.0909 82.971 29.0076 83.4256 28.8409C83.8801 28.6742 84.2248 28.4432 84.4597 28.1477C84.6945 27.8523 84.8157 27.5152 84.8233 27.1364C84.8157 26.7803 84.6983 26.4697 84.471 26.2045C84.2513 25.9318 83.8877 25.6894 83.3801 25.4773C82.8725 25.2576 82.1869 25.053 81.3233 24.8636L79.0051 24.3636C76.9445 23.9167 75.3195 23.1705 74.1301 22.125C72.9483 21.072 72.3612 19.6364 72.3688 17.8182C72.3612 16.3409 72.7551 15.0492 73.5506 13.9432C74.3536 12.8295 75.4634 11.9621 76.8801 11.3409C78.3044 10.7197 79.9369 10.4091 81.7778 10.4091C83.6566 10.4091 85.2816 10.7235 86.6528 11.3523C88.0241 11.9811 89.0809 12.8674 89.8233 14.0114C90.5733 15.1477 90.9521 16.4773 90.9597 18H84.9142ZM98.6605 34H91.8423L99.5241 10.7273H108.16L115.842 34H109.024L103.933 17.1364H103.751L98.6605 34ZM97.3877 24.8182H110.206V29.5455H97.3877V24.8182ZM131.944 18.4091C131.845 18.0076 131.69 17.6553 131.478 17.3523C131.266 17.0417 131 16.7803 130.682 16.5682C130.372 16.3485 130.008 16.1856 129.591 16.0795C129.182 15.9659 128.732 15.9091 128.239 15.9091C127.178 15.9091 126.273 16.1629 125.523 16.6705C124.781 17.178 124.213 17.9091 123.819 18.8636C123.432 19.8182 123.239 20.9697 123.239 22.3182C123.239 23.6818 123.425 24.8485 123.796 25.8182C124.167 26.7879 124.72 27.5303 125.455 28.0455C126.19 28.5606 127.103 28.8182 128.194 28.8182C129.156 28.8182 129.955 28.678 130.591 28.3977C131.235 28.1174 131.716 27.7197 132.035 27.2045C132.353 26.6894 132.512 26.0833 132.512 25.3864L133.603 25.5H128.285V21H138.603V24.2273C138.603 26.3485 138.152 28.1629 137.25 29.6705C136.357 31.1705 135.122 32.322 133.546 33.125C131.978 33.9205 130.178 34.3182 128.148 34.3182C125.883 34.3182 123.894 33.8371 122.182 32.875C120.47 31.9129 119.133 30.5417 118.171 28.7614C117.216 26.9811 116.739 24.8636 116.739 22.4091C116.739 20.4848 117.031 18.7803 117.614 17.2955C118.205 15.8106 119.023 14.5568 120.069 13.5341C121.114 12.5038 122.322 11.7273 123.694 11.2045C125.065 10.6742 126.535 10.4091 128.103 10.4091C129.482 10.4091 130.762 10.6061 131.944 11C133.133 11.3864 134.182 11.9394 135.091 12.6591C136.008 13.3712 136.747 14.2159 137.307 15.1932C137.868 16.1705 138.209 17.2424 138.33 18.4091H131.944ZM141.389 34V10.7273H158.161V15.8182H147.707V19.8182H157.298V24.9091H147.707V28.9091H158.116V34H141.389ZM173.259 34L166.395 10.7273H173.441L176.623 25.0455H176.805L180.577 10.7273H186.123L189.895 25.0909H190.077L193.259 10.7273H200.305L193.441 34H187.395L183.441 21H183.259L179.305 34H173.259ZM205.517 34H198.699L206.38 10.7273H215.017L222.699 34H215.88L210.789 17.1364H210.608L205.517 34ZM204.244 24.8182H217.062V29.5455H204.244V24.8182ZM224.78 34V10.7273H231.098V28.9091H240.507V34H224.78ZM242.901 34V10.7273H249.219V28.9091H258.629V34H242.901Z" fill="white"/>
</svg>
