<svg width="14" height="13" viewBox="0 0 14 13" fill="none" xmlns="http://www.w3.org/2000/svg">
<path d="M7.18377 11.2447C7.18984 11.1057 7.19142 11.0281 7.20909 10.9535C7.23573 10.7559 7.24628 10.5554 7.27292 10.3579C7.2906 10.2832 7.32436 10.2115 7.36762 10.1492C7.41747 10.0804 7.5148 10.059 7.62004 10.1247C7.73478 10.1999 7.76828 10.2993 7.76301 10.3995C7.75879 10.7646 7.77356 11.1487 7.76934 11.5137C7.77277 11.6622 7.76011 11.8078 7.73796 11.9439C7.68389 12.3778 7.41748 12.4543 6.96881 12.1243C6.34842 11.6622 5.74491 11.1642 5.14431 10.6823C5.02666 10.591 4.923 10.4478 4.83833 10.3236C4.75656 10.2154 4.72966 10.1094 4.83147 10.0266C5.12901 10.1658 5.42285 10.3278 5.7093 10.5351C5.97676 10.7235 6.25372 10.9213 6.54756 11.0832C6.46658 10.9363 6.37611 10.7799 6.30173 10.6264C6.07198 10.1724 5.82615 9.71559 5.63517 9.26085C5.22184 8.30679 5.29543 7.54951 5.78868 6.96131C6.05983 6.65217 6.40695 6.419 6.76647 6.21141C6.92025 6.11461 7.07402 6.01781 7.2278 5.92101C7.58811 5.67465 7.7862 5.30564 7.86664 4.84536C7.998 4.10628 7.86901 3.30468 7.47599 2.46326C7.19745 1.86819 6.85085 1.2842 6.46179 0.723691C6.40851 0.644032 6.33544 0.584156 6.28216 0.504497C6.24787 0.443831 6.19828 0.341488 6.21516 0.305615C6.23864 0.263148 6.32357 0.216199 6.39083 0.243894C6.48078 0.267898 6.58892 0.349666 6.66489 0.425632C6.80733 0.568068 6.92998 0.730287 7.05263 0.892506C7.73738 1.84102 8.27284 2.82489 8.42636 3.84884C8.54295 4.62485 8.48993 5.32357 8.18106 5.89833C7.98957 6.26075 7.65564 6.48073 7.31221 6.69121C7.10278 6.82468 6.87435 6.93916 6.67442 7.08212C6.50376 7.21479 6.36159 7.37595 6.22891 7.54661C5.99653 7.85496 5.95275 8.25958 6.08516 8.73489C6.13897 8.94696 6.21547 9.15534 6.30805 9.36662C6.55521 9.91711 6.81845 10.4705 7.0656 11.021C7.0838 11.0788 7.12469 11.1328 7.18377 11.2447Z" fill="white"/>
</svg>
