<svg width="117" height="102" viewBox="0 0 117 102" fill="none" xmlns="http://www.w3.org/2000/svg">
<path d="M8.84956 0L10.41 6.70173L17.266 6.11489L11.3745 9.66996L14.0512 16.009L8.84956 11.5044L3.64792 16.009L6.32463 9.66996L0.433128 6.11489L7.28907 6.70173L8.84956 0Z" fill="white" fill-opacity="0.9"/>
<path fill-rule="evenodd" clip-rule="evenodd" d="M97.153 72.9991L92.5761 56L87.9991 72.9991L71 77.5761L87.9991 82.153L92.5761 99.1521L93.3644 96.2242L93.5894 97.06L94.2839 96.873L93.7368 94.8411L97.153 82.153L109.841 78.7368L111.873 79.2839L112.06 78.5894L111.224 78.3644L114.152 77.5761L97.153 72.9991ZM111.224 78.3644L109.227 77.8266L109.04 78.5211L109.841 78.7368L111.224 78.3644ZM93.7368 94.8411L93.5211 94.0398L92.8266 94.2268L93.3644 96.2242L93.7368 94.8411ZM95.1151 59.5742L95.0957 59.5794L95.0467 59.7612L94.7337 59.6769L94.4206 59.7612L94.3717 59.5794L94.3523 59.5742L94.7337 58.1576L95.1151 59.5742ZM95.8779 62.4074L96.6407 65.2406L95.9463 65.4275L95.1834 62.5944L95.8779 62.4074ZM97.4036 68.0737L98.1664 70.9069L97.4719 71.0939L96.7091 68.2607L97.4036 68.0737ZM98.9292 73.7401L99.3106 75.1567L100.727 75.5381L100.54 76.2326L98.7238 75.7435L98.2348 73.9271L98.9292 73.7401ZM103.56 76.3009L106.394 77.0638L106.207 77.7582L103.373 76.9954L103.56 76.3009ZM114.888 79.3717L114.893 79.3523L116.31 79.7337L114.893 80.1151L114.888 80.0957L114.706 80.0467L114.79 79.7337L114.706 79.4206L114.888 79.3717ZM112.06 80.8779L109.227 81.6407L109.04 80.9463L111.873 80.1834L112.06 80.8779ZM106.394 82.4036L103.56 83.1664L103.373 82.4719L106.207 81.7091L106.394 82.4036ZM100.727 83.9292L99.3106 84.3106L98.9292 85.7272L98.2348 85.5403L98.7238 83.7238L100.54 83.2348L100.727 83.9292ZM98.1664 88.5604L97.4036 91.3936L96.7091 91.2066L97.4719 88.3734L98.1664 88.5604ZM96.6407 94.2268L95.8779 97.06L95.1834 96.873L95.9463 94.0398L96.6407 94.2268ZM95.0957 99.8879L95.1151 99.8931L94.7337 101.31L94.3523 99.8931L94.3717 99.8879L94.4206 99.7062L94.7337 99.7905L95.0467 99.7062L95.0957 99.8879ZM92.0638 91.3936L91.3009 88.5604L91.9954 88.3734L92.7582 91.2066L92.0638 91.3936ZM90.5381 85.7272L90.1567 84.3106L88.7401 83.9292L88.9271 83.2348L90.7435 83.7238L91.2326 85.5403L90.5381 85.7272ZM85.9069 83.1664L83.0737 82.4036L83.2607 81.7091L86.0939 82.4719L85.9069 83.1664ZM80.2406 81.6407L77.4074 80.8779L77.5944 80.1834L80.4275 80.9463L80.2406 81.6407ZM74.5794 80.0957L74.5742 80.1151L73.1576 79.7337L74.5742 79.3523L74.5794 79.3717L74.7612 79.4206L74.6769 79.7337L74.7612 80.0467L74.5794 80.0957ZM77.4074 78.5894L80.2406 77.8266L80.4275 78.5211L77.5944 79.2839L77.4074 78.5894ZM83.0737 77.0638L85.9069 76.3009L86.0939 76.9954L83.2607 77.7582L83.0737 77.0638ZM88.7401 75.5381L90.1567 75.1567L90.5381 73.7401L91.2326 73.9271L90.7435 75.7435L88.9271 76.2326L88.7401 75.5381ZM91.3009 70.9069L92.0638 68.0737L92.7582 68.2607L91.9954 71.0939L91.3009 70.9069ZM92.8266 65.2406L93.5894 62.4074L94.2839 62.5944L93.5211 65.4275L92.8266 65.2406Z" fill="white" fill-opacity="0.9"/>
<path d="M28.0871 68.4958L28.1853 68.9175L28.6167 68.8806L31.0163 68.6752C31.2914 68.6517 31.4954 68.4095 31.4718 68.1344L35.2746 67.8089C35.2982 68.084 35.5403 68.288 35.8154 68.2644L36.0755 68.2422L35.852 68.377C35.6156 68.5197 35.5396 68.827 35.6823 69.0634L32.4144 71.0353C32.2717 70.7989 31.9644 70.7229 31.728 70.8656L29.666 72.1098L29.2952 72.3335L29.4637 72.7324L30.4005 74.9511C30.5079 75.2055 30.8012 75.3246 31.0556 75.2172L32.5403 78.7333C32.2859 78.8407 32.1668 79.134 32.2742 79.3884L32.3758 79.6289L32.1784 79.458C31.9697 79.2773 31.6539 79.2999 31.4731 79.5087L28.5879 77.0101C28.7687 76.8014 28.746 76.4856 28.5373 76.3048L26.7167 74.7282L26.3894 74.4448L26.0621 74.7282L24.2415 76.3048C24.0327 76.4856 24.0101 76.8014 24.1908 77.0101L21.3056 79.5087C21.1249 79.2999 20.8091 79.2773 20.6003 79.458L20.403 79.6289L20.5046 79.3884C20.612 79.134 20.4928 78.8407 20.2384 78.7333L21.7231 75.2172C21.9775 75.3246 22.2708 75.2055 22.3783 74.9511L23.3151 72.7324L23.4835 72.3335L23.1128 72.1098L21.0508 70.8656C20.8143 70.7229 20.507 70.7989 20.3644 71.0353L17.0965 69.0634C17.2392 68.827 17.1632 68.5197 16.9267 68.377L16.7032 68.2422L16.9633 68.2644C17.2385 68.288 17.4806 68.084 17.5041 67.8089L21.3069 68.1344C21.2834 68.4095 21.4873 68.6517 21.7625 68.6752L24.1621 68.8806L24.5935 68.9175L24.6917 68.4958L25.2378 66.1502C25.3005 65.8813 25.1332 65.6125 24.8643 65.5498L25.7298 61.8326C25.9988 61.8952 26.2676 61.7279 26.3302 61.459L26.3894 61.2048L26.4486 61.459C26.5112 61.7279 26.78 61.8952 27.0489 61.8326L27.9145 65.5498C27.6456 65.6125 27.4783 65.8813 27.5409 66.1502L28.0871 68.4958Z" stroke="white" stroke-linecap="round" stroke-dasharray="4 4"/>
</svg>
