<svg width="133" height="133" viewBox="0 0 133 133" fill="none" xmlns="http://www.w3.org/2000/svg">
<path d="M69.7842 65.0228C70.4679 64.846 71.1726 64.5468 71.907 64.4207C76.6299 63.5503 81.3738 62.5574 86.0757 61.8094C88.1565 61.4521 90.1025 61.5337 92.2129 61.3495C92.386 61.3792 92.6308 61.3371 92.8039 61.3668C97.6418 61.9021 98.1005 65.8028 93.7979 70.1054C91.2164 72.6869 88.3518 74.8419 85.5675 77.2206C78.4844 83.1885 71.3296 89.2281 64.2972 95.2468C58.3194 100.312 52.3922 105.428 46.3427 110.565C46.7606 110.553 47.2502 110.469 47.7398 110.385C52.3823 109.291 56.9952 108.023 61.6167 107.051C65.3814 106.227 69.1041 105.647 72.8267 105.067C73.6835 104.92 74.9285 104.587 74.8618 105.668C74.774 106.871 73.4573 107.275 72.5584 107.667C69.6889 108.813 66.7982 110.082 63.92 110.932C55.948 113.43 47.9463 115.754 39.9446 118.079C38.9444 118.369 37.8217 118.681 36.8636 118.726C34.1621 118.893 33.0803 117.238 34.104 114.389C34.3105 113.879 34.517 113.368 34.7742 112.908C37.7587 107.288 40.9461 101.87 44.7034 96.592C45.1757 95.9169 45.7704 95.2209 46.4664 94.6262C47.1835 93.9091 48.0613 93.6395 48.7834 93.9313C49.5054 94.2231 49.7972 94.9451 49.4052 95.844C49.064 96.7935 48.6511 97.8147 48.1367 98.7346C46.48 101.811 44.6502 104.857 42.9428 107.882C42.5929 108.536 42.3147 109.119 41.8721 109.967C49.9925 102.455 57.8174 94.934 65.8031 87.8608C73.8604 80.7158 82.0995 73.8961 90.5748 66.7388C89.9331 66.6708 89.4348 66.4594 88.8946 66.4927C86.5393 66.719 84.1333 66.8946 81.6854 67.3149C76.7894 68.1557 71.8007 69.1905 66.9047 70.0313C65.7314 70.2921 64.5074 70.5023 63.3762 70.5184C60.8181 70.5419 60.31 68.3128 62.1571 65.8574C62.9163 64.8955 63.7768 64.035 64.7386 63.2758C70.8982 58.5356 77.0787 53.673 83.3397 49.0342C88.7314 44.9604 94.2036 41.1103 99.5953 37.0365C101.57 35.569 103.464 33.8776 105.206 32.0342C107.07 30.1698 107.086 29.0385 105.224 28.4673C103.759 28.0062 102.172 27.566 100.429 27.6872C96.4229 27.8405 92.3454 28.0656 88.1838 28.7802C74.9943 31.2233 61.7888 34.7976 48.5969 39.6763C47.9639 39.9038 47.4322 40.2327 46.8919 40.2661C46.3516 40.2995 45.731 40.1091 45.4986 39.7332C45.1141 39.2053 45.5567 38.3572 46.181 37.8342C46.8054 37.3112 47.4805 36.8389 48.1852 36.5397C49.738 35.7979 51.4133 35.035 52.9958 34.4663C65.3607 29.9078 77.6587 26.4299 89.8776 24.4505C93.9168 23.7569 97.9226 23.6035 101.878 23.3995C103.672 23.329 105.331 23.6975 106.918 24.1376C107.784 24.286 108.413 24.7718 109.114 25.186C111.479 26.9775 111.464 29.831 109.031 33.278C106.999 36.1216 104.286 38.4286 101.565 40.4402C94.6795 45.602 87.8153 50.6414 80.93 55.8032C77.1752 58.6456 73.4203 61.488 69.5938 64.4021C69.6742 64.6259 69.7038 64.799 69.7842 65.0228Z" fill="white"/>
</svg>
