<svg width="141" height="128" viewBox="0 0 141 128" fill="none" xmlns="http://www.w3.org/2000/svg">
<path d="M92.8928 92.3645C92.8928 92.3645 93.3169 97.2834 89.5535 99.4562C85.7901 101.629 81.6312 98.8664 77.8678 101.039C74.1044 103.212 74.4175 108.195 70.6541 110.368C66.8907 112.541 62.7318 109.778 58.9684 111.951C55.205 114.124 57.9915 117.679 51.7547 121.279C45.5179 124.88 38.9084 125.435 38.9084 125.435" stroke="white" stroke-opacity="0.9" stroke-width="4" stroke-linecap="round"/>
<path d="M119.628 35.9069C119.628 35.9069 115.324 39.7374 114.735 44.5704C114.147 49.4033 107.437 47.3583 105.226 50.1628C103.014 52.9674 104.338 55.2991 102.127 58.1037C99.9161 60.9083 96.3325 61.4424 94.1213 64.247C91.9101 67.0516 96.1914 68.091 92.5269 72.7387C88.8625 77.3865 86.9876 75.1276 82.9976 78.8112" stroke="white" stroke-opacity="0.9" stroke-width="2" stroke-linecap="round" stroke-dasharray="2 10"/>
<path d="M102.357 20.5522C91.0155 27.7516 85.7484 20.5113 77.2125 23.9931C68.6766 27.475 67.6772 33.1503 59.1413 36.6321C50.6053 40.114 45.6735 39.5998 37.1376 43.0817C28.6017 46.5635 31.5562 49.1265 16.6247 55.523" stroke="white" stroke-opacity="0.9" stroke-width="4" stroke-linecap="round" stroke-dasharray="8 8"/>
</svg>
