<svg width="77" height="128" viewBox="0 0 77 128" fill="none" xmlns="http://www.w3.org/2000/svg">
<path d="M28.8928 92.3645C28.8928 92.3645 29.3169 97.2834 25.5535 99.4562C21.7901 101.629 17.6312 98.8664 13.8678 101.039C10.1044 103.212 10.4175 108.195 6.65409 110.368C2.89067 112.541 -1.26816 109.778 -5.03158 111.951C-8.795 114.124 -6.00849 117.679 -12.2453 121.279C-18.4821 124.88 -25.0916 125.435 -25.0916 125.435" stroke="white" stroke-opacity="0.9" stroke-width="4" stroke-linecap="round"/>
<path d="M55.6277 35.9069C55.6277 35.9069 51.3244 39.7374 50.7355 44.5704C50.1466 49.4033 43.4368 47.3583 41.2256 50.1628C39.0144 52.9674 40.3384 55.2991 38.1273 58.1037C35.9161 60.9083 32.3325 61.4424 30.1213 64.247C27.9101 67.0516 32.1914 68.091 28.5269 72.7387C24.8625 77.3865 22.9876 75.1276 18.9976 78.8112" stroke="white" stroke-opacity="0.9" stroke-width="2" stroke-linecap="round" stroke-dasharray="2 10"/>
<path d="M38.3572 20.5522C27.0155 27.7516 21.7484 20.5113 13.2125 23.9931C4.67656 27.475 3.67717 33.1503 -4.85875 36.6321C-13.3947 40.114 -18.3265 39.5998 -26.8624 43.0817C-35.3983 46.5635 -32.4438 49.1265 -47.3753 55.523" stroke="white" stroke-opacity="0.9" stroke-width="4" stroke-linecap="round" stroke-dasharray="8 8"/>
</svg>
