<svg width="360" height="118" viewBox="0 0 360 118" fill="none" xmlns="http://www.w3.org/2000/svg">
<path d="M107.413 17.2002C108.109 17.2002 108.5 17.2002 109.197 17.2002C109.893 17.2002 110.98 18.6195 110.98 18.6195L109.197 23.3936L105.247 26.6193L107.413 17.2002Z" fill="#A5F3FC"/>
<path d="M33.2176 18.4287C34.4176 18.4287 35.0904 18.4287 36.2905 18.4287C37.4905 18.4287 37.2469 22.5314 37.2469 22.5314L32.3083 30.3049L29.4862 28.3616L33.2176 18.4287Z" fill="#C4B5FD"/>
<path d="M2.16593 85.5908C2.86251 85.5908 3.25306 85.5908 3.94964 85.5908C4.64622 85.5908 4.50478 89.4813 4.50478 89.4813L1.6381 96.8528L0 95.0099L2.16593 85.5908Z" fill="#FECDD3"/>
<path d="M169.463 72.6214C170.206 72.1109 170.446 72.6214 170.446 72.6214C170.446 72.6214 170.868 74.0989 170.753 75.0465C170.618 76.1506 169.623 77.5993 169.623 77.5993C169.623 77.5993 168.859 78.311 168.268 78.4927C166.26 79.1103 168.72 73.132 169.463 72.6214Z" fill="#C4C4C4"/>
<path d="M235.154 111.277C236.428 112.555 235.733 113.288 235.733 113.288C235.733 113.288 233.557 114.848 231.935 115.059C230.044 115.305 227.083 113.957 227.083 113.957C227.083 113.957 225.466 112.731 224.82 111.609C222.625 107.795 233.879 110 235.154 111.277Z" fill="#93C5FD"/>
<path d="M35.1394 65.3273C36.3463 65.7697 36.7378 65.3273 36.7378 65.3273C36.7378 65.3273 37.4233 64.0468 37.2353 63.2255C37.0162 62.2686 35.4003 61.0132 35.4003 61.0132C35.4003 61.0132 34.159 60.3964 33.1984 60.2388C29.9347 59.7036 33.9324 64.8848 35.1394 65.3273Z" fill="#D9F99D"/>
<path d="M203.036 3.50697L210.956 5.55336L204.018 11.628L203.036 3.50697Z" fill="#FEF08A"/>
<path d="M349.563 47.9563C349.746 48.6283 349.849 49.0051 350.032 49.6772C350.215 50.3492 349.132 51.7715 349.132 51.7715L344.057 51.3068L339.906 48.3452L349.563 47.9563Z" fill="#D9F99D"/>
<path d="M254.428 86.5819C253.783 86.3186 253.422 86.171 252.777 85.9078C252.132 85.6445 251.662 83.9196 251.662 83.9196L255.117 80.1737L259.993 78.6798L254.428 86.5819Z" fill="#FCA5A5"/>
<path d="M78.628 33.5811C78.628 35.8429 75.3672 36.8574 74.1232 36.8574C72.8793 36.8574 69.4137 37.481 69.4137 35.2193C69.4137 32.9575 72.8793 31.9431 74.1232 31.9431C75.3672 31.9431 78.628 31.3194 78.628 33.5811Z" fill="#F9A8D4"/>
<path d="M312.849 65.5239C311.655 65.5239 310.986 65.5239 309.791 65.5239C308.597 65.5239 306.734 66.9432 306.734 66.9432L309.791 71.7173L316.562 74.943L312.849 65.5239Z" fill="#A5F3FC"/>
<path d="M358.446 75.0188C357.947 75.5041 357.666 75.7761 357.167 76.2615C356.667 76.7468 354.898 76.486 354.898 76.486L352.852 71.8185L353.438 66.7528L358.446 75.0188Z" fill="#FCA5A5"/>
<path d="M134.443 66.7524C135.14 66.7524 135.531 66.7524 136.227 66.7524C136.924 66.7524 136.782 70.6429 136.782 70.6429L133.916 78.0144L132.277 76.1715L134.443 66.7524Z" fill="#A5F3FC"/>
<path d="M237.524 38.9049C237.524 41.1667 235.287 43.4097 234.043 43.4097C232.799 43.4097 233.019 41.1667 233.019 38.9049C233.019 36.6432 232.799 35.8335 234.043 35.8335C235.287 35.8335 237.524 36.6432 237.524 38.9049Z" fill="#F9A8D4"/>
<path d="M155.619 13.9238L160.229 20.681H151.008L155.619 13.9238Z" fill="#86EFAC"/>
<path d="M230.823 67.5139L227.919 74.1011L224.345 70.6543L230.823 67.5139Z" fill="#86EFAC"/>
<path d="M260.777 46.5075L268.697 48.5539L261.76 54.6285L260.777 46.5075Z" fill="#FEF08A"/>
<path d="M35.9494 107.527L43.8696 109.573L36.9321 115.648L35.9494 107.527Z" fill="#7DD3FC"/>
<ellipse cx="76.314" cy="88.5538" rx="2.25239" ry="4.09525" transform="rotate(55.0679 76.314 88.5538)" fill="#C4B5FD"/>
<path d="M106.387 46.4774L113.421 50.6547L105.062 54.5496L106.387 46.4774Z" fill="#F5D0FE"/>
<path d="M267.42 24.981L272.031 31.7381H262.809L267.42 24.981Z" fill="#A7F3D0"/>
<path d="M299.5 81.1841L295.628 87.3594L292.424 82.9336L299.5 81.1841Z" fill="#A7F3D0"/>
</svg>
