<svg width="252" height="77" viewBox="0 0 252 77" fill="none" xmlns="http://www.w3.org/2000/svg">
<path d="M26.2673 41.36C26.2673 42.32 26.0966 43.0773 25.7553 43.632C25.4139 44.1653 24.9126 44.6667 24.2513 45.136C24.0806 45.2427 23.8459 45.3707 23.5473 45.52C23.2486 45.6693 22.9179 45.808 22.5553 45.936C22.1926 46.064 21.8086 46.1707 21.4033 46.256C20.9979 46.3413 20.6246 46.384 20.2833 46.384C19.3233 46.384 18.5979 46.2773 18.1073 46.064C17.6166 45.872 17.3713 45.6373 17.3713 45.36C17.3713 45.0613 17.4566 44.816 17.6273 44.624C17.7979 44.432 17.9473 44.3253 18.0753 44.304L18.4273 44.56C18.5339 44.6667 18.6833 44.784 18.8753 44.912C19.0673 45.0187 19.3766 45.072 19.8033 45.072C20.2086 45.072 20.6993 45.008 21.2753 44.88C21.8513 44.7307 22.3953 44.5173 22.9073 44.24C23.4406 43.9413 23.8886 43.5787 24.2513 43.152C24.6353 42.7253 24.8273 42.2347 24.8273 41.68C24.8273 41.1893 24.4539 40.7413 23.7073 40.336C22.9819 39.9093 21.8299 39.6213 20.2513 39.472C19.4406 39.408 18.6406 39.312 17.8513 39.184C17.0619 39.0347 16.3473 38.8427 15.7073 38.608C15.0886 38.352 14.5873 38.0427 14.2033 37.68C13.8193 37.296 13.6273 36.8267 13.6273 36.272C13.6273 35.7387 13.7766 35.2267 14.0753 34.736C14.3739 34.2453 14.7366 33.7973 15.1633 33.392C15.6113 32.9653 16.0699 32.592 16.5393 32.272C17.0086 31.952 17.4033 31.6853 17.7233 31.472C17.9793 31.3227 18.3313 31.1307 18.7793 30.896C19.2486 30.64 19.7393 30.4053 20.2513 30.192C20.7846 29.9573 21.3073 29.7653 21.8193 29.616C22.3526 29.4453 22.8006 29.36 23.1633 29.36C23.5899 29.36 23.8779 29.4773 24.0273 29.712C24.1766 29.9467 24.2513 30.2773 24.2513 30.704C24.2513 31.0667 24.2086 31.4507 24.1233 31.856C24.0379 32.2613 23.9419 32.656 23.8353 33.04C23.7286 33.424 23.6219 33.7653 23.5153 34.064C23.4299 34.3413 23.3659 34.5227 23.3233 34.608C23.2379 34.8 23.1419 34.928 23.0353 34.992C22.9286 35.056 22.8539 35.088 22.8113 35.088C22.7259 35.088 22.6833 35.0347 22.6833 34.928C22.6833 34.864 22.6939 34.7467 22.7153 34.576C22.7579 34.384 22.8006 34.16 22.8433 33.904C22.9073 33.648 22.9499 33.3707 22.9713 33.072C23.0139 32.7733 23.0353 32.4747 23.0353 32.176C23.0353 31.7067 23.0139 31.3653 22.9713 31.152C22.9286 30.9387 22.7579 30.832 22.4593 30.832C22.1606 30.832 21.7553 30.9173 21.2433 31.088C20.7313 31.2373 20.2086 31.4293 19.6753 31.664C19.0993 31.92 18.5339 32.2507 17.9793 32.656C17.4459 33.0613 16.9659 33.4773 16.5393 33.904C16.1126 34.3307 15.7606 34.7467 15.4833 35.152C15.2273 35.536 15.0993 35.8453 15.0993 36.08C15.0993 36.336 15.2699 36.5813 15.6113 36.816C15.9739 37.0293 16.4219 37.2213 16.9553 37.392C17.5099 37.5627 18.1179 37.712 18.7793 37.84C19.4406 37.968 20.0913 38.064 20.7313 38.128C21.2646 38.192 21.8513 38.2773 22.4913 38.384C23.1313 38.4907 23.7286 38.6613 24.2833 38.896C24.8379 39.1307 25.3073 39.4507 25.6913 39.856C26.0753 40.24 26.2673 40.7413 26.2673 41.36ZM36.925 42.64C36.9464 42.6827 36.957 42.7467 36.957 42.832C36.957 42.96 36.861 43.152 36.669 43.408C36.605 43.4933 36.4664 43.632 36.253 43.824C36.0397 44.016 35.7517 44.208 35.389 44.4C35.0264 44.592 34.5784 44.7627 34.045 44.912C33.533 45.0613 32.925 45.136 32.221 45.136C31.7304 45.136 31.2504 45.0293 30.781 44.816C30.3117 44.5813 29.8957 44.2507 29.533 43.824C29.1704 43.376 28.8717 42.832 28.637 42.192C28.4024 41.5307 28.285 40.7627 28.285 39.888C28.285 39.056 28.3917 38.2773 28.605 37.552C28.8184 36.8267 29.085 36.1867 29.405 35.632C29.7464 35.0773 30.1197 34.64 30.525 34.32C30.9304 34 31.325 33.84 31.709 33.84C32.0504 33.84 32.3917 33.9147 32.733 34.064C33.0957 34.192 33.4157 34.3627 33.693 34.576C33.9917 34.7893 34.2264 35.0347 34.397 35.312C34.5677 35.568 34.653 35.8347 34.653 36.112C34.653 36.432 34.5037 36.7627 34.205 37.104C33.9277 37.4453 33.5864 37.7653 33.181 38.064C32.7757 38.3413 32.3704 38.576 31.965 38.768C31.5597 38.9387 31.2397 39.024 31.005 39.024C30.877 39.024 30.7597 38.9707 30.653 38.864C30.5677 38.736 30.525 38.5867 30.525 38.416C30.525 38.1173 30.653 37.8827 30.909 37.712C31.1864 37.5413 31.485 37.392 31.805 37.264C32.125 37.1147 32.413 36.944 32.669 36.752C32.9464 36.56 33.085 36.2933 33.085 35.952C33.085 35.9093 33.0317 35.8027 32.925 35.632C32.8184 35.4613 32.5304 35.376 32.061 35.376C31.8477 35.376 31.6024 35.504 31.325 35.76C31.0477 35.9947 30.781 36.3253 30.525 36.752C30.269 37.1573 30.0557 37.648 29.885 38.224C29.7144 38.7787 29.629 39.3867 29.629 40.048C29.629 40.6027 29.725 41.104 29.917 41.552C30.1304 42 30.397 42.384 30.717 42.704C31.037 43.0027 31.4104 43.2373 31.837 43.408C32.2637 43.5787 32.701 43.664 33.149 43.664C33.469 43.664 33.8104 43.6 34.173 43.472C34.557 43.3227 34.909 43.1733 35.229 43.024C35.5704 42.8533 35.8584 42.704 36.093 42.576C36.349 42.4267 36.509 42.352 36.573 42.352C36.637 42.352 36.701 42.384 36.765 42.448C36.8504 42.512 36.9037 42.576 36.925 42.64ZM48.0813 42.64C48.1026 42.6827 48.1133 42.7467 48.1133 42.832C48.1133 42.96 48.0173 43.152 47.8253 43.408C47.7613 43.4933 47.6226 43.632 47.4093 43.824C47.1959 44.016 46.9079 44.208 46.5453 44.4C46.1826 44.592 45.7346 44.7627 45.2013 44.912C44.6893 45.0613 44.0813 45.136 43.3773 45.136C42.8866 45.136 42.4066 45.0293 41.9373 44.816C41.4679 44.5813 41.0519 44.2507 40.6893 43.824C40.3266 43.376 40.0279 42.832 39.7933 42.192C39.5586 41.5307 39.4413 40.7627 39.4413 39.888C39.4413 39.056 39.5479 38.2773 39.7613 37.552C39.9746 36.8267 40.2413 36.1867 40.5613 35.632C40.9026 35.0773 41.2759 34.64 41.6813 34.32C42.0866 34 42.4813 33.84 42.8653 33.84C43.2066 33.84 43.5479 33.9147 43.8893 34.064C44.2519 34.192 44.5719 34.3627 44.8493 34.576C45.1479 34.7893 45.3826 35.0347 45.5533 35.312C45.7239 35.568 45.8093 35.8347 45.8093 36.112C45.8093 36.432 45.6599 36.7627 45.3613 37.104C45.0839 37.4453 44.7426 37.7653 44.3373 38.064C43.9319 38.3413 43.5266 38.576 43.1213 38.768C42.7159 38.9387 42.3959 39.024 42.1613 39.024C42.0333 39.024 41.9159 38.9707 41.8093 38.864C41.7239 38.736 41.6813 38.5867 41.6813 38.416C41.6813 38.1173 41.8093 37.8827 42.0653 37.712C42.3426 37.5413 42.6413 37.392 42.9613 37.264C43.2813 37.1147 43.5693 36.944 43.8253 36.752C44.1026 36.56 44.2413 36.2933 44.2413 35.952C44.2413 35.9093 44.1879 35.8027 44.0813 35.632C43.9746 35.4613 43.6866 35.376 43.2173 35.376C43.0039 35.376 42.7586 35.504 42.4813 35.76C42.2039 35.9947 41.9373 36.3253 41.6813 36.752C41.4253 37.1573 41.2119 37.648 41.0413 38.224C40.8706 38.7787 40.7853 39.3867 40.7853 40.048C40.7853 40.6027 40.8813 41.104 41.0733 41.552C41.2866 42 41.5533 42.384 41.8733 42.704C42.1933 43.0027 42.5666 43.2373 42.9933 43.408C43.4199 43.5787 43.8573 43.664 44.3053 43.664C44.6253 43.664 44.9666 43.6 45.3293 43.472C45.7133 43.3227 46.0653 43.1733 46.3853 43.024C46.7266 42.8533 47.0146 42.704 47.2493 42.576C47.5053 42.4267 47.6653 42.352 47.7293 42.352C47.7933 42.352 47.8573 42.384 47.9213 42.448C48.0066 42.512 48.0599 42.576 48.0813 42.64ZM78.7915 39.344C78.7915 39.728 78.6102 40.208 78.2475 40.784C77.9062 41.3387 77.4369 41.8827 76.8395 42.416C76.2422 42.9493 75.5489 43.408 74.7595 43.792C73.9702 44.1547 73.1489 44.336 72.2955 44.336C71.9115 44.336 71.5062 44.272 71.0795 44.144C70.6529 44.016 70.2369 43.8347 69.8315 43.6C69.4262 43.344 69.0635 43.0453 68.7435 42.704C68.4235 42.3413 68.1889 41.936 68.0395 41.488C67.9115 41.616 67.7515 41.8293 67.5595 42.128C67.3889 42.4267 67.1969 42.736 66.9835 43.056C66.7702 43.3547 66.5355 43.6213 66.2795 43.856C66.0235 44.0693 65.7569 44.176 65.4795 44.176C65.2022 44.176 64.9675 44.0373 64.7755 43.76C64.6049 43.4613 64.4662 43.1413 64.3595 42.8C64.2529 42.4373 64.1782 42.096 64.1355 41.776C64.0929 41.456 64.0715 41.2747 64.0715 41.232C64.0715 40.976 64.1462 40.496 64.2955 39.792C64.4449 39.0667 64.6689 38.32 64.9675 37.552C65.2662 36.784 65.6395 36.1013 66.0875 35.504C66.5569 34.9067 67.1009 34.608 67.7195 34.608C67.9542 34.608 68.1035 34.7147 68.1675 34.928C68.2529 35.12 68.2955 35.312 68.2955 35.504V36.464C68.4022 36.5493 68.5089 36.6133 68.6155 36.656C68.7435 36.6773 68.8502 36.72 68.9355 36.784C69.0422 36.8267 69.1169 36.9013 69.1595 37.008C69.2235 37.1147 69.2555 37.2853 69.2555 37.52C69.2555 37.6693 69.2449 37.808 69.2235 37.936C69.2022 38.0427 69.1915 38.1493 69.1915 38.256C69.1915 38.8107 69.2342 39.3547 69.3195 39.888C69.4049 40.4213 69.5755 40.9013 69.8315 41.328C70.0875 41.7333 70.4395 42.0747 70.8875 42.352C71.3355 42.608 71.9329 42.736 72.6795 42.736C73.6182 42.736 74.4075 42.544 75.0475 42.16C75.7089 41.7547 76.2529 41.3173 76.6795 40.848C77.1275 40.3573 77.4795 39.92 77.7355 39.536C77.9915 39.1307 78.2049 38.928 78.3755 38.928C78.6529 38.928 78.7915 39.0667 78.7915 39.344ZM67.5595 37.936C67.5595 37.8507 67.5382 37.776 67.4955 37.712C67.4529 37.6267 67.4315 37.552 67.4315 37.488C67.4315 37.4027 67.4529 37.328 67.4955 37.264C67.5382 37.2 67.5595 37.1147 67.5595 37.008C67.5595 36.944 67.5382 36.9013 67.4955 36.88C67.4529 36.8373 67.4315 36.7947 67.4315 36.752C67.2395 36.7947 67.0369 36.976 66.8235 37.296C66.6315 37.616 66.4395 37.9893 66.2475 38.416C66.0769 38.8427 65.9382 39.28 65.8315 39.728C65.7249 40.1547 65.6715 40.5067 65.6715 40.784C65.6715 40.9333 65.7142 41.1787 65.7995 41.52C65.8849 41.8613 65.9809 42.0853 66.0875 42.192C66.4502 41.4453 66.7809 40.72 67.0795 40.016C67.3995 39.312 67.5595 38.6187 67.5595 37.936ZM83.4413 45.072C83.4413 45.2427 83.3773 45.3707 83.2493 45.456C83.1213 45.5413 82.9719 45.584 82.8013 45.584C82.6093 45.584 82.4066 45.4027 82.1933 45.04C82.0013 44.6773 81.8093 44.2187 81.6173 43.664C81.4253 43.1093 81.2439 42.512 81.0733 41.872C80.9026 41.2107 80.7533 40.6027 80.6253 40.048C80.4973 39.472 80.3906 38.992 80.3053 38.608C80.2413 38.224 80.2093 38.0107 80.2093 37.968C80.2093 37.8827 80.1666 37.6587 80.0813 37.296C80.0173 36.9333 79.9213 36.368 79.7933 35.6C79.6866 34.832 79.5586 33.84 79.4093 32.624C79.2813 31.3867 79.1426 29.8613 78.9933 28.048C78.9933 27.856 79.0253 27.6107 79.0893 27.312C79.1533 27.0133 79.3026 26.864 79.5373 26.864C79.8359 26.864 80.0599 27.0667 80.2093 27.472C80.3799 27.8773 80.5079 28.3787 80.5933 28.976C80.6999 29.5733 80.7746 30.2027 80.8173 30.864C80.8599 31.504 80.9133 32.0693 80.9773 32.56C81.0626 33.2427 81.1373 33.8613 81.2013 34.416C81.2866 34.9707 81.3613 35.5253 81.4253 36.08C81.5106 36.6133 81.6066 37.1787 81.7133 37.776C81.8413 38.3733 81.9906 39.0347 82.1613 39.76L83.4413 45.072ZM90.1913 45.072C90.1913 45.2427 90.1273 45.3707 89.9993 45.456C89.8713 45.5413 89.7219 45.584 89.5513 45.584C89.3593 45.584 89.1566 45.4027 88.9433 45.04C88.7513 44.6773 88.5593 44.2187 88.3673 43.664C88.1753 43.1093 87.9939 42.512 87.8233 41.872C87.6526 41.2107 87.5033 40.6027 87.3753 40.048C87.2473 39.472 87.1406 38.992 87.0553 38.608C86.9913 38.224 86.9593 38.0107 86.9593 37.968C86.9593 37.8827 86.9166 37.6587 86.8313 37.296C86.7673 36.9333 86.6713 36.368 86.5433 35.6C86.4366 34.832 86.3086 33.84 86.1593 32.624C86.0313 31.3867 85.8926 29.8613 85.7433 28.048C85.7433 27.856 85.7753 27.6107 85.8393 27.312C85.9033 27.0133 86.0526 26.864 86.2873 26.864C86.5859 26.864 86.8099 27.0667 86.9593 27.472C87.1299 27.8773 87.2579 28.3787 87.3433 28.976C87.4499 29.5733 87.5246 30.2027 87.5673 30.864C87.6099 31.504 87.6633 32.0693 87.7273 32.56C87.8126 33.2427 87.8873 33.8613 87.9513 34.416C88.0366 34.9707 88.1113 35.5253 88.1753 36.08C88.2606 36.6133 88.3566 37.1787 88.4633 37.776C88.5913 38.3733 88.7406 39.0347 88.9113 39.76L90.1913 45.072ZM111.663 39.088C111.663 39.5573 111.599 40.0053 111.471 40.432C111.343 40.8587 111.173 41.232 110.959 41.552C110.746 41.872 110.49 42.128 110.191 42.32C109.914 42.4907 109.605 42.576 109.263 42.576C108.666 42.576 108.197 42.4053 107.855 42.064C107.514 41.7227 107.247 41.328 107.055 40.88C106.885 40.432 106.767 39.984 106.703 39.536C106.661 39.0667 106.639 38.7147 106.639 38.48C106.639 38.096 106.693 37.6693 106.799 37.2C106.927 36.7093 107.087 36.2613 107.279 35.856C107.493 35.4507 107.727 35.1093 107.983 34.832C108.239 34.5547 108.506 34.416 108.783 34.416C108.847 34.416 108.943 34.4373 109.071 34.48C109.221 34.5227 109.37 34.5867 109.519 34.672C109.669 34.7573 109.797 34.864 109.903 34.992C110.031 35.12 110.117 35.2693 110.159 35.44C110.394 35.4613 110.629 35.5467 110.863 35.696C111.098 35.8453 111.226 35.9627 111.247 36.048C111.418 36.6027 111.525 37.1573 111.567 37.712C111.631 38.2667 111.663 38.7253 111.663 39.088ZM110.223 38.512C110.223 38.192 110.191 37.8613 110.127 37.52C110.063 37.1573 109.935 36.7947 109.743 36.432C109.701 36.4533 109.647 36.464 109.583 36.464C109.498 36.464 109.423 36.4533 109.359 36.432C109.317 36.4107 109.274 36.4 109.231 36.4C108.975 36.4 108.773 36.4747 108.623 36.624C108.474 36.752 108.357 36.9333 108.271 37.168C108.207 37.3813 108.165 37.616 108.143 37.872C108.122 38.128 108.111 38.3733 108.111 38.608C108.111 38.8427 108.122 39.1093 108.143 39.408C108.165 39.6853 108.207 39.952 108.271 40.208C108.357 40.464 108.463 40.688 108.591 40.88C108.719 41.0507 108.89 41.136 109.103 41.136C109.317 41.136 109.498 41.0293 109.647 40.816C109.797 40.5813 109.914 40.3147 109.999 40.016C110.085 39.7173 110.138 39.4293 110.159 39.152C110.202 38.8533 110.223 38.64 110.223 38.512ZM125.432 40.688C125.432 40.88 125.304 41.0827 125.048 41.296C124.792 41.5093 124.493 41.712 124.152 41.904C123.811 42.0747 123.459 42.224 123.096 42.352C122.755 42.48 122.499 42.544 122.328 42.544C122.136 42.544 121.923 42.4907 121.688 42.384C121.475 42.2773 121.261 42.1493 121.048 42C120.856 41.8507 120.685 41.712 120.536 41.584C120.387 41.456 120.291 41.3707 120.248 41.328C120.184 41.392 120.088 41.52 119.96 41.712C119.832 41.904 119.672 42.1173 119.48 42.352C119.309 42.5653 119.117 42.7573 118.904 42.928C118.712 43.0987 118.509 43.184 118.296 43.184C117.741 43.184 117.261 42.8853 116.856 42.288C116.451 41.6907 116.109 41.008 115.832 40.24C115.576 39.472 115.373 38.736 115.224 38.032C115.096 37.3067 115.032 36.816 115.032 36.56C115.032 36.4107 115.107 36.2933 115.256 36.208C115.427 36.1013 115.555 36.048 115.64 36.048C115.939 36.048 116.141 36.1547 116.248 36.368C116.355 36.56 116.408 36.7733 116.408 37.008C116.408 37.2 116.461 37.5413 116.568 38.032C116.696 38.5227 116.845 39.024 117.016 39.536C117.187 40.048 117.368 40.5067 117.56 40.912C117.752 41.296 117.923 41.488 118.072 41.488C118.349 41.488 118.584 41.3173 118.776 40.976C118.989 40.6133 119.16 40.208 119.288 39.76C119.416 39.2907 119.512 38.8533 119.576 38.448C119.64 38.0213 119.672 37.744 119.672 37.616C119.672 37.5947 119.672 37.5307 119.672 37.424C119.693 37.296 119.715 37.168 119.736 37.04C119.757 36.912 119.768 36.7947 119.768 36.688C119.789 36.5813 119.8 36.5067 119.8 36.464C119.8 36.3147 119.768 36.2187 119.704 36.176C119.64 36.112 119.608 35.9947 119.608 35.824C119.608 35.696 119.672 35.5787 119.8 35.472C119.928 35.344 120.205 35.28 120.632 35.28C120.803 35.28 120.931 35.3333 121.016 35.44C121.123 35.5253 121.197 35.632 121.24 35.76C121.283 35.888 121.304 36.016 121.304 36.144C121.325 36.2507 121.336 36.3253 121.336 36.368C121.336 36.3893 121.325 36.5387 121.304 36.816C121.283 37.0933 121.261 37.4027 121.24 37.744C121.24 38.064 121.229 38.3733 121.208 38.672C121.187 38.9707 121.176 39.152 121.176 39.216C121.176 39.28 121.208 39.408 121.272 39.6C121.336 39.792 121.411 39.9947 121.496 40.208C121.603 40.4 121.72 40.5813 121.848 40.752C121.976 40.9013 122.115 40.976 122.264 40.976C122.52 40.976 122.755 40.944 122.968 40.88C123.203 40.7947 123.416 40.7093 123.608 40.624C123.821 40.5173 124.013 40.432 124.184 40.368C124.355 40.2827 124.515 40.24 124.664 40.24C124.856 40.24 125.027 40.2827 125.176 40.368C125.347 40.4533 125.432 40.56 125.432 40.688ZM134.269 36.24C134.269 36.3893 134.205 36.5173 134.077 36.624C133.949 36.7093 133.799 36.784 133.629 36.848C133.458 36.912 133.287 36.9653 133.117 37.008C132.946 37.0293 132.807 37.04 132.701 37.04C132.381 37.04 132.167 37.0187 132.061 36.976C131.954 36.9333 131.869 36.912 131.805 36.912C131.271 36.912 130.845 36.9547 130.525 37.04C130.205 37.1253 129.949 37.264 129.757 37.456C129.586 37.648 129.469 37.8933 129.405 38.192C129.362 38.4693 129.341 38.8107 129.341 39.216C129.341 39.8987 129.362 40.4427 129.405 40.848C129.469 41.2533 129.522 41.584 129.565 41.84C129.629 42.096 129.682 42.2987 129.725 42.448C129.789 42.576 129.821 42.704 129.821 42.832C129.821 43.0027 129.725 43.184 129.533 43.376C129.362 43.568 129.202 43.664 129.053 43.664C128.797 43.664 128.562 43.44 128.349 42.992C128.157 42.5227 127.986 41.9787 127.837 41.36C127.709 40.72 127.602 40.0907 127.517 39.472C127.431 38.8533 127.389 38.384 127.389 38.064C127.389 37.7013 127.421 37.36 127.485 37.04C127.549 36.6987 127.634 36.4107 127.741 36.176C127.847 35.92 127.965 35.7173 128.093 35.568C128.221 35.4187 128.349 35.344 128.477 35.344C128.583 35.344 128.669 35.3867 128.733 35.472C128.797 35.536 128.85 35.6213 128.893 35.728C128.935 35.8133 128.978 35.8987 129.021 35.984C129.085 36.048 129.159 36.08 129.245 36.08C129.437 36.08 129.746 35.984 130.173 35.792C130.599 35.6 131.122 35.504 131.741 35.504C132.317 35.504 132.743 35.5253 133.021 35.568C133.319 35.5893 133.607 35.6533 133.885 35.76C133.949 35.7813 134.023 35.8347 134.109 35.92C134.215 35.984 134.269 36.0907 134.269 36.24ZM158.988 42.64C159.009 42.6827 159.02 42.7467 159.02 42.832C159.02 42.96 158.924 43.152 158.732 43.408C158.668 43.4933 158.529 43.632 158.316 43.824C158.102 44.016 157.814 44.208 157.452 44.4C157.089 44.592 156.641 44.7627 156.108 44.912C155.596 45.0613 154.988 45.136 154.284 45.136C153.793 45.136 153.313 45.0293 152.844 44.816C152.374 44.5813 151.958 44.2507 151.596 43.824C151.233 43.376 150.934 42.832 150.7 42.192C150.465 41.5307 150.348 40.7627 150.348 39.888C150.348 39.056 150.454 38.2773 150.668 37.552C150.881 36.8267 151.148 36.1867 151.468 35.632C151.809 35.0773 152.182 34.64 152.588 34.32C152.993 34 153.388 33.84 153.772 33.84C154.113 33.84 154.454 33.9147 154.796 34.064C155.158 34.192 155.478 34.3627 155.756 34.576C156.054 34.7893 156.289 35.0347 156.46 35.312C156.63 35.568 156.716 35.8347 156.716 36.112C156.716 36.432 156.566 36.7627 156.268 37.104C155.99 37.4453 155.649 37.7653 155.244 38.064C154.838 38.3413 154.433 38.576 154.028 38.768C153.622 38.9387 153.302 39.024 153.068 39.024C152.94 39.024 152.822 38.9707 152.716 38.864C152.63 38.736 152.588 38.5867 152.588 38.416C152.588 38.1173 152.716 37.8827 152.972 37.712C153.249 37.5413 153.548 37.392 153.868 37.264C154.188 37.1147 154.476 36.944 154.732 36.752C155.009 36.56 155.148 36.2933 155.148 35.952C155.148 35.9093 155.094 35.8027 154.988 35.632C154.881 35.4613 154.593 35.376 154.124 35.376C153.91 35.376 153.665 35.504 153.388 35.76C153.11 35.9947 152.844 36.3253 152.588 36.752C152.332 37.1573 152.118 37.648 151.948 38.224C151.777 38.7787 151.692 39.3867 151.692 40.048C151.692 40.6027 151.788 41.104 151.98 41.552C152.193 42 152.46 42.384 152.78 42.704C153.1 43.0027 153.473 43.2373 153.9 43.408C154.326 43.5787 154.764 43.664 155.212 43.664C155.532 43.664 155.873 43.6 156.236 43.472C156.62 43.3227 156.972 43.1733 157.292 43.024C157.633 42.8533 157.921 42.704 158.156 42.576C158.412 42.4267 158.572 42.352 158.636 42.352C158.7 42.352 158.764 42.384 158.828 42.448C158.913 42.512 158.966 42.576 158.988 42.64ZM167.456 34.736C167.456 34.8 167.402 35.0773 167.296 35.568C167.189 36.0587 167.082 36.6133 166.976 37.232C166.912 37.5947 166.805 38.1387 166.656 38.864C166.528 39.568 166.464 40.6453 166.464 42.096C166.464 42.1387 166.453 42.256 166.432 42.448C166.432 42.6187 166.4 42.8 166.336 42.992C166.293 43.184 166.218 43.3653 166.112 43.536C166.005 43.6853 165.845 43.76 165.632 43.76C165.44 43.76 165.226 43.6747 164.992 43.504C164.458 43.12 163.968 42.672 163.52 42.16C163.072 41.648 162.688 41.0933 162.368 40.496C162.048 39.8773 161.802 39.2373 161.632 38.576C161.461 37.9147 161.376 37.2427 161.376 36.56C161.376 36.4747 161.429 36.4 161.536 36.336C161.664 36.2507 161.76 36.208 161.824 36.208C162.144 36.208 162.389 36.3893 162.56 36.752C162.752 37.1147 162.933 37.552 163.104 38.064C163.296 38.576 163.509 39.12 163.744 39.696C164 40.2507 164.373 40.7307 164.864 41.136C164.928 41.0507 164.981 40.8907 165.024 40.656C165.066 40.4213 165.098 40.2187 165.12 40.048C165.141 39.8987 165.173 39.6107 165.216 39.184C165.258 38.736 165.301 38.2667 165.344 37.776C165.408 37.2853 165.45 36.816 165.472 36.368C165.514 35.92 165.536 35.6107 165.536 35.44C165.536 35.312 165.546 35.1627 165.568 34.992C165.589 34.8213 165.632 34.6613 165.696 34.512C165.781 34.3627 165.888 34.2347 166.016 34.128C166.144 34.0213 166.314 33.968 166.528 33.968C166.634 33.968 166.816 34.0427 167.072 34.192C167.328 34.32 167.456 34.5013 167.456 34.736ZM179.175 42.64C179.196 42.6827 179.207 42.7467 179.207 42.832C179.207 42.96 179.111 43.152 178.919 43.408C178.855 43.4933 178.716 43.632 178.503 43.824C178.29 44.016 178.002 44.208 177.639 44.4C177.276 44.592 176.828 44.7627 176.295 44.912C175.783 45.0613 175.175 45.136 174.471 45.136C173.98 45.136 173.5 45.0293 173.031 44.816C172.562 44.5813 172.146 44.2507 171.783 43.824C171.42 43.376 171.122 42.832 170.887 42.192C170.652 41.5307 170.535 40.7627 170.535 39.888C170.535 39.056 170.642 38.2773 170.855 37.552C171.068 36.8267 171.335 36.1867 171.655 35.632C171.996 35.0773 172.37 34.64 172.775 34.32C173.18 34 173.575 33.84 173.959 33.84C174.3 33.84 174.642 33.9147 174.983 34.064C175.346 34.192 175.666 34.3627 175.943 34.576C176.242 34.7893 176.476 35.0347 176.647 35.312C176.818 35.568 176.903 35.8347 176.903 36.112C176.903 36.432 176.754 36.7627 176.455 37.104C176.178 37.4453 175.836 37.7653 175.431 38.064C175.026 38.3413 174.62 38.576 174.215 38.768C173.81 38.9387 173.49 39.024 173.255 39.024C173.127 39.024 173.01 38.9707 172.903 38.864C172.818 38.736 172.775 38.5867 172.775 38.416C172.775 38.1173 172.903 37.8827 173.159 37.712C173.436 37.5413 173.735 37.392 174.055 37.264C174.375 37.1147 174.663 36.944 174.919 36.752C175.196 36.56 175.335 36.2933 175.335 35.952C175.335 35.9093 175.282 35.8027 175.175 35.632C175.068 35.4613 174.78 35.376 174.311 35.376C174.098 35.376 173.852 35.504 173.575 35.76C173.298 35.9947 173.031 36.3253 172.775 36.752C172.519 37.1573 172.306 37.648 172.135 38.224C171.964 38.7787 171.879 39.3867 171.879 40.048C171.879 40.6027 171.975 41.104 172.167 41.552C172.38 42 172.647 42.384 172.967 42.704C173.287 43.0027 173.66 43.2373 174.087 43.408C174.514 43.5787 174.951 43.664 175.399 43.664C175.719 43.664 176.06 43.6 176.423 43.472C176.807 43.3227 177.159 43.1733 177.479 43.024C177.82 42.8533 178.108 42.704 178.343 42.576C178.599 42.4267 178.759 42.352 178.823 42.352C178.887 42.352 178.951 42.384 179.015 42.448C179.1 42.512 179.154 42.576 179.175 42.64ZM191.035 42.064C191.035 42.192 190.993 42.32 190.907 42.448C190.822 42.576 190.715 42.6933 190.587 42.8C190.481 42.9067 190.353 43.0027 190.203 43.088C190.075 43.152 189.958 43.184 189.851 43.184C189.489 43.184 189.019 43.1093 188.443 42.96C187.889 42.7893 187.441 42.5333 187.099 42.192C186.737 41.8293 186.417 41.4027 186.139 40.912C185.862 40.4 185.553 39.6533 185.211 38.672C184.977 39.6107 184.699 40.5387 184.379 41.456C184.081 42.3733 183.59 43.216 182.907 43.984C182.865 44.0267 182.801 44.048 182.715 44.048C182.566 44.048 182.406 43.9733 182.235 43.824C182.065 43.6747 181.979 43.5253 181.979 43.376C181.979 43.2267 181.958 42.8853 181.915 42.352C181.894 41.7973 181.862 41.1893 181.819 40.528C181.777 39.8453 181.734 39.1627 181.691 38.48C181.67 37.776 181.659 37.2 181.659 36.752C181.659 36.5387 181.67 36.2613 181.691 35.92C181.713 35.5573 181.777 35.248 181.883 34.992C181.905 34.9493 181.979 34.864 182.107 34.736C182.257 34.608 182.417 34.544 182.587 34.544C182.737 34.544 182.822 34.64 182.843 34.832C182.865 35.024 182.875 35.2373 182.875 35.472V40.528C182.875 40.6347 182.886 40.784 182.907 40.976C182.95 41.168 183.003 41.3067 183.067 41.392C183.302 40.88 183.515 40.2827 183.707 39.6C183.921 38.896 184.123 38.2347 184.315 37.616C184.507 36.976 184.699 36.4427 184.891 36.016C185.083 35.568 185.275 35.344 185.467 35.344C185.681 35.344 185.851 35.3867 185.979 35.472C186.107 35.5573 186.214 35.728 186.299 35.984C186.406 36.6027 186.491 37.1573 186.555 37.648C186.619 38.1173 186.694 38.544 186.779 38.928C186.886 39.312 187.025 39.6747 187.195 40.016C187.387 40.336 187.643 40.6347 187.963 40.912C188.262 41.1893 188.593 41.392 188.955 41.52C189.339 41.648 189.67 41.712 189.947 41.712C190.075 41.712 190.214 41.6907 190.363 41.648C190.513 41.584 190.619 41.552 190.683 41.552C190.769 41.552 190.843 41.6267 190.907 41.776C190.993 41.9253 191.035 42.0213 191.035 42.064ZM201.165 31.536C200.888 31.856 200.493 32.176 199.981 32.496C199.469 32.7947 198.957 33.072 198.445 33.328C197.933 33.584 197.485 33.808 197.101 34C196.717 34.1707 196.525 34.288 196.525 34.352C196.525 34.416 196.568 34.608 196.653 34.928C196.739 35.248 196.835 35.632 196.941 36.08C197.069 36.5067 197.197 36.9547 197.325 37.424C197.453 37.8933 197.56 38.3093 197.645 38.672C197.688 38.8853 197.741 39.1627 197.805 39.504C197.869 39.8453 197.923 40.1867 197.965 40.528C198.029 40.8693 198.083 41.1787 198.125 41.456C198.168 41.712 198.189 41.8507 198.189 41.872C198.189 42.192 198.136 42.5227 198.029 42.864C197.923 43.2053 197.752 43.376 197.517 43.376C197.389 43.376 197.272 43.3227 197.165 43.216C197.059 43.1093 196.963 42.992 196.877 42.864C196.792 42.7147 196.728 42.576 196.685 42.448C196.643 42.32 196.621 42.224 196.621 42.16C196.621 42.1173 196.621 42.0533 196.621 41.968C196.643 41.8827 196.653 41.7867 196.653 41.68C196.653 41.2747 196.589 40.688 196.461 39.92C196.419 39.6853 196.333 39.3227 196.205 38.832C196.077 38.3413 195.949 37.84 195.821 37.328C195.672 36.7307 195.501 36.08 195.309 35.376C195.224 35.0773 195.171 34.928 195.149 34.928C195 34.928 194.744 35.024 194.381 35.216C194.04 35.3867 193.645 35.6107 193.197 35.888C192.749 36.144 192.28 36.432 191.789 36.752C191.299 37.0507 190.84 37.3387 190.413 37.616C189.987 37.872 189.624 38.096 189.325 38.288C189.005 38.4587 188.813 38.544 188.749 38.544C188.472 38.544 188.248 38.448 188.077 38.256C187.907 38.064 187.821 37.8507 187.821 37.616C187.821 37.488 188.003 37.3067 188.365 37.072C188.707 36.816 189.144 36.5387 189.677 36.24C190.189 35.9413 190.755 35.632 191.373 35.312C191.971 34.992 192.525 34.704 193.037 34.448C193.571 34.192 194.008 33.9787 194.349 33.808C194.712 33.6373 194.893 33.552 194.893 33.552C194.701 32.5707 194.541 31.696 194.413 30.928C194.307 30.2667 194.2 29.6587 194.093 29.104C194.008 28.5493 193.965 28.2507 193.965 28.208C193.965 27.9307 194.019 27.728 194.125 27.6C194.253 27.4507 194.392 27.376 194.541 27.376C194.776 27.376 194.925 27.536 194.989 27.856C195.224 29.008 195.437 30.032 195.629 30.928C195.843 31.824 196.045 32.5493 196.237 33.104C196.429 33.0613 196.76 32.944 197.229 32.752C197.699 32.5387 198.189 32.3147 198.701 32.08C199.213 31.8453 199.672 31.6427 200.077 31.472C200.504 31.28 200.749 31.184 200.813 31.184C200.941 31.184 201.016 31.2267 201.037 31.312C201.08 31.3973 201.123 31.472 201.165 31.536ZM210.104 41.776C210.104 42.1387 209.976 42.4587 209.72 42.736C209.485 42.992 209.176 43.216 208.792 43.408C208.429 43.5787 208.024 43.7173 207.576 43.824C207.128 43.9307 206.701 44.016 206.296 44.08C205.891 44.1227 205.528 44.1547 205.208 44.176C204.909 44.176 204.717 44.176 204.632 44.176C204.163 44.176 203.8 44.1013 203.544 43.952C203.288 43.8027 203.16 43.536 203.16 43.152C203.16 43.024 203.171 42.9173 203.192 42.832C203.213 42.7253 203.299 42.672 203.448 42.672C203.512 42.672 203.619 42.6933 203.768 42.736C203.917 42.7573 204.035 42.768 204.12 42.768C204.205 42.768 204.472 42.7573 204.92 42.736C205.389 42.6933 205.88 42.6293 206.392 42.544C206.925 42.4587 207.395 42.3413 207.8 42.192C208.227 42.0213 208.44 41.808 208.44 41.552C208.44 41.5093 208.216 41.3813 207.768 41.168C207.341 40.9333 206.691 40.5493 205.816 40.016C205.133 39.5893 204.653 39.1627 204.376 38.736C204.099 38.288 203.96 37.6907 203.96 36.944C203.96 36.4747 204.056 36.0907 204.248 35.792C204.461 35.4933 204.739 35.2587 205.08 35.088C205.443 34.9173 205.848 34.8 206.296 34.736C206.765 34.6507 207.256 34.608 207.768 34.608C207.811 34.608 207.939 34.6293 208.152 34.672C208.387 34.7147 208.632 34.7893 208.888 34.896C209.144 34.9813 209.368 35.0987 209.56 35.248C209.773 35.376 209.88 35.5253 209.88 35.696C209.88 35.7387 209.837 35.8027 209.752 35.888C209.688 35.9733 209.571 36.1333 209.4 36.368C209.336 36.3467 209.219 36.3147 209.048 36.272C208.899 36.2293 208.717 36.1867 208.504 36.144C208.312 36.08 208.109 36.0373 207.896 36.016C207.683 35.9733 207.512 35.952 207.384 35.952C206.829 35.952 206.381 36.0587 206.04 36.272C205.699 36.464 205.528 36.848 205.528 37.424C205.528 37.7013 205.635 37.9573 205.848 38.192C206.083 38.4267 206.371 38.6507 206.712 38.864C207.053 39.056 207.416 39.2587 207.8 39.472C208.205 39.664 208.579 39.8773 208.92 40.112C209.261 40.3467 209.539 40.6027 209.752 40.88C209.987 41.136 210.104 41.4347 210.104 41.776ZM231.564 38.832C231.564 39.0453 231.382 39.2587 231.02 39.472C230.678 39.664 230.284 39.8347 229.836 39.984C229.388 40.1333 228.961 40.2613 228.556 40.368C228.15 40.4533 227.894 40.496 227.788 40.496C227.404 40.496 227.137 40.4747 226.988 40.432C226.86 40.3893 226.742 40.2507 226.636 40.016C226.572 39.9307 226.508 39.8347 226.444 39.728C226.38 39.6 226.348 39.504 226.348 39.44C226.348 39.3547 226.358 39.3013 226.38 39.28C226.422 39.2587 226.508 39.248 226.636 39.248C226.87 39.248 227.212 39.1947 227.66 39.088C228.129 38.9813 228.588 38.864 229.036 38.736C229.505 38.608 229.932 38.4907 230.316 38.384C230.7 38.2773 230.934 38.224 231.02 38.224C231.126 38.224 231.244 38.3093 231.372 38.48C231.5 38.6293 231.564 38.7467 231.564 38.832ZM246.023 41.168C246.3 41.424 246.183 41.6587 245.671 41.872C245.159 42.0853 244.252 42.3093 242.951 42.544C242.204 42.672 241.447 42.8427 240.679 43.056C239.911 43.248 239.175 43.44 238.471 43.632C237.788 43.824 237.17 43.9947 236.615 44.144C236.06 44.272 235.644 44.336 235.367 44.336C235.132 44.336 234.972 44.2613 234.887 44.112C234.802 43.9627 234.759 43.8347 234.759 43.728C234.759 43.5787 234.94 43.4187 235.303 43.248C235.666 43.056 236.124 42.8747 236.679 42.704C237.234 42.5333 237.852 42.3627 238.535 42.192C239.239 42.0213 239.922 41.872 240.583 41.744C241.244 41.5947 241.842 41.4667 242.375 41.36C242.93 41.2533 243.356 41.1787 243.655 41.136C242.332 40.048 241.074 38.8533 239.879 37.552C238.684 36.2507 237.49 35.056 236.295 33.968C236.21 33.904 236.135 33.7653 236.071 33.552C236.007 33.3387 235.975 33.1893 235.975 33.104C235.975 32.976 236.018 32.8587 236.103 32.752C236.21 32.6453 236.348 32.5707 236.519 32.528C236.604 32.528 236.796 32.6667 237.095 32.944C237.415 33.2 237.767 33.52 238.151 33.904C238.535 34.288 238.93 34.6827 239.335 35.088C239.74 35.4933 240.092 35.8347 240.391 36.112L246.023 41.168Z" fill="white"/>
<path d="M60.6364 57.0094C60.8268 57.0102 61.0821 56.9981 61.2703 57.0188C70.626 57.9469 79.6794 58.1784 88.6812 58.3037C92.8652 58.3617 96.9909 58.3731 101.117 58.3844C101.435 58.3792 101.753 58.3739 102.08 58.2893C101.325 58.2264 100.572 58.1437 99.8176 58.0808C83.7917 56.6203 68.0905 54.5323 52.8284 51.3668C52.0847 51.2046 51.2717 51.0951 50.4564 51.0055C41.1925 49.8262 32.0831 48.4025 23.4217 46.3849C18.7831 45.2919 14.4781 44.0548 10.7712 42.5818C3.7919 39.7239 0.880116 36.8308 1.97536 33.8757C2.6249 32.0576 4.64072 30.5103 7.27474 29.1114C9.09795 28.1459 11.2907 27.2814 13.6672 26.4773C14.0636 26.34 14.525 26.1897 14.7356 26.0118C17.9833 23.1125 23.5671 20.8921 30.627 19.0953C38.8628 17.0056 48.5433 15.6176 59.0615 14.6834C75.3494 13.2579 92.782 12.9433 111.135 13.4736C121.893 13.792 132.808 14.409 143.749 15.3507C158.841 16.6481 173.747 18.4679 188.436 21.0879C199.514 23.0697 210.043 25.4133 219.614 28.3752C225.628 30.2224 230.923 32.2519 235.237 34.5353C239.849 36.9922 242.803 39.5081 243.529 42.0804C243.887 43.4063 243.618 44.6633 242.599 45.8176C241.291 47.2819 239.67 48.7118 237.246 49.9328C233.68 51.7117 228.833 53.0282 223.256 54.0633C215.992 55.4156 207.896 56.2742 199.263 56.8126C186.922 57.5865 174.108 58.0472 161.24 58.4215C147.161 58.8434 132.911 59.0859 118.493 59.129C106.615 59.1699 94.6862 59.1046 82.4814 58.6673C75.8403 58.4397 69.0917 58.0395 62.3208 57.275C61.7563 57.2129 61.2546 57.1578 60.6902 57.0957C60.6297 57.0689 60.6342 57.0292 60.6364 57.0094ZM86.0897 52.5713C90.0497 52.9263 96.7759 53.5251 103.569 54.091C105.896 54.2866 108.293 54.4295 110.571 54.499C117.597 54.6886 124.451 54.7184 131.251 54.662C145.743 54.5266 159.713 53.9518 172.748 52.6512C181.997 51.7181 190.582 50.471 197.966 48.6094C202.672 47.4181 206.769 45.9991 209.45 44.1832C211.719 42.6436 212.803 40.9135 211.949 38.91C211.042 36.8202 208.22 34.8214 203.989 32.929C199.76 31.0168 194.674 29.3922 189.058 27.9506C179.557 25.4989 169.406 23.7396 158.899 22.3231C148.204 20.886 137.581 19.9391 126.924 19.29C112.86 18.4474 99.2372 18.1959 86.0558 18.5357C71.3469 18.9086 57.5765 19.9677 45.2889 21.9535C38.3052 23.0753 32.0516 24.4783 27.012 26.3766C22.3801 28.0383 19.1727 30.0174 18.5052 32.5572C17.9318 34.826 19.5759 37.1375 23.7577 39.4667C26.8643 41.1952 30.952 42.6698 35.4988 44.014C41.8913 45.8827 48.8997 47.3568 56.1881 48.6003C65.0958 50.1224 74.1089 51.2742 86.0897 52.5713ZM143.126 19.7447C143.122 19.7845 143.182 19.8112 143.178 19.8509C144.37 19.9819 145.561 20.1129 146.753 20.2439C154.158 21.0179 161.48 21.9636 168.71 23.1605C177.001 24.5144 185.007 26.1584 192.461 28.184C198.251 29.7653 203.449 31.5229 207.533 33.6C213.538 36.6523 215.616 39.6146 213.766 42.5069C212.543 44.3424 209.961 45.8475 206.574 47.1636C202.193 48.8529 196.777 50.147 190.815 51.2202C182.845 52.6356 174.103 53.5841 164.884 54.2591C153.746 55.0647 142.085 55.431 130.08 55.478C129.509 55.4755 128.935 55.4929 128.364 55.4904C128.796 55.5982 129.11 55.6327 129.491 55.6343C135.688 55.8534 141.944 56.1191 148.086 56.2716C163.03 56.6282 177.575 56.579 191.498 55.8584C201.716 55.3335 211.34 54.4418 219.894 52.9097C225.272 51.9532 230.043 50.749 233.898 49.2229C237.022 47.9784 238.657 46.4295 238.924 44.6296C239.32 42.2409 237.051 39.8405 232.748 37.4578C228.688 35.1821 223.323 33.2054 217.303 31.4177C207.349 28.474 196.423 26.2677 184.942 24.4828C175.707 23.0454 166.443 21.866 157.081 20.9975C152.433 20.5468 147.779 20.1557 143.126 19.7447ZM240.492 40.862C240.554 40.8689 240.619 40.856 240.619 40.856C240.565 40.7697 240.574 40.6902 240.518 40.6238C239.627 38.9578 237.719 37.3007 235.044 35.68C230.762 33.1186 225.173 30.876 218.611 28.8277C211.251 26.531 203.277 24.6091 194.83 22.9367C177.626 19.5376 160.035 17.3221 142.172 15.8206C132.864 15.0383 123.716 14.5151 114.546 14.1904C96.2671 13.5677 78.8458 13.7831 62.5691 15.1093C51.6119 15.9951 41.6133 17.3884 32.9945 19.4963C27.6414 20.7973 23.0856 22.3467 19.6923 24.2853C19.4907 24.3838 19.3496 24.509 19.1457 24.6273C19.5243 24.6488 19.7191 24.6099 19.914 24.571C27.8877 22.5531 36.9478 21.0365 46.9105 19.9609C76.2857 16.7781 108.562 16.5878 143.272 19.017C155.934 19.9065 168.546 21.2329 181.103 23.0556C190.785 24.4619 200.181 26.1583 209.15 28.27C216.077 29.896 222.474 31.725 228.132 33.915C233.425 35.9643 237.622 38.1545 240.017 40.5686C240.256 40.6955 240.375 40.7688 240.492 40.862ZM12.5764 28.267C12.0433 28.4898 11.6469 28.6272 11.3109 28.7912C7.70032 30.4044 4.89608 32.1867 4.19951 34.4218C3.50294 36.6569 5.34185 38.9295 10.0388 41.1947C13.291 42.7584 17.3361 44.0474 21.8404 45.2059C27.7625 46.7415 34.1057 47.9213 40.5967 48.9164C41.6584 49.0733 42.6573 49.2234 43.719 49.3803C21.099 43.3354 9.68708 36.4322 12.5764 28.267ZM62.9344 52.3975C62.9322 52.4173 62.865 52.4501 62.8628 52.47C63.1114 52.5174 63.4205 52.5916 63.6691 52.6391C68.9618 53.5627 74.2679 54.3672 79.6457 55.0991C89.2143 56.3924 98.8724 57.4542 108.499 58.2312C109.505 58.3217 110.515 58.3724 111.469 58.3567C126.404 58.2298 141.169 57.9234 155.757 57.497C156.075 57.4918 156.398 57.4468 156.716 57.4416C156.028 57.3459 155.396 57.3166 154.763 57.3073C143.295 57.0917 131.787 56.6707 120.054 55.9839C113.747 55.612 107.442 55.2204 101.182 54.9944C90.6813 54.644 80.0892 53.982 69.4053 53.0084C67.273 52.774 65.0735 52.5723 62.9344 52.3975ZM39.1832 22.0461C39.1854 22.0263 39.1249 21.9995 39.1272 21.9797C37.8997 22.1663 36.6723 22.353 35.5076 22.5466C28.8442 23.6432 22.6623 24.9737 17.271 26.6122C16.7447 26.7755 16.2116 26.9983 15.9943 27.2357C14.4735 28.8977 13.8285 30.6762 14.4355 32.6123C15.6293 36.6634 20.7877 40.4668 29.8455 44.0357C35.7407 46.3724 42.6394 48.2565 50.0689 49.9377C52.2348 50.4372 54.4813 50.7847 56.8018 51.0398C66.5249 52.0887 76.277 52.8794 85.9262 53.4579C87.3776 53.537 88.829 53.6162 90.2826 53.6755C75.0407 52.0199 72.7224 51.7449 62.2289 50.2092C55.3593 49.1927 48.7026 47.9784 42.2698 46.467C35.7138 44.9221 29.691 43.1543 24.8597 40.9547C19.9074 38.7016 17.0606 36.3584 16.5096 33.9258C16.0369 31.924 17.1882 30.1611 19.4638 28.5619C22.4293 26.4758 26.9896 24.8866 32.3472 23.5459C34.6274 23.0327 36.903 22.5593 39.1832 22.0461Z" fill="white" fill-opacity="0.14"/>
</svg>
