<svg width="107" height="95" viewBox="0 0 107 95" fill="none" xmlns="http://www.w3.org/2000/svg">
<path d="M14.5464 75.3968C12.1159 74.7884 9.81117 73.8708 7.74035 72.48C6.48372 71.6503 5.3753 70.6674 4.56332 69.3781C4.14269 68.7081 3.83813 68.0049 3.68035 67.2339C3.52793 66.4429 3.39015 65.6772 3.23772 64.8862C3.02569 63.7576 3.04971 62.6281 3.25908 61.5267C3.45237 60.4854 3.64567 59.444 3.97894 58.4402C4.5612 56.6672 5.44735 55.0399 6.55741 53.5368C7.33352 52.4802 8.24819 51.5464 9.19749 50.6433C9.86107 50.0066 10.5193 49.3899 11.1829 48.7532C13.0976 46.8871 15.3597 45.5642 17.8028 44.5255C19.9578 43.6025 22.1937 42.9371 24.4151 42.2462C30.4773 40.4197 36.5196 38.5879 42.5912 36.8067C47.6181 35.3244 52.4962 33.4378 57.1961 31.0962C60.5896 29.3905 63.9631 27.6795 67.3566 25.9738C70.279 24.5063 73.2653 23.1202 76.3767 22.0677C79.8615 20.9009 83.3928 19.961 87.0355 19.5652C88.8722 19.35 90.6953 19.3455 92.5219 19.7278C94.2885 20.094 95.9041 20.7841 97.3632 21.8181C99.1701 23.0739 100.235 24.8596 100.914 26.8849C101.694 29.173 102.117 31.5154 102.262 33.9335C102.449 37.1558 101.989 40.3119 101.158 43.4117C100.692 45.1515 99.842 46.7242 98.8373 48.234C97.6054 50.1116 96.131 51.7743 94.4635 53.278C91.1592 56.2507 87.4728 58.6495 83.4575 60.5958C79.964 62.2747 76.3417 63.5547 72.609 64.5264C68.6041 65.5539 64.5515 66.4399 60.5149 67.2659C56.2715 68.1437 52.0374 69.0669 47.8444 70.2368C43.1217 71.5434 38.3751 72.7794 33.6578 74.066C32.8961 74.2692 32.1236 74.5123 31.3765 74.7408C28.7269 75.5098 26.0549 76.1228 23.2955 76.2621C21.2749 76.3638 19.2611 76.36 17.2637 75.9749C16.3224 75.8084 15.4371 75.5926 14.5464 75.3968Z" fill="#3824C7" fillOpacity="0.5"/>
<mask id="mask0_1960_2486" style="mask-type:alpha" maskUnits="userSpaceOnUse" x="3" y="19" width="100" height="58">
<path d="M14.5464 75.3968C12.1159 74.7884 9.81117 73.8708 7.74035 72.48C6.48372 71.6503 5.3753 70.6674 4.56332 69.3781C4.14269 68.7081 3.83813 68.0049 3.68035 67.2339C3.52793 66.4429 3.39015 65.6772 3.23772 64.8862C3.02569 63.7576 3.04971 62.6281 3.25908 61.5267C3.45237 60.4854 3.64567 59.444 3.97894 58.4402C4.5612 56.6672 5.44735 55.0399 6.55741 53.5368C7.33352 52.4802 8.24819 51.5464 9.19749 50.6433C9.86107 50.0066 10.5193 49.3899 11.1829 48.7532C13.0976 46.8871 15.3597 45.5642 17.8028 44.5255C19.9578 43.6025 22.1937 42.9371 24.4151 42.2462C30.4773 40.4197 36.5196 38.5879 42.5912 36.8067C47.6181 35.3244 52.4962 33.4378 57.1961 31.0962C60.5896 29.3905 63.9631 27.6795 67.3566 25.9738C70.279 24.5063 73.2653 23.1202 76.3767 22.0677C79.8615 20.9009 83.3928 19.961 87.0355 19.5652C88.8722 19.35 90.6953 19.3455 92.5219 19.7278C94.2885 20.094 95.9041 20.7841 97.3632 21.8181C99.1701 23.0739 100.235 24.8596 100.914 26.8849C101.694 29.173 102.117 31.5154 102.262 33.9335C102.449 37.1558 101.989 40.3119 101.158 43.4117C100.692 45.1515 99.842 46.7242 98.8373 48.234C97.6054 50.1116 96.131 51.7743 94.4635 53.278C91.1592 56.2507 87.4728 58.6495 83.4575 60.5958C79.964 62.2747 76.3417 63.5547 72.609 64.5264C68.6041 65.5539 64.5515 66.4399 60.5149 67.2659C56.2715 68.1437 52.0374 69.0669 47.8444 70.2368C43.1217 71.5434 38.3751 72.7794 33.6578 74.066C32.8961 74.2692 32.1236 74.5123 31.3765 74.7408C28.7269 75.5098 26.0549 76.1228 23.2955 76.2621C21.2749 76.3638 19.2611 76.36 17.2637 75.9749C16.3224 75.8084 15.4371 75.5926 14.5464 75.3968Z" fill="black"/>
</mask>
<g mask="url(#mask0_1960_2486)">
<path d="M113.561 50.4002C113.255 50.3398 113.025 50.3209 112.81 50.2419C112.035 50.013 111.266 49.764 110.492 49.535C106.128 48.3015 101.673 47.7294 97.1559 47.8693C90.8195 48.0791 84.5398 48.7971 78.4376 50.6129C68.7412 53.5233 59.8324 57.9737 51.911 64.339C46.7181 68.5204 41.6823 72.9154 36.8344 77.4894C32.5379 81.5252 28.0936 85.3928 23.3736 88.9293C22.0814 89.9119 20.7746 90.8693 19.3454 91.6437C18.6661 92.019 17.9429 92.3182 17.2251 92.5974C16.8662 92.737 16.4433 92.7952 16.0512 92.8187C15.0763 92.8576 14.3767 92.3486 14.2072 91.3815C14.1104 90.8626 14.0951 90.2798 14.1691 89.7638C14.2781 88.9571 14.4471 88.1664 14.696 87.3972C16.8561 81.0956 20.0117 75.3181 24.2815 70.182C26.9059 67.0271 29.9206 64.2554 33.1178 61.6826C38.611 57.2601 44.5834 53.6091 50.8887 50.4759C59.1996 46.3369 67.9503 43.516 77.0545 41.7758C81.9568 40.8388 86.8522 40.0072 91.7638 39.1155C95.4361 38.4491 99.0845 37.7119 102.648 36.652C105.419 35.8297 108.113 34.8154 110.623 33.3661C111.663 32.7658 112.678 32.0949 113.581 31.2865C114.397 30.5619 115.128 29.7506 115.592 28.7389C115.853 28.1658 116.014 27.5658 115.935 26.9016C115.87 26.2627 115.583 25.7356 115.092 25.3255C114.622 24.9209 114.069 24.6655 113.48 24.4647C111.701 23.9025 109.88 23.8216 108.034 23.9914C105.503 24.2351 103.047 24.8417 100.601 25.4936C95.7528 26.7881 91.019 28.4561 86.357 30.3363C80.8504 32.5689 75.2681 34.524 69.5847 36.2163C66.4856 37.1435 63.4157 38.1213 60.3219 39.0285C53.5739 41.0142 47.1838 43.8246 41.1313 47.4542C35.9464 50.566 31.0464 54.0543 26.3621 57.8576C23.8217 59.899 21.3453 62.0219 18.8488 64.1394C14.5035 67.7977 10.0741 71.3693 5.39453 74.5951C2.60491 76.5269 -0.277921 78.3265 -3.3657 79.7711C-5.42601 80.7409 -7.53416 81.5692 -9.74727 82.0694C-10.569 82.2564 -11.3747 82.3835 -12.2175 82.3291C-12.7842 82.2844 -13.3349 82.1798 -13.8427 81.9151C-14.669 81.4793 -15.195 80.8025 -15.4314 79.9247C-15.6823 79.0215 -15.6319 78.1134 -15.4361 77.2228C-15.0767 75.5615 -14.2588 74.1088 -13.2516 72.7497C-12.0333 71.0827 -10.5579 69.6562 -8.984 68.3417C-7.05363 66.737 -4.98615 65.3405 -2.81082 64.1015C4.90691 59.6964 12.3504 54.8748 19.6914 49.8758C24.6393 46.5289 29.7774 43.5117 35.1737 40.9709C39.9575 38.7161 44.9249 36.8963 49.944 35.2832C59.179 32.3349 68.5029 29.7748 77.9649 27.659C82.4565 26.6548 86.9149 25.5345 91.2976 24.1368C94.09 23.2346 96.8438 22.2363 99.4727 20.9045C100.886 20.19 102.221 19.3687 103.447 18.39C104.893 17.2341 106.131 15.894 107.057 14.2774C107.709 13.1232 108.056 11.9087 108.008 10.567C108.011 8.63851 107.059 7.31173 105.287 6.64412C103.85 6.0876 102.361 5.96713 100.836 6.13734C98.9593 6.34181 97.1915 6.93983 95.4516 7.67392C93.0845 8.66865 90.8292 9.88624 88.5832 11.1492C84.4715 13.4555 80.5208 16.0407 76.5701 18.6259C74.0515 20.2659 71.5276 21.9259 68.9745 23.5353C64.2699 26.4543 59.3217 28.9223 54.2326 31.1167C47.1099 34.1809 39.9009 37.0076 32.624 39.6875C29.3644 40.8932 25.9999 41.7708 22.6301 42.6683C19.5324 43.5101 16.42 44.3266 13.3887 45.4005C10.5188 46.432 7.72598 47.6556 5.17136 49.3503C2.85566 50.8732 0.766357 52.6711 -0.888729 54.9283C-1.65948 55.965 -2.32096 57.0738 -2.69855 58.3229C-2.89002 58.9575 -3.0015 59.6135 -2.96763 60.2871C-2.94409 60.6792 -2.84984 61.0474 -2.4981 61.3345C-2.5981 61.3077 -2.68881 61.3263 -2.78344 61.2795C-3.04198 61.1245 -3.16302 60.8563 -3.19335 60.5695C-3.23009 60.0667 -3.26147 59.5439 -3.19286 59.0478C-3.00598 57.7904 -2.47521 56.6895 -1.80444 55.626C-0.46292 53.4991 1.27426 51.7355 3.24855 50.2068C6.11856 47.9751 9.32384 46.4119 12.7248 45.1583C15.7215 44.0537 18.8046 43.1865 21.8916 42.3846C26.0886 41.2801 30.247 40.0794 34.2911 38.5052C36.945 37.4802 39.5842 36.4298 42.2434 35.3847C46.8439 33.5738 51.4352 31.7175 55.9494 29.6691C62.0928 26.8998 67.9142 23.5727 73.5413 19.8505C77.2744 17.3571 81.0662 14.9651 84.8779 12.5784C87.7661 10.7588 90.7714 9.142 93.8792 7.70272C95.347 7.02431 96.8334 6.43662 98.3823 6.01571C99.9965 5.59088 101.622 5.3621 103.296 5.59616C104.183 5.72659 105.048 5.937 105.865 6.3274C107.479 7.10285 108.376 8.39356 108.522 10.1688C108.679 11.9041 108.216 13.4732 107.307 14.9445C106.285 16.5996 104.951 17.9784 103.414 19.1528C101.72 20.4351 99.8708 21.4184 97.948 22.275C94.811 23.6635 91.549 24.7186 88.2484 25.6775C84.2967 26.8264 80.2787 27.7431 76.2607 28.6598C67.1054 30.7507 58.059 33.2351 49.1161 36.1331C44.2584 37.7037 39.4671 39.5063 34.8447 41.7187C29.8781 44.0959 25.1456 46.8789 20.5542 49.9355C16.5875 52.5807 12.6061 55.2005 8.60469 57.815C5.12115 60.0967 1.49121 62.1248 -2.10945 64.2037C-4.13799 65.3749 -6.12797 66.6421 -7.99547 68.0922C-9.92441 69.6116 -11.7001 71.2792 -13.1256 73.3193C-13.831 74.352 -14.4418 75.4315 -14.8233 76.6154C-15.0508 77.3046 -15.1784 78.0206 -15.1606 78.7541C-15.1282 80.7133 -13.9881 81.8976 -12.0343 81.8852C-11.3261 81.8821 -10.6111 81.7736 -9.93079 81.6344C-7.40556 81.0893 -5.05312 80.0692 -2.74853 78.9077C0.664971 77.2074 3.77352 75.1253 6.82351 72.9417C11.4953 69.5852 15.9114 65.903 20.2782 62.1647C24.1818 58.7952 28.164 55.5326 32.3379 52.5142C37.4115 48.8581 42.7393 45.613 48.3798 42.8805C52.4658 40.9102 56.7392 39.4403 61.0605 38.1119C66.5024 36.4406 71.9297 34.7441 77.3531 32.9822C79.7519 32.1888 82.1229 31.2595 84.4739 30.3247C88.5234 28.7305 92.5876 27.1617 96.7621 25.9011C99.417 25.1121 102.101 24.3738 104.837 23.8423C106.601 23.5003 108.363 23.2437 110.164 23.3192C111.59 23.3582 112.993 23.5626 114.328 24.1777C114.483 24.2406 114.632 24.3234 114.761 24.4009C116.722 25.4835 116.782 27.2573 116.226 28.6943C115.817 29.7421 115.129 30.6295 114.342 31.4047C113.071 32.6288 111.614 33.5886 110.043 34.4109C107.596 35.7057 105.003 36.6614 102.328 37.4451C98.8209 38.4558 95.2632 39.1744 91.6816 39.8222C86.5686 40.7457 81.441 41.6437 76.3573 42.6179C70.6133 43.7366 64.9582 45.2435 59.4984 47.3815C50.9551 50.708 42.9134 54.9621 35.5731 60.5186C32.9074 62.5479 30.3548 64.7146 27.9701 67.055C24.0126 70.9458 20.8292 75.3871 18.3054 80.3265C17.2774 82.3231 16.3241 84.3611 15.58 86.498C15.1531 87.6911 14.7516 88.8696 14.6647 90.1538C14.6429 90.5552 14.6465 90.942 14.7353 91.3301C14.8892 92.0358 15.3302 92.3898 16.0545 92.3266C16.4666 92.3084 16.8801 92.2049 17.259 92.0707C18.2037 91.7451 19.1004 91.278 19.8933 90.7188C21.5043 89.5858 23.1154 88.4528 24.6626 87.2384C29.1504 83.7683 33.3426 79.9618 37.4509 76.0684C41.8649 71.9141 46.4467 67.9333 51.1364 64.11C57.2572 59.1055 64.046 55.2874 71.3579 52.3168C80.2976 48.7107 89.5897 47.1494 99.2065 47.1756C102.205 47.1859 105.146 47.5668 108.062 48.2838C109.912 48.7368 111.715 49.3698 113.413 50.232C113.433 50.2374 113.442 50.2827 113.561 50.4002Z" fill="#001F29"/>
</g>
<path d="M54.3093 46.9111C54.0423 46.8039 53.8864 46.667 53.7048 46.6561C47.1123 44.7292 40.4315 43.362 33.467 43.3815C30.3128 43.3927 27.2221 43.8634 24.1761 44.5009C23.3831 44.6538 22.5196 44.766 21.7117 44.8633C21.4189 44.8822 21.0557 44.8604 20.7887 44.7533C20.6477 44.6719 20.4621 44.4238 20.473 44.2421C20.4839 44.0605 20.732 43.8749 20.8988 43.8302C28.3505 42.0718 35.9035 41.3585 43.4924 42.7802C47.3852 43.5242 51.2372 44.3387 55.0119 45.5314C55.4049 45.6644 55.9796 45.8083 56.2982 45.6633C60.4398 43.7792 64.8575 43.3699 69.2574 43.561C76.0591 43.8235 82.8242 44.3936 89.6151 44.8377C90.0339 44.8446 90.5232 44.8922 91.0641 44.6877C87.473 41.9566 83.8411 39.2959 80.1794 36.5241C80.6717 35.9157 81.1461 35.9077 81.6652 36.0664C82.2548 36.2659 82.8999 36.4504 83.4637 36.7759C86.5238 38.6367 89.5839 40.4974 92.6034 42.4286C93.2525 42.8503 93.8203 43.413 94.3324 43.9906C95.3013 45.1607 94.9728 46.3806 93.5873 46.9901C90.857 48.1387 88.1674 49.2168 85.4072 50.2542C84.6033 50.5888 84.0138 50.3893 83.7388 49.8077C83.5343 49.2668 83.7893 48.6623 84.5783 48.2722C85.9489 47.6071 87.3493 47.0532 88.8867 46.3434C88.5641 46.2511 88.4232 46.1697 88.2415 46.1588C81.4547 45.952 74.6529 45.6895 67.8402 45.6087C65.8016 45.5593 63.7004 45.9436 61.6807 46.1869C60.8728 46.2842 60.0689 46.6188 59.0684 46.8869C59.5061 47.1866 59.8585 47.39 60.1404 47.5528C62.4769 48.7138 64.7062 50.1418 66.6209 51.952C68.3094 53.5846 69.5829 55.4474 70.1528 57.7967C70.3058 58.5897 70.4736 59.4383 70.4597 60.276C70.4382 63.9751 67.8172 66.6432 63.996 66.8331C59.2558 67.1502 52.547 64.1226 50.8602 57.6048C49.8773 53.9365 50.8556 50.6959 53.3764 47.8759C53.6503 47.5642 53.9798 47.2377 54.3093 46.9111ZM68.6115 58.2693C67.99 56.1721 66.9576 54.5425 65.5253 53.1987C63.3247 50.9886 60.6467 49.4425 57.8616 48.1633C57.2423 47.8527 56.742 47.9868 56.1753 48.3173C53.2754 50.1667 51.8346 54.1269 52.8244 57.3764C54.1825 61.7781 59.1832 65.3229 63.8271 65.0913C66.9516 64.9689 68.8432 62.9133 68.7913 59.8295C68.7535 59.2439 68.6453 58.6176 68.6115 58.2693Z" fill="white"/>
</svg>
