<svg width="107" height="95" viewBox="0 0 107 95" fill="none" xmlns="http://www.w3.org/2000/svg">
<path d="M91.9601 19.5138C94.3906 20.1222 96.6954 21.0399 98.7662 22.4307C100.023 23.2604 101.131 24.2432 101.943 25.5325C102.364 26.2025 102.668 26.9057 102.826 27.6767C102.979 28.4678 103.116 29.2334 103.269 30.0245C103.481 31.153 103.457 32.2826 103.248 33.3839C103.054 34.4252 102.861 35.4666 102.528 36.4704C101.945 38.2435 101.059 39.8708 99.9492 41.3738C99.1731 42.4305 98.2584 43.3643 97.3091 44.2673C96.6455 44.904 95.9873 45.5207 95.3237 46.1574C93.409 48.0235 91.1469 49.3465 88.7038 50.3851C86.5488 51.3081 84.3128 51.9736 82.0915 52.6644C76.0292 54.4909 69.987 56.3228 63.9154 58.1039C58.8885 59.5863 54.0104 61.4729 49.3105 63.8145C45.917 65.5201 42.5435 67.2312 39.15 68.9368C36.2276 70.4043 33.2412 71.7904 30.1299 72.8429C26.6451 74.0097 23.1138 74.9497 19.4711 75.3454C17.6344 75.5606 15.8113 75.5651 13.9847 75.1828C12.2181 74.8166 10.6025 74.1265 9.14341 73.0926C7.33648 71.8368 6.27171 70.0511 5.59264 68.0258C4.81253 65.7377 4.3899 63.3953 4.24476 60.9772C4.05791 57.7549 4.51779 54.5987 5.34836 51.499C5.81455 49.7591 6.66463 48.1865 7.66934 46.6766C8.90121 44.799 10.3755 43.1364 12.0431 41.6327C15.3474 38.66 19.0338 36.2611 23.049 34.3148C26.5425 32.6359 30.1649 31.356 33.8976 30.3842C37.9024 29.3568 41.9551 28.4708 45.9917 27.6447C50.2351 26.7669 54.4692 25.8438 58.6622 24.6739C63.3849 23.3672 68.1315 22.1313 72.8488 20.8446C73.6105 20.6415 74.383 20.3983 75.1301 20.1698C77.7796 19.4008 80.4517 18.7879 83.2111 18.6485C85.2317 18.5469 87.2455 18.5506 89.2429 18.9358C90.1842 19.1023 91.0695 19.3181 91.9601 19.5138Z" fill="#3824C7" fill-opacity="0.5"/>
<mask id="mask0_1971_2538" style="mask-type:alpha" maskUnits="userSpaceOnUse" x="4" y="18" width="100" height="58">
<path d="M91.9601 19.5138C94.3906 20.1222 96.6954 21.0399 98.7662 22.4307C100.023 23.2604 101.131 24.2432 101.943 25.5325C102.364 26.2025 102.668 26.9057 102.826 27.6767C102.979 28.4678 103.116 29.2334 103.269 30.0245C103.481 31.153 103.457 32.2826 103.248 33.3839C103.054 34.4252 102.861 35.4666 102.528 36.4704C101.945 38.2435 101.059 39.8708 99.9492 41.3738C99.1731 42.4305 98.2584 43.3643 97.3091 44.2673C96.6455 44.904 95.9873 45.5207 95.3237 46.1574C93.409 48.0235 91.1469 49.3465 88.7038 50.3851C86.5488 51.3081 84.3128 51.9736 82.0915 52.6644C76.0292 54.4909 69.987 56.3228 63.9154 58.1039C58.8885 59.5863 54.0104 61.4729 49.3105 63.8145C45.917 65.5201 42.5435 67.2312 39.15 68.9368C36.2276 70.4043 33.2412 71.7904 30.1299 72.8429C26.6451 74.0097 23.1138 74.9497 19.4711 75.3454C17.6344 75.5606 15.8113 75.5651 13.9847 75.1828C12.2181 74.8166 10.6025 74.1265 9.14341 73.0926C7.33648 71.8368 6.27171 70.0511 5.59264 68.0258C4.81253 65.7377 4.3899 63.3953 4.24476 60.9772C4.05791 57.7549 4.51779 54.5987 5.34836 51.499C5.81455 49.7591 6.66463 48.1865 7.66934 46.6766C8.90121 44.799 10.3755 43.1364 12.0431 41.6327C15.3474 38.66 19.0338 36.2611 23.049 34.3148C26.5425 32.6359 30.1649 31.356 33.8976 30.3842C37.9024 29.3568 41.9551 28.4708 45.9917 27.6447C50.2351 26.7669 54.4692 25.8438 58.6622 24.6739C63.3849 23.3672 68.1315 22.1313 72.8488 20.8446C73.6105 20.6415 74.383 20.3983 75.1301 20.1698C77.7796 19.4008 80.4517 18.7879 83.2111 18.6485C85.2317 18.5469 87.2455 18.5506 89.2429 18.9358C90.1842 19.1023 91.0695 19.3181 91.9601 19.5138Z" fill="black"/>
</mask>
<g mask="url(#mask0_1971_2538)">
<path d="M-7.05421 44.5104C-6.74888 44.5708 -6.51818 44.5898 -6.30356 44.6687C-5.52898 44.8977 -4.75978 45.1467 -3.98521 45.3756C0.378331 46.6092 4.83335 47.1813 9.35057 47.0413C15.687 46.8315 21.9666 46.1135 28.0689 44.2978C37.7653 41.3873 46.674 36.937 54.5955 30.5716C59.7884 26.3902 64.8241 21.9952 69.6721 17.4213C73.9686 13.3855 78.4129 9.5179 83.1329 5.98138C84.425 4.9987 85.7318 4.04138 87.1611 3.2669C87.8404 2.89163 88.5635 2.59244 89.2814 2.31323C89.6403 2.17363 90.0631 2.11546 90.4553 2.09192C91.4302 2.05307 92.1297 2.56202 92.2993 3.52912C92.396 4.04801 92.4113 4.63084 92.3374 5.14687C92.2284 5.95359 92.0594 6.74425 91.8104 7.51346C89.6504 13.815 86.4947 19.5926 82.2249 24.7287C79.6005 27.8836 76.5858 30.6553 73.3887 33.2281C67.8954 37.6505 61.923 41.3016 55.6178 44.4347C47.3069 48.5738 38.5562 51.3946 29.452 53.1348C24.5497 54.0718 19.6542 54.9035 14.7427 55.7952C11.0704 56.4616 7.42197 57.1987 3.85854 58.2587C1.08757 59.0809 -1.60626 60.0953 -4.11658 61.5446C-5.15621 62.1448 -6.17192 62.8158 -7.07443 63.6242C-7.89015 64.3487 -8.62196 65.16 -9.08595 66.1717C-9.34669 66.7449 -9.50745 67.3448 -9.42822 68.0091C-9.36364 68.648 -9.0762 69.1751 -8.58591 69.5851C-8.11562 69.9898 -7.56246 70.2452 -6.97324 70.4459C-5.19483 71.0082 -3.37317 71.089 -1.5272 70.9192C1.00302 70.6755 3.45898 70.069 5.90566 69.4171C10.7537 68.1226 15.4874 66.4545 20.1494 64.5743C25.6561 62.3417 31.2384 60.3866 36.9217 58.6944C40.0209 57.7672 43.0908 56.7893 46.1846 55.8821C52.9325 53.8964 59.3227 51.0861 65.3751 47.4565C70.5601 44.3446 75.46 40.8563 80.1443 37.053C82.6847 35.0116 85.1612 32.8887 87.6576 30.7712C92.003 27.1129 96.4323 23.5414 101.112 20.3156C103.902 18.3838 106.784 16.5842 109.872 15.1395C111.932 14.1698 114.041 13.3414 116.254 12.8413C117.075 12.6542 117.881 12.5272 118.724 12.5815C119.291 12.6262 119.841 12.7309 120.349 12.9956C121.176 13.4313 121.701 14.1081 121.938 14.9859C122.189 15.8891 122.138 16.7972 121.943 17.6879C121.583 19.3492 120.765 20.8019 119.758 22.161C118.54 23.8279 117.064 25.2545 115.49 26.5689C113.56 28.1736 111.493 29.5701 109.317 30.8092C101.6 35.2143 94.156 40.0358 86.815 45.0349C81.8672 48.3817 76.7291 51.399 71.3328 53.9398C66.5489 56.1946 61.5816 58.0144 56.5625 59.6274C47.3275 62.5757 38.0036 65.1358 28.5415 67.2517C24.0499 68.2559 19.5916 69.3761 15.2089 70.7739C12.4165 71.6761 9.66264 72.6743 7.03377 74.0062C5.62059 74.7206 4.28596 75.5419 3.05917 76.5207C1.61344 77.6765 0.375558 79.0167 -0.550596 80.6333C-1.20279 81.7875 -1.54966 83.002 -1.50193 84.3437C-1.50423 86.2721 -0.552263 87.5989 1.21935 88.2665C2.65636 88.823 4.14588 88.9435 5.67045 88.7733C7.54713 88.5688 9.31493 87.9708 11.0549 87.2367C13.422 86.242 15.6773 85.0244 17.9233 83.7615C22.035 81.4552 25.9857 78.87 29.9364 76.2848C32.4549 74.6447 34.9788 72.9847 37.532 71.3754C42.2366 68.4563 47.1847 65.9883 52.2739 63.7939C59.3965 60.7297 66.6056 57.903 73.8825 55.2231C77.142 54.0174 80.5065 53.1399 83.8764 52.2424C86.9741 51.4006 90.0865 50.5841 93.1178 49.5101C95.9877 48.4787 98.7805 47.2551 101.335 45.5604C103.651 44.0375 105.74 42.2395 107.395 39.9823C108.166 38.9457 108.827 37.8369 109.205 36.5877C109.396 35.9531 109.508 35.2971 109.474 34.6236C109.451 34.2315 109.356 33.8633 109.005 33.5761C109.105 33.6029 109.195 33.5843 109.29 33.6311C109.548 33.7861 109.669 34.0543 109.7 34.3411C109.737 34.8439 109.768 35.3668 109.699 35.8628C109.512 37.1202 108.982 38.2212 108.311 39.2846C106.969 41.4115 105.232 43.1752 103.258 44.7038C100.388 46.9356 97.1826 48.4988 93.7817 49.7523C90.785 50.857 87.7019 51.7242 84.6149 52.526C80.4179 53.6306 76.2595 54.8312 72.2153 56.4054C69.5615 57.4305 66.9223 58.4809 64.2631 59.5259C59.6625 61.3369 55.0712 63.1931 50.5571 65.2415C44.4136 68.0108 38.5923 71.338 32.9652 75.0601C29.232 77.5536 25.4403 79.9456 21.6285 82.3322C18.7404 84.1519 15.7351 85.7687 12.6273 87.2079C11.1595 87.8863 9.67307 88.474 8.12421 88.8949C6.50999 89.3198 4.884 89.5486 3.21056 89.3145C2.32384 89.1841 1.45856 88.9737 0.641503 88.5832C-0.972608 87.8078 -1.86994 86.5171 -2.01585 84.7418C-2.17248 83.0066 -1.70916 81.4374 -0.800518 79.9662C0.221699 78.311 1.55566 76.9323 3.09209 75.7579C4.78602 74.4756 6.63563 73.4922 8.55843 72.6357C11.6955 71.2471 14.9575 70.1921 18.2581 69.2332C22.2097 68.0843 26.2278 67.1675 30.2458 66.2508C39.4011 64.1599 48.4475 61.6755 57.3904 58.7775C62.2481 57.207 67.0393 55.4043 71.6617 53.192C76.6284 50.8147 81.3608 48.0317 85.9522 44.9752C89.919 42.33 93.9004 39.7101 97.9018 37.0956C101.385 34.8139 105.015 32.7858 108.616 30.707C110.644 29.5358 112.634 28.2685 114.502 26.8184C116.431 25.2991 118.207 23.6315 119.632 21.5914C120.337 20.5586 120.948 19.4791 121.33 18.2953C121.557 17.6061 121.685 16.8901 121.667 16.1565C121.635 14.1974 120.495 13.0131 118.541 13.0254C117.833 13.0285 117.118 13.1371 116.437 13.2763C113.912 13.8214 111.56 14.8415 109.255 16.003C105.841 17.7033 102.733 19.7854 99.683 21.9689C95.0112 25.3254 90.5951 29.0077 86.2283 32.746C82.3246 36.1154 78.3425 39.3781 74.1686 42.3965C69.095 46.0526 63.7672 49.2976 58.1266 52.0302C54.0407 54.0004 49.7672 55.4703 45.446 56.7988C40.004 58.47 34.5767 60.1666 29.1534 61.9285C26.7545 62.7218 24.3835 63.6512 22.0325 64.5859C17.983 66.1801 13.9189 67.749 9.74438 69.0096C7.08949 69.7986 4.40531 70.5369 1.66937 71.0684C-0.094115 71.4104 -1.85616 71.667 -3.65783 71.5915C-5.08345 71.5524 -6.48619 71.348 -7.82177 70.733C-7.9764 70.6701 -8.12567 70.5872 -8.25494 70.5097C-10.2154 69.4271 -10.276 67.6533 -9.71947 66.2163C-9.31012 65.1686 -8.62224 64.2812 -7.8358 63.5059C-6.5647 62.2818 -5.10722 61.322 -3.53654 60.4997C-1.08909 59.205 1.50333 58.2492 4.17823 57.4656C7.68558 56.4549 11.2433 55.7363 14.8249 55.0884C19.9379 54.165 25.0655 53.2669 30.1491 52.2928C35.8931 51.1741 41.5483 49.6671 47.0081 47.5292C55.5514 44.2026 63.593 39.9486 70.9334 34.3921C73.5991 32.3628 76.1516 30.196 78.5363 27.8556C82.4939 23.9648 85.6773 19.5236 88.2011 14.5841C89.2291 12.5876 90.1824 10.5495 90.9265 8.41261C91.3533 7.21951 91.7548 6.04105 91.8417 4.75686C91.8635 4.35545 91.86 3.9687 91.7711 3.5805C91.6173 2.87482 91.1762 2.52088 90.452 2.58403C90.0399 2.6022 89.6263 2.70573 89.2474 2.83997C88.3028 3.16558 87.406 3.63262 86.6132 4.1918C85.0021 5.32481 83.391 6.45781 81.8439 7.67224C77.356 11.1423 73.1638 14.9489 69.0556 18.8422C64.6416 22.9966 60.0597 26.9773 55.3701 30.8006C49.2493 35.8051 42.4605 39.6232 35.1486 42.5938C26.2088 46.2 16.9168 47.7612 7.29994 47.735C4.30191 47.7248 1.36035 47.3438 -1.55547 46.6268C-3.40602 46.1739 -5.20836 45.5409 -6.90639 44.6787C-6.92639 44.6733 -6.93566 44.6279 -7.05421 44.5104Z" fill="#001F29"/>
</g>
<path d="M52.1974 47.9996C52.4644 48.1067 52.6203 48.2437 52.8019 48.2546C59.3944 50.1815 66.0752 51.5486 73.0397 51.5292C76.1939 51.518 79.2846 51.0472 82.3306 50.4098C83.1236 50.2569 83.9871 50.1446 84.795 50.0473C85.0878 50.0284 85.451 50.0502 85.718 50.1574C85.859 50.2388 86.0446 50.4869 86.0337 50.6685C86.0228 50.8501 85.7747 51.0358 85.608 51.0804C78.1563 52.8388 70.6032 53.5521 63.0143 52.1305C59.1216 51.3864 55.2695 50.5719 51.4948 49.3792C51.1018 49.2463 50.5271 49.1024 50.2085 49.2473C46.0669 51.1315 41.6492 51.5408 37.2494 51.3496C30.4476 51.0872 23.6825 50.5171 16.8916 50.073C16.4728 50.0661 15.9835 50.0185 15.4426 50.223C19.0338 52.9541 22.6656 55.6147 26.3273 58.3865C25.835 58.995 25.3606 59.003 24.8415 58.8442C24.2519 58.6448 23.6068 58.4602 23.043 58.1347C19.9829 56.274 16.9228 54.4133 13.9034 52.4821C13.2542 52.0603 12.6865 51.4976 12.1743 50.92C11.2055 49.7499 11.5339 48.5301 12.9194 47.9206C15.6497 46.772 18.3394 45.6939 21.0995 44.6564C21.9034 44.3219 22.493 44.5213 22.7679 45.1029C22.9724 45.6438 22.7174 46.2483 21.9284 46.6384C20.5578 47.3035 19.1574 47.8575 17.62 48.5673C17.9426 48.6595 18.0835 48.7409 18.2652 48.7518C25.0521 48.9587 31.8538 49.2211 38.6665 49.3019C40.7051 49.3514 42.8063 48.9671 44.826 48.7237C45.6339 48.6264 46.4379 48.2919 47.4383 48.0238C47.0006 47.7241 46.6482 47.5206 46.3663 47.3579C44.0298 46.1968 41.8005 44.7688 39.8858 42.9586C38.1973 41.3261 36.9238 39.4632 36.3539 37.1139C36.201 36.3209 36.0331 35.4723 36.047 34.6347C36.0685 30.9355 38.6895 28.2674 42.5107 28.0775C47.251 27.7605 53.9597 30.7881 55.6465 37.3058C56.6294 40.9741 55.6511 44.2148 53.1303 47.0347C52.8564 47.3464 52.5269 47.673 52.1974 47.9996ZM37.8952 36.6414C38.5167 38.7385 39.5491 40.3682 40.9814 41.7119C43.182 43.9221 45.86 45.4682 48.6451 46.7473C49.2645 47.0579 49.7647 46.9239 50.3314 46.5933C53.2314 44.744 54.6722 40.7837 53.6823 37.5343C52.3242 33.1326 47.3236 29.5877 42.6796 29.8194C39.5551 29.9417 37.6636 31.9974 37.7154 35.0811C37.7532 35.6667 37.8614 36.293 37.8952 36.6414Z" fill="white"/>
</svg>
