<svg width="252" height="77" viewBox="0 0 252 77" fill="none" xmlns="http://www.w3.org/2000/svg">
<path d="M37.194 47.472C37.194 47.6213 37.1407 47.7813 37.034 47.952C36.9273 48.1227 36.778 48.208 36.586 48.208C36.4793 48.208 36.362 48.176 36.234 48.112C35.466 47.7493 34.57 47.4507 33.546 47.216C32.522 47.0027 31.466 46.8107 30.378 46.64C29.3113 46.4693 28.266 46.2773 27.242 46.064C26.218 45.872 25.322 45.616 24.554 45.296C24.682 45.5733 24.81 45.7973 24.938 45.968C25.066 46.1387 25.1727 46.288 25.258 46.416C25.3647 46.544 25.45 46.6613 25.514 46.768C25.578 46.896 25.61 47.056 25.61 47.248C25.61 47.4187 25.546 47.5467 25.418 47.632C25.29 47.7173 25.162 47.76 25.034 47.76C24.778 47.76 24.5007 47.6 24.202 47.28C23.9247 46.96 23.6367 46.5547 23.338 46.064C23.0393 45.5733 22.7407 45.0293 22.442 44.432C22.1647 43.8133 21.9087 43.216 21.674 42.64C21.4393 42.064 21.2367 41.5413 21.066 41.072C20.8953 40.5813 20.778 40.208 20.714 39.952L19.306 34.32C19.306 34.256 19.3167 34.1707 19.338 34.064C19.3807 33.9573 19.466 33.8507 19.594 33.744C19.5087 33.5733 19.466 33.392 19.466 33.2C19.466 32.6027 19.8073 32.0587 20.49 31.568C21.1727 31.056 21.994 30.6293 22.954 30.288C23.9353 29.9253 24.9593 29.648 26.026 29.456C27.0927 29.264 27.9993 29.168 28.746 29.168C28.9593 29.168 29.2793 29.1893 29.706 29.232C30.1327 29.2533 30.5487 29.328 30.954 29.456C31.3807 29.584 31.7433 29.7867 32.042 30.064C32.362 30.32 32.522 30.6827 32.522 31.152C32.522 31.6 32.2873 32.112 31.818 32.688C31.37 33.264 30.8047 33.872 30.122 34.512C29.4393 35.152 28.7033 35.8133 27.914 36.496C27.1247 37.1573 26.3887 37.8293 25.706 38.512C25.0233 39.1733 24.4473 39.824 23.978 40.464C23.53 41.0827 23.306 41.6587 23.306 42.192C23.306 42.5973 23.4767 42.96 23.818 43.28C24.1807 43.5787 24.6287 43.8453 25.162 44.08C25.6953 44.3147 26.2713 44.5173 26.89 44.688C27.53 44.8587 28.1273 44.9973 28.682 45.104C29.258 45.2107 29.7487 45.296 30.154 45.36C30.5807 45.4027 30.8367 45.424 30.922 45.424C31.1993 45.424 31.6793 45.456 32.362 45.52C33.0447 45.584 33.738 45.7013 34.442 45.872C35.1673 46.0213 35.8073 46.224 36.362 46.48C36.9167 46.736 37.194 47.0667 37.194 47.472ZM31.018 31.184C31.018 31.0347 30.9433 30.9067 30.794 30.8C30.6447 30.672 30.442 30.576 30.186 30.512C29.9513 30.4267 29.6847 30.3733 29.386 30.352C29.1087 30.3093 28.8313 30.288 28.554 30.288C28.1273 30.288 27.6153 30.352 27.018 30.48C26.4207 30.608 25.8127 30.768 25.194 30.96C24.5967 31.152 24.042 31.344 23.53 31.536C23.018 31.728 22.6447 31.888 22.41 32.016C21.962 32.272 21.5247 32.56 21.098 32.88C20.6713 33.1787 20.458 33.4773 20.458 33.776C20.458 33.8187 20.49 33.8613 20.554 33.904C20.618 33.9467 20.65 34.0213 20.65 34.128C20.65 34.256 20.714 34.5867 20.842 35.12C20.97 35.632 21.1193 36.2187 21.29 36.88C21.4607 37.52 21.642 38.16 21.834 38.8C22.0473 39.44 22.2393 39.952 22.41 40.336C23.2847 39.0987 24.2233 38.0213 25.226 37.104C26.25 36.1653 27.1887 35.344 28.042 34.64C28.8953 33.9147 29.5993 33.2853 30.154 32.752C30.73 32.1973 31.018 31.6747 31.018 31.184ZM44.801 42.64C44.8223 42.6827 44.833 42.7467 44.833 42.832C44.833 42.96 44.737 43.152 44.545 43.408C44.481 43.4933 44.3423 43.632 44.129 43.824C43.9157 44.016 43.6277 44.208 43.265 44.4C42.9023 44.592 42.4543 44.7627 41.921 44.912C41.409 45.0613 40.801 45.136 40.097 45.136C39.6063 45.136 39.1263 45.0293 38.657 44.816C38.1877 44.5813 37.7717 44.2507 37.409 43.824C37.0463 43.376 36.7477 42.832 36.513 42.192C36.2783 41.5307 36.161 40.7627 36.161 39.888C36.161 39.056 36.2677 38.2773 36.481 37.552C36.6943 36.8267 36.961 36.1867 37.281 35.632C37.6223 35.0773 37.9957 34.64 38.401 34.32C38.8063 34 39.201 33.84 39.585 33.84C39.9263 33.84 40.2677 33.9147 40.609 34.064C40.9717 34.192 41.2917 34.3627 41.569 34.576C41.8677 34.7893 42.1023 35.0347 42.273 35.312C42.4437 35.568 42.529 35.8347 42.529 36.112C42.529 36.432 42.3797 36.7627 42.081 37.104C41.8037 37.4453 41.4623 37.7653 41.057 38.064C40.6517 38.3413 40.2463 38.576 39.841 38.768C39.4357 38.9387 39.1157 39.024 38.881 39.024C38.753 39.024 38.6357 38.9707 38.529 38.864C38.4437 38.736 38.401 38.5867 38.401 38.416C38.401 38.1173 38.529 37.8827 38.785 37.712C39.0623 37.5413 39.361 37.392 39.681 37.264C40.001 37.1147 40.289 36.944 40.545 36.752C40.8223 36.56 40.961 36.2933 40.961 35.952C40.961 35.9093 40.9077 35.8027 40.801 35.632C40.6943 35.4613 40.4063 35.376 39.937 35.376C39.7237 35.376 39.4783 35.504 39.201 35.76C38.9237 35.9947 38.657 36.3253 38.401 36.752C38.145 37.1573 37.9317 37.648 37.761 38.224C37.5903 38.7787 37.505 39.3867 37.505 40.048C37.505 40.6027 37.601 41.104 37.793 41.552C38.0063 42 38.273 42.384 38.593 42.704C38.913 43.0027 39.2863 43.2373 39.713 43.408C40.1397 43.5787 40.577 43.664 41.025 43.664C41.345 43.664 41.6863 43.6 42.049 43.472C42.433 43.3227 42.785 43.1733 43.105 43.024C43.4463 42.8533 43.7343 42.704 43.969 42.576C44.225 42.4267 44.385 42.352 44.449 42.352C44.513 42.352 44.577 42.384 44.641 42.448C44.7263 42.512 44.7797 42.576 44.801 42.64ZM54.9973 43.184C54.9973 43.4187 54.9119 43.5787 54.7413 43.664C54.5706 43.7493 54.4853 43.8667 54.4853 44.016C54.4639 43.9947 54.5066 44.112 54.6133 44.368C54.7199 44.624 54.8159 44.8907 54.9013 45.168C55.0506 45.744 55.1786 46.2453 55.2853 46.672C55.4133 47.0987 55.5093 47.4933 55.5733 47.856C55.6586 48.2187 55.7226 48.5813 55.7653 48.944C55.8079 49.3067 55.8293 49.712 55.8293 50.16C55.8293 50.608 55.7546 51.0667 55.6053 51.536C55.4559 52.0053 55.2426 52.4213 54.9653 52.784C54.6879 53.1467 54.3466 53.4453 53.9413 53.68C53.5359 53.9147 53.0773 54.032 52.5653 54.032C51.7759 54.032 51.1466 53.872 50.6773 53.552C50.2293 53.232 49.8879 52.8693 49.6533 52.464C49.4186 52.0587 49.2693 51.6533 49.2053 51.248C49.1413 50.864 49.1093 50.608 49.1093 50.48C49.1093 49.6907 49.3119 48.9013 49.7173 48.112C50.1226 47.3227 50.5706 46.608 51.0613 45.968C51.5519 45.328 51.9999 44.7947 52.4053 44.368C52.8106 43.9413 53.0133 43.696 53.0133 43.632L52.6613 42.576C52.4479 42.832 52.2559 43.12 52.0853 43.44C51.9359 43.7387 51.7653 44.0267 51.5733 44.304C51.4026 44.56 51.1893 44.784 50.9333 44.976C50.6986 45.1467 50.3999 45.232 50.0373 45.232C49.6533 45.232 49.2693 45.1147 48.8853 44.88C48.5013 44.6453 48.1599 44.2933 47.8613 43.824C47.5626 43.3547 47.3173 42.7893 47.1253 42.128C46.9546 41.4667 46.8693 40.6987 46.8693 39.824C46.8693 39.3333 46.9439 38.7253 47.0933 38C47.2426 37.2533 47.4773 36.5387 47.7973 35.856C48.1173 35.1733 48.5119 34.5973 48.9813 34.128C49.4719 33.6373 50.0373 33.392 50.6773 33.392C51.0399 33.392 51.3706 33.456 51.6693 33.584C51.9893 33.712 52.1493 33.872 52.1493 34.064C52.1493 34.2347 52.1173 34.3733 52.0533 34.48C51.9893 34.5867 51.9039 34.6933 51.7973 34.8C51.7333 34.7573 51.6586 34.7147 51.5733 34.672C51.5093 34.6293 51.4133 34.608 51.2853 34.608C50.8159 34.608 50.3893 34.8213 50.0052 35.248C49.6426 35.6533 49.3333 36.1653 49.0773 36.784C48.8213 37.3813 48.6186 38.0107 48.4693 38.672C48.3413 39.3333 48.2773 39.9093 48.2773 40.4C48.2773 41.488 48.4586 42.32 48.8213 42.896C49.1839 43.4507 49.5679 43.728 49.9733 43.728C50.1653 43.728 50.3679 43.5893 50.5813 43.312C50.8159 43.0133 51.0293 42.6933 51.2213 42.352C51.4346 41.9893 51.6159 41.648 51.7653 41.328C51.9146 41.008 51.9999 40.816 52.0213 40.752C52.0639 40.5387 52.0853 40.2933 52.0853 40.016C52.0853 39.7813 52.0746 39.5253 52.0533 39.248C52.0533 38.9493 52.0533 38.6507 52.0533 38.352C52.0533 37.7973 52.0959 37.3387 52.1813 36.976C52.2666 36.592 52.4799 36.4 52.8213 36.4C53.1626 36.4 53.4079 36.5067 53.5573 36.72C53.7066 36.912 53.7812 37.1467 53.7812 37.424C53.7812 37.616 53.7706 37.8507 53.7493 38.128C53.7493 38.384 53.7493 38.64 53.7493 38.896C53.7493 39.1307 53.7386 39.344 53.7173 39.536C53.7173 39.7067 53.7173 39.8133 53.7173 39.856C53.7173 39.984 53.7279 40.176 53.7493 40.432C53.7919 40.6667 53.8239 40.912 53.8453 41.168C53.8879 41.4027 53.9199 41.6267 53.9413 41.84C53.9839 42.032 54.0159 42.16 54.0373 42.224C54.0586 42.288 54.0906 42.384 54.1333 42.512C54.1759 42.64 54.2186 42.736 54.2613 42.8C54.2826 42.7573 54.3253 42.7147 54.3893 42.672C54.4533 42.608 54.5066 42.5547 54.5493 42.512C54.6559 42.576 54.7519 42.704 54.8373 42.896C54.9439 43.0667 54.9973 43.1627 54.9973 43.184ZM53.9093 47.248C53.8239 46.9067 53.7279 46.5653 53.6213 46.224C53.5146 45.8827 53.4079 45.5307 53.3013 45.168C52.9386 45.616 52.5866 46.0427 52.2453 46.448C51.9253 46.8747 51.6266 47.2907 51.3493 47.696C51.0933 48.1013 50.8799 48.5173 50.7093 48.944C50.5599 49.392 50.4852 49.8613 50.4852 50.352C50.4852 51.0133 50.6666 51.5573 51.0293 51.984C51.4133 52.4107 51.8293 52.624 52.2773 52.624C52.7679 52.624 53.2266 52.4427 53.6533 52.08C54.1013 51.7173 54.3253 51.1947 54.3253 50.512C54.3253 50.064 54.3146 49.6907 54.2933 49.392C54.2719 49.0933 54.2399 48.8267 54.1973 48.592C54.1759 48.3787 54.1333 48.1653 54.0693 47.952C54.0266 47.76 53.9733 47.5253 53.9093 47.248ZM59.543 31.28C59.543 31.3227 59.4683 31.408 59.319 31.536C59.1697 31.664 58.9883 31.8027 58.775 31.952C58.583 32.08 58.3803 32.1973 58.167 32.304C57.9537 32.4107 57.783 32.464 57.655 32.464C57.5697 32.464 57.4523 32.464 57.303 32.464C57.175 32.4427 57.0363 32.4 56.887 32.336C56.759 32.272 56.6417 32.1867 56.535 32.08C56.4283 31.952 56.375 31.792 56.375 31.6C56.375 31.3013 56.4817 31.024 56.695 30.768C56.9083 30.4907 57.1857 30.352 57.527 30.352C57.591 30.352 57.7297 30.384 57.943 30.448C58.1777 30.4907 58.4123 30.5547 58.647 30.64C58.8817 30.7253 59.0843 30.8213 59.255 30.928C59.447 31.0347 59.543 31.152 59.543 31.28ZM60.599 43.248C60.599 43.3973 60.4817 43.5253 60.247 43.632C60.0337 43.7387 59.8737 43.792 59.767 43.792C59.5537 43.792 59.3617 43.6533 59.191 43.376C59.0203 43.0987 58.871 42.7787 58.743 42.416C58.615 42.0533 58.5083 41.712 58.423 41.392C58.3377 41.0507 58.2737 40.816 58.231 40.688C58.167 40.4747 58.0817 40.2187 57.975 39.92C57.8683 39.6213 57.7617 39.3333 57.655 39.056C57.5697 38.7787 57.495 38.5333 57.431 38.32C57.367 38.1067 57.335 37.9893 57.335 37.968C57.335 37.6693 57.3883 37.392 57.495 37.136C57.623 36.88 57.7723 36.752 57.943 36.752C58.135 36.752 58.3377 36.9013 58.551 37.2C58.7643 37.4987 58.967 37.8827 59.159 38.352C59.3723 38.8 59.5643 39.3013 59.735 39.856C59.9057 40.3893 60.055 40.9013 60.183 41.392C60.311 41.8613 60.407 42.2773 60.471 42.64C60.5563 42.9813 60.599 43.184 60.599 43.248ZM69.8238 41.776C69.8238 42.1387 69.6958 42.4587 69.4398 42.736C69.2051 42.992 68.8958 43.216 68.5118 43.408C68.1491 43.5787 67.7438 43.7173 67.2958 43.824C66.8478 43.9307 66.4211 44.016 66.0158 44.08C65.6104 44.1227 65.2478 44.1547 64.9278 44.176C64.6291 44.176 64.4371 44.176 64.3518 44.176C63.8824 44.176 63.5198 44.1013 63.2638 43.952C63.0078 43.8027 62.8798 43.536 62.8798 43.152C62.8798 43.024 62.8904 42.9173 62.9118 42.832C62.9331 42.7253 63.0184 42.672 63.1678 42.672C63.2318 42.672 63.3384 42.6933 63.4878 42.736C63.6371 42.7573 63.7544 42.768 63.8398 42.768C63.9251 42.768 64.1918 42.7573 64.6398 42.736C65.1091 42.6933 65.5998 42.6293 66.1118 42.544C66.6451 42.4587 67.1144 42.3413 67.5198 42.192C67.9464 42.0213 68.1598 41.808 68.1598 41.552C68.1598 41.5093 67.9358 41.3813 67.4878 41.168C67.0611 40.9333 66.4104 40.5493 65.5358 40.016C64.8531 39.5893 64.3731 39.1627 64.0958 38.736C63.8184 38.288 63.6798 37.6907 63.6798 36.944C63.6798 36.4747 63.7758 36.0907 63.9678 35.792C64.1811 35.4933 64.4584 35.2587 64.7998 35.088C65.1624 34.9173 65.5678 34.8 66.0158 34.736C66.4851 34.6507 66.9758 34.608 67.4878 34.608C67.5304 34.608 67.6584 34.6293 67.8718 34.672C68.1064 34.7147 68.3518 34.7893 68.6078 34.896C68.8638 34.9813 69.0878 35.0987 69.2798 35.248C69.4931 35.376 69.5998 35.5253 69.5998 35.696C69.5998 35.7387 69.5571 35.8027 69.4718 35.888C69.4078 35.9733 69.2904 36.1333 69.1198 36.368C69.0558 36.3467 68.9384 36.3147 68.7678 36.272C68.6184 36.2293 68.4371 36.1867 68.2238 36.144C68.0318 36.08 67.8291 36.0373 67.6158 36.016C67.4024 35.9733 67.2318 35.952 67.1038 35.952C66.5491 35.952 66.1011 36.0587 65.7598 36.272C65.4184 36.464 65.2478 36.848 65.2478 37.424C65.2478 37.7013 65.3544 37.9573 65.5677 38.192C65.8024 38.4267 66.0904 38.6507 66.4318 38.864C66.7731 39.056 67.1358 39.2587 67.5198 39.472C67.9251 39.664 68.2984 39.8773 68.6398 40.112C68.9811 40.3467 69.2584 40.6027 69.4718 40.88C69.7064 41.136 69.8238 41.4347 69.8238 41.776ZM81.0413 31.536C80.7639 31.856 80.3693 32.176 79.8573 32.496C79.3453 32.7947 78.8333 33.072 78.3213 33.328C77.8093 33.584 77.3613 33.808 76.9773 34C76.5933 34.1707 76.4013 34.288 76.4013 34.352C76.4013 34.416 76.4439 34.608 76.5293 34.928C76.6146 35.248 76.7106 35.632 76.8173 36.08C76.9453 36.5067 77.0733 36.9547 77.2013 37.424C77.3293 37.8933 77.4359 38.3093 77.5213 38.672C77.5639 38.8853 77.6173 39.1627 77.6813 39.504C77.7453 39.8453 77.7986 40.1867 77.8413 40.528C77.9053 40.8693 77.9586 41.1787 78.0013 41.456C78.0439 41.712 78.0653 41.8507 78.0653 41.872C78.0653 42.192 78.0119 42.5227 77.9053 42.864C77.7986 43.2053 77.6279 43.376 77.3933 43.376C77.2653 43.376 77.1479 43.3227 77.0413 43.216C76.9346 43.1093 76.8386 42.992 76.7533 42.864C76.6679 42.7147 76.6039 42.576 76.5613 42.448C76.5186 42.32 76.4973 42.224 76.4973 42.16C76.4973 42.1173 76.4973 42.0533 76.4973 41.968C76.5186 41.8827 76.5293 41.7867 76.5293 41.68C76.5293 41.2747 76.4653 40.688 76.3373 39.92C76.2946 39.6853 76.2093 39.3227 76.0813 38.832C75.9533 38.3413 75.8253 37.84 75.6973 37.328C75.5479 36.7307 75.3773 36.08 75.1853 35.376C75.0999 35.0773 75.0466 34.928 75.0253 34.928C74.8759 34.928 74.6199 35.024 74.2573 35.216C73.9159 35.3867 73.5213 35.6107 73.0733 35.888C72.6253 36.144 72.1559 36.432 71.6653 36.752C71.1746 37.0507 70.7159 37.3387 70.2892 37.616C69.8626 37.872 69.4999 38.096 69.2012 38.288C68.8812 38.4587 68.6892 38.544 68.6252 38.544C68.3479 38.544 68.1239 38.448 67.9532 38.256C67.7826 38.064 67.6972 37.8507 67.6972 37.616C67.6972 37.488 67.8786 37.3067 68.2412 37.072C68.5826 36.816 69.0199 36.5387 69.5532 36.24C70.0652 35.9413 70.6306 35.632 71.2492 35.312C71.8466 34.992 72.4013 34.704 72.9133 34.448C73.4466 34.192 73.8839 33.9787 74.2253 33.808C74.5879 33.6373 74.7693 33.552 74.7693 33.552C74.5773 32.5707 74.4173 31.696 74.2893 30.928C74.1826 30.2667 74.0759 29.6587 73.9693 29.104C73.8839 28.5493 73.8413 28.2507 73.8413 28.208C73.8413 27.9307 73.8946 27.728 74.0013 27.6C74.1293 27.4507 74.2679 27.376 74.4173 27.376C74.6519 27.376 74.8013 27.536 74.8653 27.856C75.0999 29.008 75.3133 30.032 75.5052 30.928C75.7186 31.824 75.9213 32.5493 76.1133 33.104C76.3053 33.0613 76.6359 32.944 77.1053 32.752C77.5746 32.5387 78.0653 32.3147 78.5773 32.08C79.0893 31.8453 79.5479 31.6427 79.9533 31.472C80.3799 31.28 80.6253 31.184 80.6892 31.184C80.8173 31.184 80.8919 31.2267 80.9133 31.312C80.9559 31.3973 80.9986 31.472 81.0413 31.536ZM90.332 36.24C90.332 36.3893 90.268 36.5173 90.14 36.624C90.012 36.7093 89.8627 36.784 89.692 36.848C89.5213 36.912 89.3507 36.9653 89.18 37.008C89.0093 37.0293 88.8707 37.04 88.764 37.04C88.444 37.04 88.2307 37.0187 88.124 36.976C88.0173 36.9333 87.932 36.912 87.868 36.912C87.3347 36.912 86.908 36.9547 86.588 37.04C86.268 37.1253 86.012 37.264 85.82 37.456C85.6493 37.648 85.532 37.8933 85.468 38.192C85.4253 38.4693 85.404 38.8107 85.404 39.216C85.404 39.8987 85.4253 40.4427 85.468 40.848C85.532 41.2533 85.5853 41.584 85.628 41.84C85.692 42.096 85.7453 42.2987 85.788 42.448C85.852 42.576 85.884 42.704 85.884 42.832C85.884 43.0027 85.788 43.184 85.596 43.376C85.4253 43.568 85.2653 43.664 85.116 43.664C84.86 43.664 84.6253 43.44 84.412 42.992C84.22 42.5227 84.0493 41.9787 83.9 41.36C83.772 40.72 83.6653 40.0907 83.58 39.472C83.4947 38.8533 83.452 38.384 83.452 38.064C83.452 37.7013 83.484 37.36 83.548 37.04C83.612 36.6987 83.6973 36.4107 83.804 36.176C83.9107 35.92 84.028 35.7173 84.156 35.568C84.284 35.4187 84.412 35.344 84.54 35.344C84.6467 35.344 84.732 35.3867 84.796 35.472C84.86 35.536 84.9133 35.6213 84.956 35.728C84.9987 35.8133 85.0413 35.8987 85.084 35.984C85.148 36.048 85.2227 36.08 85.308 36.08C85.5 36.08 85.8093 35.984 86.236 35.792C86.6627 35.6 87.1853 35.504 87.804 35.504C88.38 35.504 88.8067 35.5253 89.084 35.568C89.3827 35.5893 89.6707 35.6533 89.948 35.76C90.012 35.7813 90.0867 35.8347 90.172 35.92C90.2787 35.984 90.332 36.0907 90.332 36.24ZM108.105 39.344C108.105 39.728 107.924 40.208 107.561 40.784C107.22 41.3387 106.75 41.8827 106.153 42.416C105.556 42.9493 104.862 43.408 104.073 43.792C103.284 44.1547 102.462 44.336 101.609 44.336C101.225 44.336 100.82 44.272 100.393 44.144C99.9663 44.016 99.5503 43.8347 99.145 43.6C98.7397 43.344 98.377 43.0453 98.057 42.704C97.737 42.3413 97.5023 41.936 97.353 41.488C97.225 41.616 97.065 41.8293 96.873 42.128C96.7023 42.4267 96.5103 42.736 96.297 43.056C96.0837 43.3547 95.849 43.6213 95.593 43.856C95.337 44.0693 95.0703 44.176 94.793 44.176C94.5157 44.176 94.281 44.0373 94.089 43.76C93.9183 43.4613 93.7797 43.1413 93.673 42.8C93.5663 42.4373 93.4917 42.096 93.449 41.776C93.4063 41.456 93.385 41.2747 93.385 41.232C93.385 40.976 93.4597 40.496 93.609 39.792C93.7583 39.0667 93.9823 38.32 94.281 37.552C94.5797 36.784 94.953 36.1013 95.401 35.504C95.8703 34.9067 96.4143 34.608 97.033 34.608C97.2677 34.608 97.417 34.7147 97.481 34.928C97.5663 35.12 97.609 35.312 97.609 35.504V36.464C97.7157 36.5493 97.8223 36.6133 97.929 36.656C98.057 36.6773 98.1637 36.72 98.249 36.784C98.3557 36.8267 98.4303 36.9013 98.473 37.008C98.537 37.1147 98.569 37.2853 98.569 37.52C98.569 37.6693 98.5583 37.808 98.537 37.936C98.5157 38.0427 98.505 38.1493 98.505 38.256C98.505 38.8107 98.5477 39.3547 98.633 39.888C98.7183 40.4213 98.889 40.9013 99.145 41.328C99.401 41.7333 99.753 42.0747 100.201 42.352C100.649 42.608 101.246 42.736 101.993 42.736C102.932 42.736 103.721 42.544 104.361 42.16C105.022 41.7547 105.566 41.3173 105.993 40.848C106.441 40.3573 106.793 39.92 107.049 39.536C107.305 39.1307 107.518 38.928 107.689 38.928C107.966 38.928 108.105 39.0667 108.105 39.344ZM96.873 37.936C96.873 37.8507 96.8517 37.776 96.809 37.712C96.7663 37.6267 96.745 37.552 96.745 37.488C96.745 37.4027 96.7663 37.328 96.809 37.264C96.8517 37.2 96.873 37.1147 96.873 37.008C96.873 36.944 96.8517 36.9013 96.809 36.88C96.7663 36.8373 96.745 36.7947 96.745 36.752C96.553 36.7947 96.3503 36.976 96.137 37.296C95.945 37.616 95.753 37.9893 95.561 38.416C95.3903 38.8427 95.2517 39.28 95.145 39.728C95.0383 40.1547 94.985 40.5067 94.985 40.784C94.985 40.9333 95.0277 41.1787 95.113 41.52C95.1983 41.8613 95.2943 42.0853 95.401 42.192C95.7637 41.4453 96.0943 40.72 96.393 40.016C96.713 39.312 96.873 38.6187 96.873 37.936ZM116.979 31.536C116.701 31.856 116.307 32.176 115.795 32.496C115.283 32.7947 114.771 33.072 114.259 33.328C113.747 33.584 113.299 33.808 112.915 34C112.531 34.1707 112.339 34.288 112.339 34.352C112.339 34.416 112.381 34.608 112.467 34.928C112.552 35.248 112.648 35.632 112.755 36.08C112.883 36.5067 113.011 36.9547 113.139 37.424C113.267 37.8933 113.373 38.3093 113.459 38.672C113.501 38.8853 113.555 39.1627 113.619 39.504C113.683 39.8453 113.736 40.1867 113.779 40.528C113.843 40.8693 113.896 41.1787 113.939 41.456C113.981 41.712 114.003 41.8507 114.003 41.872C114.003 42.192 113.949 42.5227 113.843 42.864C113.736 43.2053 113.565 43.376 113.331 43.376C113.203 43.376 113.085 43.3227 112.979 43.216C112.872 43.1093 112.776 42.992 112.691 42.864C112.605 42.7147 112.541 42.576 112.499 42.448C112.456 42.32 112.435 42.224 112.435 42.16C112.435 42.1173 112.435 42.0533 112.435 41.968C112.456 41.8827 112.467 41.7867 112.467 41.68C112.467 41.2747 112.403 40.688 112.275 39.92C112.232 39.6853 112.147 39.3227 112.019 38.832C111.891 38.3413 111.763 37.84 111.635 37.328C111.485 36.7307 111.315 36.08 111.123 35.376C111.037 35.0773 110.984 34.928 110.963 34.928C110.813 34.928 110.557 35.024 110.195 35.216C109.853 35.3867 109.459 35.6107 109.011 35.888C108.563 36.144 108.093 36.432 107.603 36.752C107.112 37.0507 106.653 37.3387 106.227 37.616C105.8 37.872 105.437 38.096 105.139 38.288C104.819 38.4587 104.627 38.544 104.563 38.544C104.285 38.544 104.061 38.448 103.891 38.256C103.72 38.064 103.635 37.8507 103.635 37.616C103.635 37.488 103.816 37.3067 104.179 37.072C104.52 36.816 104.957 36.5387 105.491 36.24C106.003 35.9413 106.568 35.632 107.187 35.312C107.784 34.992 108.339 34.704 108.851 34.448C109.384 34.192 109.821 33.9787 110.163 33.808C110.525 33.6373 110.707 33.552 110.707 33.552C110.515 32.5707 110.355 31.696 110.227 30.928C110.12 30.2667 110.013 29.6587 109.907 29.104C109.821 28.5493 109.779 28.2507 109.779 28.208C109.779 27.9307 109.832 27.728 109.939 27.6C110.067 27.4507 110.205 27.376 110.355 27.376C110.589 27.376 110.739 27.536 110.803 27.856C111.037 29.008 111.251 30.032 111.443 30.928C111.656 31.824 111.859 32.5493 112.051 33.104C112.243 33.0613 112.573 32.944 113.043 32.752C113.512 32.5387 114.003 32.3147 114.515 32.08C115.027 31.8453 115.485 31.6427 115.891 31.472C116.317 31.28 116.563 31.184 116.627 31.184C116.755 31.184 116.829 31.2267 116.851 31.312C116.893 31.3973 116.936 31.472 116.979 31.536ZM120.606 31.28C120.606 31.3227 120.531 31.408 120.382 31.536C120.232 31.664 120.051 31.8027 119.838 31.952C119.646 32.08 119.443 32.1973 119.23 32.304C119.016 32.4107 118.846 32.464 118.718 32.464C118.632 32.464 118.515 32.464 118.366 32.464C118.238 32.4427 118.099 32.4 117.95 32.336C117.822 32.272 117.704 32.1867 117.598 32.08C117.491 31.952 117.438 31.792 117.438 31.6C117.438 31.3013 117.544 31.024 117.758 30.768C117.971 30.4907 118.248 30.352 118.59 30.352C118.654 30.352 118.792 30.384 119.006 30.448C119.24 30.4907 119.475 30.5547 119.71 30.64C119.944 30.7253 120.147 30.8213 120.318 30.928C120.51 31.0347 120.606 31.152 120.606 31.28ZM121.661 43.248C121.661 43.3973 121.544 43.5253 121.31 43.632C121.096 43.7387 120.936 43.792 120.83 43.792C120.616 43.792 120.424 43.6533 120.254 43.376C120.083 43.0987 119.934 42.7787 119.806 42.416C119.678 42.0533 119.571 41.712 119.486 41.392C119.4 41.0507 119.336 40.816 119.294 40.688C119.23 40.4747 119.144 40.2187 119.038 39.92C118.931 39.6213 118.824 39.3333 118.718 39.056C118.632 38.7787 118.558 38.5333 118.493 38.32C118.43 38.1067 118.398 37.9893 118.398 37.968C118.398 37.6693 118.451 37.392 118.558 37.136C118.686 36.88 118.835 36.752 119.006 36.752C119.198 36.752 119.4 36.9013 119.614 37.2C119.827 37.4987 120.03 37.8827 120.222 38.352C120.435 38.8 120.627 39.3013 120.798 39.856C120.968 40.3893 121.118 40.9013 121.246 41.392C121.374 41.8613 121.47 42.2773 121.534 42.64C121.619 42.9813 121.661 43.184 121.661 43.248ZM129.414 39.088C129.414 39.5573 129.35 40.0053 129.222 40.432C129.094 40.8587 128.924 41.232 128.71 41.552C128.497 41.872 128.241 42.128 127.942 42.32C127.665 42.4907 127.356 42.576 127.014 42.576C126.417 42.576 125.948 42.4053 125.606 42.064C125.265 41.7227 124.998 41.328 124.806 40.88C124.636 40.432 124.518 39.984 124.454 39.536C124.412 39.0667 124.39 38.7147 124.39 38.48C124.39 38.096 124.444 37.6693 124.55 37.2C124.678 36.7093 124.838 36.2613 125.03 35.856C125.244 35.4507 125.478 35.1093 125.734 34.832C125.99 34.5547 126.257 34.416 126.534 34.416C126.598 34.416 126.694 34.4373 126.822 34.48C126.972 34.5227 127.121 34.5867 127.27 34.672C127.42 34.7573 127.548 34.864 127.654 34.992C127.782 35.12 127.868 35.2693 127.91 35.44C128.145 35.4613 128.38 35.5467 128.614 35.696C128.849 35.8453 128.977 35.9627 128.998 36.048C129.169 36.6027 129.276 37.1573 129.318 37.712C129.382 38.2667 129.414 38.7253 129.414 39.088ZM127.974 38.512C127.974 38.192 127.942 37.8613 127.878 37.52C127.814 37.1573 127.686 36.7947 127.494 36.432C127.452 36.4533 127.398 36.464 127.334 36.464C127.249 36.464 127.174 36.4533 127.11 36.432C127.068 36.4107 127.025 36.4 126.982 36.4C126.726 36.4 126.524 36.4747 126.374 36.624C126.225 36.752 126.108 36.9333 126.022 37.168C125.958 37.3813 125.916 37.616 125.894 37.872C125.873 38.128 125.862 38.3733 125.862 38.608C125.862 38.8427 125.873 39.1093 125.894 39.408C125.916 39.6853 125.958 39.952 126.022 40.208C126.108 40.464 126.214 40.688 126.342 40.88C126.47 41.0507 126.641 41.136 126.854 41.136C127.068 41.136 127.249 41.0293 127.398 40.816C127.548 40.5813 127.665 40.3147 127.75 40.016C127.836 39.7173 127.889 39.4293 127.91 39.152C127.953 38.8533 127.974 38.64 127.974 38.512ZM142.255 42.064C142.255 42.192 142.212 42.32 142.127 42.448C142.042 42.576 141.935 42.6933 141.807 42.8C141.7 42.9067 141.572 43.0027 141.423 43.088C141.295 43.152 141.178 43.184 141.071 43.184C140.708 43.184 140.239 43.1093 139.663 42.96C139.108 42.7893 138.66 42.5333 138.319 42.192C137.956 41.8293 137.636 41.4027 137.359 40.912C137.082 40.4 136.772 39.6533 136.431 38.672C136.196 39.6107 135.919 40.5387 135.599 41.456C135.3 42.3733 134.81 43.216 134.127 43.984C134.084 44.0267 134.02 44.048 133.935 44.048C133.786 44.048 133.626 43.9733 133.455 43.824C133.284 43.6747 133.199 43.5253 133.199 43.376C133.199 43.2267 133.178 42.8853 133.135 42.352C133.114 41.7973 133.082 41.1893 133.039 40.528C132.996 39.8453 132.954 39.1627 132.911 38.48C132.89 37.776 132.879 37.2 132.879 36.752C132.879 36.5387 132.89 36.2613 132.911 35.92C132.932 35.5573 132.996 35.248 133.103 34.992C133.124 34.9493 133.199 34.864 133.327 34.736C133.476 34.608 133.636 34.544 133.807 34.544C133.956 34.544 134.042 34.64 134.063 34.832C134.084 35.024 134.095 35.2373 134.095 35.472V40.528C134.095 40.6347 134.106 40.784 134.127 40.976C134.17 41.168 134.223 41.3067 134.287 41.392C134.522 40.88 134.735 40.2827 134.927 39.6C135.14 38.896 135.343 38.2347 135.535 37.616C135.727 36.976 135.919 36.4427 136.111 36.016C136.303 35.568 136.495 35.344 136.687 35.344C136.9 35.344 137.071 35.3867 137.199 35.472C137.327 35.5573 137.434 35.728 137.519 35.984C137.626 36.6027 137.711 37.1573 137.775 37.648C137.839 38.1173 137.914 38.544 137.999 38.928C138.106 39.312 138.244 39.6747 138.415 40.016C138.607 40.336 138.863 40.6347 139.183 40.912C139.482 41.1893 139.812 41.392 140.175 41.52C140.559 41.648 140.89 41.712 141.167 41.712C141.295 41.712 141.434 41.6907 141.583 41.648C141.732 41.584 141.839 41.552 141.903 41.552C141.988 41.552 142.063 41.6267 142.127 41.776C142.212 41.9253 142.255 42.0213 142.255 42.064ZM180.517 28.816C180.517 28.9013 180.485 28.9653 180.421 29.008C180.357 29.0507 180.293 29.0933 180.229 29.136C180.144 29.1787 180.048 29.2107 179.941 29.232C179.77 29.232 179.621 29.2213 179.493 29.2C179.365 29.1787 179.216 29.168 179.045 29.168C178.81 29.168 178.341 29.3067 177.637 29.584C176.954 29.84 176.24 30.1707 175.493 30.576C174.746 30.9813 174.074 31.408 173.477 31.856C172.901 32.304 172.602 32.6987 172.581 33.04L172.965 35.216C173.072 35.7707 173.157 36.272 173.221 36.72C173.306 37.168 173.36 37.392 173.381 37.392C173.424 37.3707 173.562 37.2853 173.797 37.136C174.053 36.9653 174.362 36.784 174.725 36.592C175.088 36.3787 175.482 36.1547 175.909 35.92C176.357 35.6853 176.784 35.472 177.189 35.28C177.594 35.088 177.968 34.928 178.309 34.8C178.65 34.672 178.917 34.608 179.109 34.608C179.258 34.608 179.386 34.64 179.493 34.704C179.621 34.768 179.685 34.8853 179.685 35.056C179.685 35.184 179.536 35.3653 179.237 35.6C178.938 35.8347 178.565 36.0907 178.117 36.368C177.669 36.6453 177.178 36.944 176.645 37.264C176.133 37.5627 175.653 37.8507 175.205 38.128C174.757 38.384 174.384 38.6293 174.085 38.864C173.786 39.0773 173.637 39.2373 173.637 39.344C173.637 39.4507 173.669 39.792 173.733 40.368C173.818 40.9227 173.925 41.5413 174.053 42.224C174.202 42.9067 174.362 43.568 174.533 44.208C174.725 44.848 174.928 45.296 175.141 45.552C175.184 45.5947 175.205 45.6587 175.205 45.744C175.205 45.872 175.12 46.0107 174.949 46.16C174.778 46.3307 174.629 46.416 174.501 46.416C174.33 46.416 174.149 46.256 173.957 45.936C173.786 45.616 173.626 45.2107 173.477 44.72C173.328 44.2293 173.178 43.7067 173.029 43.152C172.901 42.5973 172.784 42.0747 172.677 41.584C172.592 41.0933 172.517 40.688 172.453 40.368C172.389 40.048 172.346 39.888 172.325 39.888C172.261 39.888 172.112 39.9307 171.877 40.016C171.642 40.08 171.397 40.112 171.141 40.112C170.949 40.112 170.778 40.0373 170.629 39.888C170.501 39.7173 170.437 39.5467 170.437 39.376C170.437 39.2053 170.49 39.056 170.597 38.928C170.704 38.8 170.832 38.6827 170.981 38.576C171.13 38.4693 171.29 38.3733 171.461 38.288C171.632 38.2027 171.781 38.1173 171.909 38.032L171.013 31.92C171.013 31.7493 171.045 31.5787 171.109 31.408C171.173 31.216 171.312 31.12 171.525 31.12C171.568 31.12 171.632 31.1733 171.717 31.28C171.802 31.3653 171.866 31.408 171.909 31.408C171.973 31.3653 172.25 31.152 172.741 30.768C173.232 30.3627 173.829 29.936 174.533 29.488C175.258 29.0187 176.026 28.6027 176.837 28.24C177.669 27.856 178.437 27.664 179.141 27.664C179.418 27.664 179.717 27.7813 180.037 28.016C180.357 28.2507 180.517 28.5173 180.517 28.816ZM186.883 39.088C186.883 39.5573 186.819 40.0053 186.691 40.432C186.563 40.8587 186.392 41.232 186.179 41.552C185.966 41.872 185.71 42.128 185.411 42.32C185.134 42.4907 184.824 42.576 184.483 42.576C183.886 42.576 183.416 42.4053 183.075 42.064C182.734 41.7227 182.467 41.328 182.275 40.88C182.104 40.432 181.987 39.984 181.923 39.536C181.88 39.0667 181.859 38.7147 181.859 38.48C181.859 38.096 181.912 37.6693 182.019 37.2C182.147 36.7093 182.307 36.2613 182.499 35.856C182.712 35.4507 182.947 35.1093 183.203 34.832C183.459 34.5547 183.726 34.416 184.003 34.416C184.067 34.416 184.163 34.4373 184.291 34.48C184.44 34.5227 184.59 34.5867 184.739 34.672C184.888 34.7573 185.016 34.864 185.123 34.992C185.251 35.12 185.336 35.2693 185.379 35.44C185.614 35.4613 185.848 35.5467 186.083 35.696C186.318 35.8453 186.446 35.9627 186.467 36.048C186.638 36.6027 186.744 37.1573 186.787 37.712C186.851 38.2667 186.883 38.7253 186.883 39.088ZM185.443 38.512C185.443 38.192 185.411 37.8613 185.347 37.52C185.283 37.1573 185.155 36.7947 184.963 36.432C184.92 36.4533 184.867 36.464 184.803 36.464C184.718 36.464 184.643 36.4533 184.579 36.432C184.536 36.4107 184.494 36.4 184.451 36.4C184.195 36.4 183.992 36.4747 183.843 36.624C183.694 36.752 183.576 36.9333 183.491 37.168C183.427 37.3813 183.384 37.616 183.363 37.872C183.342 38.128 183.331 38.3733 183.331 38.608C183.331 38.8427 183.342 39.1093 183.363 39.408C183.384 39.6853 183.427 39.952 183.491 40.208C183.576 40.464 183.683 40.688 183.811 40.88C183.939 41.0507 184.11 41.136 184.323 41.136C184.536 41.136 184.718 41.0293 184.867 40.816C185.016 40.5813 185.134 40.3147 185.219 40.016C185.304 39.7173 185.358 39.4293 185.379 39.152C185.422 38.8533 185.443 38.64 185.443 38.512ZM197.676 36.24C197.676 36.3893 197.612 36.5173 197.484 36.624C197.356 36.7093 197.206 36.784 197.036 36.848C196.865 36.912 196.694 36.9653 196.524 37.008C196.353 37.0293 196.214 37.04 196.108 37.04C195.788 37.04 195.574 37.0187 195.468 36.976C195.361 36.9333 195.276 36.912 195.212 36.912C194.678 36.912 194.252 36.9547 193.932 37.04C193.612 37.1253 193.356 37.264 193.164 37.456C192.993 37.648 192.876 37.8933 192.812 38.192C192.769 38.4693 192.748 38.8107 192.748 39.216C192.748 39.8987 192.769 40.4427 192.812 40.848C192.876 41.2533 192.929 41.584 192.972 41.84C193.036 42.096 193.089 42.2987 193.132 42.448C193.196 42.576 193.228 42.704 193.228 42.832C193.228 43.0027 193.132 43.184 192.94 43.376C192.769 43.568 192.609 43.664 192.46 43.664C192.204 43.664 191.969 43.44 191.756 42.992C191.564 42.5227 191.393 41.9787 191.244 41.36C191.116 40.72 191.009 40.0907 190.924 39.472C190.838 38.8533 190.796 38.384 190.796 38.064C190.796 37.7013 190.828 37.36 190.892 37.04C190.956 36.6987 191.041 36.4107 191.148 36.176C191.254 35.92 191.372 35.7173 191.5 35.568C191.628 35.4187 191.756 35.344 191.884 35.344C191.99 35.344 192.076 35.3867 192.14 35.472C192.204 35.536 192.257 35.6213 192.3 35.728C192.342 35.8133 192.385 35.8987 192.428 35.984C192.492 36.048 192.566 36.08 192.652 36.08C192.844 36.08 193.153 35.984 193.58 35.792C194.006 35.6 194.529 35.504 195.148 35.504C195.724 35.504 196.15 35.5253 196.428 35.568C196.726 35.5893 197.014 35.6533 197.292 35.76C197.356 35.7813 197.43 35.8347 197.516 35.92C197.622 35.984 197.676 36.0907 197.676 36.24ZM214.457 42.992C214.457 43.1627 214.403 43.312 214.297 43.44C214.19 43.568 214.062 43.6747 213.913 43.76C213.763 43.824 213.603 43.8773 213.433 43.92C213.283 43.9627 213.155 43.984 213.049 43.984C212.601 43.984 212.217 43.7493 211.897 43.28C211.577 42.7893 211.31 42.256 211.097 41.68C210.883 41.0827 210.723 40.528 210.617 40.016C210.531 39.504 210.489 39.2267 210.489 39.184C210.361 39.4187 210.222 39.8133 210.073 40.368C209.945 40.9227 209.785 41.488 209.593 42.064C209.401 42.6187 209.155 43.12 208.857 43.568C208.579 43.9947 208.217 44.208 207.769 44.208C207.555 44.208 207.353 44.08 207.161 43.824C206.969 43.568 206.787 43.2373 206.617 42.832C206.446 42.4267 206.275 41.968 206.105 41.456C205.955 40.944 205.795 40.4427 205.625 39.952C205.475 39.4613 205.326 39.0027 205.177 38.576C205.027 38.128 204.878 37.776 204.729 37.52C204.601 37.84 204.483 38.2773 204.377 38.832C204.291 39.3867 204.217 39.9733 204.153 40.592C204.089 41.1893 204.035 41.7867 203.993 42.384C203.95 42.9813 203.929 43.504 203.929 43.952C203.929 44.2507 203.843 44.464 203.673 44.592C203.523 44.72 203.363 44.784 203.193 44.784C202.958 44.784 202.723 44.6347 202.489 44.336C202.254 44.016 202.019 43.6107 201.785 43.12C201.55 42.6293 201.326 42.0747 201.113 41.456C200.921 40.8373 200.739 40.2187 200.569 39.6C200.419 38.9813 200.302 38.3947 200.217 37.84C200.131 37.264 200.089 36.784 200.089 36.4C200.089 36.1227 200.099 35.8667 200.121 35.632C200.142 35.44 200.153 35.2587 200.153 35.088C200.174 34.9173 200.185 34.8213 200.185 34.8C200.185 34.736 200.163 34.6933 200.121 34.672C200.099 34.6507 200.089 34.5973 200.089 34.512C200.089 34.448 200.163 34.352 200.313 34.224C200.483 34.0747 200.654 34 200.825 34C201.123 34 201.315 34.064 201.401 34.192C201.507 34.32 201.561 34.4693 201.561 34.64C201.561 34.704 201.55 34.8 201.529 34.928C201.529 35.056 201.529 35.344 201.529 35.792C201.529 36.0907 201.582 36.5387 201.689 37.136C201.795 37.7333 201.923 38.3413 202.073 38.96C202.222 39.5787 202.371 40.1547 202.521 40.688C202.691 41.2 202.83 41.52 202.937 41.648C202.979 41.5627 203.001 41.4667 203.001 41.36C203.022 41.232 203.043 41.136 203.065 41.072L203.417 38.448C203.502 37.7867 203.673 37.0933 203.929 36.368C204.206 35.6213 204.494 35.0453 204.793 34.64C204.899 34.4693 205.017 34.384 205.145 34.384C205.273 34.384 205.39 34.48 205.497 34.672C205.859 35.2693 206.126 35.8667 206.297 36.464C206.489 37.04 206.649 37.616 206.777 38.192C206.926 38.7467 207.086 39.312 207.257 39.888C207.449 40.4427 207.737 41.008 208.121 41.584C208.291 41.3067 208.505 40.8587 208.761 40.24C209.017 39.6 209.273 38.96 209.529 38.32C209.806 37.68 210.062 37.1253 210.297 36.656C210.531 36.1653 210.713 35.92 210.841 35.92C210.905 35.92 211.011 35.9307 211.161 35.952C211.31 35.9733 211.417 35.984 211.481 35.984C211.673 35.984 211.833 36.208 211.961 36.656C212.089 37.0827 212.195 37.5947 212.281 38.192C212.387 38.768 212.483 39.3547 212.569 39.952C212.675 40.528 212.793 40.9653 212.921 41.264C213.006 41.4773 213.134 41.68 213.305 41.872C213.475 42.064 213.646 42.2453 213.817 42.416C214.03 42.608 214.243 42.8 214.457 42.992ZM235.752 38.832C235.752 39.0453 235.571 39.2587 235.208 39.472C234.867 39.664 234.472 39.8347 234.024 39.984C233.576 40.1333 233.149 40.2613 232.744 40.368C232.339 40.4533 232.083 40.496 231.976 40.496C231.592 40.496 231.325 40.4747 231.176 40.432C231.048 40.3893 230.931 40.2507 230.824 40.016C230.76 39.9307 230.696 39.8347 230.632 39.728C230.568 39.6 230.536 39.504 230.536 39.44C230.536 39.3547 230.547 39.3013 230.568 39.28C230.611 39.2587 230.696 39.248 230.824 39.248C231.059 39.248 231.4 39.1947 231.848 39.088C232.317 38.9813 232.776 38.864 233.224 38.736C233.693 38.608 234.12 38.4907 234.504 38.384C234.888 38.2773 235.123 38.224 235.208 38.224C235.315 38.224 235.432 38.3093 235.56 38.48C235.688 38.6293 235.752 38.7467 235.752 38.832ZM250.212 41.168C250.489 41.424 250.372 41.6587 249.86 41.872C249.348 42.0853 248.441 42.3093 247.14 42.544C246.393 42.672 245.636 42.8427 244.868 43.056C244.1 43.248 243.364 43.44 242.66 43.632C241.977 43.824 241.358 43.9947 240.804 44.144C240.249 44.272 239.833 44.336 239.556 44.336C239.321 44.336 239.161 44.2613 239.076 44.112C238.99 43.9627 238.948 43.8347 238.948 43.728C238.948 43.5787 239.129 43.4187 239.492 43.248C239.854 43.056 240.313 42.8747 240.868 42.704C241.422 42.5333 242.041 42.3627 242.724 42.192C243.428 42.0213 244.11 41.872 244.772 41.744C245.433 41.5947 246.03 41.4667 246.564 41.36C247.118 41.2533 247.545 41.1787 247.844 41.136C246.521 40.048 245.262 38.8533 244.068 37.552C242.873 36.2507 241.678 35.056 240.484 33.968C240.398 33.904 240.324 33.7653 240.26 33.552C240.196 33.3387 240.164 33.1893 240.164 33.104C240.164 32.976 240.206 32.8587 240.292 32.752C240.398 32.6453 240.537 32.5707 240.708 32.528C240.793 32.528 240.985 32.6667 241.284 32.944C241.604 33.2 241.956 33.52 242.34 33.904C242.724 34.288 243.118 34.6827 243.524 35.088C243.929 35.4933 244.281 35.8347 244.58 36.112L250.212 41.168Z" fill="white"/>
<path d="M59.8634 57.0094C60.0514 57.0102 60.3035 56.9981 60.4892 57.0188C69.7258 57.9469 78.6638 58.1784 87.551 58.3037C91.6816 58.3617 95.7548 58.373 99.828 58.3844C100.142 58.3792 100.456 58.374 100.779 58.2893C100.034 58.2264 99.2907 58.1437 98.5455 58.0808C82.7237 56.6203 67.2226 54.5323 52.1548 51.3668C51.4207 51.2046 50.618 51.0951 49.8131 51.0055C40.6672 49.8262 31.6739 48.4025 23.1228 46.3849C18.5432 45.2919 14.2931 44.0548 10.6334 42.5818C3.74306 39.7239 0.868362 36.8308 1.94966 33.8757C2.59092 32.0576 4.58106 30.5103 7.18153 29.1114C8.98151 28.1459 11.1463 27.2814 13.4925 26.4773C13.8839 26.34 14.3394 26.1897 14.5473 26.0118C17.7536 23.1125 23.2664 20.8921 30.2363 19.0953C38.3672 17.0056 47.9244 15.6176 58.3086 14.6834C74.389 13.2579 91.5995 12.9433 109.719 13.4736C120.34 13.792 131.115 14.409 141.917 15.3507C156.817 16.6481 171.533 18.4679 186.035 21.0879C196.972 23.0697 207.367 25.4133 216.816 28.3752C222.753 30.2224 227.981 32.2519 232.24 34.5353C236.793 36.9922 239.709 39.5081 240.426 42.0804C240.78 43.4063 240.514 44.6633 239.508 45.8176C238.217 47.2819 236.616 48.7118 234.223 49.9328C230.703 51.7117 225.918 53.0282 220.412 54.0633C213.24 55.4156 205.247 56.2742 196.724 56.8126C184.54 57.5865 171.889 58.0472 159.186 58.4215C145.285 58.8434 131.217 59.0859 116.983 59.129C105.257 59.1699 93.4794 59.1046 81.4301 58.6673C74.8737 58.4397 68.211 58.0395 61.5263 57.275C60.9691 57.2129 60.4737 57.1578 59.9165 57.0957C59.8568 57.0689 59.8612 57.0292 59.8634 57.0094ZM84.9925 52.5713C88.902 52.9263 95.5425 53.525 102.249 54.091C104.547 54.2866 106.913 54.4295 109.162 54.499C116.099 54.6886 122.865 54.7184 129.579 54.662C143.886 54.5266 157.677 53.9518 170.547 52.6512C179.678 51.7181 188.153 50.471 195.444 48.6094C200.09 47.4181 204.134 45.9991 206.781 44.1832C209.021 42.6436 210.091 40.9135 209.249 38.91C208.353 36.8202 205.567 34.8214 201.39 32.929C197.215 31.0168 192.193 29.3922 186.65 27.9506C177.269 25.4989 167.248 23.7396 156.875 22.3231C146.316 20.886 135.827 19.9391 125.306 19.29C111.421 18.4474 97.9724 18.1959 84.959 18.5357C70.4375 18.9086 56.8425 19.9677 44.7114 21.9535C37.8166 23.0753 31.6427 24.4783 26.6674 26.3766C22.0944 28.0383 18.9279 30.0174 18.2689 32.5572C17.7029 34.826 19.326 37.1375 23.4545 39.4667C26.5215 41.1952 30.5571 42.6698 35.0461 44.014C41.3571 45.8827 48.2762 47.3568 55.4717 48.6003C64.266 50.1224 73.1643 51.2742 84.9925 52.5713ZM141.303 19.7447C141.298 19.7845 141.358 19.8112 141.353 19.8509C142.53 19.9819 143.706 20.1129 144.883 20.2439C152.193 21.0179 159.422 21.9636 166.56 23.1605C174.746 24.5144 182.649 26.1584 190.008 28.184C195.725 29.7653 200.857 31.5229 204.888 33.6C210.817 36.6523 212.869 39.6146 211.042 42.5069C209.835 44.3423 207.285 45.8475 203.942 47.1636C199.617 48.8529 194.27 50.147 188.383 51.2202C180.516 52.6356 171.885 53.5841 162.783 54.2591C151.787 55.0647 140.275 55.431 128.422 55.478C127.858 55.4755 127.292 55.4929 126.728 55.4904C127.155 55.5982 127.465 55.6327 127.841 55.6343C133.959 55.8534 140.135 56.1191 146.199 56.2716C160.952 56.6282 175.312 56.579 189.058 55.8584C199.146 55.3335 208.648 54.4418 217.092 52.9097C222.402 51.9532 227.112 50.749 230.917 49.2229C234.002 47.9784 235.616 46.4295 235.88 44.6296C236.271 42.2409 234.031 39.8405 229.783 37.4578C225.774 35.1821 220.478 33.2054 214.534 31.4177C204.707 28.474 193.92 26.2677 182.585 24.4828C173.468 23.0454 164.322 21.866 155.079 20.9975C150.491 20.5468 145.895 20.1557 141.303 19.7447ZM237.427 40.862C237.489 40.8689 237.553 40.856 237.553 40.856C237.5 40.7697 237.509 40.6902 237.454 40.6238C236.574 38.9578 234.69 37.3007 232.05 35.68C227.822 33.1186 222.304 30.876 215.825 28.8277C208.559 26.531 200.687 24.6091 192.348 22.9367C175.363 19.5376 157.996 17.3221 140.361 15.8206C131.17 15.0383 122.14 14.5151 113.087 14.1904C95.0402 13.5677 77.8409 13.7831 61.7715 15.1093C50.9538 15.9951 41.0827 17.3884 32.5737 19.4963C27.2887 20.7973 22.7909 22.3467 19.4409 24.2853C19.2418 24.3838 19.1025 24.509 18.9013 24.6273C19.275 24.6488 19.4674 24.6099 19.6598 24.571C27.5319 22.5531 36.4766 21.0365 46.3124 19.9609C75.3134 16.7781 107.178 16.5878 141.446 19.017C153.947 19.9065 166.399 21.2329 178.795 23.0556C188.354 24.4619 197.631 26.1583 206.485 28.27C213.324 29.896 219.64 31.725 225.225 33.915C230.451 35.9643 234.595 38.1545 236.959 40.5686C237.195 40.6955 237.312 40.7688 237.427 40.862ZM12.4156 28.267C11.8894 28.4898 11.498 28.6272 11.1663 28.7912C7.60168 30.4044 4.83316 32.1867 4.14547 34.4218C3.45778 36.6569 5.27326 38.9295 9.91035 41.1947C13.1211 42.7584 17.1147 44.0474 21.5616 45.2059C27.4083 46.7415 33.6707 47.9213 40.079 48.9164C41.1271 49.0733 42.1134 49.2234 43.1615 49.3803C20.8297 43.3354 9.56314 36.4322 12.4156 28.267ZM62.1322 52.3975C62.13 52.4173 62.0636 52.4501 62.0614 52.47C62.3069 52.5174 62.612 52.5916 62.8575 52.6391C68.0828 53.5627 73.3213 54.3672 78.6306 55.0991C88.0772 56.3924 97.6123 57.4542 107.116 58.2312C108.109 58.3217 109.107 58.3724 110.049 58.3567C124.793 58.2298 139.37 57.9234 153.772 57.497C154.086 57.4918 154.405 57.4468 154.719 57.4416C154.04 57.3459 153.416 57.3166 152.791 57.3073C141.469 57.0917 130.107 56.6707 118.524 55.9839C112.297 55.612 106.073 55.2203 99.8921 54.9944C89.5256 54.644 79.0684 53.982 68.5206 53.0084C66.4154 52.774 64.2439 52.5723 62.1322 52.3975ZM38.6835 22.0461C38.6857 22.0263 38.626 21.9995 38.6282 21.9797C37.4164 22.1663 36.2046 22.353 35.0547 22.5466C28.4762 23.6432 22.373 24.9737 17.0505 26.6122C16.5308 26.7755 16.0045 26.9983 15.7901 27.2357C14.2886 28.8977 13.6518 30.6762 14.251 32.6123C15.4297 36.6634 20.5223 40.4668 29.4648 44.0357C35.2849 46.3724 42.0957 48.2565 49.4305 49.9377C51.5688 50.4372 53.7868 50.7847 56.0777 51.0398C65.6769 52.0887 75.3048 52.8794 84.831 53.4579C86.2639 53.537 87.6969 53.6162 89.132 53.6755C74.0842 52.0199 71.7955 51.7449 61.4356 50.2092C54.6536 49.1927 48.0816 47.9784 41.7308 46.467C35.2584 44.9221 29.3122 43.1543 24.5424 40.9547C19.6533 38.7016 16.8427 36.3584 16.2987 33.9258C15.8321 31.924 16.9687 30.1611 19.2153 28.5619C22.1431 26.4758 26.6452 24.8866 31.9346 23.5459C34.1857 23.0327 36.4324 22.5593 38.6835 22.0461Z" fill="white" fill-opacity="0.14"/>
</svg>
