<svg width="223" height="184" viewBox="0 0 223 184" fill="none" xmlns="http://www.w3.org/2000/svg">
<path d="M51.1661 15.6745C51.1661 15.6745 60.9497 6.39979 71.993 10.7403C83.0364 15.0807 84.2122 28.6629 95.2555 33.0034C106.299 37.3438 116.408 28.1971 127.451 32.5376C138.495 36.8781 139.67 50.4602 150.714 54.8007C161.757 59.1412 164.608 47.1418 182.91 54.3349C201.211 61.528 213.641 74.6998 213.641 74.6998" stroke="white" stroke-opacity="0.9" stroke-width="4" stroke-linecap="round"/>
<path d="M16.1019 83.2754C16.1019 83.2754 31.6042 85.9485 42.9275 78.9834C54.2508 72.0184 61.2993 89.8275 71.0509 89.7782C80.8026 89.7288 83.5296 82.9339 93.2812 82.8845C103.033 82.8351 110.271 89.5795 120.022 89.5301C129.774 89.4807 124.71 78.5692 140.87 78.4873C157.031 78.4055 155.396 86.253 170.052 88.5069" stroke="white" stroke-opacity="0.9" stroke-width="2" stroke-linecap="round" stroke-dasharray="2 10"/>
<path d="M92.6912 116.912C109.309 118.767 98.0426 139.664 107.076 144.726C116.109 149.788 126.615 140.409 135.648 145.471C144.681 150.533 145.369 158.239 154.403 163.301C163.436 168.364 167.068 159.478 183.418 167.754" stroke="white" stroke-opacity="0.9" stroke-width="4" stroke-linecap="round" stroke-dasharray="8 8"/>
</svg>
