<svg width="116" height="119" viewBox="0 0 116 119" fill="none" xmlns="http://www.w3.org/2000/svg">
<path d="M49.5515 57.9887C49.7788 57.214 50.0062 56.5038 50.2011 55.7936C51.1431 52.1459 52.0526 48.4981 53.2869 44.9149C55.5282 38.4264 58.1267 32.067 60.7903 25.7399C63.7461 18.7349 66.6371 11.73 69.5604 4.72496C70.0152 3.59512 70.5674 2.52984 71.1196 1.43228C71.3145 1.01263 71.6068 0.625257 71.9316 0.302446C72.4838 -0.246332 73.1984 -0.0203645 73.2634 0.754382C73.3284 1.4 73.3284 2.04562 73.1984 2.69125C72.7112 5.43514 72.224 8.17903 71.6393 10.8906C70.0802 18.283 68.4885 25.6754 67.2542 33.1323C66.5396 37.5225 65.9224 41.9128 65.3053 46.303C64.7531 50.1767 64.2983 54.0182 63.8111 57.8919C63.7461 58.473 63.7137 59.054 63.6487 59.7965C63.9735 59.6028 64.1359 59.506 64.2983 59.3768C64.948 58.7958 65.6301 58.2147 66.2148 57.5691C72.5163 51.0483 79.6299 45.4637 87.1333 40.3633C87.588 40.0727 88.0428 39.7822 88.53 39.524C88.7899 39.3948 89.0822 39.3303 89.3421 39.298C89.8618 39.2657 90.2516 39.6208 90.2516 40.1373C90.2516 40.5247 90.1866 40.9766 89.9917 41.3317C89.537 42.2679 89.0822 43.204 88.4975 44.0433C86.5486 46.7549 84.5997 49.4665 82.5858 52.1136C79.5649 56.0842 76.4791 60.0225 73.4258 63.993C72.8411 64.7355 72.3214 65.5425 71.8342 66.3818C71.1196 67.5762 71.2495 68.1573 72.4514 68.8998C73.3609 69.4485 74.3028 69.9327 75.2773 70.3524C78.7854 71.8373 82.4234 72.9995 86.0614 74.097C95.3188 76.9377 104.479 80.069 113.444 83.7168C113.996 83.9427 114.581 84.1364 115.133 84.3624C115.36 84.4592 115.555 84.5561 115.75 84.7175C116.172 85.1049 116.042 85.7828 115.49 85.9764C115.295 86.041 115.068 86.0733 114.873 86.0733C112.697 86.1056 110.52 86.1701 108.344 86.1056C102.822 85.8796 97.3002 85.2986 91.8107 84.6206C83.7551 83.6522 75.7645 82.3287 67.8389 80.6823C66.767 80.4564 65.6951 80.295 64.6232 80.1013C64.3958 80.069 64.1684 80.0367 63.9086 80.069C63.064 80.069 62.7067 80.2627 62.4793 81.102C62.187 82.2318 61.9271 83.3617 61.7323 84.4915C60.8552 89.366 60.1406 94.2727 59.5884 99.2117C59.2311 102.408 58.9713 105.636 58.5815 108.831C58.2891 111.349 57.8669 113.835 57.5096 116.353C57.4121 116.902 57.2172 117.451 57.0223 117.967C56.8275 118.516 56.4702 119 55.788 119C55.1709 118.968 54.8136 118.516 54.6512 117.967C54.3588 117.095 54.0665 116.192 53.9365 115.288C53.6117 113.125 53.2869 110.93 53.157 108.767C52.8322 103.473 52.5723 98.211 52.4099 92.9169C52.3124 89.7211 52.4099 86.5252 52.4424 83.3294C52.4424 83.0389 52.4424 82.7161 52.4424 82.2964C51.9551 82.361 51.5329 82.361 51.1106 82.4255C46.4332 83.2003 41.8532 84.2656 37.2407 85.3631C29.3801 87.1708 21.5194 89.14 13.5613 90.7218C10.1831 91.3997 6.7725 91.9807 3.36188 92.5941C2.7772 92.6909 2.16004 92.7232 1.57537 92.7878C1.41295 92.7878 1.25054 92.82 1.12062 92.7878C0.438491 92.7555 0.0811878 92.5618 0.0162235 92.1421C-0.0812228 91.5934 0.27608 91.3351 0.665866 91.1091C1.54288 90.6249 2.38742 90.173 3.26444 89.7211C11.5474 85.3631 20.0252 81.3925 28.4381 77.3251C32.3684 75.4205 36.2338 73.3223 40.0992 71.2886C40.5864 71.0303 41.0087 70.7398 41.5933 70.3847C41.301 69.9973 41.0736 69.6099 40.7813 69.3194C39.1572 67.5762 37.598 65.7685 35.844 64.1544C32.3359 60.9263 28.7629 57.7951 25.1574 54.6638C20.7723 50.8546 16.4522 46.9809 12.4894 42.7521C11.6123 41.8159 10.7678 40.8152 9.95575 39.8145C9.72838 39.5562 9.53348 39.2334 9.33859 38.9106C9.07873 38.4587 9.11122 38.039 9.40356 37.7485C9.66341 37.458 10.0857 37.4257 10.5404 37.6517C10.7028 37.7162 10.8653 37.8454 11.0277 37.9099C13.204 39.1366 15.3153 40.4278 17.5241 41.59C24.0855 45.0118 30.6793 48.4335 37.1108 52.1459C40.1966 53.9213 43.4123 55.4063 46.7905 56.6007C47.3102 56.7943 47.7649 57.0526 48.2522 57.3108C48.6744 57.5045 49.0642 57.7305 49.5515 57.9887Z" fill="white"/>
</svg>
