<svg width="105" height="79" viewBox="0 0 105 79" fill="none" xmlns="http://www.w3.org/2000/svg">
<path d="M95.8496 10L97.7268 16.9723L104.699 18.8496L97.7268 20.7268L95.8496 27.6991L93.9723 20.7268L87 18.8496L93.9723 16.9723L95.8496 10Z" fill="white" fill-opacity="0.9"/>
<path fill-rule="evenodd" clip-rule="evenodd" d="M26.153 16.9991L21.5761 0L16.9991 16.9991L0 21.5761L16.9991 26.153L21.5761 43.1521L22.3644 40.2242L22.5894 41.06L23.2839 40.873L22.7368 38.8411L26.153 26.153L38.8411 22.7368L40.873 23.2839L41.06 22.5894L40.2242 22.3644L43.1521 21.5761L26.153 16.9991ZM40.2242 22.3644L38.2268 21.8266L38.0398 22.5211L38.8411 22.7368L40.2242 22.3644ZM22.7368 38.8411L22.5211 38.0398L21.8266 38.2268L22.3644 40.2242L22.7368 38.8411ZM24.1151 3.5742L24.0957 3.57943L24.0467 3.76118L23.7337 3.67689L23.4206 3.76118L23.3717 3.57943L23.3523 3.5742L23.7337 2.15761L24.1151 3.5742ZM24.8779 6.40738L25.6407 9.24056L24.9463 9.42755L24.1834 6.59436L24.8779 6.40738ZM26.4036 12.0737L27.1664 14.9069L26.4719 15.0939L25.7091 12.2607L26.4036 12.0737ZM27.9292 17.7401L28.3106 19.1567L29.7272 19.5381L29.5403 20.2326L27.7238 19.7435L27.2348 17.9271L27.9292 17.7401ZM32.5604 20.3009L35.3936 21.0638L35.2066 21.7582L32.3734 20.9954L32.5604 20.3009ZM43.8879 23.3717L43.8931 23.3523L45.3097 23.7337L43.8931 24.1151L43.8879 24.0957L43.7062 24.0467L43.7905 23.7337L43.7062 23.4206L43.8879 23.3717ZM41.06 24.8779L38.2268 25.6407L38.0398 24.9463L40.873 24.1834L41.06 24.8779ZM35.3936 26.4036L32.5604 27.1664L32.3734 26.4719L35.2066 25.7091L35.3936 26.4036ZM29.7272 27.9292L28.3106 28.3106L27.9292 29.7272L27.2348 29.5403L27.7238 27.7238L29.5403 27.2348L29.7272 27.9292ZM27.1664 32.5604L26.4036 35.3936L25.7091 35.2066L26.4719 32.3734L27.1664 32.5604ZM25.6407 38.2268L24.8779 41.06L24.1834 40.873L24.9463 38.0398L25.6407 38.2268ZM24.0957 43.8879L24.1151 43.8931L23.7337 45.3097L23.3523 43.8931L23.3717 43.8879L23.4206 43.7062L23.7337 43.7905L24.0467 43.7062L24.0957 43.8879ZM21.0638 35.3936L20.3009 32.5604L20.9954 32.3734L21.7582 35.2066L21.0638 35.3936ZM19.5381 29.7272L19.1567 28.3106L17.7401 27.9292L17.9271 27.2348L19.7435 27.7238L20.2326 29.5403L19.5381 29.7272ZM14.9069 27.1664L12.0737 26.4036L12.2607 25.7091L15.0939 26.4719L14.9069 27.1664ZM9.24056 25.6407L6.40738 24.8779L6.59436 24.1834L9.42755 24.9463L9.24056 25.6407ZM3.57943 24.0957L3.5742 24.1151L2.15761 23.7337L3.5742 23.3523L3.57943 23.3717L3.76118 23.4206L3.67689 23.7337L3.76118 24.0467L3.57943 24.0957ZM6.40738 22.5894L9.24056 21.8266L9.42755 22.5211L6.59436 23.2839L6.40738 22.5894ZM12.0737 21.0638L14.9069 20.3009L15.0939 20.9954L12.2607 21.7582L12.0737 21.0638ZM17.7401 19.5381L19.1567 19.1567L19.5381 17.7401L20.2326 17.9271L19.7435 19.7435L17.9271 20.2326L17.7401 19.5381ZM20.3009 14.9069L21.0638 12.0737L21.7582 12.2607L20.9954 15.0939L20.3009 14.9069ZM21.8266 9.24056L22.5894 6.40738L23.2839 6.59436L22.5211 9.42755L21.8266 9.24056Z" fill="white" fill-opacity="0.9"/>
<path d="M94.5348 63.8912L94.6096 64.1692L94.8876 64.244L97.3279 64.901C97.5945 64.9728 97.8689 64.8149 97.9407 64.5482L101.856 65.6023C101.784 65.869 101.942 66.1433 102.208 66.2151L102.856 66.3894L102.208 66.5636C101.942 66.6354 101.784 66.9098 101.856 67.1764L97.9407 68.2305C97.8689 67.9639 97.5945 67.8059 97.3279 67.8777L94.8876 68.5348L94.6096 68.6096L94.5348 68.8876L93.8777 71.3279C93.8059 71.5945 93.9639 71.8689 94.2305 71.9407L93.1764 75.8557C92.9098 75.7839 92.6354 75.9418 92.5636 76.2085L92.3894 76.8556L92.2151 76.2085C92.1433 75.9418 91.869 75.7839 91.6023 75.8557L90.5482 71.9407C90.8149 71.8689 90.9728 71.5945 90.901 71.3279L90.244 68.8876L90.1692 68.6096L89.8912 68.5348L87.4509 67.8777C87.1842 67.8059 86.9099 67.9639 86.8381 68.2305L82.9231 67.1764C82.9949 66.9098 82.8369 66.6354 82.5703 66.5636L81.9232 66.3894L82.5703 66.2151C82.8369 66.1433 82.9949 65.869 82.9231 65.6023L86.8381 64.5482C86.9099 64.8149 87.1842 64.9728 87.4509 64.901L89.8912 64.244L90.1692 64.1692L90.244 63.8912L90.901 61.4509C90.9728 61.1842 90.8149 60.9099 90.5482 60.8381L91.6023 56.9231C91.869 56.9949 92.1433 56.8369 92.2151 56.5703L92.3894 55.9232L92.5636 56.5703C92.6354 56.8369 92.9098 56.9949 93.1764 56.9231L94.2305 60.8381C93.9639 60.9099 93.8059 61.1842 93.8777 61.4509L94.5348 63.8912Z" stroke="white" stroke-linecap="round" stroke-dasharray="4 4"/>
</svg>
